<?xml version="1.0" encoding="UTF-8" standalone="no"?>
<!DOCTYPE svg PUBLIC "-//W3C//DTD SVG 1.1//EN"
 "http://www.w3.org/Graphics/SVG/1.1/DTD/svg11.dtd">
<!-- Generated by graphviz version 12.2.1 (20241206.2353)
 -->
<!-- Title: build_list:0 Pages: 1 -->
<svg width="1565pt" height="573pt"
 viewBox="0.00 0.00 1565.00 573.00" xmlns="http://www.w3.org/2000/svg" xmlns:xlink="http://www.w3.org/1999/xlink">
<g id="graph0" class="graph" transform="scale(1 1) rotate(0) translate(4 569)">
<title>build_list:0</title>
<polygon fill="white" stroke="none" points="-4,4 -4,-569 1561,-569 1561,4 -4,4"/>
<g id="clust1" class="cluster">
<title>cluster_scc0</title>
<path fill="none" stroke="#7f7f7f" stroke-dasharray="5,2" d="M20,-8C20,-8 912,-8 912,-8 918,-8 924,-14 924,-20 924,-20 924,-399.5 924,-399.5 924,-405.5 918,-411.5 912,-411.5 912,-411.5 20,-411.5 20,-411.5 14,-411.5 8,-405.5 8,-399.5 8,-399.5 8,-20 8,-20 8,-14 14,-8 20,-8"/>
<text text-anchor="middle" x="466" y="-394.2" font-family="Times,serif" font-size="14.00">SCC 0 (cyclic, 6 insts)</text>
</g>
<g id="clust2" class="cluster">
<title>cluster_scc3</title>
<path fill="none" stroke="#7f7f7f" stroke-dasharray="5,2" d="M1241,-253.25C1241,-253.25 1537,-253.25 1537,-253.25 1543,-253.25 1549,-259.25 1549,-265.25 1549,-265.25 1549,-399.5 1549,-399.5 1549,-405.5 1543,-411.5 1537,-411.5 1537,-411.5 1241,-411.5 1241,-411.5 1235,-411.5 1229,-405.5 1229,-399.5 1229,-399.5 1229,-265.25 1229,-265.25 1229,-259.25 1235,-253.25 1241,-253.25"/>
<text text-anchor="middle" x="1389" y="-394.2" font-family="Times,serif" font-size="14.00">SCC 3 (cyclic, 2 insts)</text>
</g>
<!-- n7 -->
<g id="node1" class="node">
<title>n7</title>
<path fill="#ffd6a5" stroke="black" d="M858,-379C858,-379 422,-379 422,-379 416,-379 410,-373 410,-367 410,-367 410,-355 410,-355 410,-349 416,-343 422,-343 422,-343 858,-343 858,-343 864,-343 870,-349 870,-355 870,-355 870,-367 870,-367 870,-373 864,-379 858,-379"/>
<text text-anchor="middle" x="640" y="-357.88" font-family="monospace" font-size="10.00">scc 0 | [7] %7 = getelementptr inbounds %struct.Node, ptr %5, i32 0, i32 1</text>
</g>
<!-- n8 -->
<g id="node5" class="node">
<title>n8</title>
<path fill="#ffd6a5" stroke="black" d="M556,-297.25C556,-297.25 240,-297.25 240,-297.25 234,-297.25 228,-291.25 228,-285.25 228,-285.25 228,-273.25 228,-273.25 228,-267.25 234,-261.25 240,-261.25 240,-261.25 556,-261.25 556,-261.25 562,-261.25 568,-267.25 568,-273.25 568,-273.25 568,-285.25 568,-285.25 568,-291.25 562,-297.25 556,-297.25"/>
<text text-anchor="middle" x="398" y="-276.12" font-family="monospace" font-size="10.00">scc 0 | [8] store ptr %.01, ptr %7, align 8, !tbaa !11</text>
</g>
<!-- n7&#45;&gt;n8 -->
<g id="edge21" class="edge">
<title>n7&#45;&gt;n8</title>
<path fill="none" stroke="black" d="M587.19,-342.6C550.2,-330.41 500.58,-314.05 461.44,-301.16"/>
<polygon fill="black" stroke="black" points="462.73,-297.9 452.13,-298.09 460.54,-304.54 462.73,-297.9"/>
<text text-anchor="middle" x="542.49" y="-317.4" font-family="monospace" font-size="8.00">data</text>
</g>
<!-- n6 -->
<g id="node2" class="node">
<title>n6</title>
<path fill="#ffd6a5" stroke="black" d="M838,-52C838,-52 534,-52 534,-52 528,-52 522,-46 522,-40 522,-40 522,-28 522,-28 522,-22 528,-16 534,-16 534,-16 838,-16 838,-16 844,-16 850,-22 850,-28 850,-28 850,-40 850,-40 850,-46 844,-52 838,-52"/>
<text text-anchor="middle" x="686" y="-30.88" font-family="monospace" font-size="10.00">scc 0 | [6] store i64 %.0, ptr %6, align 8, !tbaa !5</text>
</g>
<!-- n6&#45;&gt;n6 -->
<g id="edge20" class="edge">
<title>n6&#45;&gt;n6</title>
<path fill="none" stroke="red" stroke-dasharray="5,2" d="M850.35,-39.5C861.33,-38.23 868,-36.4 868,-34 868,-32.58 865.65,-31.35 861.44,-30.33"/>
<polygon fill="red" stroke="red" points="862.28,-26.92 851.84,-28.75 861.14,-33.83 862.28,-26.92"/>
<text text-anchor="middle" x="877" y="-31.27" font-family="monospace" font-size="8.00">mem*</text>
</g>
<!-- n4 -->
<g id="node4" class="node">
<title>n4</title>
<path fill="#ffd6a5" stroke="black" d="M574,-215.5C574,-215.5 270,-215.5 270,-215.5 264,-215.5 258,-209.5 258,-203.5 258,-203.5 258,-191.5 258,-191.5 258,-185.5 264,-179.5 270,-179.5 270,-179.5 574,-179.5 574,-179.5 580,-179.5 586,-185.5 586,-191.5 586,-191.5 586,-203.5 586,-203.5 586,-209.5 580,-215.5 574,-215.5"/>
<text text-anchor="middle" x="422" y="-194.38" font-family="monospace" font-size="10.00">scc 0 | [4] %5 = call ptr @malloc(i64 noundef 16) #6</text>
</g>
<!-- n6&#45;&gt;n4 -->
<g id="edge19" class="edge">
<title>n6&#45;&gt;n4</title>
<path fill="none" stroke="red" d="M561.02,-52.47C506.59,-62.72 451.18,-77.66 433.5,-97.75 416.86,-116.66 415.45,-146.11 417.32,-167.94"/>
<polygon fill="red" stroke="red" points="413.82,-168.12 418.45,-177.66 420.78,-167.32 413.82,-168.12"/>
<text text-anchor="middle" x="440.25" y="-113.03" font-family="monospace" font-size="8.00">mem</text>
</g>
<!-- n5 -->
<g id="node3" class="node">
<title>n5</title>
<path fill="#ffd6a5" stroke="black" d="M904,-133.75C904,-133.75 468,-133.75 468,-133.75 462,-133.75 456,-127.75 456,-121.75 456,-121.75 456,-109.75 456,-109.75 456,-103.75 462,-97.75 468,-97.75 468,-97.75 904,-97.75 904,-97.75 910,-97.75 916,-103.75 916,-109.75 916,-109.75 916,-121.75 916,-121.75 916,-127.75 910,-133.75 904,-133.75"/>
<text text-anchor="middle" x="686" y="-112.62" font-family="monospace" font-size="10.00">scc 0 | [5] %6 = getelementptr inbounds %struct.Node, ptr %5, i32 0, i32 0</text>
</g>
<!-- n5&#45;&gt;n6 -->
<g id="edge18" class="edge">
<title>n5&#45;&gt;n6</title>
<path fill="none" stroke="black" d="M686,-97.45C686,-87.52 686,-74.81 686,-63.45"/>
<polygon fill="black" stroke="black" points="689.5,-63.78 686,-53.78 682.5,-63.78 689.5,-63.78"/>
<text text-anchor="middle" x="695" y="-72.15" font-family="monospace" font-size="8.00">data</text>
</g>
<!-- n4&#45;&gt;n7 -->
<g id="edge15" class="edge">
<title>n4&#45;&gt;n7</title>
<path fill="none" stroke="black" d="M551.85,-215.92C574.61,-224.13 596.32,-236.03 613,-253.25 633.14,-274.04 638.9,-307.58 640.25,-331.52"/>
<polygon fill="black" stroke="black" points="636.74,-331.32 640.55,-341.21 643.74,-331.1 636.74,-331.32"/>
<text text-anchor="middle" x="644.14" y="-276.52" font-family="monospace" font-size="8.00">data</text>
</g>
<!-- n4&#45;&gt;n6 -->
<g id="edge16" class="edge">
<title>n4&#45;&gt;n6</title>
<path fill="none" stroke="red" d="M409.68,-179.07C401.91,-166.98 392.61,-150.16 388.5,-133.75 384.62,-118.23 382.03,-112.38 388.5,-97.75 395.91,-80.99 402.37,-77.71 419,-70 436.83,-61.73 471.76,-55.12 510.63,-49.96"/>
<polygon fill="red" stroke="red" points="510.71,-53.48 520.18,-48.74 509.82,-46.54 510.71,-53.48"/>
<text text-anchor="middle" x="395.25" y="-113.03" font-family="monospace" font-size="8.00">mem</text>
</g>
<!-- n4&#45;&gt;n5 -->
<g id="edge14" class="edge">
<title>n4&#45;&gt;n5</title>
<path fill="none" stroke="black" d="M479.61,-179.1C520.22,-166.83 574.79,-150.35 617.61,-137.41"/>
<polygon fill="black" stroke="black" points="618.5,-140.8 627.06,-134.55 616.48,-134.09 618.5,-140.8"/>
<text text-anchor="middle" x="578.81" y="-153.9" font-family="monospace" font-size="8.00">data</text>
</g>
<!-- n4&#45;&gt;n8 -->
<g id="edge17" class="edge">
<title>n4&#45;&gt;n8</title>
<path fill="none" stroke="red" d="M416.8,-215.77C413.79,-225.8 409.91,-238.67 406.46,-250.12"/>
<polygon fill="red" stroke="red" points="403.17,-248.91 403.64,-259.5 409.88,-250.93 403.17,-248.91"/>
<text text-anchor="middle" x="418.19" y="-235.65" font-family="monospace" font-size="8.00">mem</text>
</g>
<!-- n0 -->
<g id="node6" class="node">
<title>n0</title>
<path fill="#ffd6a5" stroke="black" d="M326,-133.75C326,-133.75 28,-133.75 28,-133.75 22,-133.75 16,-127.75 16,-121.75 16,-121.75 16,-109.75 16,-109.75 16,-103.75 22,-97.75 28,-97.75 28,-97.75 326,-97.75 326,-97.75 332,-97.75 338,-103.75 338,-109.75 338,-109.75 338,-121.75 338,-121.75 338,-127.75 332,-133.75 326,-133.75"/>
<text text-anchor="middle" x="177" y="-112.62" font-family="monospace" font-size="10.00">scc 0 | [0] %.01 = phi ptr [ null, %1 ], [ %5, %4 ]</text>
</g>
<!-- n4&#45;&gt;n0 -->
<g id="edge13" class="edge">
<title>n4&#45;&gt;n0</title>
<path fill="none" stroke="black" stroke-dasharray="5,2" d="M368.54,-179.1C331.09,-166.91 280.85,-150.55 241.23,-137.66"/>
<polygon fill="black" stroke="black" points="242.38,-134.35 231.79,-134.58 240.21,-141.01 242.38,-134.35"/>
<text text-anchor="middle" x="325.42" y="-153.9" font-family="monospace" font-size="8.00">data*</text>
</g>
<!-- n8&#45;&gt;n4 -->
<g id="edge22" class="edge">
<title>n8&#45;&gt;n4</title>
<path fill="none" stroke="red" d="M391.54,-260.82C389.38,-252.36 388.25,-242.18 391.5,-233.5 392.64,-230.46 394.18,-227.51 395.96,-224.69"/>
<polygon fill="red" stroke="red" points="398.59,-227.02 401.82,-216.93 393,-222.8 398.59,-227.02"/>
<text text-anchor="middle" x="398.25" y="-235.65" font-family="monospace" font-size="8.00">mem</text>
</g>
<!-- n8&#45;&gt;n8 -->
<g id="edge23" class="edge">
<title>n8&#45;&gt;n8</title>
<path fill="none" stroke="red" stroke-dasharray="5,2" d="M568.33,-284.69C579.34,-283.42 586,-281.61 586,-279.25 586,-277.85 583.65,-276.64 579.44,-275.63"/>
<polygon fill="red" stroke="red" points="580.26,-272.22 569.82,-274.06 579.13,-279.12 580.26,-272.22"/>
<text text-anchor="middle" x="595" y="-276.52" font-family="monospace" font-size="8.00">mem*</text>
</g>
<!-- n0&#45;&gt;n8 -->
<g id="edge1" class="edge">
<title>n0&#45;&gt;n8</title>
<path fill="none" stroke="black" d="M182.3,-134.17C189.79,-156.03 205.47,-193.34 231,-215.5 252.68,-234.32 280.56,-247.74 307.3,-257.2"/>
<polygon fill="black" stroke="black" points="305.84,-260.4 316.43,-260.28 308.08,-253.77 305.84,-260.4"/>
<text text-anchor="middle" x="240" y="-194.78" font-family="monospace" font-size="8.00">data</text>
</g>
<!-- n3 -->
<g id="node7" class="node">
<title>n3</title>
<path fill="#a0c4ff" stroke="black" d="M1033,-483.25C1033,-483.25 801,-483.25 801,-483.25 795,-483.25 789,-477.25 789,-471.25 789,-471.25 789,-459.25 789,-459.25 789,-453.25 795,-447.25 801,-447.25 801,-447.25 1033,-447.25 1033,-447.25 1039,-447.25 1045,-453.25 1045,-459.25 1045,-459.25 1045,-471.25 1045,-471.25 1045,-477.25 1039,-483.25 1033,-483.25"/>
<text text-anchor="middle" x="917" y="-462.12" font-family="monospace" font-size="10.00">scc 1 | [3] br i1 %3, label %4, label %9</text>
</g>
<!-- n3&#45;&gt;n7 -->
<g id="edge9" class="edge">
<title>n3&#45;&gt;n7</title>
<path fill="none" stroke="blue" d="M869.7,-446.79C822.09,-429.22 748.61,-402.09 697.63,-383.27"/>
<polygon fill="blue" stroke="blue" points="699.12,-380.09 688.53,-379.91 696.7,-386.66 699.12,-380.09"/>
<text text-anchor="middle" x="828.5" y="-421.65" font-family="monospace" font-size="8.00">ctrl</text>
</g>
<!-- n3&#45;&gt;n6 -->
<g id="edge8" class="edge">
<title>n3&#45;&gt;n6</title>
<path fill="none" stroke="blue" d="M920.53,-446.84C927.85,-409.17 944,-317.23 944,-239.38 944,-239.38 944,-239.38 944,-114.75 944,-86.5 886.82,-67.17 826.3,-54.63"/>
<polygon fill="blue" stroke="blue" points="827.35,-51.27 816.86,-52.74 825.98,-58.14 827.35,-51.27"/>
<text text-anchor="middle" x="953" y="-235.65" font-family="monospace" font-size="8.00">ctrl</text>
</g>
<!-- n3&#45;&gt;n5 -->
<g id="edge7" class="edge">
<title>n3&#45;&gt;n5</title>
<path fill="none" stroke="blue" d="M911.81,-447.06C906.18,-426.89 898,-392.33 898,-362 898,-362 898,-362 898,-196.5 898,-170.84 842.9,-150.62 788.88,-136.95"/>
<polygon fill="blue" stroke="blue" points="789.77,-133.57 779.22,-134.59 788.1,-140.37 789.77,-133.57"/>
<text text-anchor="middle" x="907" y="-276.52" font-family="monospace" font-size="8.00">ctrl</text>
</g>
<!-- n3&#45;&gt;n4 -->
<g id="edge6" class="edge">
<title>n3&#45;&gt;n4</title>
<path fill="none" stroke="blue" d="M788.65,-462.91C657.64,-460.25 463.79,-452.38 393,-429.25 332.25,-409.4 270.95,-403.87 219,-297.25 210.43,-279.67 207.11,-268.77 219,-253.25 230.14,-238.71 263.73,-227.16 300.47,-218.48"/>
<polygon fill="blue" stroke="blue" points="300.97,-221.96 309.95,-216.33 299.42,-215.13 300.97,-221.96"/>
<text text-anchor="middle" x="242.62" y="-317.4" font-family="monospace" font-size="8.00">ctrl</text>
</g>
<!-- n3&#45;&gt;n8 -->
<g id="edge10" class="edge">
<title>n3&#45;&gt;n8</title>
<path fill="none" stroke="blue" d="M788.65,-460.44C639.35,-454.65 409.76,-441.03 383,-411.5 357.74,-383.62 371.01,-337.58 383.81,-308.1"/>
<polygon fill="blue" stroke="blue" points="386.97,-309.6 387.97,-299.06 380.61,-306.67 386.97,-309.6"/>
<text text-anchor="middle" x="392" y="-358.27" font-family="monospace" font-size="8.00">ctrl</text>
</g>
<!-- n9 -->
<g id="node9" class="node">
<title>n9</title>
<path fill="#ffadad" stroke="black" d="M1458,-379C1458,-379 1250,-379 1250,-379 1244,-379 1238,-373 1238,-367 1238,-367 1238,-355 1238,-355 1238,-349 1244,-343 1250,-343 1250,-343 1458,-343 1458,-343 1464,-343 1470,-349 1470,-355 1470,-355 1470,-367 1470,-367 1470,-373 1464,-379 1458,-379"/>
<text text-anchor="middle" x="1354" y="-357.88" font-family="monospace" font-size="10.00">scc 3 | [9] %8 = add nsw i64 %.0, &#45;1</text>
</g>
<!-- n3&#45;&gt;n9 -->
<g id="edge11" class="edge">
<title>n3&#45;&gt;n9</title>
<path fill="none" stroke="blue" d="M1045.47,-448.72C1102.31,-440.27 1169.61,-428.08 1229,-411.5 1254.91,-404.27 1282.82,-393.51 1305.69,-383.88"/>
<polygon fill="blue" stroke="blue" points="1306.94,-387.15 1314.75,-380 1304.18,-380.71 1306.94,-387.15"/>
<text text-anchor="middle" x="1204.81" y="-421.65" font-family="monospace" font-size="8.00">ctrl</text>
</g>
<!-- n10 -->
<g id="node11" class="node">
<title>n10</title>
<path fill="#bdb2ff" stroke="black" d="M1208,-379C1208,-379 976,-379 976,-379 970,-379 964,-373 964,-367 964,-367 964,-355 964,-355 964,-349 970,-343 976,-343 976,-343 1208,-343 1208,-343 1214,-343 1220,-349 1220,-355 1220,-355 1220,-367 1220,-367 1220,-373 1214,-379 1208,-379"/>
<text text-anchor="middle" x="1092" y="-357.88" font-family="monospace" font-size="10.00">scc 4 | [10] br label %2, !llvm.loop !12</text>
</g>
<!-- n3&#45;&gt;n10 -->
<g id="edge12" class="edge">
<title>n3&#45;&gt;n10</title>
<path fill="none" stroke="blue" d="M946.69,-446.9C975.85,-429.86 1020.52,-403.76 1052.64,-385"/>
<polygon fill="blue" stroke="blue" points="1053.99,-388.26 1060.86,-380.19 1050.46,-382.22 1053.99,-388.26"/>
<text text-anchor="middle" x="997.83" y="-421.65" font-family="monospace" font-size="8.00">ctrl</text>
</g>
<!-- n2 -->
<g id="node8" class="node">
<title>n2</title>
<path fill="#caffbf" stroke="black" d="M1311,-565C1311,-565 1103,-565 1103,-565 1097,-565 1091,-559 1091,-553 1091,-553 1091,-541 1091,-541 1091,-535 1097,-529 1103,-529 1103,-529 1311,-529 1311,-529 1317,-529 1323,-535 1323,-541 1323,-541 1323,-553 1323,-553 1323,-559 1317,-565 1311,-565"/>
<text text-anchor="middle" x="1207" y="-543.88" font-family="monospace" font-size="10.00">scc 2 | [2] %3 = icmp sgt i64 %.0, 0</text>
</g>
<!-- n2&#45;&gt;n3 -->
<g id="edge5" class="edge">
<title>n2&#45;&gt;n3</title>
<path fill="none" stroke="black" d="M1143.72,-528.6C1098.9,-516.27 1038.61,-499.69 991.47,-486.73"/>
<polygon fill="black" stroke="black" points="992.43,-483.36 981.86,-484.09 990.57,-490.11 992.43,-483.36"/>
<text text-anchor="middle" x="1088.36" y="-503.4" font-family="monospace" font-size="8.00">data</text>
</g>
<!-- n1 -->
<g id="node10" class="node">
<title>n1</title>
<path fill="#ffadad" stroke="black" d="M1529,-297.25C1529,-297.25 1249,-297.25 1249,-297.25 1243,-297.25 1237,-291.25 1237,-285.25 1237,-285.25 1237,-273.25 1237,-273.25 1237,-267.25 1243,-261.25 1249,-261.25 1249,-261.25 1529,-261.25 1529,-261.25 1535,-261.25 1541,-267.25 1541,-273.25 1541,-273.25 1541,-285.25 1541,-285.25 1541,-291.25 1535,-297.25 1529,-297.25"/>
<text text-anchor="middle" x="1389" y="-276.12" font-family="monospace" font-size="10.00">scc 3 | [1] %.0 = phi i64 [ %0, %1 ], [ %8, %4 ]</text>
</g>
<!-- n9&#45;&gt;n1 -->
<g id="edge24" class="edge">
<title>n9&#45;&gt;n1</title>
<path fill="none" stroke="black" stroke-dasharray="5,2" d="M1345.88,-342.78C1343.01,-334.18 1341.4,-323.81 1345.5,-315.25 1347.13,-311.84 1349.28,-308.66 1351.74,-305.71"/>
<polygon fill="black" stroke="black" points="1354.2,-308.2 1358.82,-298.66 1349.26,-303.24 1354.2,-308.2"/>
<text text-anchor="middle" x="1356.75" y="-317.4" font-family="monospace" font-size="8.00">data*</text>
</g>
<!-- n1&#45;&gt;n6 -->
<g id="edge3" class="edge">
<title>n1&#45;&gt;n6</title>
<path fill="none" stroke="black" d="M1361.53,-261.05C1295.1,-220.35 1119.3,-117.97 958,-70 927.25,-60.86 893.84,-54.1 861.31,-49.11"/>
<polygon fill="black" stroke="black" points="862.21,-45.71 851.81,-47.71 861.19,-52.63 862.21,-45.71"/>
<text text-anchor="middle" x="1189.76" y="-153.9" font-family="monospace" font-size="8.00">data</text>
</g>
<!-- n1&#45;&gt;n2 -->
<g id="edge4" class="edge">
<title>n1&#45;&gt;n2</title>
<path fill="none" stroke="black" d="M1429.73,-297.66C1448.33,-307.93 1468.51,-322.9 1479,-343 1493.08,-369.99 1495.06,-385.64 1479,-411.5 1441.05,-472.61 1366.19,-506.79 1304.6,-525.39"/>
<polygon fill="black" stroke="black" points="1303.74,-522 1295.12,-528.15 1305.7,-528.72 1303.74,-522"/>
<text text-anchor="middle" x="1481.07" y="-421.65" font-family="monospace" font-size="8.00">data</text>
</g>
<!-- n1&#45;&gt;n9 -->
<g id="edge2" class="edge">
<title>n1&#45;&gt;n9</title>
<path fill="none" stroke="black" d="M1382.98,-297.43C1379.91,-305.83 1375.99,-316.04 1372,-325 1370.9,-327.48 1369.7,-330.02 1368.48,-332.56"/>
<polygon fill="black" stroke="black" points="1365.4,-330.88 1364.04,-341.39 1371.66,-334.02 1365.4,-330.88"/>
<text text-anchor="middle" x="1385.1" y="-317.4" font-family="monospace" font-size="8.00">data</text>
</g>
</g>
</svg>
