<?xml version="1.0" encoding="UTF-8" standalone="no"?>
<!DOCTYPE svg PUBLIC "-//W3C//DTD SVG 1.1//EN"
 "http://www.w3.org/Graphics/SVG/1.1/DTD/svg11.dtd">
<!-- Generated by graphviz version 12.2.1 (20241206.2353)
 -->
<!-- Title: partition_build_list:0 Pages: 1 -->
<svg width="255pt" height="238pt"
 viewBox="0.00 0.00 255.00 238.25" xmlns="http://www.w3.org/2000/svg" xmlns:xlink="http://www.w3.org/1999/xlink">
<g id="graph0" class="graph" transform="scale(1 1) rotate(0) translate(4 234.25)">
<title>partition_build_list:0</title>
<polygon fill="white" stroke="none" points="-4,4 -4,-234.25 251,-234.25 251,4 -4,4"/>
<!-- scc0 -->
<g id="node1" class="node">
<title>scc0</title>
<path fill="#a0c4ff" stroke="black" d="M100,-138.25C100,-138.25 12,-138.25 12,-138.25 6,-138.25 0,-132.25 0,-126.25 0,-126.25 0,-104 0,-104 0,-98 6,-92 12,-92 12,-92 100,-92 100,-92 106,-92 112,-98 112,-104 112,-104 112,-126.25 112,-126.25 112,-132.25 106,-138.25 100,-138.25"/>
<text text-anchor="middle" x="56" y="-124.75" font-family="monospace" font-size="10.00">SCC 0 (cyclic)</text>
<text text-anchor="middle" x="56" y="-112" font-family="monospace" font-size="10.00">6 insts, cost=34</text>
<text text-anchor="middle" x="56" y="-99.25" font-family="monospace" font-size="10.00">stage 0</text>
</g>
<!-- scc1 -->
<g id="node2" class="node">
<title>scc1</title>
<path fill="#ffadad" stroke="black" d="M224,-46.25C224,-46.25 142,-46.25 142,-46.25 136,-46.25 130,-40.25 130,-34.25 130,-34.25 130,-12 130,-12 130,-6 136,0 142,0 142,0 224,0 224,0 230,0 236,-6 236,-12 236,-12 236,-34.25 236,-34.25 236,-40.25 230,-46.25 224,-46.25"/>
<text text-anchor="middle" x="183" y="-32.75" font-family="monospace" font-size="10.00">SCC 1</text>
<text text-anchor="middle" x="183" y="-20" font-family="monospace" font-size="10.00">1 insts, cost=1</text>
<text text-anchor="middle" x="183" y="-7.25" font-family="monospace" font-size="10.00">stage 1</text>
</g>
<!-- scc2 -->
<g id="node3" class="node">
<title>scc2</title>
<path fill="#ffadad" stroke="black" d="M224,-138.25C224,-138.25 142,-138.25 142,-138.25 136,-138.25 130,-132.25 130,-126.25 130,-126.25 130,-104 130,-104 130,-98 136,-92 142,-92 142,-92 224,-92 224,-92 230,-92 236,-98 236,-104 236,-104 236,-126.25 236,-126.25 236,-132.25 230,-138.25 224,-138.25"/>
<text text-anchor="middle" x="183" y="-124.75" font-family="monospace" font-size="10.00">SCC 2</text>
<text text-anchor="middle" x="183" y="-112" font-family="monospace" font-size="10.00">1 insts, cost=1</text>
<text text-anchor="middle" x="183" y="-99.25" font-family="monospace" font-size="10.00">stage 1</text>
</g>
<!-- scc2&#45;&gt;scc1 -->
<g id="edge1" class="edge">
<title>scc2&#45;&gt;scc1</title>
<path fill="none" stroke="#666666" d="M183,-91.88C183,-81.68 183,-69.36 183,-58.04"/>
<polygon fill="#666666" stroke="#666666" points="186.5,-58.25 183,-48.25 179.5,-58.25 186.5,-58.25"/>
<text text-anchor="middle" x="185.25" y="-66.4" font-family="monospace" font-size="8.00">d</text>
</g>
<!-- scc3 -->
<g id="node4" class="node">
<title>scc3</title>
<path fill="#a0c4ff" stroke="black" d="M111,-230.25C111,-230.25 29,-230.25 29,-230.25 23,-230.25 17,-224.25 17,-218.25 17,-218.25 17,-196 17,-196 17,-190 23,-184 29,-184 29,-184 111,-184 111,-184 117,-184 123,-190 123,-196 123,-196 123,-218.25 123,-218.25 123,-224.25 117,-230.25 111,-230.25"/>
<text text-anchor="middle" x="70" y="-216.75" font-family="monospace" font-size="10.00">SCC 3 (cyclic)</text>
<text text-anchor="middle" x="70" y="-204" font-family="monospace" font-size="10.00">2 insts, cost=1</text>
<text text-anchor="middle" x="70" y="-191.25" font-family="monospace" font-size="10.00">stage 0</text>
</g>
<!-- scc3&#45;&gt;scc0 -->
<g id="edge2" class="edge">
<title>scc3&#45;&gt;scc0</title>
<path fill="none" stroke="#666666" d="M66.54,-183.88C64.95,-173.68 63.04,-161.36 61.28,-150.04"/>
<polygon fill="#666666" stroke="#666666" points="64.75,-149.58 59.75,-140.24 57.83,-150.66 64.75,-149.58"/>
<text text-anchor="middle" x="65.67" y="-158.4" font-family="monospace" font-size="8.00">d</text>
</g>
<!-- scc3&#45;&gt;scc2 -->
<g id="edge3" class="edge">
<title>scc3&#45;&gt;scc2</title>
<path fill="none" stroke="darkgreen" stroke-width="2" d="M98.22,-183.65C112.25,-172.48 129.4,-158.82 144.6,-146.71"/>
<polygon fill="darkgreen" stroke="darkgreen" stroke-width="2" points="146.74,-149.48 152.38,-140.51 142.37,-144.01 146.74,-149.48"/>
<text text-anchor="middle" x="132.14" y="-158.4" font-family="monospace" font-size="8.00">d</text>
</g>
<!-- scc4 -->
<g id="node5" class="node">
<title>scc4</title>
<path fill="#a0c4ff" stroke="black" d="M235,-230.25C235,-230.25 153,-230.25 153,-230.25 147,-230.25 141,-224.25 141,-218.25 141,-218.25 141,-196 141,-196 141,-190 147,-184 153,-184 153,-184 235,-184 235,-184 241,-184 247,-190 247,-196 247,-196 247,-218.25 247,-218.25 247,-224.25 241,-230.25 235,-230.25"/>
<text text-anchor="middle" x="194" y="-216.75" font-family="monospace" font-size="10.00">SCC 4</text>
<text text-anchor="middle" x="194" y="-204" font-family="monospace" font-size="10.00">1 insts, cost=1</text>
<text text-anchor="middle" x="194" y="-191.25" font-family="monospace" font-size="10.00">stage 0</text>
</g>
</g>
</svg>
