<?xml version="1.0" encoding="UTF-8" standalone="no"?>
<!DOCTYPE svg PUBLIC "-//W3C//DTD SVG 1.1//EN"
 "http://www.w3.org/Graphics/SVG/1.1/DTD/svg11.dtd">
<!-- Generated by graphviz version 12.2.1 (20241206.2353)
 -->
<!-- Title: sum_list:0 Pages: 1 -->
<svg width="1334pt" height="532pt"
 viewBox="0.00 0.00 1334.00 531.75" xmlns="http://www.w3.org/2000/svg" xmlns:xlink="http://www.w3.org/1999/xlink">
<g id="graph0" class="graph" transform="scale(1 1) rotate(0) translate(4 527.75)">
<title>sum_list:0</title>
<polygon fill="white" stroke="none" points="-4,4 -4,-527.75 1330,-527.75 1330,4 -4,4"/>
<g id="clust1" class="cluster">
<title>cluster_scc0</title>
<path fill="none" stroke="#7f7f7f" stroke-dasharray="5,2" d="M443,-8C443,-8 739,-8 739,-8 745,-8 751,-14 751,-20 751,-20 751,-154.25 751,-154.25 751,-160.25 745,-166.25 739,-166.25 739,-166.25 443,-166.25 443,-166.25 437,-166.25 431,-160.25 431,-154.25 431,-154.25 431,-20 431,-20 431,-14 437,-8 443,-8"/>
<text text-anchor="middle" x="591" y="-148.95" font-family="Times,serif" font-size="14.00">SCC 0 (cyclic, 2 insts)</text>
</g>
<g id="clust2" class="cluster">
<title>cluster_scc5</title>
<path fill="none" stroke="#7f7f7f" stroke-dasharray="5,2" d="M20,-275.75C20,-275.75 478,-275.75 478,-275.75 484,-275.75 490,-281.75 490,-287.75 490,-287.75 490,-503.75 490,-503.75 490,-509.75 484,-515.75 478,-515.75 478,-515.75 20,-515.75 20,-515.75 14,-515.75 8,-509.75 8,-503.75 8,-503.75 8,-287.75 8,-287.75 8,-281.75 14,-275.75 20,-275.75"/>
<text text-anchor="middle" x="249" y="-498.45" font-family="Times,serif" font-size="14.00">SCC 5 (cyclic, 3 insts)</text>
</g>
<!-- n6 -->
<g id="node1" class="node">
<title>n6</title>
<path fill="#ffd6a5" stroke="black" d="M691,-133.75C691,-133.75 477,-133.75 477,-133.75 471,-133.75 465,-127.75 465,-121.75 465,-121.75 465,-109.75 465,-109.75 465,-103.75 471,-97.75 477,-97.75 477,-97.75 691,-97.75 691,-97.75 697,-97.75 703,-103.75 703,-109.75 703,-109.75 703,-121.75 703,-121.75 703,-127.75 697,-133.75 691,-133.75"/>
<text text-anchor="middle" x="584" y="-112.62" font-family="monospace" font-size="10.00">scc 0 | [6] %7 = add nsw i64 %.01, %6</text>
</g>
<!-- n0 -->
<g id="node2" class="node">
<title>n0</title>
<path fill="#ffd6a5" stroke="black" d="M731,-52C731,-52 451,-52 451,-52 445,-52 439,-46 439,-40 439,-40 439,-28 439,-28 439,-22 445,-16 451,-16 451,-16 731,-16 731,-16 737,-16 743,-22 743,-28 743,-28 743,-40 743,-40 743,-46 737,-52 731,-52"/>
<text text-anchor="middle" x="591" y="-30.88" font-family="monospace" font-size="10.00">scc 0 | [0] %.01 = phi i64 [ 0, %1 ], [ %7, %4 ]</text>
</g>
<!-- n6&#45;&gt;n0 -->
<g id="edge14" class="edge">
<title>n6&#45;&gt;n0</title>
<path fill="none" stroke="black" stroke-dasharray="5,2" d="M567.09,-97.37C561.27,-89.27 556.99,-79.37 560.5,-70 561.64,-66.96 563.18,-64.01 564.96,-61.19"/>
<polygon fill="black" stroke="black" points="567.59,-63.52 570.82,-53.43 562,-59.3 567.59,-63.52"/>
<text text-anchor="middle" x="571.75" y="-72.15" font-family="monospace" font-size="8.00">data*</text>
</g>
<!-- n0&#45;&gt;n6 -->
<g id="edge1" class="edge">
<title>n0&#45;&gt;n6</title>
<path fill="none" stroke="black" d="M589.48,-52.27C588.61,-62.19 587.5,-74.9 586.5,-86.27"/>
<polygon fill="black" stroke="black" points="583.04,-85.67 585.65,-95.94 590.01,-86.28 583.04,-85.67"/>
<text text-anchor="middle" x="596.92" y="-72.15" font-family="monospace" font-size="8.00">data</text>
</g>
<!-- n5 -->
<g id="node3" class="node">
<title>n5</title>
<path fill="#a0c4ff" stroke="black" d="M923,-238C923,-238 619,-238 619,-238 613,-238 607,-232 607,-226 607,-226 607,-214 607,-214 607,-208 613,-202 619,-202 619,-202 923,-202 923,-202 929,-202 935,-208 935,-214 935,-214 935,-226 935,-226 935,-232 929,-238 923,-238"/>
<text text-anchor="middle" x="771" y="-216.88" font-family="monospace" font-size="10.00">scc 1 | [5] %6 = load i64, ptr %5, align 8, !tbaa !5</text>
</g>
<!-- n5&#45;&gt;n6 -->
<g id="edge13" class="edge">
<title>n5&#45;&gt;n6</title>
<path fill="none" stroke="black" d="M739.28,-201.65C707.98,-184.54 659.97,-158.29 625.62,-139.51"/>
<polygon fill="black" stroke="black" points="627.66,-136.63 617.21,-134.91 624.3,-142.78 627.66,-136.63"/>
<text text-anchor="middle" x="714.18" y="-176.4" font-family="monospace" font-size="8.00">data</text>
</g>
<!-- n4 -->
<g id="node4" class="node">
<title>n4</title>
<path fill="#caffbf" stroke="black" d="M992,-319.75C992,-319.75 550,-319.75 550,-319.75 544,-319.75 538,-313.75 538,-307.75 538,-307.75 538,-295.75 538,-295.75 538,-289.75 544,-283.75 550,-283.75 550,-283.75 992,-283.75 992,-283.75 998,-283.75 1004,-289.75 1004,-295.75 1004,-295.75 1004,-307.75 1004,-307.75 1004,-313.75 998,-319.75 992,-319.75"/>
<text text-anchor="middle" x="771" y="-298.62" font-family="monospace" font-size="10.00">scc 2 | [4] %5 = getelementptr inbounds %struct.Node, ptr %.0, i32 0, i32 0</text>
</g>
<!-- n4&#45;&gt;n5 -->
<g id="edge12" class="edge">
<title>n4&#45;&gt;n5</title>
<path fill="none" stroke="black" d="M771,-283.45C771,-273.52 771,-260.81 771,-249.45"/>
<polygon fill="black" stroke="black" points="774.5,-249.78 771,-239.78 767.5,-249.78 774.5,-249.78"/>
<text text-anchor="middle" x="780" y="-258.15" font-family="monospace" font-size="8.00">data</text>
</g>
<!-- n3 -->
<g id="node5" class="node">
<title>n3</title>
<path fill="#ffadad" stroke="black" d="M750,-401.5C750,-401.5 512,-401.5 512,-401.5 506,-401.5 500,-395.5 500,-389.5 500,-389.5 500,-377.5 500,-377.5 500,-371.5 506,-365.5 512,-365.5 512,-365.5 750,-365.5 750,-365.5 756,-365.5 762,-371.5 762,-377.5 762,-377.5 762,-389.5 762,-389.5 762,-395.5 756,-401.5 750,-401.5"/>
<text text-anchor="middle" x="631" y="-380.38" font-family="monospace" font-size="10.00">scc 3 | [3] br i1 %3, label %4, label %10</text>
</g>
<!-- n3&#45;&gt;n6 -->
<g id="edge8" class="edge">
<title>n3&#45;&gt;n6</title>
<path fill="none" stroke="blue" d="M582.34,-365.1C562.05,-355.15 540.56,-340.44 529,-319.75 496.65,-261.86 537.88,-183.95 564.57,-143.55"/>
<polygon fill="blue" stroke="blue" points="567.4,-145.61 570.14,-135.37 561.62,-141.67 567.4,-145.61"/>
<text text-anchor="middle" x="526.97" y="-258.15" font-family="monospace" font-size="8.00">ctrl</text>
</g>
<!-- n3&#45;&gt;n5 -->
<g id="edge7" class="edge">
<title>n3&#45;&gt;n5</title>
<path fill="none" stroke="blue" d="M762.4,-378.54C859.82,-372.51 981.03,-357.4 1013,-319.75 1047.43,-279.2 999.59,-255.09 937.61,-240.85"/>
<polygon fill="blue" stroke="blue" points="938.71,-237.51 928.2,-238.8 937.22,-244.35 938.71,-237.51"/>
<text text-anchor="middle" x="1033.5" y="-299.02" font-family="monospace" font-size="8.00">ctrl</text>
</g>
<!-- n3&#45;&gt;n4 -->
<g id="edge6" class="edge">
<title>n3&#45;&gt;n4</title>
<path fill="none" stroke="blue" d="M661.38,-365.2C681.74,-353.6 708.78,-338.2 730.9,-325.59"/>
<polygon fill="blue" stroke="blue" points="732.41,-328.76 739.37,-320.77 728.94,-322.68 732.41,-328.76"/>
<text text-anchor="middle" x="718.38" y="-339.9" font-family="monospace" font-size="8.00">ctrl</text>
</g>
<!-- n8 -->
<g id="node7" class="node">
<title>n8</title>
<path fill="#fdffb6" stroke="black" d="M470,-483.25C470,-483.25 160,-483.25 160,-483.25 154,-483.25 148,-477.25 148,-471.25 148,-471.25 148,-459.25 148,-459.25 148,-453.25 154,-447.25 160,-447.25 160,-447.25 470,-447.25 470,-447.25 476,-447.25 482,-453.25 482,-459.25 482,-459.25 482,-471.25 482,-471.25 482,-477.25 476,-483.25 470,-483.25"/>
<text text-anchor="middle" x="315" y="-462.12" font-family="monospace" font-size="10.00">scc 5 | [8] %9 = load ptr, ptr %8, align 8, !tbaa !11</text>
</g>
<!-- n3&#45;&gt;n8 -->
<g id="edge10" class="edge">
<title>n3&#45;&gt;n8</title>
<path fill="none" stroke="blue" d="M534.85,-401.93C509.42,-407.06 482.07,-413.05 457,-419.5 430.4,-426.35 401.41,-435.22 376.6,-443.26"/>
<polygon fill="blue" stroke="blue" points="375.74,-439.86 367.32,-446.29 377.92,-446.51 375.74,-439.86"/>
<text text-anchor="middle" x="466" y="-421.65" font-family="monospace" font-size="8.00">ctrl</text>
</g>
<!-- n7 -->
<g id="node8" class="node">
<title>n7</title>
<path fill="#fdffb6" stroke="black" d="M470,-319.75C470,-319.75 28,-319.75 28,-319.75 22,-319.75 16,-313.75 16,-307.75 16,-307.75 16,-295.75 16,-295.75 16,-289.75 22,-283.75 28,-283.75 28,-283.75 470,-283.75 470,-283.75 476,-283.75 482,-289.75 482,-295.75 482,-295.75 482,-307.75 482,-307.75 482,-313.75 476,-319.75 470,-319.75"/>
<text text-anchor="middle" x="249" y="-298.62" font-family="monospace" font-size="10.00">scc 5 | [7] %8 = getelementptr inbounds %struct.Node, ptr %.0, i32 0, i32 1</text>
</g>
<!-- n3&#45;&gt;n7 -->
<g id="edge9" class="edge">
<title>n3&#45;&gt;n7</title>
<path fill="none" stroke="blue" d="M512.04,-365.02C481.3,-359.94 448.32,-353.99 418,-347.5 385.62,-340.57 350.14,-331.42 320.09,-323.2"/>
<polygon fill="blue" stroke="blue" points="321.31,-319.9 310.74,-320.62 319.45,-326.65 321.31,-319.9"/>
<text text-anchor="middle" x="427" y="-339.9" font-family="monospace" font-size="8.00">ctrl</text>
</g>
<!-- n9 -->
<g id="node10" class="node">
<title>n9</title>
<path fill="#9bf6ff" stroke="black" d="M1314,-319.75C1314,-319.75 1088,-319.75 1088,-319.75 1082,-319.75 1076,-313.75 1076,-307.75 1076,-307.75 1076,-295.75 1076,-295.75 1076,-289.75 1082,-283.75 1088,-283.75 1088,-283.75 1314,-283.75 1314,-283.75 1320,-283.75 1326,-289.75 1326,-295.75 1326,-295.75 1326,-307.75 1326,-307.75 1326,-313.75 1320,-319.75 1314,-319.75"/>
<text text-anchor="middle" x="1201" y="-298.62" font-family="monospace" font-size="10.00">scc 6 | [9] br label %2, !llvm.loop !12</text>
</g>
<!-- n3&#45;&gt;n9 -->
<g id="edge11" class="edge">
<title>n3&#45;&gt;n9</title>
<path fill="none" stroke="blue" d="M762.03,-378.85C846.08,-374.74 957.2,-366.02 1054,-347.5 1083.59,-341.84 1115.68,-332.46 1142.31,-323.75"/>
<polygon fill="blue" stroke="blue" points="1143.17,-327.16 1151.55,-320.68 1140.96,-320.51 1143.17,-327.16"/>
<text text-anchor="middle" x="1104.05" y="-339.9" font-family="monospace" font-size="8.00">ctrl</text>
</g>
<!-- n2 -->
<g id="node6" class="node">
<title>n2</title>
<path fill="#bdb2ff" stroke="black" d="M736,-483.25C736,-483.25 516,-483.25 516,-483.25 510,-483.25 504,-477.25 504,-471.25 504,-471.25 504,-459.25 504,-459.25 504,-453.25 510,-447.25 516,-447.25 516,-447.25 736,-447.25 736,-447.25 742,-447.25 748,-453.25 748,-459.25 748,-459.25 748,-471.25 748,-471.25 748,-477.25 742,-483.25 736,-483.25"/>
<text text-anchor="middle" x="626" y="-462.12" font-family="monospace" font-size="10.00">scc 4 | [2] %3 = icmp ne ptr %.0, null</text>
</g>
<!-- n2&#45;&gt;n3 -->
<g id="edge5" class="edge">
<title>n2&#45;&gt;n3</title>
<path fill="none" stroke="black" d="M627.08,-446.95C627.71,-437.02 628.5,-424.31 629.22,-412.95"/>
<polygon fill="black" stroke="black" points="632.69,-413.48 629.82,-403.28 625.7,-413.04 632.69,-413.48"/>
<text text-anchor="middle" x="637.8" y="-421.65" font-family="monospace" font-size="8.00">data</text>
</g>
<!-- n1 -->
<g id="node9" class="node">
<title>n1</title>
<path fill="#fdffb6" stroke="black" d="M470,-401.5C470,-401.5 190,-401.5 190,-401.5 184,-401.5 178,-395.5 178,-389.5 178,-389.5 178,-377.5 178,-377.5 178,-371.5 184,-365.5 190,-365.5 190,-365.5 470,-365.5 470,-365.5 476,-365.5 482,-371.5 482,-377.5 482,-377.5 482,-389.5 482,-389.5 482,-395.5 476,-401.5 470,-401.5"/>
<text text-anchor="middle" x="330" y="-380.38" font-family="monospace" font-size="10.00">scc 5 | [1] %.0 = phi ptr [ %0, %1 ], [ %9, %4 ]</text>
</g>
<!-- n8&#45;&gt;n1 -->
<g id="edge16" class="edge">
<title>n8&#45;&gt;n1</title>
<path fill="none" stroke="black" stroke-dasharray="5,2" d="M318.25,-446.95C320.12,-437.02 322.51,-424.31 324.65,-412.95"/>
<polygon fill="black" stroke="black" points="328.06,-413.73 326.47,-403.26 321.18,-412.44 328.06,-413.73"/>
<text text-anchor="middle" x="334.65" y="-421.65" font-family="monospace" font-size="8.00">data*</text>
</g>
<!-- n7&#45;&gt;n8 -->
<g id="edge15" class="edge">
<title>n7&#45;&gt;n8</title>
<path fill="none" stroke="black" d="M209.42,-320.22C173.4,-338.67 128.96,-369.46 151,-401.5 163.92,-420.28 183.28,-433.44 204.22,-442.66"/>
<polygon fill="black" stroke="black" points="202.62,-445.79 213.2,-446.31 205.26,-439.31 202.62,-445.79"/>
<text text-anchor="middle" x="160" y="-380.77" font-family="monospace" font-size="8.00">data</text>
</g>
<!-- n1&#45;&gt;n4 -->
<g id="edge3" class="edge">
<title>n1&#45;&gt;n4</title>
<path fill="none" stroke="black" d="M426.51,-365.05C496.43,-352.4 591,-335.3 663.37,-322.21"/>
<polygon fill="black" stroke="black" points="663.62,-325.73 672.84,-320.5 662.38,-318.84 663.62,-325.73"/>
<text text-anchor="middle" x="585.9" y="-339.9" font-family="monospace" font-size="8.00">data</text>
</g>
<!-- n1&#45;&gt;n2 -->
<g id="edge4" class="edge">
<title>n1&#45;&gt;n2</title>
<path fill="none" stroke="black" d="M408.73,-401.99C431.48,-407.31 456.29,-413.38 479,-419.5 506.05,-426.79 535.64,-435.62 561.13,-443.51"/>
<polygon fill="black" stroke="black" points="559.76,-446.75 570.34,-446.38 561.84,-440.07 559.76,-446.75"/>
<text text-anchor="middle" x="520.42" y="-421.65" font-family="monospace" font-size="8.00">data</text>
</g>
<!-- n1&#45;&gt;n7 -->
<g id="edge2" class="edge">
<title>n1&#45;&gt;n7</title>
<path fill="none" stroke="black" d="M312.42,-365.2C301.39,-354.33 286.96,-340.12 274.65,-328.01"/>
<polygon fill="black" stroke="black" points="277.2,-325.6 267.62,-321.08 272.29,-330.59 277.2,-325.6"/>
<text text-anchor="middle" x="303.35" y="-339.9" font-family="monospace" font-size="8.00">data</text>
</g>
</g>
</svg>
