<?xml version="1.0" encoding="UTF-8" standalone="no"?>
<!DOCTYPE svg PUBLIC "-//W3C//DTD SVG 1.1//EN"
 "http://www.w3.org/Graphics/SVG/1.1/DTD/svg11.dtd">
<!-- Generated by graphviz version 12.2.1 (20241206.2353)
 -->
<!-- Title: build_list:0 Pages: 1 -->
<svg width="1601pt" height="573pt"
 viewBox="0.00 0.00 1601.00 573.00" xmlns="http://www.w3.org/2000/svg" xmlns:xlink="http://www.w3.org/1999/xlink">
<g id="graph0" class="graph" transform="scale(1 1) rotate(0) translate(4 569)">
<title>build_list:0</title>
<polygon fill="white" stroke="none" points="-4,4 -4,-569 1597,-569 1597,4 -4,4"/>
<g id="clust1" class="cluster">
<title>cluster_scc0</title>
<path fill="none" stroke="#7f7f7f" stroke-dasharray="5,2" d="M20,-8C20,-8 912,-8 912,-8 918,-8 924,-14 924,-20 924,-20 924,-399.5 924,-399.5 924,-405.5 918,-411.5 912,-411.5 912,-411.5 20,-411.5 20,-411.5 14,-411.5 8,-405.5 8,-399.5 8,-399.5 8,-20 8,-20 8,-14 14,-8 20,-8"/>
<text text-anchor="middle" x="466" y="-394.2" font-family="Times,serif" font-size="14.00">SCC 0 (cyclic, 6 insts)</text>
</g>
<g id="clust2" class="cluster">
<title>cluster_scc4</title>
<path fill="none" stroke="#7f7f7f" stroke-dasharray="5,2" d="M1247,-253.25C1247,-253.25 1543,-253.25 1543,-253.25 1549,-253.25 1555,-259.25 1555,-265.25 1555,-265.25 1555,-399.5 1555,-399.5 1555,-405.5 1549,-411.5 1543,-411.5 1543,-411.5 1247,-411.5 1247,-411.5 1241,-411.5 1235,-405.5 1235,-399.5 1235,-399.5 1235,-265.25 1235,-265.25 1235,-259.25 1241,-253.25 1247,-253.25"/>
<text text-anchor="middle" x="1395" y="-394.2" font-family="Times,serif" font-size="14.00">SCC 4 (cyclic, 2 insts)</text>
</g>
<!-- n8 -->
<g id="node1" class="node">
<title>n8</title>
<path fill="#ffd6a5" stroke="black" d="M818,-379C818,-379 382,-379 382,-379 376,-379 370,-373 370,-367 370,-367 370,-355 370,-355 370,-349 376,-343 382,-343 382,-343 818,-343 818,-343 824,-343 830,-349 830,-355 830,-355 830,-367 830,-367 830,-373 824,-379 818,-379"/>
<text text-anchor="middle" x="600" y="-357.88" font-family="monospace" font-size="10.00">scc 0 | [8] %8 = getelementptr inbounds %struct.Node, ptr %5, i32 0, i32 1</text>
</g>
<!-- n9 -->
<g id="node5" class="node">
<title>n9</title>
<path fill="#ffd6a5" stroke="black" d="M516,-297.25C516,-297.25 200,-297.25 200,-297.25 194,-297.25 188,-291.25 188,-285.25 188,-285.25 188,-273.25 188,-273.25 188,-267.25 194,-261.25 200,-261.25 200,-261.25 516,-261.25 516,-261.25 522,-261.25 528,-267.25 528,-273.25 528,-273.25 528,-285.25 528,-285.25 528,-291.25 522,-297.25 516,-297.25"/>
<text text-anchor="middle" x="358" y="-276.12" font-family="monospace" font-size="10.00">scc 0 | [9] store ptr %.01, ptr %8, align 8, !tbaa !11</text>
</g>
<!-- n8&#45;&gt;n9 -->
<g id="edge23" class="edge">
<title>n8&#45;&gt;n9</title>
<path fill="none" stroke="black" d="M547.19,-342.6C510.2,-330.41 460.58,-314.05 421.44,-301.16"/>
<polygon fill="black" stroke="black" points="422.73,-297.9 412.13,-298.09 420.54,-304.54 422.73,-297.9"/>
<text text-anchor="middle" x="502.49" y="-317.4" font-family="monospace" font-size="8.00">data</text>
</g>
<!-- n7 -->
<g id="node2" class="node">
<title>n7</title>
<path fill="#ffd6a5" stroke="black" d="M844,-52C844,-52 528,-52 528,-52 522,-52 516,-46 516,-40 516,-40 516,-28 516,-28 516,-22 522,-16 528,-16 528,-16 844,-16 844,-16 850,-16 856,-22 856,-28 856,-28 856,-40 856,-40 856,-46 850,-52 844,-52"/>
<text text-anchor="middle" x="686" y="-30.88" font-family="monospace" font-size="10.00">scc 0 | [7] store double %6, ptr %7, align 8, !tbaa !5</text>
</g>
<!-- n7&#45;&gt;n7 -->
<g id="edge22" class="edge">
<title>n7&#45;&gt;n7</title>
<path fill="none" stroke="red" stroke-dasharray="5,2" d="M856.33,-39.44C867.34,-38.17 874,-36.36 874,-34 874,-32.6 871.65,-31.39 867.44,-30.38"/>
<polygon fill="red" stroke="red" points="868.26,-26.97 857.82,-28.81 867.13,-33.87 868.26,-26.97"/>
<text text-anchor="middle" x="883" y="-31.27" font-family="monospace" font-size="8.00">mem*</text>
</g>
<!-- n4 -->
<g id="node4" class="node">
<title>n4</title>
<path fill="#ffd6a5" stroke="black" d="M564,-215.5C564,-215.5 260,-215.5 260,-215.5 254,-215.5 248,-209.5 248,-203.5 248,-203.5 248,-191.5 248,-191.5 248,-185.5 254,-179.5 260,-179.5 260,-179.5 564,-179.5 564,-179.5 570,-179.5 576,-185.5 576,-191.5 576,-191.5 576,-203.5 576,-203.5 576,-209.5 570,-215.5 564,-215.5"/>
<text text-anchor="middle" x="412" y="-194.38" font-family="monospace" font-size="10.00">scc 0 | [4] %5 = call ptr @malloc(i64 noundef 16) #6</text>
</g>
<!-- n7&#45;&gt;n4 -->
<g id="edge21" class="edge">
<title>n7&#45;&gt;n4</title>
<path fill="none" stroke="red" d="M515.58,-51.82C461.55,-61.24 412.02,-75.7 397.5,-97.75 383.69,-118.73 390.17,-147.61 398.38,-168.72"/>
<polygon fill="red" stroke="red" points="395.14,-170.04 402.28,-177.86 401.58,-167.29 395.14,-170.04"/>
<text text-anchor="middle" x="404.25" y="-113.03" font-family="monospace" font-size="8.00">mem</text>
</g>
<!-- n6 -->
<g id="node3" class="node">
<title>n6</title>
<path fill="#ffd6a5" stroke="black" d="M904,-133.75C904,-133.75 468,-133.75 468,-133.75 462,-133.75 456,-127.75 456,-121.75 456,-121.75 456,-109.75 456,-109.75 456,-103.75 462,-97.75 468,-97.75 468,-97.75 904,-97.75 904,-97.75 910,-97.75 916,-103.75 916,-109.75 916,-109.75 916,-121.75 916,-121.75 916,-127.75 910,-133.75 904,-133.75"/>
<text text-anchor="middle" x="686" y="-112.62" font-family="monospace" font-size="10.00">scc 0 | [6] %7 = getelementptr inbounds %struct.Node, ptr %5, i32 0, i32 0</text>
</g>
<!-- n6&#45;&gt;n7 -->
<g id="edge20" class="edge">
<title>n6&#45;&gt;n7</title>
<path fill="none" stroke="black" d="M686,-97.45C686,-87.52 686,-74.81 686,-63.45"/>
<polygon fill="black" stroke="black" points="689.5,-63.78 686,-53.78 682.5,-63.78 689.5,-63.78"/>
<text text-anchor="middle" x="695" y="-72.15" font-family="monospace" font-size="8.00">data</text>
</g>
<!-- n4&#45;&gt;n8 -->
<g id="edge16" class="edge">
<title>n4&#45;&gt;n8</title>
<path fill="none" stroke="black" d="M512.94,-215.94C535.25,-224.04 556.98,-235.89 573,-253.25 592.54,-274.42 598.43,-307.67 599.97,-331.43"/>
<polygon fill="black" stroke="black" points="596.47,-331.52 600.37,-341.37 603.47,-331.24 596.47,-331.52"/>
<text text-anchor="middle" x="603.75" y="-276.52" font-family="monospace" font-size="8.00">data</text>
</g>
<!-- n4&#45;&gt;n7 -->
<g id="edge17" class="edge">
<title>n4&#45;&gt;n7</title>
<path fill="none" stroke="red" d="M410.66,-179.34C409.94,-157.4 412.23,-119.65 433.5,-97.75 451.35,-79.37 502.95,-64.96 554.9,-54.61"/>
<polygon fill="red" stroke="red" points="555.34,-58.09 564.49,-52.75 554,-51.22 555.34,-58.09"/>
<text text-anchor="middle" x="440.25" y="-113.03" font-family="monospace" font-size="8.00">mem</text>
</g>
<!-- n4&#45;&gt;n6 -->
<g id="edge15" class="edge">
<title>n4&#45;&gt;n6</title>
<path fill="none" stroke="black" d="M471.79,-179.1C514.03,-166.8 570.82,-150.28 615.31,-137.33"/>
<polygon fill="black" stroke="black" points="616.26,-140.69 624.88,-134.54 614.3,-133.97 616.26,-140.69"/>
<text text-anchor="middle" x="574.4" y="-153.9" font-family="monospace" font-size="8.00">data</text>
</g>
<!-- n4&#45;&gt;n9 -->
<g id="edge18" class="edge">
<title>n4&#45;&gt;n9</title>
<path fill="none" stroke="red" d="M400.31,-215.77C393.23,-226.21 384.07,-239.75 376.08,-251.55"/>
<polygon fill="red" stroke="red" points="373.27,-249.45 370.57,-259.69 379.07,-253.37 373.27,-249.45"/>
<text text-anchor="middle" x="394.98" y="-235.65" font-family="monospace" font-size="8.00">mem</text>
</g>
<!-- n0 -->
<g id="node6" class="node">
<title>n0</title>
<path fill="#ffd6a5" stroke="black" d="M326,-133.75C326,-133.75 28,-133.75 28,-133.75 22,-133.75 16,-127.75 16,-121.75 16,-121.75 16,-109.75 16,-109.75 16,-103.75 22,-97.75 28,-97.75 28,-97.75 326,-97.75 326,-97.75 332,-97.75 338,-103.75 338,-109.75 338,-109.75 338,-121.75 338,-121.75 338,-127.75 332,-133.75 326,-133.75"/>
<text text-anchor="middle" x="177" y="-112.62" font-family="monospace" font-size="10.00">scc 0 | [0] %.01 = phi ptr [ null, %1 ], [ %5, %4 ]</text>
</g>
<!-- n4&#45;&gt;n0 -->
<g id="edge14" class="edge">
<title>n4&#45;&gt;n0</title>
<path fill="none" stroke="black" stroke-dasharray="5,2" d="M360.72,-179.1C324.8,-166.91 276.61,-150.55 238.6,-137.66"/>
<polygon fill="black" stroke="black" points="240.2,-134.5 229.61,-134.6 237.95,-141.13 240.2,-134.5"/>
<text text-anchor="middle" x="319.82" y="-153.9" font-family="monospace" font-size="8.00">data*</text>
</g>
<!-- n9&#45;&gt;n4 -->
<g id="edge24" class="edge">
<title>n9&#45;&gt;n4</title>
<path fill="none" stroke="red" d="M357.43,-261.06C357.87,-252.26 359.58,-241.71 364.5,-233.5 366.68,-229.86 369.4,-226.48 372.43,-223.37"/>
<polygon fill="red" stroke="red" points="374.69,-226.04 379.87,-216.8 370.06,-220.8 374.69,-226.04"/>
<text text-anchor="middle" x="371.25" y="-235.65" font-family="monospace" font-size="8.00">mem</text>
</g>
<!-- n9&#45;&gt;n9 -->
<g id="edge25" class="edge">
<title>n9&#45;&gt;n9</title>
<path fill="none" stroke="red" stroke-dasharray="5,2" d="M528.33,-284.69C539.34,-283.42 546,-281.61 546,-279.25 546,-277.85 543.65,-276.64 539.44,-275.63"/>
<polygon fill="red" stroke="red" points="540.26,-272.22 529.82,-274.06 539.13,-279.12 540.26,-272.22"/>
<text text-anchor="middle" x="555" y="-276.52" font-family="monospace" font-size="8.00">mem*</text>
</g>
<!-- n0&#45;&gt;n9 -->
<g id="edge1" class="edge">
<title>n0&#45;&gt;n9</title>
<path fill="none" stroke="black" d="M180.67,-133.88C186.1,-155.44 198.16,-192.42 221,-215.5 238.87,-233.56 262.9,-246.95 285.85,-256.61"/>
<polygon fill="black" stroke="black" points="284.3,-259.76 294.88,-260.23 286.9,-253.26 284.3,-259.76"/>
<text text-anchor="middle" x="230" y="-194.78" font-family="monospace" font-size="8.00">data</text>
</g>
<!-- n5 -->
<g id="node7" class="node">
<title>n5</title>
<path fill="#a0c4ff" stroke="black" d="M1328,-215.5C1328,-215.5 1090,-215.5 1090,-215.5 1084,-215.5 1078,-209.5 1078,-203.5 1078,-203.5 1078,-191.5 1078,-191.5 1078,-185.5 1084,-179.5 1090,-179.5 1090,-179.5 1328,-179.5 1328,-179.5 1334,-179.5 1340,-185.5 1340,-191.5 1340,-191.5 1340,-203.5 1340,-203.5 1340,-209.5 1334,-215.5 1328,-215.5"/>
<text text-anchor="middle" x="1209" y="-194.38" font-family="monospace" font-size="10.00">scc 1 | [5] %6 = sitofp i64 %.0 to double</text>
</g>
<!-- n5&#45;&gt;n7 -->
<g id="edge19" class="edge">
<title>n5&#45;&gt;n7</title>
<path fill="none" stroke="black" d="M1162.63,-179.13C1106.7,-158.47 1009.64,-123.53 925,-97.75 873.82,-82.16 815.78,-66.87 769.72,-55.28"/>
<polygon fill="black" stroke="black" points="770.6,-51.89 760.05,-52.86 768.9,-58.68 770.6,-51.89"/>
<text text-anchor="middle" x="1043.13" y="-113.03" font-family="monospace" font-size="8.00">data</text>
</g>
<!-- n3 -->
<g id="node8" class="node">
<title>n3</title>
<path fill="#caffbf" stroke="black" d="M1179,-483.25C1179,-483.25 941,-483.25 941,-483.25 935,-483.25 929,-477.25 929,-471.25 929,-471.25 929,-459.25 929,-459.25 929,-453.25 935,-447.25 941,-447.25 941,-447.25 1179,-447.25 1179,-447.25 1185,-447.25 1191,-453.25 1191,-459.25 1191,-459.25 1191,-471.25 1191,-471.25 1191,-477.25 1185,-483.25 1179,-483.25"/>
<text text-anchor="middle" x="1060" y="-462.12" font-family="monospace" font-size="10.00">scc 2 | [3] br i1 %3, label %4, label %10</text>
</g>
<!-- n3&#45;&gt;n8 -->
<g id="edge10" class="edge">
<title>n3&#45;&gt;n8</title>
<path fill="none" stroke="blue" d="M928.52,-447.9C894.92,-442.82 858.98,-436.59 826,-429.25 769.7,-416.73 706.92,-397.62 661.85,-382.97"/>
<polygon fill="blue" stroke="blue" points="663.1,-379.7 652.51,-379.91 660.92,-386.35 663.1,-379.7"/>
<text text-anchor="middle" x="835" y="-421.65" font-family="monospace" font-size="8.00">ctrl</text>
</g>
<!-- n3&#45;&gt;n7 -->
<g id="edge9" class="edge">
<title>n3&#45;&gt;n7</title>
<path fill="none" stroke="blue" d="M1191.39,-452.29C1336.96,-438.75 1552.27,-417.78 1559,-411.5 1588.83,-383.68 1575,-361.92 1575,-321.12 1575,-321.12 1575,-321.12 1575,-114.75 1575,-79.58 1127.88,-54.19 867.83,-42.39"/>
<polygon fill="blue" stroke="blue" points="868.02,-38.89 857.87,-41.94 867.7,-45.89 868.02,-38.89"/>
<text text-anchor="middle" x="1584" y="-235.65" font-family="monospace" font-size="8.00">ctrl</text>
</g>
<!-- n3&#45;&gt;n6 -->
<g id="edge8" class="edge">
<title>n3&#45;&gt;n6</title>
<path fill="none" stroke="blue" d="M981.98,-446.81C960.72,-438.94 939.12,-427.64 923,-411.5 906.35,-394.83 904,-385.56 904,-362 904,-362 904,-362 904,-196.5 904,-170.43 848.32,-150.34 793.24,-136.85"/>
<polygon fill="blue" stroke="blue" points="794.26,-133.49 783.73,-134.59 792.65,-140.3 794.26,-133.49"/>
<text text-anchor="middle" x="913" y="-276.52" font-family="monospace" font-size="8.00">ctrl</text>
</g>
<!-- n3&#45;&gt;n4 -->
<g id="edge6" class="edge">
<title>n3&#45;&gt;n4</title>
<path fill="none" stroke="blue" d="M928.57,-448.97C914.83,-444 901.65,-437.57 890,-429.25 853.75,-403.38 872.76,-372.04 839,-343 738.34,-256.39 688.44,-270.82 561,-233.5 542.88,-228.19 523.34,-223.14 504.56,-218.6"/>
<polygon fill="blue" stroke="blue" points="505.63,-215.25 495.09,-216.34 504,-222.06 505.63,-215.25"/>
<text text-anchor="middle" x="825.61" y="-317.4" font-family="monospace" font-size="8.00">ctrl</text>
</g>
<!-- n3&#45;&gt;n9 -->
<g id="edge11" class="edge">
<title>n3&#45;&gt;n9</title>
<path fill="none" stroke="blue" d="M928.63,-464.04C732.51,-462.34 381.92,-453.39 343,-411.5 317.25,-383.79 330.91,-337.31 343.88,-307.74"/>
<polygon fill="blue" stroke="blue" points="347.05,-309.23 348.1,-298.69 340.7,-306.27 347.05,-309.23"/>
<text text-anchor="middle" x="352" y="-358.27" font-family="monospace" font-size="8.00">ctrl</text>
</g>
<!-- n3&#45;&gt;n5 -->
<g id="edge7" class="edge">
<title>n3&#45;&gt;n5</title>
<path fill="none" stroke="blue" d="M1148.91,-446.81C1167.56,-439.02 1185.14,-427.77 1197,-411.5 1207.6,-396.96 1209.02,-281.79 1209.09,-227.12"/>
<polygon fill="blue" stroke="blue" points="1212.59,-227.33 1209.09,-217.33 1205.59,-227.34 1212.59,-227.33"/>
<text text-anchor="middle" x="1216.69" y="-317.4" font-family="monospace" font-size="8.00">ctrl</text>
</g>
<!-- n10 -->
<g id="node10" class="node">
<title>n10</title>
<path fill="#bdb2ff" stroke="black" d="M1470,-379C1470,-379 1256,-379 1256,-379 1250,-379 1244,-373 1244,-367 1244,-367 1244,-355 1244,-355 1244,-349 1250,-343 1256,-343 1256,-343 1470,-343 1470,-343 1476,-343 1482,-349 1482,-355 1482,-355 1482,-367 1482,-367 1482,-373 1476,-379 1470,-379"/>
<text text-anchor="middle" x="1363" y="-357.88" font-family="monospace" font-size="10.00">scc 4 | [10] %9 = add nsw i64 %.0, &#45;1</text>
</g>
<!-- n3&#45;&gt;n10 -->
<g id="edge12" class="edge">
<title>n3&#45;&gt;n10</title>
<path fill="none" stroke="blue" d="M1166.83,-446.77C1188.04,-442.04 1209.94,-436.25 1230,-429.25 1263.11,-417.7 1298.43,-399.54 1324.35,-384.99"/>
<polygon fill="blue" stroke="blue" points="1325.87,-388.16 1332.83,-380.17 1322.41,-382.07 1325.87,-388.16"/>
<text text-anchor="middle" x="1261.72" y="-421.65" font-family="monospace" font-size="8.00">ctrl</text>
</g>
<!-- n11 -->
<g id="node12" class="node">
<title>n11</title>
<path fill="#fdffb6" stroke="black" d="M1176,-379C1176,-379 944,-379 944,-379 938,-379 932,-373 932,-367 932,-367 932,-355 932,-355 932,-349 938,-343 944,-343 944,-343 1176,-343 1176,-343 1182,-343 1188,-349 1188,-355 1188,-355 1188,-367 1188,-367 1188,-373 1182,-379 1176,-379"/>
<text text-anchor="middle" x="1060" y="-357.88" font-family="monospace" font-size="10.00">scc 5 | [11] br label %2, !llvm.loop !12</text>
</g>
<!-- n3&#45;&gt;n11 -->
<g id="edge13" class="edge">
<title>n3&#45;&gt;n11</title>
<path fill="none" stroke="blue" d="M1060,-446.9C1060,-431.55 1060,-408.85 1060,-390.78"/>
<polygon fill="blue" stroke="blue" points="1063.5,-390.94 1060,-380.94 1056.5,-390.94 1063.5,-390.94"/>
<text text-anchor="middle" x="1069" y="-421.65" font-family="monospace" font-size="8.00">ctrl</text>
</g>
<!-- n2 -->
<g id="node9" class="node">
<title>n2</title>
<path fill="#ffadad" stroke="black" d="M1402,-565C1402,-565 1194,-565 1194,-565 1188,-565 1182,-559 1182,-553 1182,-553 1182,-541 1182,-541 1182,-535 1188,-529 1194,-529 1194,-529 1402,-529 1402,-529 1408,-529 1414,-535 1414,-541 1414,-541 1414,-553 1414,-553 1414,-559 1408,-565 1402,-565"/>
<text text-anchor="middle" x="1298" y="-543.88" font-family="monospace" font-size="10.00">scc 3 | [2] %3 = icmp sgt i64 %.0, 0</text>
</g>
<!-- n2&#45;&gt;n3 -->
<g id="edge5" class="edge">
<title>n2&#45;&gt;n3</title>
<path fill="none" stroke="black" d="M1246.06,-528.6C1209.68,-516.41 1160.88,-500.05 1122.39,-487.16"/>
<polygon fill="black" stroke="black" points="1123.85,-483.96 1113.26,-484.1 1121.63,-490.59 1123.85,-483.96"/>
<text text-anchor="middle" x="1202.25" y="-503.4" font-family="monospace" font-size="8.00">data</text>
</g>
<!-- n1 -->
<g id="node11" class="node">
<title>n1</title>
<path fill="#bdb2ff" stroke="black" d="M1535,-297.25C1535,-297.25 1255,-297.25 1255,-297.25 1249,-297.25 1243,-291.25 1243,-285.25 1243,-285.25 1243,-273.25 1243,-273.25 1243,-267.25 1249,-261.25 1255,-261.25 1255,-261.25 1535,-261.25 1535,-261.25 1541,-261.25 1547,-267.25 1547,-273.25 1547,-273.25 1547,-285.25 1547,-285.25 1547,-291.25 1541,-297.25 1535,-297.25"/>
<text text-anchor="middle" x="1395" y="-276.12" font-family="monospace" font-size="10.00">scc 4 | [1] %.0 = phi i64 [ %0, %1 ], [ %9, %4 ]</text>
</g>
<!-- n10&#45;&gt;n1 -->
<g id="edge26" class="edge">
<title>n10&#45;&gt;n1</title>
<path fill="none" stroke="black" stroke-dasharray="5,2" d="M1354.4,-342.85C1351.32,-334.27 1349.48,-323.89 1353.5,-315.25 1355.09,-311.83 1357.19,-308.63 1359.62,-305.65"/>
<polygon fill="black" stroke="black" points="1362.1,-308.12 1366.57,-298.52 1357.09,-303.23 1362.1,-308.12"/>
<text text-anchor="middle" x="1364.75" y="-317.4" font-family="monospace" font-size="8.00">data*</text>
</g>
<!-- n1&#45;&gt;n5 -->
<g id="edge3" class="edge">
<title>n1&#45;&gt;n5</title>
<path fill="none" stroke="black" d="M1354.64,-260.95C1326.83,-249.02 1289.65,-233.08 1259.82,-220.29"/>
<polygon fill="black" stroke="black" points="1261.56,-217.23 1250.99,-216.5 1258.8,-223.66 1261.56,-217.23"/>
<text text-anchor="middle" x="1322.14" y="-235.65" font-family="monospace" font-size="8.00">data</text>
</g>
<!-- n1&#45;&gt;n2 -->
<g id="edge4" class="edge">
<title>n1&#45;&gt;n2</title>
<path fill="none" stroke="black" d="M1439.62,-297.67C1459.09,-307.77 1479.96,-322.6 1491,-343 1505.49,-369.78 1505.09,-384.51 1491,-411.5 1462.6,-465.91 1401.02,-502.79 1355.02,-523.97"/>
<polygon fill="black" stroke="black" points="1353.66,-520.75 1345.95,-528.02 1356.51,-527.14 1353.66,-520.75"/>
<text text-anchor="middle" x="1495.27" y="-421.65" font-family="monospace" font-size="8.00">data</text>
</g>
<!-- n1&#45;&gt;n10 -->
<g id="edge2" class="edge">
<title>n1&#45;&gt;n10</title>
<path fill="none" stroke="black" d="M1389.81,-297.44C1387.13,-305.84 1383.66,-316.05 1380,-325 1378.99,-327.48 1377.88,-330.03 1376.73,-332.57"/>
<polygon fill="black" stroke="black" points="1373.68,-330.85 1372.57,-341.38 1380.01,-333.84 1373.68,-330.85"/>
<text text-anchor="middle" x="1392.72" y="-317.4" font-family="monospace" font-size="8.00">data</text>
</g>
</g>
</svg>
