<?xml version="1.0" encoding="UTF-8" standalone="no"?>
<!DOCTYPE svg PUBLIC "-//W3C//DTD SVG 1.1//EN"
 "http://www.w3.org/Graphics/SVG/1.1/DTD/svg11.dtd">
<!-- Generated by graphviz version 12.2.1 (20241206.2353)
 -->
<!-- Title: partition_build_list:0 Pages: 1 -->
<svg width="304pt" height="238pt"
 viewBox="0.00 0.00 304.00 238.25" xmlns="http://www.w3.org/2000/svg" xmlns:xlink="http://www.w3.org/1999/xlink">
<g id="graph0" class="graph" transform="scale(1 1) rotate(0) translate(4 234.25)">
<title>partition_build_list:0</title>
<polygon fill="white" stroke="none" points="-4,4 -4,-234.25 300,-234.25 300,4 -4,4"/>
<!-- scc0 -->
<g id="node1" class="node">
<title>scc0</title>
<path fill="#a0c4ff" stroke="black" d="M100,-46.25C100,-46.25 12,-46.25 12,-46.25 6,-46.25 0,-40.25 0,-34.25 0,-34.25 0,-12 0,-12 0,-6 6,0 12,0 12,0 100,0 100,0 106,0 112,-6 112,-12 112,-12 112,-34.25 112,-34.25 112,-40.25 106,-46.25 100,-46.25"/>
<text text-anchor="middle" x="56" y="-32.75" font-family="monospace" font-size="10.00">SCC 0 (cyclic)</text>
<text text-anchor="middle" x="56" y="-20" font-family="monospace" font-size="10.00">6 insts, cost=34</text>
<text text-anchor="middle" x="56" y="-7.25" font-family="monospace" font-size="10.00">stage 0</text>
</g>
<!-- scc1 -->
<g id="node2" class="node">
<title>scc1</title>
<path fill="#a0c4ff" stroke="black" d="M98,-138.25C98,-138.25 16,-138.25 16,-138.25 10,-138.25 4,-132.25 4,-126.25 4,-126.25 4,-104 4,-104 4,-98 10,-92 16,-92 16,-92 98,-92 98,-92 104,-92 110,-98 110,-104 110,-104 110,-126.25 110,-126.25 110,-132.25 104,-138.25 98,-138.25"/>
<text text-anchor="middle" x="57" y="-124.75" font-family="monospace" font-size="10.00">SCC 1</text>
<text text-anchor="middle" x="57" y="-112" font-family="monospace" font-size="10.00">1 insts, cost=1</text>
<text text-anchor="middle" x="57" y="-99.25" font-family="monospace" font-size="10.00">stage 0</text>
</g>
<!-- scc1&#45;&gt;scc0 -->
<g id="edge1" class="edge">
<title>scc1&#45;&gt;scc0</title>
<path fill="none" stroke="#666666" d="M56.75,-91.88C56.64,-81.68 56.5,-69.36 56.38,-58.04"/>
<polygon fill="#666666" stroke="#666666" points="59.88,-58.22 56.27,-48.25 52.88,-58.29 59.88,-58.22"/>
<text text-anchor="middle" x="58.78" y="-66.4" font-family="monospace" font-size="8.00">d</text>
</g>
<!-- scc2 -->
<g id="node3" class="node">
<title>scc2</title>
<path fill="#ffadad" stroke="black" d="M224,-46.25C224,-46.25 142,-46.25 142,-46.25 136,-46.25 130,-40.25 130,-34.25 130,-34.25 130,-12 130,-12 130,-6 136,0 142,0 142,0 224,0 224,0 230,0 236,-6 236,-12 236,-12 236,-34.25 236,-34.25 236,-40.25 230,-46.25 224,-46.25"/>
<text text-anchor="middle" x="183" y="-32.75" font-family="monospace" font-size="10.00">SCC 2</text>
<text text-anchor="middle" x="183" y="-20" font-family="monospace" font-size="10.00">1 insts, cost=1</text>
<text text-anchor="middle" x="183" y="-7.25" font-family="monospace" font-size="10.00">stage 1</text>
</g>
<!-- scc3 -->
<g id="node4" class="node">
<title>scc3</title>
<path fill="#a0c4ff" stroke="black" d="M223,-138.25C223,-138.25 141,-138.25 141,-138.25 135,-138.25 129,-132.25 129,-126.25 129,-126.25 129,-104 129,-104 129,-98 135,-92 141,-92 141,-92 223,-92 223,-92 229,-92 235,-98 235,-104 235,-104 235,-126.25 235,-126.25 235,-132.25 229,-138.25 223,-138.25"/>
<text text-anchor="middle" x="182" y="-124.75" font-family="monospace" font-size="10.00">SCC 3</text>
<text text-anchor="middle" x="182" y="-112" font-family="monospace" font-size="10.00">1 insts, cost=1</text>
<text text-anchor="middle" x="182" y="-99.25" font-family="monospace" font-size="10.00">stage 0</text>
</g>
<!-- scc3&#45;&gt;scc2 -->
<g id="edge2" class="edge">
<title>scc3&#45;&gt;scc2</title>
<path fill="none" stroke="darkgreen" stroke-width="2" d="M182.25,-91.88C182.36,-82.11 182.49,-70.4 182.61,-59.48"/>
<polygon fill="darkgreen" stroke="darkgreen" stroke-width="2" points="186.1,-59.81 182.72,-49.77 179.1,-59.73 186.1,-59.81"/>
<text text-anchor="middle" x="184.78" y="-66.4" font-family="monospace" font-size="8.00">d</text>
</g>
<!-- scc4 -->
<g id="node5" class="node">
<title>scc4</title>
<path fill="#a0c4ff" stroke="black" d="M160,-230.25C160,-230.25 78,-230.25 78,-230.25 72,-230.25 66,-224.25 66,-218.25 66,-218.25 66,-196 66,-196 66,-190 72,-184 78,-184 78,-184 160,-184 160,-184 166,-184 172,-190 172,-196 172,-196 172,-218.25 172,-218.25 172,-224.25 166,-230.25 160,-230.25"/>
<text text-anchor="middle" x="119" y="-216.75" font-family="monospace" font-size="10.00">SCC 4 (cyclic)</text>
<text text-anchor="middle" x="119" y="-204" font-family="monospace" font-size="10.00">2 insts, cost=1</text>
<text text-anchor="middle" x="119" y="-191.25" font-family="monospace" font-size="10.00">stage 0</text>
</g>
<!-- scc4&#45;&gt;scc1 -->
<g id="edge3" class="edge">
<title>scc4&#45;&gt;scc1</title>
<path fill="none" stroke="#666666" d="M103.67,-183.88C96.2,-173.03 87.09,-159.8 78.9,-147.91"/>
<polygon fill="#666666" stroke="#666666" points="81.99,-146.24 73.44,-139.99 76.23,-150.21 81.99,-146.24"/>
<text text-anchor="middle" x="92.11" y="-158.4" font-family="monospace" font-size="8.00">d</text>
</g>
<!-- scc4&#45;&gt;scc3 -->
<g id="edge4" class="edge">
<title>scc4&#45;&gt;scc3</title>
<path fill="none" stroke="#666666" d="M134.57,-183.88C142.16,-173.03 151.43,-159.8 159.75,-147.91"/>
<polygon fill="#666666" stroke="#666666" points="162.43,-150.18 165.3,-139.98 156.7,-146.17 162.43,-150.18"/>
<text text-anchor="middle" x="154.64" y="-158.4" font-family="monospace" font-size="8.00">d</text>
</g>
<!-- scc5 -->
<g id="node6" class="node">
<title>scc5</title>
<path fill="#a0c4ff" stroke="black" d="M284,-230.25C284,-230.25 202,-230.25 202,-230.25 196,-230.25 190,-224.25 190,-218.25 190,-218.25 190,-196 190,-196 190,-190 196,-184 202,-184 202,-184 284,-184 284,-184 290,-184 296,-190 296,-196 296,-196 296,-218.25 296,-218.25 296,-224.25 290,-230.25 284,-230.25"/>
<text text-anchor="middle" x="243" y="-216.75" font-family="monospace" font-size="10.00">SCC 5</text>
<text text-anchor="middle" x="243" y="-204" font-family="monospace" font-size="10.00">1 insts, cost=1</text>
<text text-anchor="middle" x="243" y="-191.25" font-family="monospace" font-size="10.00">stage 0</text>
</g>
</g>
</svg>
