<?xml version="1.0" encoding="UTF-8" standalone="no"?>
<!DOCTYPE svg PUBLIC "-//W3C//DTD SVG 1.1//EN"
 "http://www.w3.org/Graphics/SVG/1.1/DTD/svg11.dtd">
<!-- Generated by graphviz version 12.2.1 (20241206.2353)
 -->
<!-- Title: partition_sum_with_compute:0 Pages: 1 -->
<svg width="316pt" height="643pt"
 viewBox="0.00 0.00 316.00 642.75" xmlns="http://www.w3.org/2000/svg" xmlns:xlink="http://www.w3.org/1999/xlink">
<g id="graph0" class="graph" transform="scale(1 1) rotate(0) translate(4 638.75)">
<title>partition_sum_with_compute:0</title>
<polygon fill="white" stroke="none" points="-4,4 -4,-638.75 312,-638.75 312,4 -4,4"/>
<!-- scc0 -->
<g id="node1" class="node">
<title>scc0</title>
<path fill="#ffadad" stroke="black" d="M113,-46.25C113,-46.25 31,-46.25 31,-46.25 25,-46.25 19,-40.25 19,-34.25 19,-34.25 19,-12 19,-12 19,-6 25,0 31,0 31,0 113,0 113,0 119,0 125,-6 125,-12 125,-12 125,-34.25 125,-34.25 125,-40.25 119,-46.25 113,-46.25"/>
<text text-anchor="middle" x="72" y="-32.75" font-family="monospace" font-size="10.00">SCC 0 (cyclic)</text>
<text text-anchor="middle" x="72" y="-20" font-family="monospace" font-size="10.00">2 insts, cost=1</text>
<text text-anchor="middle" x="72" y="-7.25" font-family="monospace" font-size="10.00">stage 1</text>
</g>
<!-- scc1 -->
<g id="node2" class="node">
<title>scc1</title>
<path fill="#ffadad" stroke="black" d="M113,-138.25C113,-138.25 31,-138.25 31,-138.25 25,-138.25 19,-132.25 19,-126.25 19,-126.25 19,-104 19,-104 19,-98 25,-92 31,-92 31,-92 113,-92 113,-92 119,-92 125,-98 125,-104 125,-104 125,-126.25 125,-126.25 125,-132.25 119,-138.25 113,-138.25"/>
<text text-anchor="middle" x="72" y="-124.75" font-family="monospace" font-size="10.00">SCC 1</text>
<text text-anchor="middle" x="72" y="-112" font-family="monospace" font-size="10.00">1 insts, cost=1</text>
<text text-anchor="middle" x="72" y="-99.25" font-family="monospace" font-size="10.00">stage 1</text>
</g>
<!-- scc1&#45;&gt;scc0 -->
<g id="edge1" class="edge">
<title>scc1&#45;&gt;scc0</title>
<path fill="none" stroke="#666666" d="M72,-91.88C72,-81.68 72,-69.36 72,-58.04"/>
<polygon fill="#666666" stroke="#666666" points="75.5,-58.25 72,-48.25 68.5,-58.25 75.5,-58.25"/>
<text text-anchor="middle" x="74.25" y="-66.4" font-family="monospace" font-size="8.00">d</text>
</g>
<!-- scc2 -->
<g id="node3" class="node">
<title>scc2</title>
<path fill="#a0c4ff" stroke="black" d="M100,-294.5C100,-294.5 12,-294.5 12,-294.5 6,-294.5 0,-288.5 0,-282.5 0,-282.5 0,-260.25 0,-260.25 0,-254.25 6,-248.25 12,-248.25 12,-248.25 100,-248.25 100,-248.25 106,-248.25 112,-254.25 112,-260.25 112,-260.25 112,-282.5 112,-282.5 112,-288.5 106,-294.5 100,-294.5"/>
<text text-anchor="middle" x="56" y="-281" font-family="monospace" font-size="10.00">SCC 2</text>
<text text-anchor="middle" x="56" y="-268.25" font-family="monospace" font-size="10.00">1 insts, cost=30</text>
<text text-anchor="middle" x="56" y="-255.5" font-family="monospace" font-size="10.00">stage 0</text>
</g>
<!-- scc2&#45;&gt;scc1 -->
<g id="edge2" class="edge">
<title>scc2&#45;&gt;scc1</title>
<path fill="none" stroke="darkgreen" stroke-width="2" d="M58.33,-247.95C60.96,-222.59 65.27,-180.97 68.35,-151.28"/>
<polygon fill="darkgreen" stroke="darkgreen" stroke-width="2" points="71.81,-151.9 69.36,-141.59 64.85,-151.18 71.81,-151.9"/>
<text text-anchor="middle" x="66.93" y="-204.4" font-family="monospace" font-size="8.00">d</text>
</g>
<!-- scc3 -->
<g id="node4" class="node">
<title>scc3</title>
<path fill="#ffadad" stroke="black" d="M179,-230.25C179,-230.25 91,-230.25 91,-230.25 85,-230.25 79,-224.25 79,-218.25 79,-218.25 79,-196 79,-196 79,-190 85,-184 91,-184 91,-184 179,-184 179,-184 185,-184 191,-190 191,-196 191,-196 191,-218.25 191,-218.25 191,-224.25 185,-230.25 179,-230.25"/>
<text text-anchor="middle" x="135" y="-216.75" font-family="monospace" font-size="10.00">SCC 3</text>
<text text-anchor="middle" x="135" y="-204" font-family="monospace" font-size="10.00">1 insts, cost=30</text>
<text text-anchor="middle" x="135" y="-191.25" font-family="monospace" font-size="10.00">stage 1</text>
</g>
<!-- scc3&#45;&gt;scc1 -->
<g id="edge3" class="edge">
<title>scc3&#45;&gt;scc1</title>
<path fill="none" stroke="#666666" d="M119.43,-183.88C111.84,-173.03 102.57,-159.8 94.25,-147.91"/>
<polygon fill="#666666" stroke="#666666" points="97.3,-146.17 88.7,-139.98 91.57,-150.18 97.3,-146.17"/>
<text text-anchor="middle" x="107.64" y="-158.4" font-family="monospace" font-size="8.00">d</text>
</g>
<!-- scc4 -->
<g id="node5" class="node">
<title>scc4</title>
<path fill="#ffadad" stroke="black" d="M177,-358.75C177,-358.75 95,-358.75 95,-358.75 89,-358.75 83,-352.75 83,-346.75 83,-346.75 83,-324.5 83,-324.5 83,-318.5 89,-312.5 95,-312.5 95,-312.5 177,-312.5 177,-312.5 183,-312.5 189,-318.5 189,-324.5 189,-324.5 189,-346.75 189,-346.75 189,-352.75 183,-358.75 177,-358.75"/>
<text text-anchor="middle" x="136" y="-345.25" font-family="monospace" font-size="10.00">SCC 4</text>
<text text-anchor="middle" x="136" y="-332.5" font-family="monospace" font-size="10.00">1 insts, cost=1</text>
<text text-anchor="middle" x="136" y="-319.75" font-family="monospace" font-size="10.00">stage 1</text>
</g>
<!-- scc4&#45;&gt;scc3 -->
<g id="edge4" class="edge">
<title>scc4&#45;&gt;scc3</title>
<path fill="none" stroke="#666666" d="M135.82,-312.01C135.67,-292.49 135.44,-264.02 135.27,-241.82"/>
<polygon fill="#666666" stroke="#666666" points="138.77,-242.03 135.19,-232.06 131.77,-242.09 138.77,-242.03"/>
<text text-anchor="middle" x="137.93" y="-268.65" font-family="monospace" font-size="8.00">d</text>
</g>
<!-- scc5 -->
<g id="node6" class="node">
<title>scc5</title>
<path fill="#a0c4ff" stroke="black" d="M110,-450.75C110,-450.75 28,-450.75 28,-450.75 22,-450.75 16,-444.75 16,-438.75 16,-438.75 16,-416.5 16,-416.5 16,-410.5 22,-404.5 28,-404.5 28,-404.5 110,-404.5 110,-404.5 116,-404.5 122,-410.5 122,-416.5 122,-416.5 122,-438.75 122,-438.75 122,-444.75 116,-450.75 110,-450.75"/>
<text text-anchor="middle" x="69" y="-437.25" font-family="monospace" font-size="10.00">SCC 5</text>
<text text-anchor="middle" x="69" y="-424.5" font-family="monospace" font-size="10.00">1 insts, cost=4</text>
<text text-anchor="middle" x="69" y="-411.75" font-family="monospace" font-size="10.00">stage 0</text>
</g>
<!-- scc5&#45;&gt;scc2 -->
<g id="edge5" class="edge">
<title>scc5&#45;&gt;scc2</title>
<path fill="none" stroke="#666666" d="M67.11,-404.2C64.93,-378.38 61.34,-335.71 58.83,-305.94"/>
<polygon fill="#666666" stroke="#666666" points="62.35,-306.01 58.02,-296.34 55.37,-306.6 62.35,-306.01"/>
<text text-anchor="middle" x="67.71" y="-378.9" font-family="monospace" font-size="8.00">d</text>
</g>
<!-- scc5&#45;&gt;scc4 -->
<g id="edge6" class="edge">
<title>scc5&#45;&gt;scc4</title>
<path fill="none" stroke="darkgreen" stroke-width="2" d="M85.56,-404.38C93.39,-393.86 102.9,-381.08 111.54,-369.48"/>
<polygon fill="darkgreen" stroke="darkgreen" stroke-width="2" points="114.19,-371.78 117.36,-361.67 108.58,-367.6 114.19,-371.78"/>
<text text-anchor="middle" x="106.76" y="-378.9" font-family="monospace" font-size="8.00">d</text>
</g>
<!-- scc6 -->
<g id="node7" class="node">
<title>scc6</title>
<path fill="#a0c4ff" stroke="black" d="M110,-542.75C110,-542.75 28,-542.75 28,-542.75 22,-542.75 16,-536.75 16,-530.75 16,-530.75 16,-508.5 16,-508.5 16,-502.5 22,-496.5 28,-496.5 28,-496.5 110,-496.5 110,-496.5 116,-496.5 122,-502.5 122,-508.5 122,-508.5 122,-530.75 122,-530.75 122,-536.75 116,-542.75 110,-542.75"/>
<text text-anchor="middle" x="69" y="-529.25" font-family="monospace" font-size="10.00">SCC 6</text>
<text text-anchor="middle" x="69" y="-516.5" font-family="monospace" font-size="10.00">1 insts, cost=1</text>
<text text-anchor="middle" x="69" y="-503.75" font-family="monospace" font-size="10.00">stage 0</text>
</g>
<!-- scc6&#45;&gt;scc5 -->
<g id="edge7" class="edge">
<title>scc6&#45;&gt;scc5</title>
<path fill="none" stroke="#666666" d="M69,-496.38C69,-486.18 69,-473.86 69,-462.54"/>
<polygon fill="#666666" stroke="#666666" points="72.5,-462.75 69,-452.75 65.5,-462.75 72.5,-462.75"/>
<text text-anchor="middle" x="71.25" y="-470.9" font-family="monospace" font-size="8.00">d</text>
</g>
<!-- scc7 -->
<g id="node8" class="node">
<title>scc7</title>
<path fill="#a0c4ff" stroke="black" d="M234,-450.75C234,-450.75 152,-450.75 152,-450.75 146,-450.75 140,-444.75 140,-438.75 140,-438.75 140,-416.5 140,-416.5 140,-410.5 146,-404.5 152,-404.5 152,-404.5 234,-404.5 234,-404.5 240,-404.5 246,-410.5 246,-416.5 246,-416.5 246,-438.75 246,-438.75 246,-444.75 240,-450.75 234,-450.75"/>
<text text-anchor="middle" x="193" y="-437.25" font-family="monospace" font-size="10.00">SCC 7</text>
<text text-anchor="middle" x="193" y="-424.5" font-family="monospace" font-size="10.00">1 insts, cost=1</text>
<text text-anchor="middle" x="193" y="-411.75" font-family="monospace" font-size="10.00">stage 0</text>
</g>
<!-- scc8 -->
<g id="node9" class="node">
<title>scc8</title>
<path fill="#a0c4ff" stroke="black" d="M234,-542.75C234,-542.75 152,-542.75 152,-542.75 146,-542.75 140,-536.75 140,-530.75 140,-530.75 140,-508.5 140,-508.5 140,-502.5 146,-496.5 152,-496.5 152,-496.5 234,-496.5 234,-496.5 240,-496.5 246,-502.5 246,-508.5 246,-508.5 246,-530.75 246,-530.75 246,-536.75 240,-542.75 234,-542.75"/>
<text text-anchor="middle" x="193" y="-529.25" font-family="monospace" font-size="10.00">SCC 8</text>
<text text-anchor="middle" x="193" y="-516.5" font-family="monospace" font-size="10.00">1 insts, cost=1</text>
<text text-anchor="middle" x="193" y="-503.75" font-family="monospace" font-size="10.00">stage 0</text>
</g>
<!-- scc8&#45;&gt;scc7 -->
<g id="edge8" class="edge">
<title>scc8&#45;&gt;scc7</title>
<path fill="none" stroke="#666666" d="M193,-496.38C193,-486.18 193,-473.86 193,-462.54"/>
<polygon fill="#666666" stroke="#666666" points="196.5,-462.75 193,-452.75 189.5,-462.75 196.5,-462.75"/>
<text text-anchor="middle" x="195.25" y="-470.9" font-family="monospace" font-size="8.00">d</text>
</g>
<!-- scc9 -->
<g id="node10" class="node">
<title>scc9</title>
<path fill="#a0c4ff" stroke="black" d="M172,-634.75C172,-634.75 90,-634.75 90,-634.75 84,-634.75 78,-628.75 78,-622.75 78,-622.75 78,-600.5 78,-600.5 78,-594.5 84,-588.5 90,-588.5 90,-588.5 172,-588.5 172,-588.5 178,-588.5 184,-594.5 184,-600.5 184,-600.5 184,-622.75 184,-622.75 184,-628.75 178,-634.75 172,-634.75"/>
<text text-anchor="middle" x="131" y="-621.25" font-family="monospace" font-size="10.00">SCC 9 (cyclic)</text>
<text text-anchor="middle" x="131" y="-608.5" font-family="monospace" font-size="10.00">3 insts, cost=5</text>
<text text-anchor="middle" x="131" y="-595.75" font-family="monospace" font-size="10.00">stage 0</text>
</g>
<!-- scc9&#45;&gt;scc6 -->
<g id="edge9" class="edge">
<title>scc9&#45;&gt;scc6</title>
<path fill="none" stroke="#666666" d="M115.67,-588.38C108.2,-577.53 99.09,-564.3 90.9,-552.41"/>
<polygon fill="#666666" stroke="#666666" points="93.99,-550.74 85.44,-544.49 88.23,-554.71 93.99,-550.74"/>
<text text-anchor="middle" x="104.11" y="-562.9" font-family="monospace" font-size="8.00">d</text>
</g>
<!-- scc9&#45;&gt;scc8 -->
<g id="edge10" class="edge">
<title>scc9&#45;&gt;scc8</title>
<path fill="none" stroke="#666666" d="M146.33,-588.38C153.8,-577.53 162.91,-564.3 171.1,-552.41"/>
<polygon fill="#666666" stroke="#666666" points="173.77,-554.71 176.56,-544.49 168.01,-550.74 173.77,-554.71"/>
<text text-anchor="middle" x="166.11" y="-562.9" font-family="monospace" font-size="8.00">d</text>
</g>
<!-- scc10 -->
<g id="node11" class="node">
<title>scc10</title>
<path fill="#a0c4ff" stroke="black" d="M296,-634.75C296,-634.75 214,-634.75 214,-634.75 208,-634.75 202,-628.75 202,-622.75 202,-622.75 202,-600.5 202,-600.5 202,-594.5 208,-588.5 214,-588.5 214,-588.5 296,-588.5 296,-588.5 302,-588.5 308,-594.5 308,-600.5 308,-600.5 308,-622.75 308,-622.75 308,-628.75 302,-634.75 296,-634.75"/>
<text text-anchor="middle" x="255" y="-621.25" font-family="monospace" font-size="10.00">SCC 10</text>
<text text-anchor="middle" x="255" y="-608.5" font-family="monospace" font-size="10.00">1 insts, cost=1</text>
<text text-anchor="middle" x="255" y="-595.75" font-family="monospace" font-size="10.00">stage 0</text>
</g>
</g>
</svg>
