<?xml version="1.0" encoding="UTF-8" standalone="no"?>
<!DOCTYPE svg PUBLIC "-//W3C//DTD SVG 1.1//EN"
 "http://www.w3.org/Graphics/SVG/1.1/DTD/svg11.dtd">
<!-- Generated by graphviz version 12.2.1 (20241206.2353)
 -->
<!-- Title: sum_with_compute:0 Pages: 1 -->
<svg width="1643pt" height="777pt"
 viewBox="0.00 0.00 1643.00 777.00" xmlns="http://www.w3.org/2000/svg" xmlns:xlink="http://www.w3.org/1999/xlink">
<g id="graph0" class="graph" transform="scale(1 1) rotate(0) translate(4 773)">
<title>sum_with_compute:0</title>
<polygon fill="white" stroke="none" points="-4,4 -4,-773 1639,-773 1639,4 -4,4"/>
<g id="clust1" class="cluster">
<title>cluster_scc0</title>
<path fill="none" stroke="#7f7f7f" stroke-dasharray="5,2" d="M437,-8C437,-8 823,-8 823,-8 829,-8 835,-14 835,-20 835,-20 835,-154.25 835,-154.25 835,-160.25 829,-166.25 823,-166.25 823,-166.25 437,-166.25 437,-166.25 431,-166.25 425,-160.25 425,-154.25 425,-154.25 425,-20 425,-20 425,-14 431,-8 437,-8"/>
<text text-anchor="middle" x="630" y="-148.95" font-family="Times,serif" font-size="14.00">SCC 0 (cyclic, 2 insts)</text>
</g>
<g id="clust2" class="cluster">
<title>cluster_scc9</title>
<path fill="none" stroke="#7f7f7f" stroke-dasharray="5,2" d="M20,-521C20,-521 490,-521 490,-521 496,-521 502,-527 502,-533 502,-533 502,-749 502,-749 502,-755 496,-761 490,-761 490,-761 20,-761 20,-761 14,-761 8,-755 8,-749 8,-749 8,-533 8,-533 8,-527 14,-521 20,-521"/>
<text text-anchor="middle" x="255" y="-743.7" font-family="Times,serif" font-size="14.00">SCC 9 (cyclic, 3 insts)</text>
</g>
<!-- n10 -->
<g id="node1" class="node">
<title>n10</title>
<path fill="#ffd6a5" stroke="black" d="M746,-133.75C746,-133.75 514,-133.75 514,-133.75 508,-133.75 502,-127.75 502,-121.75 502,-121.75 502,-109.75 502,-109.75 502,-103.75 508,-97.75 514,-97.75 514,-97.75 746,-97.75 746,-97.75 752,-97.75 758,-103.75 758,-109.75 758,-109.75 758,-121.75 758,-121.75 758,-127.75 752,-133.75 746,-133.75"/>
<text text-anchor="middle" x="630" y="-112.62" font-family="monospace" font-size="10.00">scc 0 | [10] %11 = fadd double %.01, %10</text>
</g>
<!-- n0 -->
<g id="node2" class="node">
<title>n0</title>
<path fill="#ffd6a5" stroke="black" d="M815,-52C815,-52 445,-52 445,-52 439,-52 433,-46 433,-40 433,-40 433,-28 433,-28 433,-22 439,-16 445,-16 445,-16 815,-16 815,-16 821,-16 827,-22 827,-28 827,-28 827,-40 827,-40 827,-46 821,-52 815,-52"/>
<text text-anchor="middle" x="630" y="-30.88" font-family="monospace" font-size="10.00">scc 0 | [0] %.01 = phi double [ 0.000000e+00, %1 ], [ %11, %4 ]</text>
</g>
<!-- n10&#45;&gt;n0 -->
<g id="edge23" class="edge">
<title>n10&#45;&gt;n0</title>
<path fill="none" stroke="black" stroke-dasharray="5,2" d="M614.11,-97.44C610.2,-92.14 606.55,-86.04 604.5,-79.75 602.53,-73.69 603.63,-67.54 606.24,-61.81"/>
<polygon fill="black" stroke="black" points="609.18,-63.72 611.46,-53.37 603.23,-60.04 609.18,-63.72"/>
<text text-anchor="middle" x="615.75" y="-72.15" font-family="monospace" font-size="8.00">data*</text>
</g>
<!-- n0&#45;&gt;n10 -->
<g id="edge1" class="edge">
<title>n0&#45;&gt;n10</title>
<path fill="none" stroke="black" d="M630.69,-52.43C630.94,-60.7 631.13,-70.74 631,-79.75 630.97,-81.8 630.93,-83.92 630.89,-86.06"/>
<polygon fill="black" stroke="black" points="627.39,-85.71 630.64,-95.79 634.39,-85.89 627.39,-85.71"/>
<text text-anchor="middle" x="640.04" y="-72.15" font-family="monospace" font-size="8.00">data</text>
</g>
<!-- n9 -->
<g id="node3" class="node">
<title>n9</title>
<path fill="#a0c4ff" stroke="black" d="M966,-238C966,-238 758,-238 758,-238 752,-238 746,-232 746,-226 746,-226 746,-214 746,-214 746,-208 752,-202 758,-202 758,-202 966,-202 966,-202 972,-202 978,-208 978,-214 978,-214 978,-226 978,-226 978,-232 972,-238 966,-238"/>
<text text-anchor="middle" x="862" y="-216.88" font-family="monospace" font-size="10.00">scc 1 | [9] %10 = fadd double %7, %9</text>
</g>
<!-- n9&#45;&gt;n10 -->
<g id="edge22" class="edge">
<title>n9&#45;&gt;n10</title>
<path fill="none" stroke="black" d="M822.38,-201.54C783.01,-184.19 722.51,-157.52 679.88,-138.73"/>
<polygon fill="black" stroke="black" points="681.4,-135.58 670.84,-134.75 678.58,-141.99 681.4,-135.58"/>
<text text-anchor="middle" x="789.34" y="-176.4" font-family="monospace" font-size="8.00">data</text>
</g>
<!-- n6 -->
<g id="node4" class="node">
<title>n6</title>
<path fill="#caffbf" stroke="black" d="M961,-401.5C961,-401.5 645,-401.5 645,-401.5 639,-401.5 633,-395.5 633,-389.5 633,-389.5 633,-377.5 633,-377.5 633,-371.5 639,-365.5 645,-365.5 645,-365.5 961,-365.5 961,-365.5 967,-365.5 973,-371.5 973,-377.5 973,-377.5 973,-389.5 973,-389.5 973,-395.5 967,-401.5 961,-401.5"/>
<text text-anchor="middle" x="803" y="-380.38" font-family="monospace" font-size="10.00">scc 2 | [6] %7 = call double @llvm.sqrt.f64(double %6)</text>
</g>
<!-- n6&#45;&gt;n9 -->
<g id="edge19" class="edge">
<title>n6&#45;&gt;n9</title>
<path fill="none" stroke="black" d="M801.64,-365.03C800.71,-344.73 801.22,-310.59 812,-283.75 817.43,-270.22 826.78,-257.26 835.94,-246.67"/>
<polygon fill="black" stroke="black" points="838.33,-249.24 842.48,-239.49 833.16,-244.53 838.33,-249.24"/>
<text text-anchor="middle" x="821" y="-299.02" font-family="monospace" font-size="8.00">data</text>
</g>
<!-- n8 -->
<g id="node5" class="node">
<title>n8</title>
<path fill="#ffadad" stroke="black" d="M1161,-319.75C1161,-319.75 851,-319.75 851,-319.75 845,-319.75 839,-313.75 839,-307.75 839,-307.75 839,-295.75 839,-295.75 839,-289.75 845,-283.75 851,-283.75 851,-283.75 1161,-283.75 1161,-283.75 1167,-283.75 1173,-289.75 1173,-295.75 1173,-295.75 1173,-307.75 1173,-307.75 1173,-313.75 1167,-319.75 1161,-319.75"/>
<text text-anchor="middle" x="1006" y="-298.62" font-family="monospace" font-size="10.00">scc 3 | [8] %9 = call double @llvm.log.f64(double %8)</text>
</g>
<!-- n8&#45;&gt;n9 -->
<g id="edge21" class="edge">
<title>n8&#45;&gt;n9</title>
<path fill="none" stroke="black" d="M974.75,-283.45C953.81,-271.85 926,-256.45 903.24,-243.84"/>
<polygon fill="black" stroke="black" points="904.95,-240.79 894.51,-239 901.56,-246.91 904.95,-240.79"/>
<text text-anchor="middle" x="951.62" y="-258.15" font-family="monospace" font-size="8.00">data</text>
</g>
<!-- n7 -->
<g id="node6" class="node">
<title>n7</title>
<path fill="#bdb2ff" stroke="black" d="M1305,-401.5C1305,-401.5 1043,-401.5 1043,-401.5 1037,-401.5 1031,-395.5 1031,-389.5 1031,-389.5 1031,-377.5 1031,-377.5 1031,-371.5 1037,-365.5 1043,-365.5 1043,-365.5 1305,-365.5 1305,-365.5 1311,-365.5 1317,-371.5 1317,-377.5 1317,-377.5 1317,-389.5 1317,-389.5 1317,-395.5 1311,-401.5 1305,-401.5"/>
<text text-anchor="middle" x="1174" y="-380.38" font-family="monospace" font-size="10.00">scc 4 | [7] %8 = fadd double %6, 1.000000e+00</text>
</g>
<!-- n7&#45;&gt;n8 -->
<g id="edge20" class="edge">
<title>n7&#45;&gt;n8</title>
<path fill="none" stroke="black" d="M1137.55,-365.2C1112.75,-353.43 1079.72,-337.75 1052.96,-325.04"/>
<polygon fill="black" stroke="black" points="1054.57,-321.93 1044.04,-320.81 1051.57,-328.26 1054.57,-321.93"/>
<text text-anchor="middle" x="1109.06" y="-339.9" font-family="monospace" font-size="8.00">data</text>
</g>
<!-- n5 -->
<g id="node7" class="node">
<title>n5</title>
<path fill="#fdffb6" stroke="black" d="M1023,-483.25C1023,-483.25 701,-483.25 701,-483.25 695,-483.25 689,-477.25 689,-471.25 689,-471.25 689,-459.25 689,-459.25 689,-453.25 695,-447.25 701,-447.25 701,-447.25 1023,-447.25 1023,-447.25 1029,-447.25 1035,-453.25 1035,-459.25 1035,-459.25 1035,-471.25 1035,-471.25 1035,-477.25 1029,-483.25 1023,-483.25"/>
<text text-anchor="middle" x="862" y="-462.12" font-family="monospace" font-size="10.00">scc 5 | [5] %6 = load double, ptr %5, align 8, !tbaa !5</text>
</g>
<!-- n5&#45;&gt;n6 -->
<g id="edge17" class="edge">
<title>n5&#45;&gt;n6</title>
<path fill="none" stroke="black" d="M849.2,-446.95C841.39,-436.39 831.25,-422.69 822.47,-410.81"/>
<polygon fill="black" stroke="black" points="825.44,-408.95 816.68,-402.99 819.81,-413.11 825.44,-408.95"/>
<text text-anchor="middle" x="845.03" y="-421.65" font-family="monospace" font-size="8.00">data</text>
</g>
<!-- n5&#45;&gt;n7 -->
<g id="edge18" class="edge">
<title>n5&#45;&gt;n7</title>
<path fill="none" stroke="black" d="M930.08,-446.85C978.61,-434.44 1043.99,-417.73 1094.84,-404.73"/>
<polygon fill="black" stroke="black" points="1095.5,-408.18 1104.33,-402.31 1093.77,-401.39 1095.5,-408.18"/>
<text text-anchor="middle" x="1045.68" y="-421.65" font-family="monospace" font-size="8.00">data</text>
</g>
<!-- n4 -->
<g id="node8" class="node">
<title>n4</title>
<path fill="#9bf6ff" stroke="black" d="M1042,-565C1042,-565 600,-565 600,-565 594,-565 588,-559 588,-553 588,-553 588,-541 588,-541 588,-535 594,-529 600,-529 600,-529 1042,-529 1042,-529 1048,-529 1054,-535 1054,-541 1054,-541 1054,-553 1054,-553 1054,-559 1048,-565 1042,-565"/>
<text text-anchor="middle" x="821" y="-543.88" font-family="monospace" font-size="10.00">scc 6 | [4] %5 = getelementptr inbounds %struct.Node, ptr %.0, i32 0, i32 0</text>
</g>
<!-- n4&#45;&gt;n5 -->
<g id="edge16" class="edge">
<title>n4&#45;&gt;n5</title>
<path fill="none" stroke="black" d="M829.9,-528.7C835.16,-518.45 841.95,-505.25 847.93,-493.62"/>
<polygon fill="black" stroke="black" points="850.97,-495.36 852.43,-484.87 844.74,-492.16 850.97,-495.36"/>
<text text-anchor="middle" x="852.95" y="-503.4" font-family="monospace" font-size="8.00">data</text>
</g>
<!-- n3 -->
<g id="node9" class="node">
<title>n3</title>
<path fill="#ffc6ff" stroke="black" d="M940,-646.75C940,-646.75 702,-646.75 702,-646.75 696,-646.75 690,-640.75 690,-634.75 690,-634.75 690,-622.75 690,-622.75 690,-616.75 696,-610.75 702,-610.75 702,-610.75 940,-610.75 940,-610.75 946,-610.75 952,-616.75 952,-622.75 952,-622.75 952,-634.75 952,-634.75 952,-640.75 946,-646.75 940,-646.75"/>
<text text-anchor="middle" x="821" y="-625.62" font-family="monospace" font-size="10.00">scc 7 | [3] br i1 %3, label %4, label %14</text>
</g>
<!-- n3&#45;&gt;n10 -->
<g id="edge12" class="edge">
<title>n3&#45;&gt;n10</title>
<path fill="none" stroke="blue" d="M689.52,-622.1C631.26,-617.37 570.59,-608.69 547,-592.75 528.12,-580 522,-570.78 522,-548 522,-548 522,-548 522,-219 522,-183.89 552.47,-157.23 581.04,-139.95"/>
<polygon fill="blue" stroke="blue" points="582.76,-143 589.7,-134.99 579.28,-136.92 582.76,-143"/>
<text text-anchor="middle" x="531" y="-380.77" font-family="monospace" font-size="8.00">ctrl</text>
</g>
<!-- n3&#45;&gt;n9 -->
<g id="edge11" class="edge">
<title>n3&#45;&gt;n9</title>
<path fill="none" stroke="blue" d="M952.21,-620.47C1107.43,-610.06 1345,-587.65 1345,-548 1345,-548 1345,-548 1345,-300.75 1345,-264.7 1132.87,-241.41 989.77,-229.79"/>
<polygon fill="blue" stroke="blue" points="990.06,-226.31 979.81,-229 989.5,-233.28 990.06,-226.31"/>
<text text-anchor="middle" x="1354" y="-421.65" font-family="monospace" font-size="8.00">ctrl</text>
</g>
<!-- n3&#45;&gt;n6 -->
<g id="edge8" class="edge">
<title>n3&#45;&gt;n6</title>
<path fill="none" stroke="blue" d="M699.18,-610.3C647.09,-600.1 594.64,-585.21 579,-565 525.05,-495.28 651.99,-435.89 736.02,-405.73"/>
<polygon fill="blue" stroke="blue" points="737.11,-409.06 745.38,-402.44 734.78,-402.46 737.11,-409.06"/>
<text text-anchor="middle" x="583.57" y="-503.4" font-family="monospace" font-size="8.00">ctrl</text>
</g>
<!-- n3&#45;&gt;n8 -->
<g id="edge10" class="edge">
<title>n3&#45;&gt;n8</title>
<path fill="none" stroke="blue" d="M952.5,-615.26C1014.53,-606.07 1078.39,-590.58 1094,-565 1118.53,-524.81 1065.82,-427.2 1059,-419.5 1046.87,-405.81 1032.91,-416.18 1022,-401.5 1007.03,-381.37 1003.86,-352.51 1003.94,-331.19"/>
<polygon fill="blue" stroke="blue" points="1007.43,-331.54 1004.23,-321.44 1000.43,-331.33 1007.43,-331.54"/>
<text text-anchor="middle" x="1098.03" y="-462.52" font-family="monospace" font-size="8.00">ctrl</text>
</g>
<!-- n3&#45;&gt;n7 -->
<g id="edge9" class="edge">
<title>n3&#45;&gt;n7</title>
<path fill="none" stroke="blue" d="M952.27,-621.51C1037.62,-616.14 1135.65,-606.98 1150,-592.75 1197.71,-545.46 1189.1,-458.1 1180.58,-413.04"/>
<polygon fill="blue" stroke="blue" points="1184.01,-412.36 1178.58,-403.26 1177.15,-413.76 1184.01,-412.36"/>
<text text-anchor="middle" x="1195.4" y="-503.4" font-family="monospace" font-size="8.00">ctrl</text>
</g>
<!-- n3&#45;&gt;n5 -->
<g id="edge7" class="edge">
<title>n3&#45;&gt;n5</title>
<path fill="none" stroke="blue" d="M942.82,-610.3C994.91,-600.1 1047.36,-585.21 1063,-565 1074.97,-549.53 1074.87,-536.54 1063,-521 1051.91,-506.48 1018.27,-494.9 981.6,-486.19"/>
<polygon fill="blue" stroke="blue" points="982.68,-482.85 972.15,-484.03 981.12,-489.67 982.68,-482.85"/>
<text text-anchor="middle" x="1080.94" y="-544.27" font-family="monospace" font-size="8.00">ctrl</text>
</g>
<!-- n3&#45;&gt;n4 -->
<g id="edge6" class="edge">
<title>n3&#45;&gt;n4</title>
<path fill="none" stroke="blue" d="M821,-610.45C821,-600.52 821,-587.81 821,-576.45"/>
<polygon fill="blue" stroke="blue" points="824.5,-576.78 821,-566.78 817.5,-576.78 824.5,-576.78"/>
<text text-anchor="middle" x="830" y="-585.15" font-family="monospace" font-size="8.00">ctrl</text>
</g>
<!-- n12 -->
<g id="node11" class="node">
<title>n12</title>
<path fill="#d3d3d3" stroke="black" d="M482,-728.5C482,-728.5 154,-728.5 154,-728.5 148,-728.5 142,-722.5 142,-716.5 142,-716.5 142,-704.5 142,-704.5 142,-698.5 148,-692.5 154,-692.5 154,-692.5 482,-692.5 482,-692.5 488,-692.5 494,-698.5 494,-704.5 494,-704.5 494,-716.5 494,-716.5 494,-722.5 488,-728.5 482,-728.5"/>
<text text-anchor="middle" x="318" y="-707.38" font-family="monospace" font-size="10.00">scc 9 | [12] %13 = load ptr, ptr %12, align 8, !tbaa !11</text>
</g>
<!-- n3&#45;&gt;n12 -->
<g id="edge14" class="edge">
<title>n3&#45;&gt;n12</title>
<path fill="none" stroke="blue" d="M689.87,-638.88C628.28,-644.35 554.04,-652.66 488,-664.75 454.18,-670.94 417.2,-680.35 386.39,-688.95"/>
<polygon fill="blue" stroke="blue" points="385.47,-685.57 376.8,-691.66 387.37,-692.31 385.47,-685.57"/>
<text text-anchor="middle" x="497" y="-666.9" font-family="monospace" font-size="8.00">ctrl</text>
</g>
<!-- n11 -->
<g id="node12" class="node">
<title>n11</title>
<path fill="#d3d3d3" stroke="black" d="M482,-565C482,-565 28,-565 28,-565 22,-565 16,-559 16,-553 16,-553 16,-541 16,-541 16,-535 22,-529 28,-529 28,-529 482,-529 482,-529 488,-529 494,-535 494,-541 494,-541 494,-553 494,-553 494,-559 488,-565 482,-565"/>
<text text-anchor="middle" x="255" y="-543.88" font-family="monospace" font-size="10.00">scc 9 | [11] %12 = getelementptr inbounds %struct.Node, ptr %.0, i32 0, i32 1</text>
</g>
<!-- n3&#45;&gt;n11 -->
<g id="edge13" class="edge">
<title>n3&#45;&gt;n11</title>
<path fill="none" stroke="blue" d="M689.8,-616.4C628.89,-610.48 555.6,-602.45 490,-592.75 443.33,-585.85 391.8,-576.26 348.92,-567.73"/>
<polygon fill="blue" stroke="blue" points="349.62,-564.3 339.13,-565.77 348.25,-571.16 349.62,-564.3"/>
<text text-anchor="middle" x="499" y="-585.15" font-family="monospace" font-size="8.00">ctrl</text>
</g>
<!-- n13 -->
<g id="node14" class="node">
<title>n13</title>
<path fill="#ffd6a5" stroke="black" d="M1623,-565C1623,-565 1385,-565 1385,-565 1379,-565 1373,-559 1373,-553 1373,-553 1373,-541 1373,-541 1373,-535 1379,-529 1385,-529 1385,-529 1623,-529 1623,-529 1629,-529 1635,-535 1635,-541 1635,-541 1635,-553 1635,-553 1635,-559 1629,-565 1623,-565"/>
<text text-anchor="middle" x="1504" y="-543.88" font-family="monospace" font-size="10.00">scc 10 | [13] br label %2, !llvm.loop !12</text>
</g>
<!-- n3&#45;&gt;n13 -->
<g id="edge15" class="edge">
<title>n3&#45;&gt;n13</title>
<path fill="none" stroke="blue" d="M952.24,-627.76C1061.82,-625.74 1221.73,-618.04 1359,-592.75 1388.49,-587.32 1420.42,-577.87 1446.79,-569.05"/>
<polygon fill="blue" stroke="blue" points="1447.58,-572.48 1455.92,-565.94 1445.33,-565.85 1447.58,-572.48"/>
<text text-anchor="middle" x="1408.55" y="-585.15" font-family="monospace" font-size="8.00">ctrl</text>
</g>
<!-- n2 -->
<g id="node10" class="node">
<title>n2</title>
<path fill="#e2f0cb" stroke="black" d="M837,-728.5C837,-728.5 617,-728.5 617,-728.5 611,-728.5 605,-722.5 605,-716.5 605,-716.5 605,-704.5 605,-704.5 605,-698.5 611,-692.5 617,-692.5 617,-692.5 837,-692.5 837,-692.5 843,-692.5 849,-698.5 849,-704.5 849,-704.5 849,-716.5 849,-716.5 849,-722.5 843,-728.5 837,-728.5"/>
<text text-anchor="middle" x="727" y="-707.38" font-family="monospace" font-size="10.00">scc 8 | [2] %3 = icmp ne ptr %.0, null</text>
</g>
<!-- n2&#45;&gt;n3 -->
<g id="edge5" class="edge">
<title>n2&#45;&gt;n3</title>
<path fill="none" stroke="black" d="M747.4,-692.2C760.45,-681.12 777.6,-666.57 792.05,-654.31"/>
<polygon fill="black" stroke="black" points="794.13,-657.14 799.49,-648 789.6,-651.8 794.13,-657.14"/>
<text text-anchor="middle" x="788.63" y="-666.9" font-family="monospace" font-size="8.00">data</text>
</g>
<!-- n1 -->
<g id="node13" class="node">
<title>n1</title>
<path fill="#d3d3d3" stroke="black" d="M482,-646.75C482,-646.75 196,-646.75 196,-646.75 190,-646.75 184,-640.75 184,-634.75 184,-634.75 184,-622.75 184,-622.75 184,-616.75 190,-610.75 196,-610.75 196,-610.75 482,-610.75 482,-610.75 488,-610.75 494,-616.75 494,-622.75 494,-622.75 494,-634.75 494,-634.75 494,-640.75 488,-646.75 482,-646.75"/>
<text text-anchor="middle" x="339" y="-625.62" font-family="monospace" font-size="10.00">scc 9 | [1] %.0 = phi ptr [ %0, %1 ], [ %13, %4 ]</text>
</g>
<!-- n12&#45;&gt;n1 -->
<g id="edge25" class="edge">
<title>n12&#45;&gt;n1</title>
<path fill="none" stroke="black" stroke-dasharray="5,2" d="M322.56,-692.2C325.2,-682.16 328.59,-669.29 331.6,-657.84"/>
<polygon fill="black" stroke="black" points="334.9,-659.05 334.07,-648.48 328.14,-657.26 334.9,-659.05"/>
<text text-anchor="middle" x="341.01" y="-666.9" font-family="monospace" font-size="8.00">data*</text>
</g>
<!-- n11&#45;&gt;n12 -->
<g id="edge24" class="edge">
<title>n11&#45;&gt;n12</title>
<path fill="none" stroke="black" d="M215.46,-565.44C179.47,-583.86 135.06,-614.65 157,-646.75 169.74,-665.39 188.92,-678.5 209.63,-687.71"/>
<polygon fill="black" stroke="black" points="208.26,-690.93 218.84,-691.48 210.91,-684.45 208.26,-690.93"/>
<text text-anchor="middle" x="166" y="-626.02" font-family="monospace" font-size="8.00">data</text>
</g>
<!-- n1&#45;&gt;n4 -->
<g id="edge3" class="edge">
<title>n1&#45;&gt;n4</title>
<path fill="none" stroke="black" d="M444.48,-610.3C521.22,-597.6 625.12,-580.41 704.33,-567.3"/>
<polygon fill="black" stroke="black" points="704.55,-570.81 713.85,-565.73 703.41,-563.91 704.55,-570.81"/>
<text text-anchor="middle" x="617.86" y="-585.15" font-family="monospace" font-size="8.00">data</text>
</g>
<!-- n1&#45;&gt;n2 -->
<g id="edge4" class="edge">
<title>n1&#45;&gt;n2</title>
<path fill="none" stroke="black" d="M423.82,-647.18C484.97,-659.75 567.56,-676.73 631.1,-689.79"/>
<polygon fill="black" stroke="black" points="630.35,-693.21 640.85,-691.79 631.76,-686.35 630.35,-693.21"/>
<text text-anchor="middle" x="565.23" y="-666.9" font-family="monospace" font-size="8.00">data</text>
</g>
<!-- n1&#45;&gt;n11 -->
<g id="edge2" class="edge">
<title>n1&#45;&gt;n11</title>
<path fill="none" stroke="black" d="M320.77,-610.45C309.22,-599.47 294.08,-585.1 281.24,-572.91"/>
<polygon fill="black" stroke="black" points="283.95,-570.66 274.29,-566.31 279.13,-575.74 283.95,-570.66"/>
<text text-anchor="middle" x="311.03" y="-585.15" font-family="monospace" font-size="8.00">data</text>
</g>
</g>
</svg>
