<?xml version="1.0" encoding="UTF-8" standalone="no"?>
<!DOCTYPE svg PUBLIC "-//W3C//DTD SVG 1.1//EN"
 "http://www.w3.org/Graphics/SVG/1.1/DTD/svg11.dtd">
<!-- Generated by graphviz version 12.2.1 (20241206.2353)
 -->
<!-- Title: partition_histogram:0 Pages: 1 -->
<svg width="300pt" height="606pt"
 viewBox="0.00 0.00 300.00 606.25" xmlns="http://www.w3.org/2000/svg" xmlns:xlink="http://www.w3.org/1999/xlink">
<g id="graph0" class="graph" transform="scale(1 1) rotate(0) translate(4 602.25)">
<title>partition_histogram:0</title>
<polygon fill="white" stroke="none" points="-4,4 -4,-602.25 296,-602.25 296,4 -4,4"/>
<!-- scc0 -->
<g id="node1" class="node">
<title>scc0</title>
<path fill="#ffadad" stroke="black" d="M94,-46.25C94,-46.25 12,-46.25 12,-46.25 6,-46.25 0,-40.25 0,-34.25 0,-34.25 0,-12 0,-12 0,-6 6,0 12,0 12,0 94,0 94,0 100,0 106,-6 106,-12 106,-12 106,-34.25 106,-34.25 106,-40.25 100,-46.25 94,-46.25"/>
<text text-anchor="middle" x="53" y="-32.75" font-family="monospace" font-size="10.00">SCC 0 (cyclic)</text>
<text text-anchor="middle" x="53" y="-20" font-family="monospace" font-size="10.00">3 insts, cost=6</text>
<text text-anchor="middle" x="53" y="-7.25" font-family="monospace" font-size="10.00">stage 1</text>
</g>
<!-- scc1 -->
<g id="node2" class="node">
<title>scc1</title>
<path fill="#ffadad" stroke="black" d="M94,-138.25C94,-138.25 12,-138.25 12,-138.25 6,-138.25 0,-132.25 0,-126.25 0,-126.25 0,-104 0,-104 0,-98 6,-92 12,-92 12,-92 94,-92 94,-92 100,-92 106,-98 106,-104 106,-104 106,-126.25 106,-126.25 106,-132.25 100,-138.25 94,-138.25"/>
<text text-anchor="middle" x="53" y="-124.75" font-family="monospace" font-size="10.00">SCC 1</text>
<text text-anchor="middle" x="53" y="-112" font-family="monospace" font-size="10.00">1 insts, cost=1</text>
<text text-anchor="middle" x="53" y="-99.25" font-family="monospace" font-size="10.00">stage 1</text>
</g>
<!-- scc1&#45;&gt;scc0 -->
<g id="edge1" class="edge">
<title>scc1&#45;&gt;scc0</title>
<path fill="none" stroke="#666666" d="M53,-91.88C53,-81.68 53,-69.36 53,-58.04"/>
<polygon fill="#666666" stroke="#666666" points="56.5,-58.25 53,-48.25 49.5,-58.25 56.5,-58.25"/>
<text text-anchor="middle" x="59.75" y="-66.4" font-family="monospace" font-size="8.00">dx2</text>
</g>
<!-- scc2 -->
<g id="node3" class="node">
<title>scc2</title>
<path fill="#ffadad" stroke="black" d="M94,-230.25C94,-230.25 12,-230.25 12,-230.25 6,-230.25 0,-224.25 0,-218.25 0,-218.25 0,-196 0,-196 0,-190 6,-184 12,-184 12,-184 94,-184 94,-184 100,-184 106,-190 106,-196 106,-196 106,-218.25 106,-218.25 106,-224.25 100,-230.25 94,-230.25"/>
<text text-anchor="middle" x="53" y="-216.75" font-family="monospace" font-size="10.00">SCC 2</text>
<text text-anchor="middle" x="53" y="-204" font-family="monospace" font-size="10.00">1 insts, cost=1</text>
<text text-anchor="middle" x="53" y="-191.25" font-family="monospace" font-size="10.00">stage 1</text>
</g>
<!-- scc2&#45;&gt;scc1 -->
<g id="edge2" class="edge">
<title>scc2&#45;&gt;scc1</title>
<path fill="none" stroke="#666666" d="M53,-183.88C53,-173.68 53,-161.36 53,-150.04"/>
<polygon fill="#666666" stroke="#666666" points="56.5,-150.25 53,-140.25 49.5,-150.25 56.5,-150.25"/>
<text text-anchor="middle" x="55.25" y="-158.4" font-family="monospace" font-size="8.00">d</text>
</g>
<!-- scc3 -->
<g id="node4" class="node">
<title>scc3</title>
<path fill="#ffadad" stroke="black" d="M94,-322.25C94,-322.25 12,-322.25 12,-322.25 6,-322.25 0,-316.25 0,-310.25 0,-310.25 0,-288 0,-288 0,-282 6,-276 12,-276 12,-276 94,-276 94,-276 100,-276 106,-282 106,-288 106,-288 106,-310.25 106,-310.25 106,-316.25 100,-322.25 94,-322.25"/>
<text text-anchor="middle" x="53" y="-308.75" font-family="monospace" font-size="10.00">SCC 3</text>
<text text-anchor="middle" x="53" y="-296" font-family="monospace" font-size="10.00">1 insts, cost=1</text>
<text text-anchor="middle" x="53" y="-283.25" font-family="monospace" font-size="10.00">stage 1</text>
</g>
<!-- scc3&#45;&gt;scc2 -->
<g id="edge3" class="edge">
<title>scc3&#45;&gt;scc2</title>
<path fill="none" stroke="#666666" d="M53,-275.88C53,-265.68 53,-253.36 53,-242.04"/>
<polygon fill="#666666" stroke="#666666" points="56.5,-242.25 53,-232.25 49.5,-242.25 56.5,-242.25"/>
<text text-anchor="middle" x="55.25" y="-250.4" font-family="monospace" font-size="8.00">d</text>
</g>
<!-- scc4 -->
<g id="node5" class="node">
<title>scc4</title>
<path fill="#a0c4ff" stroke="black" d="M94,-414.25C94,-414.25 12,-414.25 12,-414.25 6,-414.25 0,-408.25 0,-402.25 0,-402.25 0,-380 0,-380 0,-374 6,-368 12,-368 12,-368 94,-368 94,-368 100,-368 106,-374 106,-380 106,-380 106,-402.25 106,-402.25 106,-408.25 100,-414.25 94,-414.25"/>
<text text-anchor="middle" x="53" y="-400.75" font-family="monospace" font-size="10.00">SCC 4</text>
<text text-anchor="middle" x="53" y="-388" font-family="monospace" font-size="10.00">1 insts, cost=4</text>
<text text-anchor="middle" x="53" y="-375.25" font-family="monospace" font-size="10.00">stage 0</text>
</g>
<!-- scc4&#45;&gt;scc3 -->
<g id="edge4" class="edge">
<title>scc4&#45;&gt;scc3</title>
<path fill="none" stroke="darkgreen" stroke-width="2" d="M53,-367.88C53,-358.11 53,-346.4 53,-335.48"/>
<polygon fill="darkgreen" stroke="darkgreen" stroke-width="2" points="56.5,-335.77 53,-325.77 49.5,-335.77 56.5,-335.77"/>
<text text-anchor="middle" x="55.25" y="-342.4" font-family="monospace" font-size="8.00">d</text>
</g>
<!-- scc5 -->
<g id="node6" class="node">
<title>scc5</title>
<path fill="#a0c4ff" stroke="black" d="M94,-506.25C94,-506.25 12,-506.25 12,-506.25 6,-506.25 0,-500.25 0,-494.25 0,-494.25 0,-472 0,-472 0,-466 6,-460 12,-460 12,-460 94,-460 94,-460 100,-460 106,-466 106,-472 106,-472 106,-494.25 106,-494.25 106,-500.25 100,-506.25 94,-506.25"/>
<text text-anchor="middle" x="53" y="-492.75" font-family="monospace" font-size="10.00">SCC 5</text>
<text text-anchor="middle" x="53" y="-480" font-family="monospace" font-size="10.00">1 insts, cost=1</text>
<text text-anchor="middle" x="53" y="-467.25" font-family="monospace" font-size="10.00">stage 0</text>
</g>
<!-- scc5&#45;&gt;scc4 -->
<g id="edge5" class="edge">
<title>scc5&#45;&gt;scc4</title>
<path fill="none" stroke="#666666" d="M53,-459.88C53,-449.68 53,-437.36 53,-426.04"/>
<polygon fill="#666666" stroke="#666666" points="56.5,-426.25 53,-416.25 49.5,-426.25 56.5,-426.25"/>
<text text-anchor="middle" x="55.25" y="-434.4" font-family="monospace" font-size="8.00">d</text>
</g>
<!-- scc6 -->
<g id="node7" class="node">
<title>scc6</title>
<path fill="#a0c4ff" stroke="black" d="M218,-414.25C218,-414.25 136,-414.25 136,-414.25 130,-414.25 124,-408.25 124,-402.25 124,-402.25 124,-380 124,-380 124,-374 130,-368 136,-368 136,-368 218,-368 218,-368 224,-368 230,-374 230,-380 230,-380 230,-402.25 230,-402.25 230,-408.25 224,-414.25 218,-414.25"/>
<text text-anchor="middle" x="177" y="-400.75" font-family="monospace" font-size="10.00">SCC 6</text>
<text text-anchor="middle" x="177" y="-388" font-family="monospace" font-size="10.00">1 insts, cost=1</text>
<text text-anchor="middle" x="177" y="-375.25" font-family="monospace" font-size="10.00">stage 0</text>
</g>
<!-- scc7 -->
<g id="node8" class="node">
<title>scc7</title>
<path fill="#a0c4ff" stroke="black" d="M218,-506.25C218,-506.25 136,-506.25 136,-506.25 130,-506.25 124,-500.25 124,-494.25 124,-494.25 124,-472 124,-472 124,-466 130,-460 136,-460 136,-460 218,-460 218,-460 224,-460 230,-466 230,-472 230,-472 230,-494.25 230,-494.25 230,-500.25 224,-506.25 218,-506.25"/>
<text text-anchor="middle" x="177" y="-492.75" font-family="monospace" font-size="10.00">SCC 7</text>
<text text-anchor="middle" x="177" y="-480" font-family="monospace" font-size="10.00">1 insts, cost=1</text>
<text text-anchor="middle" x="177" y="-467.25" font-family="monospace" font-size="10.00">stage 0</text>
</g>
<!-- scc7&#45;&gt;scc6 -->
<g id="edge6" class="edge">
<title>scc7&#45;&gt;scc6</title>
<path fill="none" stroke="#666666" d="M177,-459.88C177,-449.68 177,-437.36 177,-426.04"/>
<polygon fill="#666666" stroke="#666666" points="180.5,-426.25 177,-416.25 173.5,-426.25 180.5,-426.25"/>
<text text-anchor="middle" x="179.25" y="-434.4" font-family="monospace" font-size="8.00">d</text>
</g>
<!-- scc8 -->
<g id="node9" class="node">
<title>scc8</title>
<path fill="#a0c4ff" stroke="black" d="M156,-598.25C156,-598.25 74,-598.25 74,-598.25 68,-598.25 62,-592.25 62,-586.25 62,-586.25 62,-564 62,-564 62,-558 68,-552 74,-552 74,-552 156,-552 156,-552 162,-552 168,-558 168,-564 168,-564 168,-586.25 168,-586.25 168,-592.25 162,-598.25 156,-598.25"/>
<text text-anchor="middle" x="115" y="-584.75" font-family="monospace" font-size="10.00">SCC 8 (cyclic)</text>
<text text-anchor="middle" x="115" y="-572" font-family="monospace" font-size="10.00">2 insts, cost=1</text>
<text text-anchor="middle" x="115" y="-559.25" font-family="monospace" font-size="10.00">stage 0</text>
</g>
<!-- scc8&#45;&gt;scc5 -->
<g id="edge8" class="edge">
<title>scc8&#45;&gt;scc5</title>
<path fill="none" stroke="#666666" d="M99.67,-551.88C92.2,-541.03 83.09,-527.8 74.9,-515.91"/>
<polygon fill="#666666" stroke="#666666" points="77.99,-514.24 69.44,-507.99 72.23,-518.21 77.99,-514.24"/>
<text text-anchor="middle" x="88.11" y="-526.4" font-family="monospace" font-size="8.00">d</text>
</g>
<!-- scc8&#45;&gt;scc7 -->
<g id="edge7" class="edge">
<title>scc8&#45;&gt;scc7</title>
<path fill="none" stroke="#666666" d="M130.33,-551.88C137.8,-541.03 146.91,-527.8 155.1,-515.91"/>
<polygon fill="#666666" stroke="#666666" points="157.77,-518.21 160.56,-507.99 152.01,-514.24 157.77,-518.21"/>
<text text-anchor="middle" x="150.11" y="-526.4" font-family="monospace" font-size="8.00">d</text>
</g>
<!-- scc9 -->
<g id="node10" class="node">
<title>scc9</title>
<path fill="#a0c4ff" stroke="black" d="M280,-598.25C280,-598.25 198,-598.25 198,-598.25 192,-598.25 186,-592.25 186,-586.25 186,-586.25 186,-564 186,-564 186,-558 192,-552 198,-552 198,-552 280,-552 280,-552 286,-552 292,-558 292,-564 292,-564 292,-586.25 292,-586.25 292,-592.25 286,-598.25 280,-598.25"/>
<text text-anchor="middle" x="239" y="-584.75" font-family="monospace" font-size="10.00">SCC 9</text>
<text text-anchor="middle" x="239" y="-572" font-family="monospace" font-size="10.00">1 insts, cost=1</text>
<text text-anchor="middle" x="239" y="-559.25" font-family="monospace" font-size="10.00">stage 0</text>
</g>
</g>
</svg>
