<?xml version="1.0" encoding="UTF-8" standalone="no"?>
<!DOCTYPE svg PUBLIC "-//W3C//DTD SVG 1.1//EN"
 "http://www.w3.org/Graphics/SVG/1.1/DTD/svg11.dtd">
<!-- Generated by graphviz version 12.2.1 (20241206.2353)
 -->
<!-- Title: histogram:0 Pages: 1 -->
<svg width="1077pt" height="777pt"
 viewBox="0.00 0.00 1077.00 777.00" xmlns="http://www.w3.org/2000/svg" xmlns:xlink="http://www.w3.org/1999/xlink">
<g id="graph0" class="graph" transform="scale(1 1) rotate(0) translate(4 773)">
<title>histogram:0</title>
<polygon fill="white" stroke="none" points="-4,4 -4,-773 1073,-773 1073,4 -4,4"/>
<g id="clust1" class="cluster">
<title>cluster_scc0</title>
<path fill="none" stroke="#7f7f7f" stroke-dasharray="5,2" d="M20,-8C20,-8 442,-8 442,-8 448,-8 454,-14 454,-20 454,-20 454,-236 454,-236 454,-242 448,-248 442,-248 442,-248 20,-248 20,-248 14,-248 8,-242 8,-236 8,-236 8,-20 8,-20 8,-14 14,-8 20,-8"/>
<text text-anchor="middle" x="231" y="-230.7" font-family="Times,serif" font-size="14.00">SCC 0 (cyclic, 3 insts)</text>
</g>
<g id="clust2" class="cluster">
<title>cluster_scc8</title>
<path fill="none" stroke="#7f7f7f" stroke-dasharray="5,2" d="M187,-602.75C187,-602.75 483,-602.75 483,-602.75 489,-602.75 495,-608.75 495,-614.75 495,-614.75 495,-749 495,-749 495,-755 489,-761 483,-761 483,-761 187,-761 187,-761 181,-761 175,-755 175,-749 175,-749 175,-614.75 175,-614.75 175,-608.75 181,-602.75 187,-602.75"/>
<text text-anchor="middle" x="335" y="-743.7" font-family="Times,serif" font-size="14.00">SCC 8 (cyclic, 2 insts)</text>
</g>
<!-- n9 -->
<g id="node1" class="node">
<title>n9</title>
<path fill="#ffd6a5" stroke="black" d="M365,-215.5C365,-215.5 157,-215.5 157,-215.5 151,-215.5 145,-209.5 145,-203.5 145,-203.5 145,-191.5 145,-191.5 145,-185.5 151,-179.5 157,-179.5 157,-179.5 365,-179.5 365,-179.5 371,-179.5 377,-185.5 377,-191.5 377,-191.5 377,-203.5 377,-203.5 377,-209.5 371,-215.5 365,-215.5"/>
<text text-anchor="middle" x="261" y="-194.38" font-family="monospace" font-size="10.00">scc 0 | [9] %13 = add nsw i64 %12, 1</text>
</g>
<!-- n10 -->
<g id="node3" class="node">
<title>n10</title>
<path fill="#ffd6a5" stroke="black" d="M344,-133.75C344,-133.75 28,-133.75 28,-133.75 22,-133.75 16,-127.75 16,-121.75 16,-121.75 16,-109.75 16,-109.75 16,-103.75 22,-97.75 28,-97.75 28,-97.75 344,-97.75 344,-97.75 350,-97.75 356,-103.75 356,-109.75 356,-109.75 356,-121.75 356,-121.75 356,-127.75 350,-133.75 344,-133.75"/>
<text text-anchor="middle" x="186" y="-112.62" font-family="monospace" font-size="10.00">scc 0 | [10] store i64 %13, ptr %11, align 8, !tbaa !9</text>
</g>
<!-- n9&#45;&gt;n10 -->
<g id="edge23" class="edge">
<title>n9&#45;&gt;n10</title>
<path fill="none" stroke="black" d="M244.73,-179.2C234.6,-168.43 221.4,-154.4 210.08,-142.36"/>
<polygon fill="black" stroke="black" points="212.68,-140.01 203.28,-135.12 207.58,-144.81 212.68,-140.01"/>
<text text-anchor="middle" x="236.99" y="-153.9" font-family="monospace" font-size="8.00">data</text>
</g>
<!-- n8 -->
<g id="node2" class="node">
<title>n8</title>
<path fill="#ffd6a5" stroke="black" d="M434,-52C434,-52 118,-52 118,-52 112,-52 106,-46 106,-40 106,-40 106,-28 106,-28 106,-22 112,-16 118,-16 118,-16 434,-16 434,-16 440,-16 446,-22 446,-28 446,-28 446,-40 446,-40 446,-46 440,-52 434,-52"/>
<text text-anchor="middle" x="276" y="-30.88" font-family="monospace" font-size="10.00">scc 0 | [8] %12 = load i64, ptr %11, align 8, !tbaa !9</text>
</g>
<!-- n8&#45;&gt;n9 -->
<g id="edge21" class="edge">
<title>n8&#45;&gt;n9</title>
<path fill="none" stroke="black" d="M330.32,-52.35C373.89,-69.34 424.23,-97.89 401,-133.75 389.04,-152.22 370.22,-165.3 350.22,-174.55"/>
<polygon fill="black" stroke="black" points="348.9,-171.31 341.07,-178.45 351.64,-177.75 348.9,-171.31"/>
<text text-anchor="middle" x="415.85" y="-113.03" font-family="monospace" font-size="8.00">data</text>
</g>
<!-- n8&#45;&gt;n10 -->
<g id="edge22" class="edge">
<title>n8&#45;&gt;n10</title>
<path fill="none" stroke="red" d="M256.51,-52.27C244.02,-63.34 227.61,-77.88 213.76,-90.15"/>
<polygon fill="red" stroke="red" points="211.82,-87.19 206.66,-96.44 216.47,-92.43 211.82,-87.19"/>
<text text-anchor="middle" x="243.14" y="-72.15" font-family="monospace" font-size="8.00">mem</text>
</g>
<!-- n10&#45;&gt;n8 -->
<g id="edge24" class="edge">
<title>n10&#45;&gt;n8</title>
<path fill="none" stroke="red" d="M191.73,-97.45C195.41,-88.41 200.92,-77.67 208.5,-70 212.79,-65.66 217.73,-61.74 222.95,-58.24"/>
<polygon fill="red" stroke="red" points="224.56,-61.36 231.28,-53.17 220.91,-55.38 224.56,-61.36"/>
<text text-anchor="middle" x="215.25" y="-72.15" font-family="monospace" font-size="8.00">mem</text>
</g>
<!-- n10&#45;&gt;n10 -->
<g id="edge25" class="edge">
<title>n10&#45;&gt;n10</title>
<path fill="none" stroke="red" stroke-dasharray="5,2" d="M356.33,-121.19C367.34,-119.92 374,-118.11 374,-115.75 374,-114.35 371.65,-113.14 367.44,-112.13"/>
<polygon fill="red" stroke="red" points="368.26,-108.72 357.82,-110.56 367.13,-115.62 368.26,-108.72"/>
<text text-anchor="middle" x="383" y="-113.03" font-family="monospace" font-size="8.00">mem*</text>
</g>
<!-- n7 -->
<g id="node4" class="node">
<title>n7</title>
<path fill="#a0c4ff" stroke="black" d="M832,-215.5C832,-215.5 474,-215.5 474,-215.5 468,-215.5 462,-209.5 462,-203.5 462,-203.5 462,-191.5 462,-191.5 462,-185.5 468,-179.5 474,-179.5 474,-179.5 832,-179.5 832,-179.5 838,-179.5 844,-185.5 844,-191.5 844,-191.5 844,-203.5 844,-203.5 844,-209.5 838,-215.5 832,-215.5"/>
<text text-anchor="middle" x="653" y="-194.38" font-family="monospace" font-size="10.00">scc 1 | [7] %11 = getelementptr inbounds i64, ptr %2, i64 %10</text>
</g>
<!-- n7&#45;&gt;n8 -->
<g id="edge20" class="edge">
<title>n7&#45;&gt;n8</title>
<path fill="none" stroke="black" d="M618.77,-179.05C567.74,-153.38 468.35,-104.74 381,-70 368.79,-65.15 355.62,-60.39 342.87,-56.02"/>
<polygon fill="black" stroke="black" points="344.31,-52.82 333.71,-52.94 342.07,-59.45 344.31,-52.82"/>
<text text-anchor="middle" x="531.48" y="-113.03" font-family="monospace" font-size="8.00">data</text>
</g>
<!-- n7&#45;&gt;n10 -->
<g id="edge19" class="edge">
<title>n7&#45;&gt;n10</title>
<path fill="none" stroke="black" d="M550.8,-179.05C476.61,-166.38 376.2,-149.23 299.51,-136.13"/>
<polygon fill="black" stroke="black" points="300.31,-132.72 289.86,-134.49 299.13,-139.62 300.31,-132.72"/>
<text text-anchor="middle" x="456.46" y="-153.9" font-family="monospace" font-size="8.00">data</text>
</g>
<!-- n6 -->
<g id="node5" class="node">
<title>n6</title>
<path fill="#caffbf" stroke="black" d="M703,-319.75C703,-319.75 495,-319.75 495,-319.75 489,-319.75 483,-313.75 483,-307.75 483,-307.75 483,-295.75 483,-295.75 483,-289.75 489,-283.75 495,-283.75 495,-283.75 703,-283.75 703,-283.75 709,-283.75 715,-289.75 715,-295.75 715,-295.75 715,-307.75 715,-307.75 715,-313.75 709,-319.75 703,-319.75"/>
<text text-anchor="middle" x="599" y="-298.62" font-family="monospace" font-size="10.00">scc 2 | [6] %10 = sext i32 %9 to i64</text>
</g>
<!-- n6&#45;&gt;n7 -->
<g id="edge18" class="edge">
<title>n6&#45;&gt;n7</title>
<path fill="none" stroke="black" d="M608.16,-283.4C616.46,-267.69 628.83,-244.26 638.48,-225.99"/>
<polygon fill="black" stroke="black" points="641.51,-227.75 643.09,-217.27 635.32,-224.48 641.51,-227.75"/>
<text text-anchor="middle" x="630.16" y="-258.15" font-family="monospace" font-size="8.00">data</text>
</g>
<!-- n5 -->
<g id="node6" class="node">
<title>n5</title>
<path fill="#ffadad" stroke="black" d="M657,-401.5C657,-401.5 473,-401.5 473,-401.5 467,-401.5 461,-395.5 461,-389.5 461,-389.5 461,-377.5 461,-377.5 461,-371.5 467,-365.5 473,-365.5 473,-365.5 657,-365.5 657,-365.5 663,-365.5 669,-371.5 669,-377.5 669,-377.5 669,-389.5 669,-389.5 669,-395.5 663,-401.5 657,-401.5"/>
<text text-anchor="middle" x="565" y="-380.38" font-family="monospace" font-size="10.00">scc 3 | [5] %9 = and i32 %8, 255</text>
</g>
<!-- n5&#45;&gt;n6 -->
<g id="edge17" class="edge">
<title>n5&#45;&gt;n6</title>
<path fill="none" stroke="black" d="M572.38,-365.2C576.7,-355.06 582.26,-342.02 587.18,-330.48"/>
<polygon fill="black" stroke="black" points="590.34,-331.98 591.04,-321.41 583.9,-329.24 590.34,-331.98"/>
<text text-anchor="middle" x="593.04" y="-339.9" font-family="monospace" font-size="8.00">data</text>
</g>
<!-- n4 -->
<g id="node7" class="node">
<title>n4</title>
<path fill="#bdb2ff" stroke="black" d="M611,-483.25C611,-483.25 307,-483.25 307,-483.25 301,-483.25 295,-477.25 295,-471.25 295,-471.25 295,-459.25 295,-459.25 295,-453.25 301,-447.25 307,-447.25 307,-447.25 611,-447.25 611,-447.25 617,-447.25 623,-453.25 623,-459.25 623,-459.25 623,-471.25 623,-471.25 623,-477.25 617,-483.25 611,-483.25"/>
<text text-anchor="middle" x="459" y="-462.12" font-family="monospace" font-size="10.00">scc 4 | [4] %8 = load i32, ptr %7, align 4, !tbaa !5</text>
</g>
<!-- n4&#45;&gt;n5 -->
<g id="edge16" class="edge">
<title>n4&#45;&gt;n5</title>
<path fill="none" stroke="black" d="M482,-446.95C497,-435.66 516.79,-420.77 533.27,-408.37"/>
<polygon fill="black" stroke="black" points="534.95,-411.49 540.84,-402.68 530.74,-405.9 534.95,-411.49"/>
<text text-anchor="middle" x="527.35" y="-421.65" font-family="monospace" font-size="8.00">data</text>
</g>
<!-- n3 -->
<g id="node8" class="node">
<title>n3</title>
<path fill="#fdffb6" stroke="black" d="M565,-565C565,-565 213,-565 213,-565 207,-565 201,-559 201,-553 201,-553 201,-541 201,-541 201,-535 207,-529 213,-529 213,-529 565,-529 565,-529 571,-529 577,-535 577,-541 577,-541 577,-553 577,-553 577,-559 571,-565 565,-565"/>
<text text-anchor="middle" x="389" y="-543.88" font-family="monospace" font-size="10.00">scc 5 | [3] %7 = getelementptr inbounds i32, ptr %0, i64 %.0</text>
</g>
<!-- n3&#45;&gt;n4 -->
<g id="edge15" class="edge">
<title>n3&#45;&gt;n4</title>
<path fill="none" stroke="black" d="M404.19,-528.7C413.64,-517.93 425.96,-503.9 436.52,-491.86"/>
<polygon fill="black" stroke="black" points="438.88,-494.48 442.84,-484.66 433.62,-489.87 438.88,-494.48"/>
<text text-anchor="middle" x="437.19" y="-503.4" font-family="monospace" font-size="8.00">data</text>
</g>
<!-- n2 -->
<g id="node9" class="node">
<title>n2</title>
<path fill="#9bf6ff" stroke="black" d="M755,-646.75C755,-646.75 517,-646.75 517,-646.75 511,-646.75 505,-640.75 505,-634.75 505,-634.75 505,-622.75 505,-622.75 505,-616.75 511,-610.75 517,-610.75 517,-610.75 755,-610.75 755,-610.75 761,-610.75 767,-616.75 767,-622.75 767,-622.75 767,-634.75 767,-634.75 767,-640.75 761,-646.75 755,-646.75"/>
<text text-anchor="middle" x="636" y="-625.62" font-family="monospace" font-size="10.00">scc 6 | [2] br i1 %5, label %6, label %15</text>
</g>
<!-- n2&#45;&gt;n9 -->
<g id="edge11" class="edge">
<title>n2&#45;&gt;n9</title>
<path fill="none" stroke="blue" d="M544.38,-610.27C529.24,-607.6 513.7,-604.99 499,-602.75 431.05,-592.38 245.1,-608.65 192,-565 171.09,-547.81 173,-534.2 173,-507.12 173,-507.12 173,-507.12 173,-300.75 173,-268.08 199.12,-240.66 222.91,-222.46"/>
<polygon fill="blue" stroke="blue" points="224.93,-225.31 230.96,-216.6 220.82,-219.65 224.93,-225.31"/>
<text text-anchor="middle" x="182" y="-421.65" font-family="monospace" font-size="8.00">ctrl</text>
</g>
<!-- n2&#45;&gt;n8 -->
<g id="edge10" class="edge">
<title>n2&#45;&gt;n8</title>
<path fill="none" stroke="blue" d="M767.31,-627.28C888.89,-623.17 1051,-606.69 1051,-548 1051,-548 1051,-548 1051,-114.75 1051,-55.39 686.62,-39.94 457.56,-36.09"/>
<polygon fill="blue" stroke="blue" points="457.65,-32.59 447.59,-35.93 457.53,-39.59 457.65,-32.59"/>
<text text-anchor="middle" x="1060" y="-339.9" font-family="monospace" font-size="8.00">ctrl</text>
</g>
<!-- n2&#45;&gt;n10 -->
<g id="edge12" class="edge">
<title>n2&#45;&gt;n10</title>
<path fill="none" stroke="blue" d="M548.52,-610.29C532.12,-607.44 515.07,-604.77 499,-602.75 456.46,-597.41 117,-590.88 117,-548 117,-548 117,-548 117,-196.5 117,-174.05 132.83,-154.81 149.33,-140.85"/>
<polygon fill="blue" stroke="blue" points="151.07,-143.93 156.75,-134.99 146.73,-138.44 151.07,-143.93"/>
<text text-anchor="middle" x="126" y="-380.77" font-family="monospace" font-size="8.00">ctrl</text>
</g>
<!-- n2&#45;&gt;n7 -->
<g id="edge9" class="edge">
<title>n2&#45;&gt;n7</title>
<path fill="none" stroke="blue" d="M672.26,-610.42C680.37,-605.46 688.48,-599.53 695,-592.75 734.94,-551.19 743,-459.94 743,-425.38 743,-425.38 743,-425.38 743,-300.75 743,-267.83 716.38,-240.47 692.1,-222.37"/>
<polygon fill="blue" stroke="blue" points="694.38,-219.7 684.2,-216.77 690.33,-225.41 694.38,-219.7"/>
<text text-anchor="middle" x="752" y="-421.65" font-family="monospace" font-size="8.00">ctrl</text>
</g>
<!-- n2&#45;&gt;n6 -->
<g id="edge8" class="edge">
<title>n2&#45;&gt;n6</title>
<path fill="none" stroke="blue" d="M660.11,-610.33C677.16,-595.81 697,-573.45 697,-548 697,-548 697,-548 697,-382.5 697,-357.3 677.26,-338.65 655.49,-325.75"/>
<polygon fill="blue" stroke="blue" points="657.2,-322.7 646.74,-320.96 653.83,-328.83 657.2,-322.7"/>
<text text-anchor="middle" x="706" y="-462.52" font-family="monospace" font-size="8.00">ctrl</text>
</g>
<!-- n2&#45;&gt;n5 -->
<g id="edge7" class="edge">
<title>n2&#45;&gt;n5</title>
<path fill="none" stroke="blue" d="M639.95,-610.34C646.62,-576.94 657.08,-502.3 632,-447.25 625.19,-432.31 613.02,-419.24 600.9,-408.94"/>
<polygon fill="blue" stroke="blue" points="603.33,-406.41 593.34,-402.9 598.96,-411.88 603.33,-406.41"/>
<text text-anchor="middle" x="656.06" y="-503.4" font-family="monospace" font-size="8.00">ctrl</text>
</g>
<!-- n2&#45;&gt;n4 -->
<g id="edge6" class="edge">
<title>n2&#45;&gt;n4</title>
<path fill="none" stroke="blue" d="M630.97,-610.34C623.98,-588.84 609.49,-552.26 586,-529 568.27,-511.45 544.66,-497.95 522.6,-488.06"/>
<polygon fill="blue" stroke="blue" points="524.23,-484.95 513.66,-484.22 521.47,-491.38 524.23,-484.95"/>
<text text-anchor="middle" x="620.43" y="-544.27" font-family="monospace" font-size="8.00">ctrl</text>
</g>
<!-- n2&#45;&gt;n3 -->
<g id="edge5" class="edge">
<title>n2&#45;&gt;n3</title>
<path fill="none" stroke="blue" d="M582.1,-610.35C544.26,-598.13 493.48,-581.73 453.49,-568.82"/>
<polygon fill="blue" stroke="blue" points="454.82,-565.57 444.23,-565.83 452.67,-572.23 454.82,-565.57"/>
<text text-anchor="middle" x="536.29" y="-585.15" font-family="monospace" font-size="8.00">ctrl</text>
</g>
<!-- n11 -->
<g id="node11" class="node">
<title>n11</title>
<path fill="#e2f0cb" stroke="black" d="M475,-728.5C475,-728.5 261,-728.5 261,-728.5 255,-728.5 249,-722.5 249,-716.5 249,-716.5 249,-704.5 249,-704.5 249,-698.5 255,-692.5 261,-692.5 261,-692.5 475,-692.5 475,-692.5 481,-692.5 487,-698.5 487,-704.5 487,-704.5 487,-716.5 487,-716.5 487,-722.5 481,-728.5 475,-728.5"/>
<text text-anchor="middle" x="368" y="-707.38" font-family="monospace" font-size="10.00">scc 8 | [11] %14 = add nsw i64 %.0, 1</text>
</g>
<!-- n2&#45;&gt;n11 -->
<g id="edge13" class="edge">
<title>n2&#45;&gt;n11</title>
<path fill="none" stroke="blue" d="M575.02,-647.21C555.8,-652.76 534.5,-658.96 515,-664.75 488.94,-672.49 460.32,-681.16 435.33,-688.79"/>
<polygon fill="blue" stroke="blue" points="434.47,-685.39 425.93,-691.66 436.52,-692.08 434.47,-685.39"/>
<text text-anchor="middle" x="524" y="-666.9" font-family="monospace" font-size="8.00">ctrl</text>
</g>
<!-- n12 -->
<g id="node13" class="node">
<title>n12</title>
<path fill="#d3d3d3" stroke="black" d="M1011,-565C1011,-565 779,-565 779,-565 773,-565 767,-559 767,-553 767,-553 767,-541 767,-541 767,-535 773,-529 779,-529 779,-529 1011,-529 1011,-529 1017,-529 1023,-535 1023,-541 1023,-541 1023,-553 1023,-553 1023,-559 1017,-565 1011,-565"/>
<text text-anchor="middle" x="895" y="-543.88" font-family="monospace" font-size="10.00">scc 9 | [12] br label %4, !llvm.loop !11</text>
</g>
<!-- n2&#45;&gt;n12 -->
<g id="edge14" class="edge">
<title>n2&#45;&gt;n12</title>
<path fill="none" stroke="blue" d="M694.97,-610.29C713.56,-604.74 734.15,-598.54 753,-592.75 778.07,-585.05 805.57,-576.42 829.64,-568.82"/>
<polygon fill="blue" stroke="blue" points="830.52,-572.21 839,-565.86 828.41,-565.54 830.52,-572.21"/>
<text text-anchor="middle" x="793.17" y="-585.15" font-family="monospace" font-size="8.00">ctrl</text>
</g>
<!-- n1 -->
<g id="node10" class="node">
<title>n1</title>
<path fill="#ffc6ff" stroke="black" d="M737,-728.5C737,-728.5 523,-728.5 523,-728.5 517,-728.5 511,-722.5 511,-716.5 511,-716.5 511,-704.5 511,-704.5 511,-698.5 517,-692.5 523,-692.5 523,-692.5 737,-692.5 737,-692.5 743,-692.5 749,-698.5 749,-704.5 749,-704.5 749,-716.5 749,-716.5 749,-722.5 743,-728.5 737,-728.5"/>
<text text-anchor="middle" x="630" y="-707.38" font-family="monospace" font-size="10.00">scc 7 | [1] %5 = icmp slt i64 %.0, %1</text>
</g>
<!-- n1&#45;&gt;n2 -->
<g id="edge4" class="edge">
<title>n1&#45;&gt;n2</title>
<path fill="none" stroke="black" d="M631.3,-692.2C632.05,-682.27 633.01,-669.56 633.86,-658.2"/>
<polygon fill="black" stroke="black" points="637.33,-658.76 634.59,-648.53 630.35,-658.24 637.33,-658.76"/>
<text text-anchor="middle" x="642.36" y="-666.9" font-family="monospace" font-size="8.00">data</text>
</g>
<!-- n0 -->
<g id="node12" class="node">
<title>n0</title>
<path fill="#e2f0cb" stroke="black" d="M475,-646.75C475,-646.75 195,-646.75 195,-646.75 189,-646.75 183,-640.75 183,-634.75 183,-634.75 183,-622.75 183,-622.75 183,-616.75 189,-610.75 195,-610.75 195,-610.75 475,-610.75 475,-610.75 481,-610.75 487,-616.75 487,-622.75 487,-622.75 487,-634.75 487,-634.75 487,-640.75 481,-646.75 475,-646.75"/>
<text text-anchor="middle" x="335" y="-625.62" font-family="monospace" font-size="10.00">scc 8 | [0] %.0 = phi i64 [ 0, %3 ], [ %14, %6 ]</text>
</g>
<!-- n11&#45;&gt;n0 -->
<g id="edge26" class="edge">
<title>n11&#45;&gt;n0</title>
<path fill="none" stroke="black" stroke-dasharray="5,2" d="M339.55,-692.05C333.87,-687.13 328.68,-681.24 325.5,-674.5 323.08,-669.38 322.75,-663.65 323.52,-658.03"/>
<polygon fill="black" stroke="black" points="326.9,-658.94 325.99,-648.39 320.12,-657.21 326.9,-658.94"/>
<text text-anchor="middle" x="336.75" y="-666.9" font-family="monospace" font-size="8.00">data*</text>
</g>
<!-- n0&#45;&gt;n3 -->
<g id="edge2" class="edge">
<title>n0&#45;&gt;n3</title>
<path fill="none" stroke="black" d="M346.72,-610.45C353.79,-599.99 362.96,-586.46 370.95,-574.66"/>
<polygon fill="black" stroke="black" points="373.75,-576.77 376.46,-566.52 367.95,-572.84 373.75,-576.77"/>
<text text-anchor="middle" x="374.23" y="-585.15" font-family="monospace" font-size="8.00">data</text>
</g>
<!-- n0&#45;&gt;n1 -->
<g id="edge3" class="edge">
<title>n0&#45;&gt;n1</title>
<path fill="none" stroke="black" d="M462.13,-647.22C485.94,-651.9 510.43,-657.68 533,-664.75 551.47,-670.54 570.99,-679.04 587.65,-687.08"/>
<polygon fill="black" stroke="black" points="585.74,-690.04 596.26,-691.33 588.84,-683.77 585.74,-690.04"/>
<text text-anchor="middle" x="566.75" y="-666.9" font-family="monospace" font-size="8.00">data</text>
</g>
<!-- n0&#45;&gt;n11 -->
<g id="edge1" class="edge">
<title>n0&#45;&gt;n11</title>
<path fill="none" stroke="black" d="M343.85,-647.03C346.59,-652.62 349.54,-658.9 352,-664.75 354.3,-670.22 356.57,-676.15 358.64,-681.84"/>
<polygon fill="black" stroke="black" points="355.21,-682.64 361.85,-690.91 361.81,-680.31 355.21,-682.64"/>
<text text-anchor="middle" x="364.87" y="-666.9" font-family="monospace" font-size="8.00">data</text>
</g>
</g>
</svg>
