<?xml version="1.0" encoding="UTF-8" standalone="no"?>
<!DOCTYPE svg PUBLIC "-//W3C//DTD SVG 1.1//EN"
 "http://www.w3.org/Graphics/SVG/1.1/DTD/svg11.dtd">
<!-- Generated by graphviz version 12.2.1 (20241206.2353)
 -->
<!-- Title: partition_main:0 Pages: 1 -->
<svg width="362pt" height="330pt"
 viewBox="0.00 0.00 362.00 330.25" xmlns="http://www.w3.org/2000/svg" xmlns:xlink="http://www.w3.org/1999/xlink">
<g id="graph0" class="graph" transform="scale(1 1) rotate(0) translate(4 326.25)">
<title>partition_main:0</title>
<polygon fill="white" stroke="none" points="-4,4 -4,-326.25 358,-326.25 358,4 -4,4"/>
<!-- scc0 -->
<g id="node1" class="node">
<title>scc0</title>
<path fill="#ffadad" stroke="black" d="M144,-46.25C144,-46.25 62,-46.25 62,-46.25 56,-46.25 50,-40.25 50,-34.25 50,-34.25 50,-12 50,-12 50,-6 56,0 62,0 62,0 144,0 144,0 150,0 156,-6 156,-12 156,-12 156,-34.25 156,-34.25 156,-40.25 150,-46.25 144,-46.25"/>
<text text-anchor="middle" x="103" y="-32.75" font-family="monospace" font-size="10.00">SCC 0</text>
<text text-anchor="middle" x="103" y="-20" font-family="monospace" font-size="10.00">1 insts, cost=1</text>
<text text-anchor="middle" x="103" y="-7.25" font-family="monospace" font-size="10.00">stage 1</text>
</g>
<!-- scc1 -->
<g id="node2" class="node">
<title>scc1</title>
<path fill="#ffadad" stroke="black" d="M94,-138.25C94,-138.25 12,-138.25 12,-138.25 6,-138.25 0,-132.25 0,-126.25 0,-126.25 0,-104 0,-104 0,-98 6,-92 12,-92 12,-92 94,-92 94,-92 100,-92 106,-98 106,-104 106,-104 106,-126.25 106,-126.25 106,-132.25 100,-138.25 94,-138.25"/>
<text text-anchor="middle" x="53" y="-124.75" font-family="monospace" font-size="10.00">SCC 1</text>
<text text-anchor="middle" x="53" y="-112" font-family="monospace" font-size="10.00">1 insts, cost=1</text>
<text text-anchor="middle" x="53" y="-99.25" font-family="monospace" font-size="10.00">stage 1</text>
</g>
<!-- scc1&#45;&gt;scc0 -->
<g id="edge1" class="edge">
<title>scc1&#45;&gt;scc0</title>
<path fill="none" stroke="#666666" d="M65.36,-91.88C71.26,-81.25 78.45,-68.32 84.95,-56.62"/>
<polygon fill="#666666" stroke="#666666" points="87.9,-58.51 89.7,-48.06 81.78,-55.11 87.9,-58.51"/>
<text text-anchor="middle" x="81.75" y="-66.4" font-family="monospace" font-size="8.00">d</text>
</g>
<!-- scc2 -->
<g id="node3" class="node">
<title>scc2</title>
<path fill="#ffadad" stroke="black" d="M94,-230.25C94,-230.25 12,-230.25 12,-230.25 6,-230.25 0,-224.25 0,-218.25 0,-218.25 0,-196 0,-196 0,-190 6,-184 12,-184 12,-184 94,-184 94,-184 100,-184 106,-190 106,-196 106,-196 106,-218.25 106,-218.25 106,-224.25 100,-230.25 94,-230.25"/>
<text text-anchor="middle" x="53" y="-216.75" font-family="monospace" font-size="10.00">SCC 2</text>
<text text-anchor="middle" x="53" y="-204" font-family="monospace" font-size="10.00">1 insts, cost=1</text>
<text text-anchor="middle" x="53" y="-191.25" font-family="monospace" font-size="10.00">stage 1</text>
</g>
<!-- scc2&#45;&gt;scc1 -->
<g id="edge2" class="edge">
<title>scc2&#45;&gt;scc1</title>
<path fill="none" stroke="#666666" d="M53,-183.88C53,-173.68 53,-161.36 53,-150.04"/>
<polygon fill="#666666" stroke="#666666" points="56.5,-150.25 53,-140.25 49.5,-150.25 56.5,-150.25"/>
<text text-anchor="middle" x="55.25" y="-158.4" font-family="monospace" font-size="8.00">d</text>
</g>
<!-- scc3 -->
<g id="node4" class="node">
<title>scc3</title>
<path fill="#a0c4ff" stroke="black" d="M94,-322.25C94,-322.25 12,-322.25 12,-322.25 6,-322.25 0,-316.25 0,-310.25 0,-310.25 0,-288 0,-288 0,-282 6,-276 12,-276 12,-276 94,-276 94,-276 100,-276 106,-282 106,-288 106,-288 106,-310.25 106,-310.25 106,-316.25 100,-322.25 94,-322.25"/>
<text text-anchor="middle" x="53" y="-308.75" font-family="monospace" font-size="10.00">SCC 3 (cyclic)</text>
<text text-anchor="middle" x="53" y="-296" font-family="monospace" font-size="10.00">3 insts, cost=4</text>
<text text-anchor="middle" x="53" y="-283.25" font-family="monospace" font-size="10.00">stage 0</text>
</g>
<!-- scc3&#45;&gt;scc2 -->
<g id="edge3" class="edge">
<title>scc3&#45;&gt;scc2</title>
<path fill="none" stroke="darkgreen" stroke-width="2" d="M53,-275.88C53,-266.11 53,-254.4 53,-243.48"/>
<polygon fill="darkgreen" stroke="darkgreen" stroke-width="2" points="56.5,-243.77 53,-233.77 49.5,-243.77 56.5,-243.77"/>
<text text-anchor="middle" x="55.25" y="-250.4" font-family="monospace" font-size="8.00">d</text>
</g>
<!-- scc4 -->
<g id="node5" class="node">
<title>scc4</title>
<path fill="#ffadad" stroke="black" d="M218,-138.25C218,-138.25 136,-138.25 136,-138.25 130,-138.25 124,-132.25 124,-126.25 124,-126.25 124,-104 124,-104 124,-98 130,-92 136,-92 136,-92 218,-92 218,-92 224,-92 230,-98 230,-104 230,-104 230,-126.25 230,-126.25 230,-132.25 224,-138.25 218,-138.25"/>
<text text-anchor="middle" x="177" y="-124.75" font-family="monospace" font-size="10.00">SCC 4</text>
<text text-anchor="middle" x="177" y="-112" font-family="monospace" font-size="10.00">1 insts, cost=1</text>
<text text-anchor="middle" x="177" y="-99.25" font-family="monospace" font-size="10.00">stage 1</text>
</g>
<!-- scc4&#45;&gt;scc0 -->
<g id="edge4" class="edge">
<title>scc4&#45;&gt;scc0</title>
<path fill="none" stroke="#666666" d="M158.71,-91.88C149.7,-80.93 138.69,-67.54 128.85,-55.56"/>
<polygon fill="#666666" stroke="#666666" points="131.61,-53.41 122.56,-47.91 126.2,-57.86 131.61,-53.41"/>
<text text-anchor="middle" x="144.47" y="-66.4" font-family="monospace" font-size="8.00">d</text>
</g>
<!-- scc5 -->
<g id="node6" class="node">
<title>scc5</title>
<path fill="#ffadad" stroke="black" d="M342,-46.25C342,-46.25 260,-46.25 260,-46.25 254,-46.25 248,-40.25 248,-34.25 248,-34.25 248,-12 248,-12 248,-6 254,0 260,0 260,0 342,0 342,0 348,0 354,-6 354,-12 354,-12 354,-34.25 354,-34.25 354,-40.25 348,-46.25 342,-46.25"/>
<text text-anchor="middle" x="301" y="-32.75" font-family="monospace" font-size="10.00">SCC 5</text>
<text text-anchor="middle" x="301" y="-20" font-family="monospace" font-size="10.00">1 insts, cost=1</text>
<text text-anchor="middle" x="301" y="-7.25" font-family="monospace" font-size="10.00">stage 1</text>
</g>
<!-- scc6 -->
<g id="node7" class="node">
<title>scc6</title>
<path fill="#ffadad" stroke="black" d="M342,-138.25C342,-138.25 260,-138.25 260,-138.25 254,-138.25 248,-132.25 248,-126.25 248,-126.25 248,-104 248,-104 248,-98 254,-92 260,-92 260,-92 342,-92 342,-92 348,-92 354,-98 354,-104 354,-104 354,-126.25 354,-126.25 354,-132.25 348,-138.25 342,-138.25"/>
<text text-anchor="middle" x="301" y="-124.75" font-family="monospace" font-size="10.00">SCC 6</text>
<text text-anchor="middle" x="301" y="-112" font-family="monospace" font-size="10.00">1 insts, cost=1</text>
<text text-anchor="middle" x="301" y="-99.25" font-family="monospace" font-size="10.00">stage 1</text>
</g>
<!-- scc6&#45;&gt;scc5 -->
<g id="edge5" class="edge">
<title>scc6&#45;&gt;scc5</title>
<path fill="none" stroke="#666666" d="M301,-91.88C301,-81.68 301,-69.36 301,-58.04"/>
<polygon fill="#666666" stroke="#666666" points="304.5,-58.25 301,-48.25 297.5,-58.25 304.5,-58.25"/>
<text text-anchor="middle" x="303.25" y="-66.4" font-family="monospace" font-size="8.00">d</text>
</g>
<!-- scc7 -->
<g id="node8" class="node">
<title>scc7</title>
<path fill="#a0c4ff" stroke="black" d="M280,-230.25C280,-230.25 198,-230.25 198,-230.25 192,-230.25 186,-224.25 186,-218.25 186,-218.25 186,-196 186,-196 186,-190 192,-184 198,-184 198,-184 280,-184 280,-184 286,-184 292,-190 292,-196 292,-196 292,-218.25 292,-218.25 292,-224.25 286,-230.25 280,-230.25"/>
<text text-anchor="middle" x="239" y="-216.75" font-family="monospace" font-size="10.00">SCC 7 (cyclic)</text>
<text text-anchor="middle" x="239" y="-204" font-family="monospace" font-size="10.00">2 insts, cost=1</text>
<text text-anchor="middle" x="239" y="-191.25" font-family="monospace" font-size="10.00">stage 0</text>
</g>
<!-- scc7&#45;&gt;scc4 -->
<g id="edge6" class="edge">
<title>scc7&#45;&gt;scc4</title>
<path fill="none" stroke="darkgreen" stroke-width="2" d="M223.67,-183.88C216.5,-173.46 207.81,-160.84 199.88,-149.33"/>
<polygon fill="darkgreen" stroke="darkgreen" stroke-width="2" points="202.85,-147.48 194.3,-141.23 197.09,-151.45 202.85,-147.48"/>
<text text-anchor="middle" x="212.11" y="-158.4" font-family="monospace" font-size="8.00">d</text>
</g>
<!-- scc7&#45;&gt;scc6 -->
<g id="edge7" class="edge">
<title>scc7&#45;&gt;scc6</title>
<path fill="none" stroke="darkgreen" stroke-width="2" d="M254.33,-183.88C261.5,-173.46 270.19,-160.84 278.12,-149.33"/>
<polygon fill="darkgreen" stroke="darkgreen" stroke-width="2" points="280.91,-151.45 283.7,-141.23 275.15,-147.48 280.91,-151.45"/>
<text text-anchor="middle" x="274.11" y="-158.4" font-family="monospace" font-size="8.00">d</text>
</g>
<!-- scc8 -->
<g id="node9" class="node">
<title>scc8</title>
<path fill="#a0c4ff" stroke="black" d="M218,-322.25C218,-322.25 136,-322.25 136,-322.25 130,-322.25 124,-316.25 124,-310.25 124,-310.25 124,-288 124,-288 124,-282 130,-276 136,-276 136,-276 218,-276 218,-276 224,-276 230,-282 230,-288 230,-288 230,-310.25 230,-310.25 230,-316.25 224,-322.25 218,-322.25"/>
<text text-anchor="middle" x="177" y="-308.75" font-family="monospace" font-size="10.00">SCC 8</text>
<text text-anchor="middle" x="177" y="-296" font-family="monospace" font-size="10.00">1 insts, cost=1</text>
<text text-anchor="middle" x="177" y="-283.25" font-family="monospace" font-size="10.00">stage 0</text>
</g>
</g>
</svg>
