<?xml version="1.0" encoding="UTF-8" standalone="no"?>
<!DOCTYPE svg PUBLIC "-//W3C//DTD SVG 1.1//EN"
 "http://www.w3.org/Graphics/SVG/1.1/DTD/svg11.dtd">
<!-- Generated by graphviz version 12.2.1 (20241206.2353)
 -->
<!-- Title: main:0 Pages: 1 -->
<svg width="1421pt" height="516pt"
 viewBox="0.00 0.00 1421.00 515.75" xmlns="http://www.w3.org/2000/svg" xmlns:xlink="http://www.w3.org/1999/xlink">
<g id="graph0" class="graph" transform="scale(1 1) rotate(0) translate(4 511.75)">
<title>main:0</title>
<polygon fill="white" stroke="none" points="-4,4 -4,-511.75 1417,-511.75 1417,4 -4,4"/>
<g id="clust1" class="cluster">
<title>cluster_scc3</title>
<path fill="none" stroke="#7f7f7f" stroke-dasharray="5,2" d="M623,-73.75C623,-73.75 1039,-73.75 1039,-73.75 1045,-73.75 1051,-79.75 1051,-85.75 1051,-85.75 1051,-301.75 1051,-301.75 1051,-307.75 1045,-313.75 1039,-313.75 1039,-313.75 623,-313.75 623,-313.75 617,-313.75 611,-307.75 611,-301.75 611,-301.75 611,-85.75 611,-85.75 611,-79.75 617,-73.75 623,-73.75"/>
<text text-anchor="middle" x="831" y="-296.45" font-family="Times,serif" font-size="14.00">SCC 3 (cyclic, 3 insts)</text>
</g>
<g id="clust2" class="cluster">
<title>cluster_scc7</title>
<path fill="none" stroke="#7f7f7f" stroke-dasharray="5,2" d="M147,-341.5C147,-341.5 455,-341.5 455,-341.5 461,-341.5 467,-347.5 467,-353.5 467,-353.5 467,-487.75 467,-487.75 467,-493.75 461,-499.75 455,-499.75 455,-499.75 147,-499.75 147,-499.75 141,-499.75 135,-493.75 135,-487.75 135,-487.75 135,-353.5 135,-353.5 135,-347.5 141,-341.5 147,-341.5"/>
<text text-anchor="middle" x="301" y="-482.45" font-family="Times,serif" font-size="14.00">SCC 7 (cyclic, 2 insts)</text>
</g>
<!-- n9 -->
<g id="node1" class="node">
<title>n9</title>
<path fill="#ffd6a5" stroke="black" d="M559,-36C559,-36 249,-36 249,-36 243,-36 237,-30 237,-24 237,-24 237,-12 237,-12 237,-6 243,0 249,0 249,0 559,0 559,0 565,0 571,-6 571,-12 571,-12 571,-24 571,-24 571,-30 565,-36 559,-36"/>
<text text-anchor="middle" x="404" y="-14.88" font-family="monospace" font-size="10.00">scc 0 | [9] store i32 %19, ptr %20, align 4, !tbaa !9</text>
</g>
<!-- n7 -->
<g id="node2" class="node">
<title>n7</title>
<path fill="#a0c4ff" stroke="black" d="M514,-117.75C514,-117.75 294,-117.75 294,-117.75 288,-117.75 282,-111.75 282,-105.75 282,-105.75 282,-93.75 282,-93.75 282,-87.75 288,-81.75 294,-81.75 294,-81.75 514,-81.75 514,-81.75 520,-81.75 526,-87.75 526,-93.75 526,-93.75 526,-105.75 526,-105.75 526,-111.75 520,-117.75 514,-117.75"/>
<text text-anchor="middle" x="404" y="-96.62" font-family="monospace" font-size="10.00">scc 1 | [7] %19 = trunc i64 %18 to i32</text>
</g>
<!-- n7&#45;&gt;n9 -->
<g id="edge18" class="edge">
<title>n7&#45;&gt;n9</title>
<path fill="none" stroke="black" d="M404,-81.45C404,-71.52 404,-58.81 404,-47.45"/>
<polygon fill="black" stroke="black" points="407.5,-47.78 404,-37.78 400.5,-47.78 407.5,-47.78"/>
<text text-anchor="middle" x="413" y="-56.15" font-family="monospace" font-size="8.00">data</text>
</g>
<!-- n6 -->
<g id="node3" class="node">
<title>n6</title>
<path fill="#caffbf" stroke="black" d="M589,-199.5C589,-199.5 393,-199.5 393,-199.5 387,-199.5 381,-193.5 381,-187.5 381,-187.5 381,-175.5 381,-175.5 381,-169.5 387,-163.5 393,-163.5 393,-163.5 589,-163.5 589,-163.5 595,-163.5 601,-169.5 601,-175.5 601,-175.5 601,-187.5 601,-187.5 601,-193.5 595,-199.5 589,-199.5"/>
<text text-anchor="middle" x="491" y="-178.38" font-family="monospace" font-size="10.00">scc 2 | [6] %18 = lshr i64 %17, 32</text>
</g>
<!-- n6&#45;&gt;n7 -->
<g id="edge17" class="edge">
<title>n6&#45;&gt;n7</title>
<path fill="none" stroke="black" d="M472.12,-163.2C460.15,-152.22 444.47,-137.85 431.17,-125.66"/>
<polygon fill="black" stroke="black" points="433.69,-123.22 423.96,-119.04 428.96,-128.38 433.69,-123.22"/>
<text text-anchor="middle" x="461.71" y="-137.9" font-family="monospace" font-size="8.00">data</text>
</g>
<!-- n5 -->
<g id="node4" class="node">
<title>n5</title>
<path fill="#ffadad" stroke="black" d="M836,-281.25C836,-281.25 652,-281.25 652,-281.25 646,-281.25 640,-275.25 640,-269.25 640,-269.25 640,-257.25 640,-257.25 640,-251.25 646,-245.25 652,-245.25 652,-245.25 836,-245.25 836,-245.25 842,-245.25 848,-251.25 848,-257.25 848,-257.25 848,-269.25 848,-269.25 848,-275.25 842,-281.25 836,-281.25"/>
<text text-anchor="middle" x="744" y="-260.12" font-family="monospace" font-size="10.00">scc 3 | [5] %17 = add i64 %16, 1</text>
</g>
<!-- n5&#45;&gt;n6 -->
<g id="edge16" class="edge">
<title>n5&#45;&gt;n6</title>
<path fill="none" stroke="black" d="M688.79,-244.85C650.03,-232.63 598.02,-216.23 557.06,-203.32"/>
<polygon fill="black" stroke="black" points="558.12,-199.99 547.54,-200.32 556.02,-206.67 558.12,-199.99"/>
<text text-anchor="middle" x="641.65" y="-219.65" font-family="monospace" font-size="8.00">data</text>
</g>
<!-- n0 -->
<g id="node6" class="node">
<title>n0</title>
<path fill="#ffadad" stroke="black" d="M977,-199.5C977,-199.5 631,-199.5 631,-199.5 625,-199.5 619,-193.5 619,-187.5 619,-187.5 619,-175.5 619,-175.5 619,-169.5 625,-163.5 631,-163.5 631,-163.5 977,-163.5 977,-163.5 983,-163.5 989,-169.5 989,-175.5 989,-175.5 989,-187.5 989,-187.5 989,-193.5 983,-199.5 977,-199.5"/>
<text text-anchor="middle" x="804" y="-178.38" font-family="monospace" font-size="10.00">scc 3 | [0] %.03 = phi i64 [ 3735928559, %9 ], [ %17, %15 ]</text>
</g>
<!-- n5&#45;&gt;n0 -->
<g id="edge15" class="edge">
<title>n5&#45;&gt;n0</title>
<path fill="none" stroke="black" stroke-dasharray="5,2" d="M757.02,-244.95C764.96,-234.39 775.27,-220.69 784.2,-208.81"/>
<polygon fill="black" stroke="black" points="786.88,-211.08 790.1,-200.98 781.29,-206.87 786.88,-211.08"/>
<text text-anchor="middle" x="788.84" y="-219.65" font-family="monospace" font-size="8.00">data*</text>
</g>
<!-- n4 -->
<g id="node5" class="node">
<title>n4</title>
<path fill="#ffadad" stroke="black" d="M1031,-117.75C1031,-117.75 733,-117.75 733,-117.75 727,-117.75 721,-111.75 721,-105.75 721,-105.75 721,-93.75 721,-93.75 721,-87.75 727,-81.75 733,-81.75 733,-81.75 1031,-81.75 1031,-81.75 1037,-81.75 1043,-87.75 1043,-93.75 1043,-93.75 1043,-105.75 1043,-105.75 1043,-111.75 1037,-117.75 1031,-117.75"/>
<text text-anchor="middle" x="882" y="-96.62" font-family="monospace" font-size="10.00">scc 3 | [4] %16 = mul i64 %.03, 6364136223846793005</text>
</g>
<!-- n4&#45;&gt;n5 -->
<g id="edge14" class="edge">
<title>n4&#45;&gt;n5</title>
<path fill="none" stroke="black" d="M930.11,-118.11C972.58,-136.13 1024.01,-166.29 998,-199.5 980.27,-222.14 917.97,-237.73 859.51,-247.71"/>
<polygon fill="black" stroke="black" points="859.05,-244.24 849.76,-249.32 860.2,-251.14 859.05,-244.24"/>
<text text-anchor="middle" x="1014.02" y="-178.78" font-family="monospace" font-size="8.00">data</text>
</g>
<!-- n0&#45;&gt;n4 -->
<g id="edge1" class="edge">
<title>n0&#45;&gt;n4</title>
<path fill="none" stroke="black" d="M820.92,-163.2C831.55,-152.33 845.45,-138.12 857.3,-126.01"/>
<polygon fill="black" stroke="black" points="859.56,-128.7 864.05,-119.1 854.56,-123.8 859.56,-128.7"/>
<text text-anchor="middle" x="856.67" y="-137.9" font-family="monospace" font-size="8.00">data</text>
</g>
<!-- n8 -->
<g id="node7" class="node">
<title>n8</title>
<path fill="#bdb2ff" stroke="black" d="M382,-281.25C382,-281.25 12,-281.25 12,-281.25 6,-281.25 0,-275.25 0,-269.25 0,-269.25 0,-257.25 0,-257.25 0,-251.25 6,-245.25 12,-245.25 12,-245.25 382,-245.25 382,-245.25 388,-245.25 394,-251.25 394,-257.25 394,-257.25 394,-269.25 394,-269.25 394,-275.25 388,-281.25 382,-281.25"/>
<text text-anchor="middle" x="197" y="-260.12" font-family="monospace" font-size="10.00">scc 4 | [8] %20 = getelementptr inbounds i32, ptr %12, i64 %.02</text>
</g>
<!-- n8&#45;&gt;n9 -->
<g id="edge19" class="edge">
<title>n8&#45;&gt;n9</title>
<path fill="none" stroke="black" d="M199.42,-244.99C205.39,-208.61 224.03,-123.34 273,-73.75 287.11,-59.46 305.5,-48.72 324.03,-40.72"/>
<polygon fill="black" stroke="black" points="325.25,-44 333.21,-37 322.63,-37.51 325.25,-44"/>
<text text-anchor="middle" x="240.18" y="-137.9" font-family="monospace" font-size="8.00">data</text>
</g>
<!-- n3 -->
<g id="node8" class="node">
<title>n3</title>
<path fill="#fdffb6" stroke="black" d="M739,-385.5C739,-385.5 489,-385.5 489,-385.5 483,-385.5 477,-379.5 477,-373.5 477,-373.5 477,-361.5 477,-361.5 477,-355.5 483,-349.5 489,-349.5 489,-349.5 739,-349.5 739,-349.5 745,-349.5 751,-355.5 751,-361.5 751,-361.5 751,-373.5 751,-373.5 751,-379.5 745,-385.5 739,-385.5"/>
<text text-anchor="middle" x="614" y="-364.38" font-family="monospace" font-size="10.00">scc 5 | [3] br i1 %14, label %15, label %22</text>
</g>
<!-- n3&#45;&gt;n9 -->
<g id="edge11" class="edge">
<title>n3&#45;&gt;n9</title>
<path fill="none" stroke="blue" d="M751.35,-366.11C925.44,-364.5 1215.36,-357.79 1319,-331.5 1362.72,-320.41 1395,-309.35 1395,-264.25 1395,-264.25 1395,-264.25 1395,-98.75 1395,-58.47 867.95,-34.53 582.58,-24.51"/>
<polygon fill="blue" stroke="blue" points="582.9,-21.02 572.78,-24.17 582.65,-28.02 582.9,-21.02"/>
<text text-anchor="middle" x="1404" y="-178.78" font-family="monospace" font-size="8.00">ctrl</text>
</g>
<!-- n3&#45;&gt;n7 -->
<g id="edge9" class="edge">
<title>n3&#45;&gt;n7</title>
<path fill="none" stroke="blue" d="M564.56,-349.1C506.07,-325.49 411.66,-277.12 372,-199.5 360.22,-176.44 371.75,-148.14 384.13,-127.77"/>
<polygon fill="blue" stroke="blue" points="387.03,-129.74 389.55,-119.44 381.16,-125.92 387.03,-129.74"/>
<text text-anchor="middle" x="396.77" y="-219.65" font-family="monospace" font-size="8.00">ctrl</text>
</g>
<!-- n3&#45;&gt;n6 -->
<g id="edge8" class="edge">
<title>n3&#45;&gt;n6</title>
<path fill="none" stroke="blue" d="M602.43,-349.19C580.91,-317 534.6,-247.72 508.97,-209.39"/>
<polygon fill="blue" stroke="blue" points="511.94,-207.53 503.47,-201.16 506.12,-211.42 511.94,-207.53"/>
<text text-anchor="middle" x="587.41" y="-260.52" font-family="monospace" font-size="8.00">ctrl</text>
</g>
<!-- n3&#45;&gt;n5 -->
<g id="edge7" class="edge">
<title>n3&#45;&gt;n5</title>
<path fill="none" stroke="blue" d="M636.05,-349.15C657.16,-332.56 689.19,-307.36 712.89,-288.72"/>
<polygon fill="blue" stroke="blue" points="714.95,-291.55 720.65,-282.62 710.63,-286.05 714.95,-291.55"/>
<text text-anchor="middle" x="676.36" y="-323.9" font-family="monospace" font-size="8.00">ctrl</text>
</g>
<!-- n3&#45;&gt;n4 -->
<g id="edge6" class="edge">
<title>n3&#45;&gt;n4</title>
<path fill="none" stroke="blue" d="M751.25,-366.22C948.16,-364.37 1291.53,-355.16 1330,-313.75 1430.06,-206.05 1197.48,-147.27 1031.39,-120.06"/>
<polygon fill="blue" stroke="blue" points="1031.97,-116.61 1021.54,-118.48 1030.86,-123.52 1031.97,-116.61"/>
<text text-anchor="middle" x="1347.75" y="-219.65" font-family="monospace" font-size="8.00">ctrl</text>
</g>
<!-- n3&#45;&gt;n8 -->
<g id="edge10" class="edge">
<title>n3&#45;&gt;n8</title>
<path fill="none" stroke="blue" d="M517.96,-349.03C502.28,-346.37 486.21,-343.77 471,-341.5 435.12,-336.15 425.33,-339.74 390,-331.5 341.2,-320.12 287.51,-300.83 249.17,-285.82"/>
<polygon fill="blue" stroke="blue" points="250.78,-282.69 240.19,-282.27 248.2,-289.2 250.78,-282.69"/>
<text text-anchor="middle" x="399" y="-323.9" font-family="monospace" font-size="8.00">ctrl</text>
</g>
<!-- n10 -->
<g id="node10" class="node">
<title>n10</title>
<path fill="#ffc6ff" stroke="black" d="M447,-467.25C447,-467.25 227,-467.25 227,-467.25 221,-467.25 215,-461.25 215,-455.25 215,-455.25 215,-443.25 215,-443.25 215,-437.25 221,-431.25 227,-431.25 227,-431.25 447,-431.25 447,-431.25 453,-431.25 459,-437.25 459,-443.25 459,-443.25 459,-455.25 459,-455.25 459,-461.25 453,-467.25 447,-467.25"/>
<text text-anchor="middle" x="337" y="-446.12" font-family="monospace" font-size="10.00">scc 7 | [10] %21 = add nsw i64 %.02, 1</text>
</g>
<!-- n3&#45;&gt;n10 -->
<g id="edge12" class="edge">
<title>n3&#45;&gt;n10</title>
<path fill="none" stroke="blue" d="M553.18,-385.93C533.64,-391.53 511.9,-397.77 492,-403.5 464.68,-411.36 434.66,-420.03 408.37,-427.62"/>
<polygon fill="blue" stroke="blue" points="407.44,-424.24 398.81,-430.38 409.39,-430.97 407.44,-424.24"/>
<text text-anchor="middle" x="501" y="-405.65" font-family="monospace" font-size="8.00">ctrl</text>
</g>
<!-- n11 -->
<g id="node12" class="node">
<title>n11</title>
<path fill="#e2f0cb" stroke="black" d="M1309,-281.25C1309,-281.25 1071,-281.25 1071,-281.25 1065,-281.25 1059,-275.25 1059,-269.25 1059,-269.25 1059,-257.25 1059,-257.25 1059,-251.25 1065,-245.25 1071,-245.25 1071,-245.25 1309,-245.25 1309,-245.25 1315,-245.25 1321,-251.25 1321,-257.25 1321,-257.25 1321,-269.25 1321,-269.25 1321,-275.25 1315,-281.25 1309,-281.25"/>
<text text-anchor="middle" x="1190" y="-260.12" font-family="monospace" font-size="10.00">scc 8 | [11] br label %13, !llvm.loop !11</text>
</g>
<!-- n3&#45;&gt;n11 -->
<g id="edge13" class="edge">
<title>n3&#45;&gt;n11</title>
<path fill="none" stroke="blue" d="M751.04,-358.35C838.84,-351.11 954.71,-337.79 1055,-313.75 1083.55,-306.91 1114.36,-295.91 1139.32,-286.01"/>
<polygon fill="blue" stroke="blue" points="1140.63,-289.26 1148.59,-282.27 1138.01,-282.77 1140.63,-289.26"/>
<text text-anchor="middle" x="1016.99" y="-323.9" font-family="monospace" font-size="8.00">ctrl</text>
</g>
<!-- n2 -->
<g id="node9" class="node">
<title>n2</title>
<path fill="#9bf6ff" stroke="black" d="M725,-467.25C725,-467.25 493,-467.25 493,-467.25 487,-467.25 481,-461.25 481,-455.25 481,-455.25 481,-443.25 481,-443.25 481,-437.25 487,-431.25 493,-431.25 493,-431.25 725,-431.25 725,-431.25 731,-431.25 737,-437.25 737,-443.25 737,-443.25 737,-455.25 737,-455.25 737,-461.25 731,-467.25 725,-467.25"/>
<text text-anchor="middle" x="609" y="-446.12" font-family="monospace" font-size="10.00">scc 6 | [2] %14 = icmp slt i64 %.02, %10</text>
</g>
<!-- n2&#45;&gt;n3 -->
<g id="edge5" class="edge">
<title>n2&#45;&gt;n3</title>
<path fill="none" stroke="black" d="M610.08,-430.95C610.71,-421.02 611.5,-408.31 612.22,-396.95"/>
<polygon fill="black" stroke="black" points="615.69,-397.48 612.82,-387.28 608.7,-397.04 615.69,-397.48"/>
<text text-anchor="middle" x="620.8" y="-405.65" font-family="monospace" font-size="8.00">data</text>
</g>
<!-- n1 -->
<g id="node11" class="node">
<title>n1</title>
<path fill="#ffc6ff" stroke="black" d="M447,-385.5C447,-385.5 155,-385.5 155,-385.5 149,-385.5 143,-379.5 143,-373.5 143,-373.5 143,-361.5 143,-361.5 143,-355.5 149,-349.5 155,-349.5 155,-349.5 447,-349.5 447,-349.5 453,-349.5 459,-355.5 459,-361.5 459,-361.5 459,-373.5 459,-373.5 459,-379.5 453,-385.5 447,-385.5"/>
<text text-anchor="middle" x="301" y="-364.38" font-family="monospace" font-size="10.00">scc 7 | [1] %.02 = phi i64 [ 0, %9 ], [ %21, %15 ]</text>
</g>
<!-- n10&#45;&gt;n1 -->
<g id="edge20" class="edge">
<title>n10&#45;&gt;n1</title>
<path fill="none" stroke="black" stroke-dasharray="5,2" d="M307.89,-430.91C302.08,-425.98 296.77,-420.07 293.5,-413.25 291.08,-408.19 290.58,-402.48 291.13,-396.87"/>
<polygon fill="black" stroke="black" points="294.53,-397.74 293.13,-387.23 287.67,-396.31 294.53,-397.74"/>
<text text-anchor="middle" x="304.75" y="-405.65" font-family="monospace" font-size="8.00">data*</text>
</g>
<!-- n1&#45;&gt;n8 -->
<g id="edge3" class="edge">
<title>n1&#45;&gt;n8</title>
<path fill="none" stroke="black" d="M283.36,-349.15C266.77,-332.85 241.75,-308.25 222.9,-289.72"/>
<polygon fill="black" stroke="black" points="225.39,-287.26 215.81,-282.74 220.49,-292.25 225.39,-287.26"/>
<text text-anchor="middle" x="273.39" y="-323.9" font-family="monospace" font-size="8.00">data</text>
</g>
<!-- n1&#45;&gt;n2 -->
<g id="edge4" class="edge">
<title>n1&#45;&gt;n2</title>
<path fill="none" stroke="black" d="M436.82,-385.99C461.43,-390.64 486.68,-396.41 510,-403.5 528.98,-409.27 549.07,-417.85 566.16,-425.96"/>
<polygon fill="black" stroke="black" points="564.49,-429.04 575.02,-430.26 567.55,-422.75 564.49,-429.04"/>
<text text-anchor="middle" x="544.24" y="-405.65" font-family="monospace" font-size="8.00">data</text>
</g>
<!-- n1&#45;&gt;n10 -->
<g id="edge2" class="edge">
<title>n1&#45;&gt;n10</title>
<path fill="none" stroke="black" d="M310.94,-385.71C314.01,-391.31 317.29,-397.59 320,-403.5 322.49,-408.93 324.93,-414.84 327.14,-420.53"/>
<polygon fill="black" stroke="black" points="323.75,-421.48 330.54,-429.61 330.31,-419.02 323.75,-421.48"/>
<text text-anchor="middle" x="333.17" y="-405.65" font-family="monospace" font-size="8.00">data</text>
</g>
</g>
</svg>
