<?xml version="1.0" encoding="UTF-8" standalone="no"?>
<!DOCTYPE svg PUBLIC "-//W3C//DTD SVG 1.1//EN"
 "http://www.w3.org/Graphics/SVG/1.1/DTD/svg11.dtd">
<!-- Generated by graphviz version 12.2.1 (20241206.2353)
 -->
<!-- Title: main:1 Pages: 1 -->
<svg width="838pt" height="614pt"
 viewBox="0.00 0.00 838.00 613.50" xmlns="http://www.w3.org/2000/svg" xmlns:xlink="http://www.w3.org/1999/xlink">
<g id="graph0" class="graph" transform="scale(1 1) rotate(0) translate(4 609.5)">
<title>main:1</title>
<polygon fill="white" stroke="none" points="-4,4 -4,-609.5 834,-609.5 834,4 -4,4"/>
<g id="clust1" class="cluster">
<title>cluster_scc0</title>
<path fill="none" stroke="#7f7f7f" stroke-dasharray="5,2" d="M336,-8C336,-8 650,-8 650,-8 656,-8 662,-14 662,-20 662,-20 662,-154.25 662,-154.25 662,-160.25 656,-166.25 650,-166.25 650,-166.25 336,-166.25 336,-166.25 330,-166.25 324,-160.25 324,-154.25 324,-154.25 324,-20 324,-20 324,-14 330,-8 336,-8"/>
<text text-anchor="middle" x="493" y="-148.95" font-family="Times,serif" font-size="14.00">SCC 0 (cyclic, 2 insts)</text>
</g>
<g id="clust2" class="cluster">
<title>cluster_scc6</title>
<path fill="none" stroke="#7f7f7f" stroke-dasharray="5,2" d="M56,-439.25C56,-439.25 364,-439.25 364,-439.25 370,-439.25 376,-445.25 376,-451.25 376,-451.25 376,-585.5 376,-585.5 376,-591.5 370,-597.5 364,-597.5 364,-597.5 56,-597.5 56,-597.5 50,-597.5 44,-591.5 44,-585.5 44,-585.5 44,-451.25 44,-451.25 44,-445.25 50,-439.25 56,-439.25"/>
<text text-anchor="middle" x="210" y="-580.2" font-family="Times,serif" font-size="14.00">SCC 6 (cyclic, 2 insts)</text>
</g>
<!-- n7 -->
<g id="node1" class="node">
<title>n7</title>
<path fill="#ffd6a5" stroke="black" d="M601,-133.75C601,-133.75 375,-133.75 375,-133.75 369,-133.75 363,-127.75 363,-121.75 363,-121.75 363,-109.75 363,-109.75 363,-103.75 369,-97.75 375,-97.75 375,-97.75 601,-97.75 601,-97.75 607,-97.75 613,-103.75 613,-109.75 613,-109.75 613,-121.75 613,-121.75 613,-127.75 607,-133.75 601,-133.75"/>
<text text-anchor="middle" x="488" y="-112.62" font-family="monospace" font-size="10.00">scc 0 | [7] %32 = add nsw i64 %.01, %31</text>
</g>
<!-- n0 -->
<g id="node2" class="node">
<title>n0</title>
<path fill="#ffd6a5" stroke="black" d="M642,-52C642,-52 344,-52 344,-52 338,-52 332,-46 332,-40 332,-40 332,-28 332,-28 332,-22 338,-16 344,-16 344,-16 642,-16 642,-16 648,-16 654,-22 654,-28 654,-28 654,-40 654,-40 654,-46 648,-52 642,-52"/>
<text text-anchor="middle" x="493" y="-30.88" font-family="monospace" font-size="10.00">scc 0 | [0] %.01 = phi i64 [ 0, %22 ], [ %32, %28 ]</text>
</g>
<!-- n7&#45;&gt;n0 -->
<g id="edge15" class="edge">
<title>n7&#45;&gt;n0</title>
<path fill="none" stroke="black" stroke-dasharray="5,2" d="M470.55,-97.47C464.52,-89.4 460.04,-79.48 463.5,-70 464.56,-67.09 465.98,-64.26 467.63,-61.54"/>
<polygon fill="black" stroke="black" points="470.41,-63.68 473.46,-53.54 464.75,-59.56 470.41,-63.68"/>
<text text-anchor="middle" x="474.75" y="-72.15" font-family="monospace" font-size="8.00">data*</text>
</g>
<!-- n0&#45;&gt;n7 -->
<g id="edge1" class="edge">
<title>n0&#45;&gt;n7</title>
<path fill="none" stroke="black" d="M491.92,-52.27C491.3,-62.19 490.5,-74.9 489.79,-86.27"/>
<polygon fill="black" stroke="black" points="486.31,-85.74 489.18,-95.93 493.3,-86.17 486.31,-85.74"/>
<text text-anchor="middle" x="499.8" y="-72.15" font-family="monospace" font-size="8.00">data</text>
</g>
<!-- n6 -->
<g id="node3" class="node">
<title>n6</title>
<path fill="#a0c4ff" stroke="black" d="M506,-238C506,-238 184,-238 184,-238 178,-238 172,-232 172,-226 172,-226 172,-214 172,-214 172,-208 178,-202 184,-202 184,-202 506,-202 506,-202 512,-202 518,-208 518,-214 518,-214 518,-226 518,-226 518,-232 512,-238 506,-238"/>
<text text-anchor="middle" x="345" y="-216.88" font-family="monospace" font-size="10.00">scc 1 | [6] %31 = load i64, ptr %30, align 8, !tbaa !14</text>
</g>
<!-- n6&#45;&gt;n7 -->
<g id="edge14" class="edge">
<title>n6&#45;&gt;n7</title>
<path fill="none" stroke="black" d="M369.26,-201.65C392.68,-184.91 428.34,-159.41 454.47,-140.73"/>
<polygon fill="black" stroke="black" points="456.29,-143.72 462.39,-135.06 452.22,-138.03 456.29,-143.72"/>
<text text-anchor="middle" x="412.69" y="-176.4" font-family="monospace" font-size="8.00">data</text>
</g>
<!-- n5 -->
<g id="node4" class="node">
<title>n5</title>
<path fill="#caffbf" stroke="black" d="M460,-319.75C460,-319.75 12,-319.75 12,-319.75 6,-319.75 0,-313.75 0,-307.75 0,-307.75 0,-295.75 0,-295.75 0,-289.75 6,-283.75 12,-283.75 12,-283.75 460,-283.75 460,-283.75 466,-283.75 472,-289.75 472,-295.75 472,-295.75 472,-307.75 472,-307.75 472,-313.75 466,-319.75 460,-319.75"/>
<text text-anchor="middle" x="236" y="-298.62" font-family="monospace" font-size="10.00">scc 2 | [5] %30 = getelementptr inbounds [256 x i64], ptr %3, i64 0, i64 %29</text>
</g>
<!-- n5&#45;&gt;n6 -->
<g id="edge13" class="edge">
<title>n5&#45;&gt;n6</title>
<path fill="none" stroke="black" d="M259.65,-283.45C275.08,-272.16 295.42,-257.27 312.38,-244.87"/>
<polygon fill="black" stroke="black" points="314.17,-247.89 320.17,-239.16 310.04,-242.24 314.17,-247.89"/>
<text text-anchor="middle" x="306.03" y="-258.15" font-family="monospace" font-size="8.00">data</text>
</g>
<!-- n4 -->
<g id="node5" class="node">
<title>n4</title>
<path fill="#ffadad" stroke="black" d="M343,-401.5C343,-401.5 129,-401.5 129,-401.5 123,-401.5 117,-395.5 117,-389.5 117,-389.5 117,-377.5 117,-377.5 117,-371.5 123,-365.5 129,-365.5 129,-365.5 343,-365.5 343,-365.5 349,-365.5 355,-371.5 355,-377.5 355,-377.5 355,-389.5 355,-389.5 355,-395.5 349,-401.5 343,-401.5"/>
<text text-anchor="middle" x="236" y="-380.38" font-family="monospace" font-size="10.00">scc 3 | [4] %29 = sext i32 %.0 to i64</text>
</g>
<!-- n4&#45;&gt;n5 -->
<g id="edge12" class="edge">
<title>n4&#45;&gt;n5</title>
<path fill="none" stroke="black" d="M236,-365.2C236,-355.27 236,-342.56 236,-331.2"/>
<polygon fill="black" stroke="black" points="239.5,-331.53 236,-321.53 232.5,-331.53 239.5,-331.53"/>
<text text-anchor="middle" x="245" y="-339.9" font-family="monospace" font-size="8.00">data</text>
</g>
<!-- n3 -->
<g id="node6" class="node">
<title>n3</title>
<path fill="#bdb2ff" stroke="black" d="M648,-483.25C648,-483.25 398,-483.25 398,-483.25 392,-483.25 386,-477.25 386,-471.25 386,-471.25 386,-459.25 386,-459.25 386,-453.25 392,-447.25 398,-447.25 398,-447.25 648,-447.25 648,-447.25 654,-447.25 660,-453.25 660,-459.25 660,-459.25 660,-471.25 660,-471.25 660,-477.25 654,-483.25 648,-483.25"/>
<text text-anchor="middle" x="523" y="-462.12" font-family="monospace" font-size="10.00">scc 4 | [3] br i1 %27, label %28, label %34</text>
</g>
<!-- n3&#45;&gt;n7 -->
<g id="edge9" class="edge">
<title>n3&#45;&gt;n7</title>
<path fill="none" stroke="blue" d="M531.04,-446.93C537.68,-431.04 546,-406.69 546,-384.5 546,-384.5 546,-384.5 546,-219 546,-190.11 528.26,-161.9 512.4,-142.45"/>
<polygon fill="blue" stroke="blue" points="515.23,-140.38 506.07,-135.06 509.92,-144.93 515.23,-140.38"/>
<text text-anchor="middle" x="555" y="-299.02" font-family="monospace" font-size="8.00">ctrl</text>
</g>
<!-- n3&#45;&gt;n6 -->
<g id="edge8" class="edge">
<title>n3&#45;&gt;n6</title>
<path fill="none" stroke="blue" d="M523.73,-446.94C524.27,-412.07 520.73,-332.52 481,-283.75 466.04,-265.38 444.51,-252.14 422.97,-242.71"/>
<polygon fill="blue" stroke="blue" points="424.41,-239.51 413.83,-238.95 421.75,-245.99 424.41,-239.51"/>
<text text-anchor="middle" x="521" y="-339.9" font-family="monospace" font-size="8.00">ctrl</text>
</g>
<!-- n3&#45;&gt;n5 -->
<g id="edge7" class="edge">
<title>n3&#45;&gt;n5</title>
<path fill="none" stroke="blue" d="M496.76,-446.82C465.63,-426.42 411.9,-392.03 364,-365.5 338.16,-351.19 308.6,-336.59 284.4,-325.07"/>
<polygon fill="blue" stroke="blue" points="285.94,-321.93 275.4,-320.82 282.95,-328.26 285.94,-321.93"/>
<text text-anchor="middle" x="432.2" y="-380.77" font-family="monospace" font-size="8.00">ctrl</text>
</g>
<!-- n3&#45;&gt;n4 -->
<g id="edge6" class="edge">
<title>n3&#45;&gt;n4</title>
<path fill="none" stroke="blue" d="M456.11,-446.82C435.23,-441.29 412.14,-435.1 391,-429.25 363.12,-421.53 332.51,-412.76 305.91,-405.04"/>
<polygon fill="blue" stroke="blue" points="307.2,-401.76 296.62,-402.33 305.24,-408.49 307.2,-401.76"/>
<text text-anchor="middle" x="400" y="-421.65" font-family="monospace" font-size="8.00">ctrl</text>
</g>
<!-- n8 -->
<g id="node8" class="node">
<title>n8</title>
<path fill="#9bf6ff" stroke="black" d="M356,-565C356,-565 148,-565 148,-565 142,-565 136,-559 136,-553 136,-553 136,-541 136,-541 136,-535 142,-529 148,-529 148,-529 356,-529 356,-529 362,-529 368,-535 368,-541 368,-541 368,-553 368,-553 368,-559 362,-565 356,-565"/>
<text text-anchor="middle" x="252" y="-543.88" font-family="monospace" font-size="10.00">scc 6 | [8] %33 = add nsw i32 %.0, 1</text>
</g>
<!-- n3&#45;&gt;n8 -->
<g id="edge10" class="edge">
<title>n3&#45;&gt;n8</title>
<path fill="none" stroke="blue" d="M459.64,-483.67C439.87,-489.19 418,-495.38 398,-501.25 371.96,-508.88 343.41,-517.57 318.51,-525.24"/>
<polygon fill="blue" stroke="blue" points="317.68,-521.83 309.16,-528.13 319.75,-528.52 317.68,-521.83"/>
<text text-anchor="middle" x="407" y="-503.4" font-family="monospace" font-size="8.00">ctrl</text>
</g>
<!-- n9 -->
<g id="node10" class="node">
<title>n9</title>
<path fill="#ffc6ff" stroke="black" d="M818,-401.5C818,-401.5 586,-401.5 586,-401.5 580,-401.5 574,-395.5 574,-389.5 574,-389.5 574,-377.5 574,-377.5 574,-371.5 580,-365.5 586,-365.5 586,-365.5 818,-365.5 818,-365.5 824,-365.5 830,-371.5 830,-377.5 830,-377.5 830,-389.5 830,-389.5 830,-395.5 824,-401.5 818,-401.5"/>
<text text-anchor="middle" x="702" y="-380.38" font-family="monospace" font-size="10.00">scc 7 | [9] br label %26, !llvm.loop !16</text>
</g>
<!-- n3&#45;&gt;n9 -->
<g id="edge11" class="edge">
<title>n3&#45;&gt;n9</title>
<path fill="none" stroke="blue" d="M561.84,-446.95C588.49,-435.07 624.07,-419.22 652.72,-406.46"/>
<polygon fill="blue" stroke="blue" points="653.83,-409.79 661.54,-402.52 650.99,-403.4 653.83,-409.79"/>
<text text-anchor="middle" x="632.22" y="-421.65" font-family="monospace" font-size="8.00">ctrl</text>
</g>
<!-- n2 -->
<g id="node7" class="node">
<title>n2</title>
<path fill="#fdffb6" stroke="black" d="M630,-565C630,-565 404,-565 404,-565 398,-565 392,-559 392,-553 392,-553 392,-541 392,-541 392,-535 398,-529 404,-529 404,-529 630,-529 630,-529 636,-529 642,-535 642,-541 642,-541 642,-553 642,-553 642,-559 636,-565 630,-565"/>
<text text-anchor="middle" x="517" y="-543.88" font-family="monospace" font-size="10.00">scc 5 | [2] %27 = icmp slt i32 %.0, 256</text>
</g>
<!-- n2&#45;&gt;n3 -->
<g id="edge5" class="edge">
<title>n2&#45;&gt;n3</title>
<path fill="none" stroke="black" d="M518.3,-528.7C519.05,-518.77 520.01,-506.06 520.86,-494.7"/>
<polygon fill="black" stroke="black" points="524.33,-495.26 521.59,-485.03 517.35,-494.74 524.33,-495.26"/>
<text text-anchor="middle" x="529.36" y="-503.4" font-family="monospace" font-size="8.00">data</text>
</g>
<!-- n1 -->
<g id="node9" class="node">
<title>n1</title>
<path fill="#9bf6ff" stroke="black" d="M356,-483.25C356,-483.25 64,-483.25 64,-483.25 58,-483.25 52,-477.25 52,-471.25 52,-471.25 52,-459.25 52,-459.25 52,-453.25 58,-447.25 64,-447.25 64,-447.25 356,-447.25 356,-447.25 362,-447.25 368,-453.25 368,-459.25 368,-459.25 368,-471.25 368,-471.25 368,-477.25 362,-483.25 356,-483.25"/>
<text text-anchor="middle" x="210" y="-462.12" font-family="monospace" font-size="10.00">scc 6 | [1] %.0 = phi i32 [ 0, %22 ], [ %33, %28 ]</text>
</g>
<!-- n8&#45;&gt;n1 -->
<g id="edge16" class="edge">
<title>n8&#45;&gt;n1</title>
<path fill="none" stroke="black" stroke-dasharray="5,2" d="M220.45,-528.61C214.42,-523.75 208.93,-517.87 205.5,-511 203.02,-506.02 202.26,-500.35 202.47,-494.75"/>
<polygon fill="black" stroke="black" points="205.9,-495.5 203.79,-485.12 198.97,-494.55 205.9,-495.5"/>
<text text-anchor="middle" x="216.75" y="-503.4" font-family="monospace" font-size="8.00">data*</text>
</g>
<!-- n1&#45;&gt;n4 -->
<g id="edge3" class="edge">
<title>n1&#45;&gt;n4</title>
<path fill="none" stroke="black" d="M215.64,-446.95C218.91,-436.91 223.11,-424.04 226.84,-412.59"/>
<polygon fill="black" stroke="black" points="230.13,-413.8 229.9,-403.21 223.47,-411.63 230.13,-413.8"/>
<text text-anchor="middle" x="233.56" y="-421.65" font-family="monospace" font-size="8.00">data</text>
</g>
<!-- n1&#45;&gt;n2 -->
<g id="edge4" class="edge">
<title>n1&#45;&gt;n2</title>
<path fill="none" stroke="black" d="M342.45,-483.74C367.15,-488.41 392.55,-494.19 416,-501.25 435.5,-507.12 456.19,-515.82 473.74,-523.99"/>
<polygon fill="black" stroke="black" points="471.77,-526.93 482.31,-528.07 474.78,-520.61 471.77,-526.93"/>
<text text-anchor="middle" x="450.71" y="-503.4" font-family="monospace" font-size="8.00">data</text>
</g>
<!-- n1&#45;&gt;n8 -->
<g id="edge2" class="edge">
<title>n1&#45;&gt;n8</title>
<path fill="none" stroke="black" d="M221.46,-483.41C225.01,-489 228.82,-495.3 232,-501.25 234.88,-506.65 237.73,-512.54 240.32,-518.23"/>
<polygon fill="black" stroke="black" points="237.1,-519.61 244.34,-527.34 243.51,-516.78 237.1,-519.61"/>
<text text-anchor="middle" x="245.85" y="-503.4" font-family="monospace" font-size="8.00">data</text>
</g>
</g>
</svg>
