<?xml version="1.0" encoding="UTF-8" standalone="no"?>
<!DOCTYPE svg PUBLIC "-//W3C//DTD SVG 1.1//EN"
 "http://www.w3.org/Graphics/SVG/1.1/DTD/svg11.dtd">
<!-- Generated by graphviz version 12.2.1 (20241206.2353)
 -->
<!-- Title: partition_main:1 Pages: 1 -->
<svg width="300pt" height="422pt"
 viewBox="0.00 0.00 300.00 422.25" xmlns="http://www.w3.org/2000/svg" xmlns:xlink="http://www.w3.org/1999/xlink">
<g id="graph0" class="graph" transform="scale(1 1) rotate(0) translate(4 418.25)">
<title>partition_main:1</title>
<polygon fill="white" stroke="none" points="-4,4 -4,-418.25 296,-418.25 296,4 -4,4"/>
<!-- scc0 -->
<g id="node1" class="node">
<title>scc0</title>
<path fill="#ffadad" stroke="black" d="M94,-46.25C94,-46.25 12,-46.25 12,-46.25 6,-46.25 0,-40.25 0,-34.25 0,-34.25 0,-12 0,-12 0,-6 6,0 12,0 12,0 94,0 94,0 100,0 106,-6 106,-12 106,-12 106,-34.25 106,-34.25 106,-40.25 100,-46.25 94,-46.25"/>
<text text-anchor="middle" x="53" y="-32.75" font-family="monospace" font-size="10.00">SCC 0 (cyclic)</text>
<text text-anchor="middle" x="53" y="-20" font-family="monospace" font-size="10.00">2 insts, cost=1</text>
<text text-anchor="middle" x="53" y="-7.25" font-family="monospace" font-size="10.00">stage 1</text>
</g>
<!-- scc1 -->
<g id="node2" class="node">
<title>scc1</title>
<path fill="#ffadad" stroke="black" d="M94,-138.25C94,-138.25 12,-138.25 12,-138.25 6,-138.25 0,-132.25 0,-126.25 0,-126.25 0,-104 0,-104 0,-98 6,-92 12,-92 12,-92 94,-92 94,-92 100,-92 106,-98 106,-104 106,-104 106,-126.25 106,-126.25 106,-132.25 100,-138.25 94,-138.25"/>
<text text-anchor="middle" x="53" y="-124.75" font-family="monospace" font-size="10.00">SCC 1</text>
<text text-anchor="middle" x="53" y="-112" font-family="monospace" font-size="10.00">1 insts, cost=4</text>
<text text-anchor="middle" x="53" y="-99.25" font-family="monospace" font-size="10.00">stage 1</text>
</g>
<!-- scc1&#45;&gt;scc0 -->
<g id="edge1" class="edge">
<title>scc1&#45;&gt;scc0</title>
<path fill="none" stroke="#666666" d="M53,-91.88C53,-81.68 53,-69.36 53,-58.04"/>
<polygon fill="#666666" stroke="#666666" points="56.5,-58.25 53,-48.25 49.5,-58.25 56.5,-58.25"/>
<text text-anchor="middle" x="55.25" y="-66.4" font-family="monospace" font-size="8.00">d</text>
</g>
<!-- scc2 -->
<g id="node3" class="node">
<title>scc2</title>
<path fill="#a0c4ff" stroke="black" d="M94,-230.25C94,-230.25 12,-230.25 12,-230.25 6,-230.25 0,-224.25 0,-218.25 0,-218.25 0,-196 0,-196 0,-190 6,-184 12,-184 12,-184 94,-184 94,-184 100,-184 106,-190 106,-196 106,-196 106,-218.25 106,-218.25 106,-224.25 100,-230.25 94,-230.25"/>
<text text-anchor="middle" x="53" y="-216.75" font-family="monospace" font-size="10.00">SCC 2</text>
<text text-anchor="middle" x="53" y="-204" font-family="monospace" font-size="10.00">1 insts, cost=1</text>
<text text-anchor="middle" x="53" y="-191.25" font-family="monospace" font-size="10.00">stage 0</text>
</g>
<!-- scc2&#45;&gt;scc1 -->
<g id="edge2" class="edge">
<title>scc2&#45;&gt;scc1</title>
<path fill="none" stroke="darkgreen" stroke-width="2" d="M53,-183.88C53,-174.11 53,-162.4 53,-151.48"/>
<polygon fill="darkgreen" stroke="darkgreen" stroke-width="2" points="56.5,-151.77 53,-141.77 49.5,-151.77 56.5,-151.77"/>
<text text-anchor="middle" x="55.25" y="-158.4" font-family="monospace" font-size="8.00">d</text>
</g>
<!-- scc3 -->
<g id="node4" class="node">
<title>scc3</title>
<path fill="#a0c4ff" stroke="black" d="M94,-322.25C94,-322.25 12,-322.25 12,-322.25 6,-322.25 0,-316.25 0,-310.25 0,-310.25 0,-288 0,-288 0,-282 6,-276 12,-276 12,-276 94,-276 94,-276 100,-276 106,-282 106,-288 106,-288 106,-310.25 106,-310.25 106,-316.25 100,-322.25 94,-322.25"/>
<text text-anchor="middle" x="53" y="-308.75" font-family="monospace" font-size="10.00">SCC 3</text>
<text text-anchor="middle" x="53" y="-296" font-family="monospace" font-size="10.00">1 insts, cost=1</text>
<text text-anchor="middle" x="53" y="-283.25" font-family="monospace" font-size="10.00">stage 0</text>
</g>
<!-- scc3&#45;&gt;scc2 -->
<g id="edge3" class="edge">
<title>scc3&#45;&gt;scc2</title>
<path fill="none" stroke="#666666" d="M53,-275.88C53,-265.68 53,-253.36 53,-242.04"/>
<polygon fill="#666666" stroke="#666666" points="56.5,-242.25 53,-232.25 49.5,-242.25 56.5,-242.25"/>
<text text-anchor="middle" x="55.25" y="-250.4" font-family="monospace" font-size="8.00">d</text>
</g>
<!-- scc4 -->
<g id="node5" class="node">
<title>scc4</title>
<path fill="#ffadad" stroke="black" d="M218,-230.25C218,-230.25 136,-230.25 136,-230.25 130,-230.25 124,-224.25 124,-218.25 124,-218.25 124,-196 124,-196 124,-190 130,-184 136,-184 136,-184 218,-184 218,-184 224,-184 230,-190 230,-196 230,-196 230,-218.25 230,-218.25 230,-224.25 224,-230.25 218,-230.25"/>
<text text-anchor="middle" x="177" y="-216.75" font-family="monospace" font-size="10.00">SCC 4</text>
<text text-anchor="middle" x="177" y="-204" font-family="monospace" font-size="10.00">1 insts, cost=1</text>
<text text-anchor="middle" x="177" y="-191.25" font-family="monospace" font-size="10.00">stage 1</text>
</g>
<!-- scc5 -->
<g id="node6" class="node">
<title>scc5</title>
<path fill="#a0c4ff" stroke="black" d="M218,-322.25C218,-322.25 136,-322.25 136,-322.25 130,-322.25 124,-316.25 124,-310.25 124,-310.25 124,-288 124,-288 124,-282 130,-276 136,-276 136,-276 218,-276 218,-276 224,-276 230,-282 230,-288 230,-288 230,-310.25 230,-310.25 230,-316.25 224,-322.25 218,-322.25"/>
<text text-anchor="middle" x="177" y="-308.75" font-family="monospace" font-size="10.00">SCC 5</text>
<text text-anchor="middle" x="177" y="-296" font-family="monospace" font-size="10.00">1 insts, cost=1</text>
<text text-anchor="middle" x="177" y="-283.25" font-family="monospace" font-size="10.00">stage 0</text>
</g>
<!-- scc5&#45;&gt;scc4 -->
<g id="edge4" class="edge">
<title>scc5&#45;&gt;scc4</title>
<path fill="none" stroke="darkgreen" stroke-width="2" d="M177,-275.88C177,-266.11 177,-254.4 177,-243.48"/>
<polygon fill="darkgreen" stroke="darkgreen" stroke-width="2" points="180.5,-243.77 177,-233.77 173.5,-243.77 180.5,-243.77"/>
<text text-anchor="middle" x="179.25" y="-250.4" font-family="monospace" font-size="8.00">d</text>
</g>
<!-- scc6 -->
<g id="node7" class="node">
<title>scc6</title>
<path fill="#a0c4ff" stroke="black" d="M156,-414.25C156,-414.25 74,-414.25 74,-414.25 68,-414.25 62,-408.25 62,-402.25 62,-402.25 62,-380 62,-380 62,-374 68,-368 74,-368 74,-368 156,-368 156,-368 162,-368 168,-374 168,-380 168,-380 168,-402.25 168,-402.25 168,-408.25 162,-414.25 156,-414.25"/>
<text text-anchor="middle" x="115" y="-400.75" font-family="monospace" font-size="10.00">SCC 6 (cyclic)</text>
<text text-anchor="middle" x="115" y="-388" font-family="monospace" font-size="10.00">2 insts, cost=1</text>
<text text-anchor="middle" x="115" y="-375.25" font-family="monospace" font-size="10.00">stage 0</text>
</g>
<!-- scc6&#45;&gt;scc3 -->
<g id="edge5" class="edge">
<title>scc6&#45;&gt;scc3</title>
<path fill="none" stroke="#666666" d="M99.67,-367.88C92.2,-357.03 83.09,-343.8 74.9,-331.91"/>
<polygon fill="#666666" stroke="#666666" points="77.99,-330.24 69.44,-323.99 72.23,-334.21 77.99,-330.24"/>
<text text-anchor="middle" x="88.11" y="-342.4" font-family="monospace" font-size="8.00">d</text>
</g>
<!-- scc6&#45;&gt;scc5 -->
<g id="edge6" class="edge">
<title>scc6&#45;&gt;scc5</title>
<path fill="none" stroke="#666666" d="M130.33,-367.88C137.8,-357.03 146.91,-343.8 155.1,-331.91"/>
<polygon fill="#666666" stroke="#666666" points="157.77,-334.21 160.56,-323.99 152.01,-330.24 157.77,-334.21"/>
<text text-anchor="middle" x="150.11" y="-342.4" font-family="monospace" font-size="8.00">d</text>
</g>
<!-- scc7 -->
<g id="node8" class="node">
<title>scc7</title>
<path fill="#a0c4ff" stroke="black" d="M280,-414.25C280,-414.25 198,-414.25 198,-414.25 192,-414.25 186,-408.25 186,-402.25 186,-402.25 186,-380 186,-380 186,-374 192,-368 198,-368 198,-368 280,-368 280,-368 286,-368 292,-374 292,-380 292,-380 292,-402.25 292,-402.25 292,-408.25 286,-414.25 280,-414.25"/>
<text text-anchor="middle" x="239" y="-400.75" font-family="monospace" font-size="10.00">SCC 7</text>
<text text-anchor="middle" x="239" y="-388" font-family="monospace" font-size="10.00">1 insts, cost=1</text>
<text text-anchor="middle" x="239" y="-375.25" font-family="monospace" font-size="10.00">stage 0</text>
</g>
</g>
</svg>
