<?xml version="1.0" encoding="UTF-8" standalone="no"?>
<!DOCTYPE svg PUBLIC "-//W3C//DTD SVG 1.1//EN"
 "http://www.w3.org/Graphics/SVG/1.1/DTD/svg11.dtd">
<!-- Generated by graphviz version 12.2.1 (20241206.2353)
 -->
<!-- Title: partition_fib_iter:0 Pages: 1 -->
<svg width="362pt" height="238pt"
 viewBox="0.00 0.00 362.00 238.25" xmlns="http://www.w3.org/2000/svg" xmlns:xlink="http://www.w3.org/1999/xlink">
<g id="graph0" class="graph" transform="scale(1 1) rotate(0) translate(4 234.25)">
<title>partition_fib_iter:0</title>
<polygon fill="white" stroke="none" points="-4,4 -4,-234.25 358,-234.25 358,4 -4,4"/>
<!-- scc0 -->
<g id="node1" class="node">
<title>scc0</title>
<path fill="#a0c4ff" stroke="black" d="M94,-230.25C94,-230.25 12,-230.25 12,-230.25 6,-230.25 0,-224.25 0,-218.25 0,-218.25 0,-196 0,-196 0,-190 6,-184 12,-184 12,-184 94,-184 94,-184 100,-184 106,-190 106,-196 106,-196 106,-218.25 106,-218.25 106,-224.25 100,-230.25 94,-230.25"/>
<text text-anchor="middle" x="53" y="-216.75" font-family="monospace" font-size="10.00">SCC 0 (cyclic)</text>
<text text-anchor="middle" x="53" y="-204" font-family="monospace" font-size="10.00">3 insts, cost=1</text>
<text text-anchor="middle" x="53" y="-191.25" font-family="monospace" font-size="10.00">stage 0</text>
</g>
<!-- scc1 -->
<g id="node2" class="node">
<title>scc1</title>
<path fill="#ffadad" stroke="black" d="M218,-46.25C218,-46.25 136,-46.25 136,-46.25 130,-46.25 124,-40.25 124,-34.25 124,-34.25 124,-12 124,-12 124,-6 130,0 136,0 136,0 218,0 218,0 224,0 230,-6 230,-12 230,-12 230,-34.25 230,-34.25 230,-40.25 224,-46.25 218,-46.25"/>
<text text-anchor="middle" x="177" y="-32.75" font-family="monospace" font-size="10.00">SCC 1</text>
<text text-anchor="middle" x="177" y="-20" font-family="monospace" font-size="10.00">1 insts, cost=1</text>
<text text-anchor="middle" x="177" y="-7.25" font-family="monospace" font-size="10.00">stage 1</text>
</g>
<!-- scc2 -->
<g id="node3" class="node">
<title>scc2</title>
<path fill="#ffadad" stroke="black" d="M218,-138.25C218,-138.25 136,-138.25 136,-138.25 130,-138.25 124,-132.25 124,-126.25 124,-126.25 124,-104 124,-104 124,-98 130,-92 136,-92 136,-92 218,-92 218,-92 224,-92 230,-98 230,-104 230,-104 230,-126.25 230,-126.25 230,-132.25 224,-138.25 218,-138.25"/>
<text text-anchor="middle" x="177" y="-124.75" font-family="monospace" font-size="10.00">SCC 2</text>
<text text-anchor="middle" x="177" y="-112" font-family="monospace" font-size="10.00">1 insts, cost=1</text>
<text text-anchor="middle" x="177" y="-99.25" font-family="monospace" font-size="10.00">stage 1</text>
</g>
<!-- scc2&#45;&gt;scc1 -->
<g id="edge1" class="edge">
<title>scc2&#45;&gt;scc1</title>
<path fill="none" stroke="#666666" d="M177,-91.88C177,-81.68 177,-69.36 177,-58.04"/>
<polygon fill="#666666" stroke="#666666" points="180.5,-58.25 177,-48.25 173.5,-58.25 180.5,-58.25"/>
<text text-anchor="middle" x="179.25" y="-66.4" font-family="monospace" font-size="8.00">d</text>
</g>
<!-- scc3 -->
<g id="node4" class="node">
<title>scc3</title>
<path fill="#a0c4ff" stroke="black" d="M218,-230.25C218,-230.25 136,-230.25 136,-230.25 130,-230.25 124,-224.25 124,-218.25 124,-218.25 124,-196 124,-196 124,-190 130,-184 136,-184 136,-184 218,-184 218,-184 224,-184 230,-190 230,-196 230,-196 230,-218.25 230,-218.25 230,-224.25 224,-230.25 218,-230.25"/>
<text text-anchor="middle" x="177" y="-216.75" font-family="monospace" font-size="10.00">SCC 3 (cyclic)</text>
<text text-anchor="middle" x="177" y="-204" font-family="monospace" font-size="10.00">2 insts, cost=1</text>
<text text-anchor="middle" x="177" y="-191.25" font-family="monospace" font-size="10.00">stage 0</text>
</g>
<!-- scc3&#45;&gt;scc2 -->
<g id="edge2" class="edge">
<title>scc3&#45;&gt;scc2</title>
<path fill="none" stroke="darkgreen" stroke-width="2" d="M177,-183.88C177,-174.11 177,-162.4 177,-151.48"/>
<polygon fill="darkgreen" stroke="darkgreen" stroke-width="2" points="180.5,-151.77 177,-141.77 173.5,-151.77 180.5,-151.77"/>
<text text-anchor="middle" x="179.25" y="-158.4" font-family="monospace" font-size="8.00">d</text>
</g>
<!-- scc4 -->
<g id="node5" class="node">
<title>scc4</title>
<path fill="#ffadad" stroke="black" d="M342,-230.25C342,-230.25 260,-230.25 260,-230.25 254,-230.25 248,-224.25 248,-218.25 248,-218.25 248,-196 248,-196 248,-190 254,-184 260,-184 260,-184 342,-184 342,-184 348,-184 354,-190 354,-196 354,-196 354,-218.25 354,-218.25 354,-224.25 348,-230.25 342,-230.25"/>
<text text-anchor="middle" x="301" y="-216.75" font-family="monospace" font-size="10.00">SCC 4</text>
<text text-anchor="middle" x="301" y="-204" font-family="monospace" font-size="10.00">1 insts, cost=1</text>
<text text-anchor="middle" x="301" y="-191.25" font-family="monospace" font-size="10.00">stage 1</text>
</g>
</g>
</svg>
