<?xml version="1.0" encoding="UTF-8" standalone="no"?>
<!DOCTYPE svg PUBLIC "-//W3C//DTD SVG 1.1//EN"
 "http://www.w3.org/Graphics/SVG/1.1/DTD/svg11.dtd">
<!-- Generated by graphviz version 12.2.1 (20241206.2353)
 -->
<!-- Title: fib_iter:0 Pages: 1 -->
<svg width="642pt" height="614pt"
 viewBox="0.00 0.00 642.00 613.50" xmlns="http://www.w3.org/2000/svg" xmlns:xlink="http://www.w3.org/1999/xlink">
<g id="graph0" class="graph" transform="scale(1 1) rotate(0) translate(4 609.5)">
<title>fib_iter:0</title>
<polygon fill="white" stroke="none" points="-4,4 -4,-609.5 638,-609.5 638,4 -4,4"/>
<g id="clust1" class="cluster">
<title>cluster_scc0</title>
<path fill="none" stroke="#7f7f7f" stroke-dasharray="5,2" d="M20,-8C20,-8 370,-8 370,-8 376,-8 382,-14 382,-20 382,-20 382,-236 382,-236 382,-242 376,-248 370,-248 370,-248 20,-248 20,-248 14,-248 8,-242 8,-236 8,-236 8,-20 8,-20 8,-14 14,-8 20,-8"/>
<text text-anchor="middle" x="195" y="-230.7" font-family="Times,serif" font-size="14.00">SCC 0 (cyclic, 3 insts)</text>
</g>
<g id="clust2" class="cluster">
<title>cluster_scc3</title>
<path fill="none" stroke="#7f7f7f" stroke-dasharray="5,2" d="M148,-439.25C148,-439.25 438,-439.25 438,-439.25 444,-439.25 450,-445.25 450,-451.25 450,-451.25 450,-585.5 450,-585.5 450,-591.5 444,-597.5 438,-597.5 438,-597.5 148,-597.5 148,-597.5 142,-597.5 136,-591.5 136,-585.5 136,-585.5 136,-451.25 136,-451.25 136,-445.25 142,-439.25 148,-439.25"/>
<text text-anchor="middle" x="293" y="-580.2" font-family="Times,serif" font-size="14.00">SCC 3 (cyclic, 2 insts)</text>
</g>
<!-- n5 -->
<g id="node1" class="node">
<title>n5</title>
<path fill="#ffd6a5" stroke="black" d="M344,-215.5C344,-215.5 118,-215.5 118,-215.5 112,-215.5 106,-209.5 106,-203.5 106,-203.5 106,-191.5 106,-191.5 106,-185.5 112,-179.5 118,-179.5 118,-179.5 344,-179.5 344,-179.5 350,-179.5 356,-185.5 356,-191.5 356,-191.5 356,-203.5 356,-203.5 356,-209.5 350,-215.5 344,-215.5"/>
<text text-anchor="middle" x="231" y="-194.38" font-family="monospace" font-size="10.00">scc 0 | [5] %5 = add nsw i64 %.01, %.02</text>
</g>
<!-- n0 -->
<g id="node3" class="node">
<title>n0</title>
<path fill="#ffd6a5" stroke="black" d="M308,-133.75C308,-133.75 28,-133.75 28,-133.75 22,-133.75 16,-127.75 16,-121.75 16,-121.75 16,-109.75 16,-109.75 16,-103.75 22,-97.75 28,-97.75 28,-97.75 308,-97.75 308,-97.75 314,-97.75 320,-103.75 320,-109.75 320,-109.75 320,-121.75 320,-121.75 320,-127.75 314,-133.75 308,-133.75"/>
<text text-anchor="middle" x="168" y="-112.62" font-family="monospace" font-size="10.00">scc 0 | [0] %.02 = phi i64 [ 1, %1 ], [ %5, %4 ]</text>
</g>
<!-- n5&#45;&gt;n0 -->
<g id="edge10" class="edge">
<title>n5&#45;&gt;n0</title>
<path fill="none" stroke="black" stroke-dasharray="5,2" d="M194.59,-179.04C187.67,-174.23 181.16,-168.4 176.5,-161.5 173.29,-156.75 171.22,-151.11 169.9,-145.46"/>
<polygon fill="black" stroke="black" points="173.36,-144.95 168.35,-135.62 166.45,-146.04 173.36,-144.95"/>
<text text-anchor="middle" x="187.75" y="-153.9" font-family="monospace" font-size="8.00">data*</text>
</g>
<!-- n1 -->
<g id="node2" class="node">
<title>n1</title>
<path fill="#ffd6a5" stroke="black" d="M341,-52C341,-52 49,-52 49,-52 43,-52 37,-46 37,-40 37,-40 37,-28 37,-28 37,-22 43,-16 49,-16 49,-16 341,-16 341,-16 347,-16 353,-22 353,-28 353,-28 353,-40 353,-40 353,-46 347,-52 341,-52"/>
<text text-anchor="middle" x="195" y="-30.88" font-family="monospace" font-size="10.00">scc 0 | [1] %.01 = phi i64 [ 0, %1 ], [ %.02, %4 ]</text>
</g>
<!-- n1&#45;&gt;n5 -->
<g id="edge3" class="edge">
<title>n1&#45;&gt;n5</title>
<path fill="none" stroke="black" d="M268.63,-52.5C291.99,-61.9 315.28,-76.18 329,-97.75 337.59,-111.25 336.68,-119.71 329,-133.75 319.64,-150.86 303.4,-163.99 286.8,-173.71"/>
<polygon fill="black" stroke="black" points="285.46,-170.45 278.36,-178.32 288.82,-176.6 285.46,-170.45"/>
<text text-anchor="middle" x="344.1" y="-113.03" font-family="monospace" font-size="8.00">data</text>
</g>
<!-- n0&#45;&gt;n5 -->
<g id="edge2" class="edge">
<title>n0&#45;&gt;n5</title>
<path fill="none" stroke="black" d="M186.99,-134.18C192.43,-139.58 198.18,-145.7 203,-151.75 207.39,-157.26 211.66,-163.5 215.5,-169.53"/>
<polygon fill="black" stroke="black" points="212.49,-171.32 220.7,-178.02 218.47,-167.67 212.49,-171.32"/>
<text text-anchor="middle" x="218.87" y="-153.9" font-family="monospace" font-size="8.00">data</text>
</g>
<!-- n0&#45;&gt;n1 -->
<g id="edge1" class="edge">
<title>n0&#45;&gt;n1</title>
<path fill="none" stroke="black" stroke-dasharray="5,2" d="M173.86,-97.45C177.26,-87.41 181.61,-74.54 185.49,-63.09"/>
<polygon fill="black" stroke="black" points="188.78,-64.3 188.67,-53.7 182.15,-62.05 188.78,-64.3"/>
<text text-anchor="middle" x="194.37" y="-72.15" font-family="monospace" font-size="8.00">data*</text>
</g>
<!-- n4 -->
<g id="node4" class="node">
<title>n4</title>
<path fill="#a0c4ff" stroke="black" d="M539,-319.75C539,-319.75 307,-319.75 307,-319.75 301,-319.75 295,-313.75 295,-307.75 295,-307.75 295,-295.75 295,-295.75 295,-289.75 301,-283.75 307,-283.75 307,-283.75 539,-283.75 539,-283.75 545,-283.75 551,-289.75 551,-295.75 551,-295.75 551,-307.75 551,-307.75 551,-313.75 545,-319.75 539,-319.75"/>
<text text-anchor="middle" x="423" y="-298.62" font-family="monospace" font-size="10.00">scc 1 | [4] br i1 %3, label %4, label %7</text>
</g>
<!-- n4&#45;&gt;n5 -->
<g id="edge7" class="edge">
<title>n4&#45;&gt;n5</title>
<path fill="none" stroke="blue" d="M390.43,-283.4C358.3,-266.29 309,-240.04 273.73,-221.26"/>
<polygon fill="blue" stroke="blue" points="275.54,-218.25 265.07,-216.64 272.25,-224.43 275.54,-218.25"/>
<text text-anchor="middle" x="364.42" y="-258.15" font-family="monospace" font-size="8.00">ctrl</text>
</g>
<!-- n6 -->
<g id="node6" class="node">
<title>n6</title>
<path fill="#ffadad" stroke="black" d="M430,-565C430,-565 228,-565 228,-565 222,-565 216,-559 216,-553 216,-553 216,-541 216,-541 216,-535 222,-529 228,-529 228,-529 430,-529 430,-529 436,-529 442,-535 442,-541 442,-541 442,-553 442,-553 442,-559 436,-565 430,-565"/>
<text text-anchor="middle" x="329" y="-543.88" font-family="monospace" font-size="10.00">scc 3 | [6] %6 = add nsw i64 %.0, 1</text>
</g>
<!-- n4&#45;&gt;n6 -->
<g id="edge8" class="edge">
<title>n4&#45;&gt;n6</title>
<path fill="none" stroke="blue" d="M432.77,-320.14C450.44,-354.15 483.04,-430.73 451,-483.25 439.96,-501.35 421.85,-514.44 402.92,-523.83"/>
<polygon fill="blue" stroke="blue" points="401.67,-520.55 394.04,-527.91 404.59,-526.91 401.67,-520.55"/>
<text text-anchor="middle" x="473.53" y="-421.65" font-family="monospace" font-size="8.00">ctrl</text>
</g>
<!-- n7 -->
<g id="node8" class="node">
<title>n7</title>
<path fill="#bdb2ff" stroke="black" d="M622,-215.5C622,-215.5 402,-215.5 402,-215.5 396,-215.5 390,-209.5 390,-203.5 390,-203.5 390,-191.5 390,-191.5 390,-185.5 396,-179.5 402,-179.5 402,-179.5 622,-179.5 622,-179.5 628,-179.5 634,-185.5 634,-191.5 634,-191.5 634,-203.5 634,-203.5 634,-209.5 628,-215.5 622,-215.5"/>
<text text-anchor="middle" x="512" y="-194.38" font-family="monospace" font-size="10.00">scc 4 | [7] br label %2, !llvm.loop !5</text>
</g>
<!-- n4&#45;&gt;n7 -->
<g id="edge9" class="edge">
<title>n4&#45;&gt;n7</title>
<path fill="none" stroke="blue" d="M438.1,-283.4C452.16,-267.25 473.32,-242.94 489.4,-224.47"/>
<polygon fill="blue" stroke="blue" points="491.91,-226.91 495.83,-217.07 486.63,-222.32 491.91,-226.91"/>
<text text-anchor="middle" x="468.53" y="-258.15" font-family="monospace" font-size="8.00">ctrl</text>
</g>
<!-- n3 -->
<g id="node5" class="node">
<title>n3</title>
<path fill="#caffbf" stroke="black" d="M423,-401.5C423,-401.5 209,-401.5 209,-401.5 203,-401.5 197,-395.5 197,-389.5 197,-389.5 197,-377.5 197,-377.5 197,-371.5 203,-365.5 209,-365.5 209,-365.5 423,-365.5 423,-365.5 429,-365.5 435,-371.5 435,-377.5 435,-377.5 435,-389.5 435,-389.5 435,-395.5 429,-401.5 423,-401.5"/>
<text text-anchor="middle" x="316" y="-380.38" font-family="monospace" font-size="10.00">scc 2 | [3] %3 = icmp slt i64 %.0, %0</text>
</g>
<!-- n3&#45;&gt;n4 -->
<g id="edge6" class="edge">
<title>n3&#45;&gt;n4</title>
<path fill="none" stroke="black" d="M339.22,-365.2C354.36,-353.91 374.33,-339.02 390.97,-326.62"/>
<polygon fill="black" stroke="black" points="392.69,-329.71 398.61,-320.93 388.5,-324.1 392.69,-329.71"/>
<text text-anchor="middle" x="384.91" y="-339.9" font-family="monospace" font-size="8.00">data</text>
</g>
<!-- n2 -->
<g id="node7" class="node">
<title>n2</title>
<path fill="#ffadad" stroke="black" d="M430,-483.25C430,-483.25 156,-483.25 156,-483.25 150,-483.25 144,-477.25 144,-471.25 144,-471.25 144,-459.25 144,-459.25 144,-453.25 150,-447.25 156,-447.25 156,-447.25 430,-447.25 430,-447.25 436,-447.25 442,-453.25 442,-459.25 442,-459.25 442,-471.25 442,-471.25 442,-477.25 436,-483.25 430,-483.25"/>
<text text-anchor="middle" x="293" y="-462.12" font-family="monospace" font-size="10.00">scc 3 | [2] %.0 = phi i64 [ 0, %1 ], [ %6, %4 ]</text>
</g>
<!-- n6&#45;&gt;n2 -->
<g id="edge11" class="edge">
<title>n6&#45;&gt;n2</title>
<path fill="none" stroke="black" stroke-dasharray="5,2" d="M299.89,-528.66C294.08,-523.73 288.77,-517.82 285.5,-511 283.08,-505.94 282.58,-500.23 283.13,-494.62"/>
<polygon fill="black" stroke="black" points="286.53,-495.49 285.13,-484.98 279.67,-494.06 286.53,-495.49"/>
<text text-anchor="middle" x="296.75" y="-503.4" font-family="monospace" font-size="8.00">data*</text>
</g>
<!-- n2&#45;&gt;n3 -->
<g id="edge5" class="edge">
<title>n2&#45;&gt;n3</title>
<path fill="none" stroke="black" d="M297.99,-446.95C300.88,-436.91 304.6,-424.04 307.9,-412.59"/>
<polygon fill="black" stroke="black" points="311.19,-413.8 310.6,-403.23 304.47,-411.86 311.19,-413.8"/>
<text text-anchor="middle" x="314.88" y="-421.65" font-family="monospace" font-size="8.00">data</text>
</g>
<!-- n2&#45;&gt;n6 -->
<g id="edge4" class="edge">
<title>n2&#45;&gt;n6</title>
<path fill="none" stroke="black" d="M302.94,-483.46C306.01,-489.06 309.29,-495.34 312,-501.25 314.49,-506.68 316.93,-512.59 319.14,-518.28"/>
<polygon fill="black" stroke="black" points="315.75,-519.23 322.54,-527.36 322.31,-516.77 315.75,-519.23"/>
<text text-anchor="middle" x="325.17" y="-503.4" font-family="monospace" font-size="8.00">data</text>
</g>
</g>
</svg>
