<?xml version="1.0" encoding="UTF-8" standalone="no"?>
<!DOCTYPE svg PUBLIC "-//W3C//DTD SVG 1.1//EN"
 "http://www.w3.org/Graphics/SVG/1.1/DTD/svg11.dtd">
<!-- Generated by graphviz version 12.2.1 (20241206.2353)
 -->
<!-- Title: build_list:0 Pages: 1 -->
<svg width="1598pt" height="614pt"
 viewBox="0.00 0.00 1598.00 613.50" xmlns="http://www.w3.org/2000/svg" xmlns:xlink="http://www.w3.org/1999/xlink">
<g id="graph0" class="graph" transform="scale(1 1) rotate(0) translate(4 609.5)">
<title>build_list:0</title>
<polygon fill="white" stroke="none" points="-4,4 -4,-609.5 1594,-609.5 1594,4 -4,4"/>
<g id="clust1" class="cluster">
<title>cluster_scc0</title>
<path fill="none" stroke="#7f7f7f" stroke-dasharray="5,2" d="M648,-8C648,-8 1540,-8 1540,-8 1546,-8 1552,-14 1552,-20 1552,-20 1552,-399.5 1552,-399.5 1552,-405.5 1546,-411.5 1540,-411.5 1540,-411.5 648,-411.5 648,-411.5 642,-411.5 636,-405.5 636,-399.5 636,-399.5 636,-20 636,-20 636,-14 642,-8 648,-8"/>
<text text-anchor="middle" x="1094" y="-394.2" font-family="Times,serif" font-size="14.00">SCC 0 (cyclic, 6 insts)</text>
</g>
<g id="clust2" class="cluster">
<title>cluster_scc5</title>
<path fill="none" stroke="#7f7f7f" stroke-dasharray="5,2" d="M45,-439.25C45,-439.25 347,-439.25 347,-439.25 353,-439.25 359,-445.25 359,-451.25 359,-451.25 359,-585.5 359,-585.5 359,-591.5 353,-597.5 347,-597.5 347,-597.5 45,-597.5 45,-597.5 39,-597.5 33,-591.5 33,-585.5 33,-585.5 33,-451.25 33,-451.25 33,-445.25 39,-439.25 45,-439.25"/>
<text text-anchor="middle" x="196" y="-580.2" font-family="Times,serif" font-size="14.00">SCC 5 (cyclic, 2 insts)</text>
</g>
<!-- n9 -->
<g id="node1" class="node">
<title>n9</title>
<path fill="#ffd6a5" stroke="black" d="M1304,-379C1304,-379 868,-379 868,-379 862,-379 856,-373 856,-367 856,-367 856,-355 856,-355 856,-349 862,-343 868,-343 868,-343 1304,-343 1304,-343 1310,-343 1316,-349 1316,-355 1316,-355 1316,-367 1316,-367 1316,-373 1310,-379 1304,-379"/>
<text text-anchor="middle" x="1086" y="-357.88" font-family="monospace" font-size="10.00">scc 0 | [9] %9 = getelementptr inbounds %struct.Node, ptr %5, i32 0, i32 1</text>
</g>
<!-- n10 -->
<g id="node5" class="node">
<title>n10</title>
<path fill="#ffd6a5" stroke="black" d="M1247,-297.25C1247,-297.25 925,-297.25 925,-297.25 919,-297.25 913,-291.25 913,-285.25 913,-285.25 913,-273.25 913,-273.25 913,-267.25 919,-261.25 925,-261.25 925,-261.25 1247,-261.25 1247,-261.25 1253,-261.25 1259,-267.25 1259,-273.25 1259,-273.25 1259,-285.25 1259,-285.25 1259,-291.25 1253,-297.25 1247,-297.25"/>
<text text-anchor="middle" x="1086" y="-276.12" font-family="monospace" font-size="10.00">scc 0 | [10] store ptr %.01, ptr %9, align 8, !tbaa !11</text>
</g>
<!-- n9&#45;&gt;n10 -->
<g id="edge25" class="edge">
<title>n9&#45;&gt;n10</title>
<path fill="none" stroke="black" d="M1086,-342.7C1086,-332.77 1086,-320.06 1086,-308.7"/>
<polygon fill="black" stroke="black" points="1089.5,-309.03 1086,-299.03 1082.5,-309.03 1089.5,-309.03"/>
<text text-anchor="middle" x="1095" y="-317.4" font-family="monospace" font-size="8.00">data</text>
</g>
<!-- n8 -->
<g id="node2" class="node">
<title>n8</title>
<path fill="#ffd6a5" stroke="black" d="M1298,-52C1298,-52 982,-52 982,-52 976,-52 970,-46 970,-40 970,-40 970,-28 970,-28 970,-22 976,-16 982,-16 982,-16 1298,-16 1298,-16 1304,-16 1310,-22 1310,-28 1310,-28 1310,-40 1310,-40 1310,-46 1304,-52 1298,-52"/>
<text text-anchor="middle" x="1140" y="-30.88" font-family="monospace" font-size="10.00">scc 0 | [8] store double %7, ptr %8, align 8, !tbaa !5</text>
</g>
<!-- n8&#45;&gt;n8 -->
<g id="edge24" class="edge">
<title>n8&#45;&gt;n8</title>
<path fill="none" stroke="red" stroke-dasharray="5,2" d="M1310.33,-39.44C1321.34,-38.17 1328,-36.36 1328,-34 1328,-32.6 1325.65,-31.39 1321.44,-30.38"/>
<polygon fill="red" stroke="red" points="1322.26,-26.97 1311.82,-28.81 1321.13,-33.87 1322.26,-26.97"/>
<text text-anchor="middle" x="1337" y="-31.27" font-family="monospace" font-size="8.00">mem*</text>
</g>
<!-- n4 -->
<g id="node4" class="node">
<title>n4</title>
<path fill="#ffd6a5" stroke="black" d="M1275,-215.5C1275,-215.5 971,-215.5 971,-215.5 965,-215.5 959,-209.5 959,-203.5 959,-203.5 959,-191.5 959,-191.5 959,-185.5 965,-179.5 971,-179.5 971,-179.5 1275,-179.5 1275,-179.5 1281,-179.5 1287,-185.5 1287,-191.5 1287,-191.5 1287,-203.5 1287,-203.5 1287,-209.5 1281,-215.5 1275,-215.5"/>
<text text-anchor="middle" x="1123" y="-194.38" font-family="monospace" font-size="10.00">scc 0 | [4] %5 = call ptr @malloc(i64 noundef 16) #7</text>
</g>
<!-- n8&#45;&gt;n4 -->
<g id="edge23" class="edge">
<title>n8&#45;&gt;n4</title>
<path fill="none" stroke="red" d="M1145.24,-52.29C1150.49,-72.14 1157,-105.57 1151,-133.75 1148.43,-145.83 1143.36,-158.39 1138.23,-169.08"/>
<polygon fill="red" stroke="red" points="1135.26,-167.21 1133.86,-177.71 1141.5,-170.37 1135.26,-167.21"/>
<text text-anchor="middle" x="1160.15" y="-113.03" font-family="monospace" font-size="8.00">mem</text>
</g>
<!-- n7 -->
<g id="node3" class="node">
<title>n7</title>
<path fill="#ffd6a5" stroke="black" d="M1092,-133.75C1092,-133.75 656,-133.75 656,-133.75 650,-133.75 644,-127.75 644,-121.75 644,-121.75 644,-109.75 644,-109.75 644,-103.75 650,-97.75 656,-97.75 656,-97.75 1092,-97.75 1092,-97.75 1098,-97.75 1104,-103.75 1104,-109.75 1104,-109.75 1104,-121.75 1104,-121.75 1104,-127.75 1098,-133.75 1092,-133.75"/>
<text text-anchor="middle" x="874" y="-112.62" font-family="monospace" font-size="10.00">scc 0 | [7] %8 = getelementptr inbounds %struct.Node, ptr %5, i32 0, i32 0</text>
</g>
<!-- n7&#45;&gt;n8 -->
<g id="edge22" class="edge">
<title>n7&#45;&gt;n8</title>
<path fill="none" stroke="black" d="M932.05,-97.35C972.97,-85.08 1027.95,-68.6 1071.1,-55.66"/>
<polygon fill="black" stroke="black" points="1072.05,-59.02 1080.63,-52.8 1070.04,-52.32 1072.05,-59.02"/>
<text text-anchor="middle" x="1031.93" y="-72.15" font-family="monospace" font-size="8.00">data</text>
</g>
<!-- n4&#45;&gt;n9 -->
<g id="edge17" class="edge">
<title>n4&#45;&gt;n9</title>
<path fill="none" stroke="black" d="M1218.14,-215.97C1276.36,-231.06 1334.35,-256.93 1304,-297.25 1290.52,-315.16 1245.9,-329.56 1200.51,-340.01"/>
<polygon fill="black" stroke="black" points="1199.76,-336.6 1190.77,-342.19 1201.29,-343.43 1199.76,-336.6"/>
<text text-anchor="middle" x="1321.32" y="-276.52" font-family="monospace" font-size="8.00">data</text>
</g>
<!-- n4&#45;&gt;n8 -->
<g id="edge18" class="edge">
<title>n4&#45;&gt;n8</title>
<path fill="none" stroke="red" d="M1124.82,-179.22C1127.73,-151.53 1133.48,-96.96 1137,-63.46"/>
<polygon fill="red" stroke="red" points="1140.47,-63.98 1138.04,-53.66 1133.51,-63.24 1140.47,-63.98"/>
<text text-anchor="middle" x="1139.94" y="-113.03" font-family="monospace" font-size="8.00">mem</text>
</g>
<!-- n4&#45;&gt;n7 -->
<g id="edge16" class="edge">
<title>n4&#45;&gt;n7</title>
<path fill="none" stroke="black" d="M1068.66,-179.1C1030.52,-166.88 979.33,-150.48 939.02,-137.57"/>
<polygon fill="black" stroke="black" points="940.25,-134.29 929.66,-134.58 938.12,-140.96 940.25,-134.29"/>
<text text-anchor="middle" x="1022.41" y="-153.9" font-family="monospace" font-size="8.00">data</text>
</g>
<!-- n4&#45;&gt;n10 -->
<g id="edge19" class="edge">
<title>n4&#45;&gt;n10</title>
<path fill="none" stroke="red" d="M1100.41,-215.65C1095.24,-220.78 1090.42,-226.84 1087.5,-233.5 1085.28,-238.57 1084.18,-244.29 1083.74,-249.9"/>
<polygon fill="red" stroke="red" points="1080.25,-249.47 1083.66,-259.5 1087.25,-249.53 1080.25,-249.47"/>
<text text-anchor="middle" x="1094.25" y="-235.65" font-family="monospace" font-size="8.00">mem</text>
</g>
<!-- n0 -->
<g id="node6" class="node">
<title>n0</title>
<path fill="#ffd6a5" stroke="black" d="M1532,-133.75C1532,-133.75 1234,-133.75 1234,-133.75 1228,-133.75 1222,-127.75 1222,-121.75 1222,-121.75 1222,-109.75 1222,-109.75 1222,-103.75 1228,-97.75 1234,-97.75 1234,-97.75 1532,-97.75 1532,-97.75 1538,-97.75 1544,-103.75 1544,-109.75 1544,-109.75 1544,-121.75 1544,-121.75 1544,-127.75 1538,-133.75 1532,-133.75"/>
<text text-anchor="middle" x="1383" y="-112.62" font-family="monospace" font-size="10.00">scc 0 | [0] %.01 = phi ptr [ null, %1 ], [ %5, %4 ]</text>
</g>
<!-- n4&#45;&gt;n0 -->
<g id="edge15" class="edge">
<title>n4&#45;&gt;n0</title>
<path fill="none" stroke="black" stroke-dasharray="5,2" d="M1179.74,-179.1C1219.65,-166.85 1273.25,-150.42 1315.38,-137.49"/>
<polygon fill="black" stroke="black" points="1316.4,-140.84 1324.94,-134.56 1314.35,-134.15 1316.4,-140.84"/>
<text text-anchor="middle" x="1279.82" y="-153.9" font-family="monospace" font-size="8.00">data*</text>
</g>
<!-- n10&#45;&gt;n4 -->
<g id="edge26" class="edge">
<title>n10&#45;&gt;n4</title>
<path fill="none" stroke="red" d="M1094.03,-260.95C1098.78,-250.7 1104.91,-237.5 1110.3,-225.87"/>
<polygon fill="red" stroke="red" points="1113.32,-227.69 1114.35,-217.14 1106.97,-224.74 1113.32,-227.69"/>
<text text-anchor="middle" x="1113.47" y="-235.65" font-family="monospace" font-size="8.00">mem</text>
</g>
<!-- n10&#45;&gt;n10 -->
<g id="edge27" class="edge">
<title>n10&#45;&gt;n10</title>
<path fill="none" stroke="red" stroke-dasharray="5,2" d="M1259.33,-284.65C1270.35,-283.39 1277,-281.59 1277,-279.25 1277,-277.86 1274.66,-276.67 1270.44,-275.65"/>
<polygon fill="red" stroke="red" points="1271.26,-272.24 1260.83,-274.09 1270.13,-279.15 1271.26,-272.24"/>
<text text-anchor="middle" x="1286" y="-276.52" font-family="monospace" font-size="8.00">mem*</text>
</g>
<!-- n0&#45;&gt;n10 -->
<g id="edge1" class="edge">
<title>n0&#45;&gt;n10</title>
<path fill="none" stroke="black" d="M1372.25,-134.06C1357.64,-156.15 1329.48,-194.06 1296,-215.5 1265.85,-234.8 1229.51,-248.39 1195.59,-257.86"/>
<polygon fill="black" stroke="black" points="1194.88,-254.42 1186.13,-260.4 1196.7,-261.18 1194.88,-254.42"/>
<text text-anchor="middle" x="1345.52" y="-194.78" font-family="monospace" font-size="8.00">data</text>
</g>
<!-- n6 -->
<g id="node7" class="node">
<title>n6</title>
<path fill="#a0c4ff" stroke="black" d="M296,-297.25C296,-297.25 34,-297.25 34,-297.25 28,-297.25 22,-291.25 22,-285.25 22,-285.25 22,-273.25 22,-273.25 22,-267.25 28,-261.25 34,-261.25 34,-261.25 296,-261.25 296,-261.25 302,-261.25 308,-267.25 308,-273.25 308,-273.25 308,-285.25 308,-285.25 308,-291.25 302,-297.25 296,-297.25"/>
<text text-anchor="middle" x="165" y="-276.12" font-family="monospace" font-size="10.00">scc 1 | [6] %7 = fadd double %6, 5.000000e&#45;01</text>
</g>
<!-- n6&#45;&gt;n8 -->
<g id="edge21" class="edge">
<title>n6&#45;&gt;n8</title>
<path fill="none" stroke="black" d="M179.24,-261.01C203.39,-233.06 255.29,-178.32 312,-151.75 423.42,-99.55 750.3,-65.29 958.47,-48.1"/>
<polygon fill="black" stroke="black" points="958.65,-51.6 968.33,-47.29 958.07,-44.62 958.65,-51.6"/>
<text text-anchor="middle" x="321" y="-153.9" font-family="monospace" font-size="8.00">data</text>
</g>
<!-- n5 -->
<g id="node8" class="node">
<title>n5</title>
<path fill="#caffbf" stroke="black" d="M250,-379C250,-379 12,-379 12,-379 6,-379 0,-373 0,-367 0,-367 0,-355 0,-355 0,-349 6,-343 12,-343 12,-343 250,-343 250,-343 256,-343 262,-349 262,-355 262,-355 262,-367 262,-367 262,-373 256,-379 250,-379"/>
<text text-anchor="middle" x="131" y="-357.88" font-family="monospace" font-size="10.00">scc 2 | [5] %6 = sitofp i64 %.0 to double</text>
</g>
<!-- n5&#45;&gt;n6 -->
<g id="edge20" class="edge">
<title>n5&#45;&gt;n6</title>
<path fill="none" stroke="black" d="M138.38,-342.7C142.7,-332.56 148.26,-319.52 153.18,-307.98"/>
<polygon fill="black" stroke="black" points="156.34,-309.48 157.04,-298.91 149.9,-306.74 156.34,-309.48"/>
<text text-anchor="middle" x="159.04" y="-317.4" font-family="monospace" font-size="8.00">data</text>
</g>
<!-- n3 -->
<g id="node9" class="node">
<title>n3</title>
<path fill="#ffadad" stroke="black" d="M619,-483.25C619,-483.25 381,-483.25 381,-483.25 375,-483.25 369,-477.25 369,-471.25 369,-471.25 369,-459.25 369,-459.25 369,-453.25 375,-447.25 381,-447.25 381,-447.25 619,-447.25 619,-447.25 625,-447.25 631,-453.25 631,-459.25 631,-459.25 631,-471.25 631,-471.25 631,-477.25 625,-483.25 619,-483.25"/>
<text text-anchor="middle" x="500" y="-462.12" font-family="monospace" font-size="10.00">scc 3 | [3] br i1 %3, label %4, label %11</text>
</g>
<!-- n3&#45;&gt;n9 -->
<g id="edge11" class="edge">
<title>n3&#45;&gt;n9</title>
<path fill="none" stroke="blue" d="M631.16,-452.25C683.83,-446.57 744.99,-438.89 800,-429.25 872.1,-416.61 953.23,-397.01 1010.62,-382.22"/>
<polygon fill="blue" stroke="blue" points="1011.14,-385.7 1019.94,-379.81 1009.39,-378.93 1011.14,-385.7"/>
<text text-anchor="middle" x="856.22" y="-421.65" font-family="monospace" font-size="8.00">ctrl</text>
</g>
<!-- n3&#45;&gt;n8 -->
<g id="edge10" class="edge">
<title>n3&#45;&gt;n8</title>
<path fill="none" stroke="blue" d="M631.45,-465.13C917.7,-465.31 1572,-455.48 1572,-362 1572,-362 1572,-362 1572,-114.75 1572,-87.76 1439.91,-66.23 1321.81,-52.38"/>
<polygon fill="blue" stroke="blue" points="1322.27,-48.91 1311.93,-51.24 1321.46,-55.86 1322.27,-48.91"/>
<text text-anchor="middle" x="1581" y="-235.65" font-family="monospace" font-size="8.00">ctrl</text>
</g>
<!-- n3&#45;&gt;n7 -->
<g id="edge9" class="edge">
<title>n3&#45;&gt;n7</title>
<path fill="none" stroke="blue" d="M421.98,-446.81C400.72,-438.94 379.12,-427.64 363,-411.5 346.35,-394.83 344,-385.56 344,-362 344,-362 344,-362 344,-196.5 344,-164.96 492.65,-144.46 632.51,-132.15"/>
<polygon fill="blue" stroke="blue" points="632.68,-135.65 642.34,-131.3 632.07,-128.68 632.68,-135.65"/>
<text text-anchor="middle" x="353" y="-276.52" font-family="monospace" font-size="8.00">ctrl</text>
</g>
<!-- n3&#45;&gt;n4 -->
<g id="edge6" class="edge">
<title>n3&#45;&gt;n4</title>
<path fill="none" stroke="blue" d="M550.51,-446.79C576.7,-437.24 608.98,-424.69 637,-411.5 760.19,-353.5 778.36,-313.75 904,-261.25 945.87,-243.75 994.2,-229.34 1034.78,-218.75"/>
<polygon fill="blue" stroke="blue" points="1035.46,-222.19 1044.28,-216.32 1033.72,-215.41 1035.46,-222.19"/>
<text text-anchor="middle" x="807.09" y="-317.4" font-family="monospace" font-size="8.00">ctrl</text>
</g>
<!-- n3&#45;&gt;n10 -->
<g id="edge12" class="edge">
<title>n3&#45;&gt;n10</title>
<path fill="none" stroke="blue" d="M631.47,-451.75C675.17,-446.12 717.62,-438.61 737,-429.25 787.47,-404.88 779.71,-369.69 829,-343 865.45,-323.26 908.15,-309.64 948.16,-300.27"/>
<polygon fill="blue" stroke="blue" points="948.9,-303.69 957.89,-298.08 947.36,-296.87 948.9,-303.69"/>
<text text-anchor="middle" x="838" y="-358.27" font-family="monospace" font-size="8.00">ctrl</text>
</g>
<!-- n3&#45;&gt;n6 -->
<g id="edge8" class="edge">
<title>n3&#45;&gt;n6</title>
<path fill="none" stroke="blue" d="M403.85,-446.8C369.43,-440.1 337.28,-433.14 330,-429.25 300.98,-413.74 274.48,-346.47 271,-343 254.81,-326.89 233.68,-313.3 214.55,-302.93"/>
<polygon fill="blue" stroke="blue" points="216.29,-299.89 205.81,-298.36 213.05,-306.09 216.29,-299.89"/>
<text text-anchor="middle" x="319.36" y="-358.27" font-family="monospace" font-size="8.00">ctrl</text>
</g>
<!-- n3&#45;&gt;n5 -->
<g id="edge7" class="edge">
<title>n3&#45;&gt;n5</title>
<path fill="none" stroke="blue" d="M409.89,-446.78C394.29,-444.05 378.2,-441.42 363,-439.25 320.09,-433.13 307.62,-441.33 266,-429.25 231.26,-419.17 194.69,-400.38 168.4,-385.22"/>
<polygon fill="blue" stroke="blue" points="170.19,-382.22 159.8,-380.17 166.65,-388.25 170.19,-382.22"/>
<text text-anchor="middle" x="275" y="-421.65" font-family="monospace" font-size="8.00">ctrl</text>
</g>
<!-- n11 -->
<g id="node11" class="node">
<title>n11</title>
<path fill="#fdffb6" stroke="black" d="M339,-565C339,-565 119,-565 119,-565 113,-565 107,-559 107,-553 107,-553 107,-541 107,-541 107,-535 113,-529 119,-529 119,-529 339,-529 339,-529 345,-529 351,-535 351,-541 351,-541 351,-553 351,-553 351,-559 345,-565 339,-565"/>
<text text-anchor="middle" x="229" y="-543.88" font-family="monospace" font-size="10.00">scc 5 | [11] %10 = add nsw i64 %.0, &#45;1</text>
</g>
<!-- n3&#45;&gt;n11 -->
<g id="edge13" class="edge">
<title>n3&#45;&gt;n11</title>
<path fill="none" stroke="blue" d="M437.16,-483.72C417.55,-489.24 395.85,-495.43 376,-501.25 349.91,-508.9 321.29,-517.55 296.3,-525.2"/>
<polygon fill="blue" stroke="blue" points="295.45,-521.8 286.91,-528.07 297.5,-528.49 295.45,-521.8"/>
<text text-anchor="middle" x="385" y="-503.4" font-family="monospace" font-size="8.00">ctrl</text>
</g>
<!-- n12 -->
<g id="node13" class="node">
<title>n12</title>
<path fill="#9bf6ff" stroke="black" d="M616,-379C616,-379 384,-379 384,-379 378,-379 372,-373 372,-367 372,-367 372,-355 372,-355 372,-349 378,-343 384,-343 384,-343 616,-343 616,-343 622,-343 628,-349 628,-355 628,-355 628,-367 628,-367 628,-373 622,-379 616,-379"/>
<text text-anchor="middle" x="500" y="-357.88" font-family="monospace" font-size="10.00">scc 6 | [12] br label %2, !llvm.loop !12</text>
</g>
<!-- n3&#45;&gt;n12 -->
<g id="edge14" class="edge">
<title>n3&#45;&gt;n12</title>
<path fill="none" stroke="blue" d="M500,-446.9C500,-431.55 500,-408.85 500,-390.78"/>
<polygon fill="blue" stroke="blue" points="503.5,-390.94 500,-380.94 496.5,-390.94 503.5,-390.94"/>
<text text-anchor="middle" x="509" y="-421.65" font-family="monospace" font-size="8.00">ctrl</text>
</g>
<!-- n2 -->
<g id="node10" class="node">
<title>n2</title>
<path fill="#bdb2ff" stroke="black" d="M596,-565C596,-565 388,-565 388,-565 382,-565 376,-559 376,-553 376,-553 376,-541 376,-541 376,-535 382,-529 388,-529 388,-529 596,-529 596,-529 602,-529 608,-535 608,-541 608,-541 608,-553 608,-553 608,-559 602,-565 596,-565"/>
<text text-anchor="middle" x="492" y="-543.88" font-family="monospace" font-size="10.00">scc 4 | [2] %3 = icmp sgt i64 %.0, 0</text>
</g>
<!-- n2&#45;&gt;n3 -->
<g id="edge5" class="edge">
<title>n2&#45;&gt;n3</title>
<path fill="none" stroke="black" d="M493.74,-528.7C494.73,-518.77 496.01,-506.06 497.15,-494.7"/>
<polygon fill="black" stroke="black" points="500.6,-495.33 498.12,-485.03 493.64,-494.63 500.6,-495.33"/>
<text text-anchor="middle" x="505.48" y="-503.4" font-family="monospace" font-size="8.00">data</text>
</g>
<!-- n1 -->
<g id="node12" class="node">
<title>n1</title>
<path fill="#fdffb6" stroke="black" d="M339,-483.25C339,-483.25 53,-483.25 53,-483.25 47,-483.25 41,-477.25 41,-471.25 41,-471.25 41,-459.25 41,-459.25 41,-453.25 47,-447.25 53,-447.25 53,-447.25 339,-447.25 339,-447.25 345,-447.25 351,-453.25 351,-459.25 351,-459.25 351,-471.25 351,-471.25 351,-477.25 345,-483.25 339,-483.25"/>
<text text-anchor="middle" x="196" y="-462.12" font-family="monospace" font-size="10.00">scc 5 | [1] %.0 = phi i64 [ %0, %1 ], [ %10, %4 ]</text>
</g>
<!-- n11&#45;&gt;n1 -->
<g id="edge28" class="edge">
<title>n11&#45;&gt;n1</title>
<path fill="none" stroke="black" stroke-dasharray="5,2" d="M200.55,-528.55C194.87,-523.63 189.68,-517.74 186.5,-511 184.08,-505.88 183.75,-500.15 184.52,-494.53"/>
<polygon fill="black" stroke="black" points="187.9,-495.44 186.99,-484.89 181.12,-493.71 187.9,-495.44"/>
<text text-anchor="middle" x="197.75" y="-503.4" font-family="monospace" font-size="8.00">data*</text>
</g>
<!-- n1&#45;&gt;n5 -->
<g id="edge3" class="edge">
<title>n1&#45;&gt;n5</title>
<path fill="none" stroke="black" d="M184.97,-446.9C174.89,-431.04 159.81,-407.32 148.15,-388.98"/>
<polygon fill="black" stroke="black" points="151.21,-387.27 142.89,-380.71 145.3,-391.02 151.21,-387.27"/>
<text text-anchor="middle" x="182.12" y="-421.65" font-family="monospace" font-size="8.00">data</text>
</g>
<!-- n1&#45;&gt;n2 -->
<g id="edge4" class="edge">
<title>n1&#45;&gt;n2</title>
<path fill="none" stroke="black" d="M322.84,-483.74C346.74,-488.42 371.33,-494.2 394,-501.25 412.63,-507.05 432.36,-515.55 449.19,-523.6"/>
<polygon fill="black" stroke="black" points="447.38,-526.61 457.9,-527.85 450.45,-520.32 447.38,-526.61"/>
<text text-anchor="middle" x="427.98" y="-503.4" font-family="monospace" font-size="8.00">data</text>
</g>
<!-- n1&#45;&gt;n11 -->
<g id="edge2" class="edge">
<title>n1&#45;&gt;n11</title>
<path fill="none" stroke="black" d="M204.85,-483.53C207.59,-489.12 210.54,-495.4 213,-501.25 215.3,-506.72 217.57,-512.65 219.64,-518.34"/>
<polygon fill="black" stroke="black" points="216.21,-519.14 222.85,-527.41 222.81,-516.81 216.21,-519.14"/>
<text text-anchor="middle" x="225.87" y="-503.4" font-family="monospace" font-size="8.00">data</text>
</g>
</g>
</svg>
