<?xml version="1.0" encoding="UTF-8" standalone="no"?>
<!DOCTYPE svg PUBLIC "-//W3C//DTD SVG 1.1//EN"
 "http://www.w3.org/Graphics/SVG/1.1/DTD/svg11.dtd">
<!-- Generated by graphviz version 12.2.1 (20241206.2353)
 -->
<!-- Title: partition_build_list:0 Pages: 1 -->
<svg width="303pt" height="330pt"
 viewBox="0.00 0.00 303.00 330.25" xmlns="http://www.w3.org/2000/svg" xmlns:xlink="http://www.w3.org/1999/xlink">
<g id="graph0" class="graph" transform="scale(1 1) rotate(0) translate(4 326.25)">
<title>partition_build_list:0</title>
<polygon fill="white" stroke="none" points="-4,4 -4,-326.25 299,-326.25 299,4 -4,4"/>
<!-- scc0 -->
<g id="node1" class="node">
<title>scc0</title>
<path fill="#a0c4ff" stroke="black" d="M100,-46.25C100,-46.25 12,-46.25 12,-46.25 6,-46.25 0,-40.25 0,-34.25 0,-34.25 0,-12 0,-12 0,-6 6,0 12,0 12,0 100,0 100,0 106,0 112,-6 112,-12 112,-12 112,-34.25 112,-34.25 112,-40.25 106,-46.25 100,-46.25"/>
<text text-anchor="middle" x="56" y="-32.75" font-family="monospace" font-size="10.00">SCC 0 (cyclic)</text>
<text text-anchor="middle" x="56" y="-20" font-family="monospace" font-size="10.00">6 insts, cost=34</text>
<text text-anchor="middle" x="56" y="-7.25" font-family="monospace" font-size="10.00">stage 0</text>
</g>
<!-- scc1 -->
<g id="node2" class="node">
<title>scc1</title>
<path fill="#a0c4ff" stroke="black" d="M97,-138.25C97,-138.25 15,-138.25 15,-138.25 9,-138.25 3,-132.25 3,-126.25 3,-126.25 3,-104 3,-104 3,-98 9,-92 15,-92 15,-92 97,-92 97,-92 103,-92 109,-98 109,-104 109,-104 109,-126.25 109,-126.25 109,-132.25 103,-138.25 97,-138.25"/>
<text text-anchor="middle" x="56" y="-124.75" font-family="monospace" font-size="10.00">SCC 1</text>
<text text-anchor="middle" x="56" y="-112" font-family="monospace" font-size="10.00">1 insts, cost=1</text>
<text text-anchor="middle" x="56" y="-99.25" font-family="monospace" font-size="10.00">stage 0</text>
</g>
<!-- scc1&#45;&gt;scc0 -->
<g id="edge1" class="edge">
<title>scc1&#45;&gt;scc0</title>
<path fill="none" stroke="#666666" d="M56,-91.88C56,-81.68 56,-69.36 56,-58.04"/>
<polygon fill="#666666" stroke="#666666" points="59.5,-58.25 56,-48.25 52.5,-58.25 59.5,-58.25"/>
<text text-anchor="middle" x="58.25" y="-66.4" font-family="monospace" font-size="8.00">d</text>
</g>
<!-- scc2 -->
<g id="node3" class="node">
<title>scc2</title>
<path fill="#a0c4ff" stroke="black" d="M97,-230.25C97,-230.25 15,-230.25 15,-230.25 9,-230.25 3,-224.25 3,-218.25 3,-218.25 3,-196 3,-196 3,-190 9,-184 15,-184 15,-184 97,-184 97,-184 103,-184 109,-190 109,-196 109,-196 109,-218.25 109,-218.25 109,-224.25 103,-230.25 97,-230.25"/>
<text text-anchor="middle" x="56" y="-216.75" font-family="monospace" font-size="10.00">SCC 2</text>
<text text-anchor="middle" x="56" y="-204" font-family="monospace" font-size="10.00">1 insts, cost=1</text>
<text text-anchor="middle" x="56" y="-191.25" font-family="monospace" font-size="10.00">stage 0</text>
</g>
<!-- scc2&#45;&gt;scc1 -->
<g id="edge2" class="edge">
<title>scc2&#45;&gt;scc1</title>
<path fill="none" stroke="#666666" d="M56,-183.88C56,-173.68 56,-161.36 56,-150.04"/>
<polygon fill="#666666" stroke="#666666" points="59.5,-150.25 56,-140.25 52.5,-150.25 59.5,-150.25"/>
<text text-anchor="middle" x="58.25" y="-158.4" font-family="monospace" font-size="8.00">d</text>
</g>
<!-- scc3 -->
<g id="node4" class="node">
<title>scc3</title>
<path fill="#a0c4ff" stroke="black" d="M221,-138.25C221,-138.25 139,-138.25 139,-138.25 133,-138.25 127,-132.25 127,-126.25 127,-126.25 127,-104 127,-104 127,-98 133,-92 139,-92 139,-92 221,-92 221,-92 227,-92 233,-98 233,-104 233,-104 233,-126.25 233,-126.25 233,-132.25 227,-138.25 221,-138.25"/>
<text text-anchor="middle" x="180" y="-124.75" font-family="monospace" font-size="10.00">SCC 3</text>
<text text-anchor="middle" x="180" y="-112" font-family="monospace" font-size="10.00">1 insts, cost=1</text>
<text text-anchor="middle" x="180" y="-99.25" font-family="monospace" font-size="10.00">stage 0</text>
</g>
<!-- scc4 -->
<g id="node5" class="node">
<title>scc4</title>
<path fill="#a0c4ff" stroke="black" d="M221,-230.25C221,-230.25 139,-230.25 139,-230.25 133,-230.25 127,-224.25 127,-218.25 127,-218.25 127,-196 127,-196 127,-190 133,-184 139,-184 139,-184 221,-184 221,-184 227,-184 233,-190 233,-196 233,-196 233,-218.25 233,-218.25 233,-224.25 227,-230.25 221,-230.25"/>
<text text-anchor="middle" x="180" y="-216.75" font-family="monospace" font-size="10.00">SCC 4</text>
<text text-anchor="middle" x="180" y="-204" font-family="monospace" font-size="10.00">1 insts, cost=1</text>
<text text-anchor="middle" x="180" y="-191.25" font-family="monospace" font-size="10.00">stage 0</text>
</g>
<!-- scc4&#45;&gt;scc3 -->
<g id="edge3" class="edge">
<title>scc4&#45;&gt;scc3</title>
<path fill="none" stroke="#666666" d="M180,-183.88C180,-173.68 180,-161.36 180,-150.04"/>
<polygon fill="#666666" stroke="#666666" points="183.5,-150.25 180,-140.25 176.5,-150.25 183.5,-150.25"/>
<text text-anchor="middle" x="182.25" y="-158.4" font-family="monospace" font-size="8.00">d</text>
</g>
<!-- scc5 -->
<g id="node6" class="node">
<title>scc5</title>
<path fill="#a0c4ff" stroke="black" d="M159,-322.25C159,-322.25 77,-322.25 77,-322.25 71,-322.25 65,-316.25 65,-310.25 65,-310.25 65,-288 65,-288 65,-282 71,-276 77,-276 77,-276 159,-276 159,-276 165,-276 171,-282 171,-288 171,-288 171,-310.25 171,-310.25 171,-316.25 165,-322.25 159,-322.25"/>
<text text-anchor="middle" x="118" y="-308.75" font-family="monospace" font-size="10.00">SCC 5 (cyclic)</text>
<text text-anchor="middle" x="118" y="-296" font-family="monospace" font-size="10.00">2 insts, cost=1</text>
<text text-anchor="middle" x="118" y="-283.25" font-family="monospace" font-size="10.00">stage 0</text>
</g>
<!-- scc5&#45;&gt;scc2 -->
<g id="edge4" class="edge">
<title>scc5&#45;&gt;scc2</title>
<path fill="none" stroke="#666666" d="M102.67,-275.88C95.2,-265.03 86.09,-251.8 77.9,-239.91"/>
<polygon fill="#666666" stroke="#666666" points="80.99,-238.24 72.44,-231.99 75.23,-242.21 80.99,-238.24"/>
<text text-anchor="middle" x="91.11" y="-250.4" font-family="monospace" font-size="8.00">d</text>
</g>
<!-- scc5&#45;&gt;scc4 -->
<g id="edge5" class="edge">
<title>scc5&#45;&gt;scc4</title>
<path fill="none" stroke="#666666" d="M133.33,-275.88C140.8,-265.03 149.91,-251.8 158.1,-239.91"/>
<polygon fill="#666666" stroke="#666666" points="160.77,-242.21 163.56,-231.99 155.01,-238.24 160.77,-242.21"/>
<text text-anchor="middle" x="153.11" y="-250.4" font-family="monospace" font-size="8.00">d</text>
</g>
<!-- scc6 -->
<g id="node7" class="node">
<title>scc6</title>
<path fill="#a0c4ff" stroke="black" d="M283,-322.25C283,-322.25 201,-322.25 201,-322.25 195,-322.25 189,-316.25 189,-310.25 189,-310.25 189,-288 189,-288 189,-282 195,-276 201,-276 201,-276 283,-276 283,-276 289,-276 295,-282 295,-288 295,-288 295,-310.25 295,-310.25 295,-316.25 289,-322.25 283,-322.25"/>
<text text-anchor="middle" x="242" y="-308.75" font-family="monospace" font-size="10.00">SCC 6</text>
<text text-anchor="middle" x="242" y="-296" font-family="monospace" font-size="10.00">1 insts, cost=1</text>
<text text-anchor="middle" x="242" y="-283.25" font-family="monospace" font-size="10.00">stage 0</text>
</g>
</g>
</svg>
