<?xml version="1.0" encoding="UTF-8" standalone="no"?>
<!DOCTYPE svg PUBLIC "-//W3C//DTD SVG 1.1//EN"
 "http://www.w3.org/Graphics/SVG/1.1/DTD/svg11.dtd">
<!-- Generated by graphviz version 12.2.1 (20241206.2353)
 -->
<!-- Title: partition_free_list:0 Pages: 1 -->
<svg width="244pt" height="238pt"
 viewBox="0.00 0.00 244.00 238.25" xmlns="http://www.w3.org/2000/svg" xmlns:xlink="http://www.w3.org/1999/xlink">
<g id="graph0" class="graph" transform="scale(1 1) rotate(0) translate(4 234.25)">
<title>partition_free_list:0</title>
<polygon fill="white" stroke="none" points="-4,4 -4,-234.25 240,-234.25 240,4 -4,4"/>
<!-- scc0 -->
<g id="node1" class="node">
<title>scc0</title>
<path fill="#ffadad" stroke="black" d="M97,-46.25C97,-46.25 15,-46.25 15,-46.25 9,-46.25 3,-40.25 3,-34.25 3,-34.25 3,-12 3,-12 3,-6 9,0 15,0 15,0 97,0 97,0 103,0 109,-6 109,-12 109,-12 109,-34.25 109,-34.25 109,-40.25 103,-46.25 97,-46.25"/>
<text text-anchor="middle" x="56" y="-32.75" font-family="monospace" font-size="10.00">SCC 0</text>
<text text-anchor="middle" x="56" y="-20" font-family="monospace" font-size="10.00">1 insts, cost=1</text>
<text text-anchor="middle" x="56" y="-7.25" font-family="monospace" font-size="10.00">stage 1</text>
</g>
<!-- scc1 -->
<g id="node2" class="node">
<title>scc1</title>
<path fill="#ffadad" stroke="black" d="M97,-138.25C97,-138.25 15,-138.25 15,-138.25 9,-138.25 3,-132.25 3,-126.25 3,-126.25 3,-104 3,-104 3,-98 9,-92 15,-92 15,-92 97,-92 97,-92 103,-92 109,-98 109,-104 109,-104 109,-126.25 109,-126.25 109,-132.25 103,-138.25 97,-138.25"/>
<text text-anchor="middle" x="56" y="-124.75" font-family="monospace" font-size="10.00">SCC 1</text>
<text text-anchor="middle" x="56" y="-112" font-family="monospace" font-size="10.00">1 insts, cost=1</text>
<text text-anchor="middle" x="56" y="-99.25" font-family="monospace" font-size="10.00">stage 1</text>
</g>
<!-- scc1&#45;&gt;scc0 -->
<g id="edge1" class="edge">
<title>scc1&#45;&gt;scc0</title>
<path fill="none" stroke="#666666" d="M56,-91.88C56,-81.68 56,-69.36 56,-58.04"/>
<polygon fill="#666666" stroke="#666666" points="59.5,-58.25 56,-48.25 52.5,-58.25 59.5,-58.25"/>
<text text-anchor="middle" x="58.25" y="-66.4" font-family="monospace" font-size="8.00">d</text>
</g>
<!-- scc2 -->
<g id="node3" class="node">
<title>scc2</title>
<path fill="#a0c4ff" stroke="black" d="M100,-230.25C100,-230.25 12,-230.25 12,-230.25 6,-230.25 0,-224.25 0,-218.25 0,-218.25 0,-196 0,-196 0,-190 6,-184 12,-184 12,-184 100,-184 100,-184 106,-184 112,-190 112,-196 112,-196 112,-218.25 112,-218.25 112,-224.25 106,-230.25 100,-230.25"/>
<text text-anchor="middle" x="56" y="-216.75" font-family="monospace" font-size="10.00">SCC 2 (cyclic)</text>
<text text-anchor="middle" x="56" y="-204" font-family="monospace" font-size="10.00">4 insts, cost=35</text>
<text text-anchor="middle" x="56" y="-191.25" font-family="monospace" font-size="10.00">stage 0</text>
</g>
<!-- scc2&#45;&gt;scc1 -->
<g id="edge2" class="edge">
<title>scc2&#45;&gt;scc1</title>
<path fill="none" stroke="darkgreen" stroke-width="2" d="M56,-183.88C56,-174.11 56,-162.4 56,-151.48"/>
<polygon fill="darkgreen" stroke="darkgreen" stroke-width="2" points="59.5,-151.77 56,-141.77 52.5,-151.77 59.5,-151.77"/>
<text text-anchor="middle" x="58.25" y="-158.4" font-family="monospace" font-size="8.00">d</text>
</g>
<!-- scc3 -->
<g id="node4" class="node">
<title>scc3</title>
<path fill="#ffadad" stroke="black" d="M224,-230.25C224,-230.25 142,-230.25 142,-230.25 136,-230.25 130,-224.25 130,-218.25 130,-218.25 130,-196 130,-196 130,-190 136,-184 142,-184 142,-184 224,-184 224,-184 230,-184 236,-190 236,-196 236,-196 236,-218.25 236,-218.25 236,-224.25 230,-230.25 224,-230.25"/>
<text text-anchor="middle" x="183" y="-216.75" font-family="monospace" font-size="10.00">SCC 3</text>
<text text-anchor="middle" x="183" y="-204" font-family="monospace" font-size="10.00">1 insts, cost=1</text>
<text text-anchor="middle" x="183" y="-191.25" font-family="monospace" font-size="10.00">stage 1</text>
</g>
</g>
</svg>
