<?xml version="1.0" encoding="UTF-8" standalone="no"?>
<!DOCTYPE svg PUBLIC "-//W3C//DTD SVG 1.1//EN"
 "http://www.w3.org/Graphics/SVG/1.1/DTD/svg11.dtd">
<!-- Generated by graphviz version 12.2.1 (20241206.2353)
 -->
<!-- Title: partition_heavy_c:0 Pages: 1 -->
<svg width="368pt" height="238pt"
 viewBox="0.00 0.00 368.00 238.25" xmlns="http://www.w3.org/2000/svg" xmlns:xlink="http://www.w3.org/1999/xlink">
<g id="graph0" class="graph" transform="scale(1 1) rotate(0) translate(4 234.25)">
<title>partition_heavy_c:0</title>
<polygon fill="white" stroke="none" points="-4,4 -4,-234.25 364,-234.25 364,4 -4,4"/>
<!-- scc0 -->
<g id="node1" class="node">
<title>scc0</title>
<path fill="#a0c4ff" stroke="black" d="M100,-230.25C100,-230.25 12,-230.25 12,-230.25 6,-230.25 0,-224.25 0,-218.25 0,-218.25 0,-196 0,-196 0,-190 6,-184 12,-184 12,-184 100,-184 100,-184 106,-184 112,-190 112,-196 112,-196 112,-218.25 112,-218.25 112,-224.25 106,-230.25 100,-230.25"/>
<text text-anchor="middle" x="56" y="-216.75" font-family="monospace" font-size="10.00">SCC 0 (cyclic)</text>
<text text-anchor="middle" x="56" y="-204" font-family="monospace" font-size="10.00">6 insts, cost=67</text>
<text text-anchor="middle" x="56" y="-191.25" font-family="monospace" font-size="10.00">stage 0</text>
</g>
<!-- scc1 -->
<g id="node2" class="node">
<title>scc1</title>
<path fill="#ffadad" stroke="black" d="M224,-46.25C224,-46.25 142,-46.25 142,-46.25 136,-46.25 130,-40.25 130,-34.25 130,-34.25 130,-12 130,-12 130,-6 136,0 142,0 142,0 224,0 224,0 230,0 236,-6 236,-12 236,-12 236,-34.25 236,-34.25 236,-40.25 230,-46.25 224,-46.25"/>
<text text-anchor="middle" x="183" y="-32.75" font-family="monospace" font-size="10.00">SCC 1</text>
<text text-anchor="middle" x="183" y="-20" font-family="monospace" font-size="10.00">1 insts, cost=1</text>
<text text-anchor="middle" x="183" y="-7.25" font-family="monospace" font-size="10.00">stage 1</text>
</g>
<!-- scc2 -->
<g id="node3" class="node">
<title>scc2</title>
<path fill="#ffadad" stroke="black" d="M224,-138.25C224,-138.25 142,-138.25 142,-138.25 136,-138.25 130,-132.25 130,-126.25 130,-126.25 130,-104 130,-104 130,-98 136,-92 142,-92 142,-92 224,-92 224,-92 230,-92 236,-98 236,-104 236,-104 236,-126.25 236,-126.25 236,-132.25 230,-138.25 224,-138.25"/>
<text text-anchor="middle" x="183" y="-124.75" font-family="monospace" font-size="10.00">SCC 2</text>
<text text-anchor="middle" x="183" y="-112" font-family="monospace" font-size="10.00">1 insts, cost=1</text>
<text text-anchor="middle" x="183" y="-99.25" font-family="monospace" font-size="10.00">stage 1</text>
</g>
<!-- scc2&#45;&gt;scc1 -->
<g id="edge1" class="edge">
<title>scc2&#45;&gt;scc1</title>
<path fill="none" stroke="#666666" d="M183,-91.88C183,-81.68 183,-69.36 183,-58.04"/>
<polygon fill="#666666" stroke="#666666" points="186.5,-58.25 183,-48.25 179.5,-58.25 186.5,-58.25"/>
<text text-anchor="middle" x="185.25" y="-66.4" font-family="monospace" font-size="8.00">d</text>
</g>
<!-- scc3 -->
<g id="node4" class="node">
<title>scc3</title>
<path fill="#ffadad" stroke="black" d="M224,-230.25C224,-230.25 142,-230.25 142,-230.25 136,-230.25 130,-224.25 130,-218.25 130,-218.25 130,-196 130,-196 130,-190 136,-184 142,-184 142,-184 224,-184 224,-184 230,-184 236,-190 236,-196 236,-196 236,-218.25 236,-218.25 236,-224.25 230,-230.25 224,-230.25"/>
<text text-anchor="middle" x="183" y="-216.75" font-family="monospace" font-size="10.00">SCC 3 (cyclic)</text>
<text text-anchor="middle" x="183" y="-204" font-family="monospace" font-size="10.00">2 insts, cost=1</text>
<text text-anchor="middle" x="183" y="-191.25" font-family="monospace" font-size="10.00">stage 1</text>
</g>
<!-- scc3&#45;&gt;scc2 -->
<g id="edge2" class="edge">
<title>scc3&#45;&gt;scc2</title>
<path fill="none" stroke="#666666" d="M183,-183.88C183,-173.68 183,-161.36 183,-150.04"/>
<polygon fill="#666666" stroke="#666666" points="186.5,-150.25 183,-140.25 179.5,-150.25 186.5,-150.25"/>
<text text-anchor="middle" x="185.25" y="-158.4" font-family="monospace" font-size="8.00">d</text>
</g>
<!-- scc4 -->
<g id="node5" class="node">
<title>scc4</title>
<path fill="#ffadad" stroke="black" d="M348,-230.25C348,-230.25 266,-230.25 266,-230.25 260,-230.25 254,-224.25 254,-218.25 254,-218.25 254,-196 254,-196 254,-190 260,-184 266,-184 266,-184 348,-184 348,-184 354,-184 360,-190 360,-196 360,-196 360,-218.25 360,-218.25 360,-224.25 354,-230.25 348,-230.25"/>
<text text-anchor="middle" x="307" y="-216.75" font-family="monospace" font-size="10.00">SCC 4</text>
<text text-anchor="middle" x="307" y="-204" font-family="monospace" font-size="10.00">1 insts, cost=1</text>
<text text-anchor="middle" x="307" y="-191.25" font-family="monospace" font-size="10.00">stage 1</text>
</g>
</g>
</svg>
