<?xml version="1.0" encoding="UTF-8" standalone="no"?>
<!DOCTYPE svg PUBLIC "-//W3C//DTD SVG 1.1//EN"
 "http://www.w3.org/Graphics/SVG/1.1/DTD/svg11.dtd">
<!-- Generated by graphviz version 12.2.1 (20241206.2353)
 -->
<!-- Title: heavy_e:0 Pages: 1 -->
<svg width="964pt" height="777pt"
 viewBox="0.00 0.00 964.00 777.00" xmlns="http://www.w3.org/2000/svg" xmlns:xlink="http://www.w3.org/1999/xlink">
<g id="graph0" class="graph" transform="scale(1 1) rotate(0) translate(4 773)">
<title>heavy_e:0</title>
<polygon fill="white" stroke="none" points="-4,4 -4,-773 960,-773 960,4 -4,4"/>
<g id="clust1" class="cluster">
<title>cluster_scc0</title>
<path fill="none" stroke="#7f7f7f" stroke-dasharray="5,2" d="M20,-8C20,-8 646,-8 646,-8 652,-8 658,-14 658,-20 658,-20 658,-399.5 658,-399.5 658,-405.5 652,-411.5 646,-411.5 646,-411.5 20,-411.5 20,-411.5 14,-411.5 8,-405.5 8,-399.5 8,-399.5 8,-20 8,-20 8,-14 14,-8 20,-8"/>
<text text-anchor="middle" x="333" y="-394.2" font-family="Times,serif" font-size="14.00">SCC 0 (cyclic, 6 insts)</text>
</g>
<g id="clust2" class="cluster">
<title>cluster_scc3</title>
<path fill="none" stroke="#7f7f7f" stroke-dasharray="5,2" d="M296,-602.75C296,-602.75 592,-602.75 592,-602.75 598,-602.75 604,-608.75 604,-614.75 604,-614.75 604,-749 604,-749 604,-755 598,-761 592,-761 592,-761 296,-761 296,-761 290,-761 284,-755 284,-749 284,-749 284,-614.75 284,-614.75 284,-608.75 290,-602.75 296,-602.75"/>
<text text-anchor="middle" x="444" y="-743.7" font-family="Times,serif" font-size="14.00">SCC 3 (cyclic, 2 insts)</text>
</g>
<!-- n5 -->
<g id="node1" class="node">
<title>n5</title>
<path fill="#ffd6a5" stroke="black" d="M555,-379C555,-379 245,-379 245,-379 239,-379 233,-373 233,-367 233,-367 233,-355 233,-355 233,-349 239,-343 245,-343 245,-343 555,-343 555,-343 561,-343 567,-349 567,-355 567,-355 567,-367 567,-367 567,-373 561,-379 555,-379"/>
<text text-anchor="middle" x="400" y="-357.88" font-family="monospace" font-size="10.00">scc 0 | [5] %6 = call double @llvm.sin.f64(double %5)</text>
</g>
<!-- n8 -->
<g id="node3" class="node">
<title>n8</title>
<path fill="#ffd6a5" stroke="black" d="M303,-297.25C303,-297.25 101,-297.25 101,-297.25 95,-297.25 89,-291.25 89,-285.25 89,-285.25 89,-273.25 89,-273.25 89,-267.25 95,-261.25 101,-261.25 101,-261.25 303,-261.25 303,-261.25 309,-261.25 315,-267.25 315,-273.25 315,-273.25 315,-285.25 315,-285.25 315,-291.25 309,-297.25 303,-297.25"/>
<text text-anchor="middle" x="202" y="-276.12" font-family="monospace" font-size="10.00">scc 0 | [8] %9 = fadd double %6, %8</text>
</g>
<!-- n5&#45;&gt;n8 -->
<g id="edge14" class="edge">
<title>n5&#45;&gt;n8</title>
<path fill="none" stroke="black" d="M357.04,-342.7C327.3,-330.72 287.51,-314.69 255.68,-301.87"/>
<polygon fill="black" stroke="black" points="257.21,-298.71 246.62,-298.22 254.59,-305.21 257.21,-298.71"/>
<text text-anchor="middle" x="321.85" y="-317.4" font-family="monospace" font-size="8.00">data</text>
</g>
<!-- n4 -->
<g id="node2" class="node">
<title>n4</title>
<path fill="#ffd6a5" stroke="black" d="M322,-133.75C322,-133.75 48,-133.75 48,-133.75 42,-133.75 36,-127.75 36,-121.75 36,-121.75 36,-109.75 36,-109.75 36,-103.75 42,-97.75 48,-97.75 48,-97.75 322,-97.75 322,-97.75 328,-97.75 334,-103.75 334,-109.75 334,-109.75 334,-121.75 334,-121.75 334,-127.75 328,-133.75 322,-133.75"/>
<text text-anchor="middle" x="185" y="-112.62" font-family="monospace" font-size="10.00">scc 0 | [4] %5 = fmul double %.01, 1.050000e+00</text>
</g>
<!-- n4&#45;&gt;n5 -->
<g id="edge13" class="edge">
<title>n4&#45;&gt;n5</title>
<path fill="none" stroke="black" d="M330.45,-134.21C363.04,-139.52 389.65,-145.59 395,-151.75 438.63,-202.02 422.11,-287.65 409.38,-331.81"/>
<polygon fill="black" stroke="black" points="406.1,-330.57 406.54,-341.15 412.79,-332.6 406.1,-330.57"/>
<text text-anchor="middle" x="432.33" y="-235.65" font-family="monospace" font-size="8.00">data</text>
</g>
<!-- n0 -->
<g id="node6" class="node">
<title>n0</title>
<path fill="#ffd6a5" stroke="black" d="M369,-215.5C369,-215.5 65,-215.5 65,-215.5 59,-215.5 53,-209.5 53,-203.5 53,-203.5 53,-191.5 53,-191.5 53,-185.5 59,-179.5 65,-179.5 65,-179.5 369,-179.5 369,-179.5 375,-179.5 381,-185.5 381,-191.5 381,-191.5 381,-203.5 381,-203.5 381,-209.5 375,-215.5 369,-215.5"/>
<text text-anchor="middle" x="217" y="-194.38" font-family="monospace" font-size="10.00">scc 0 | [0] %.01 = phi double [ %0, %1 ], [ %9, %4 ]</text>
</g>
<!-- n8&#45;&gt;n0 -->
<g id="edge17" class="edge">
<title>n8&#45;&gt;n0</title>
<path fill="none" stroke="black" stroke-dasharray="5,2" d="M205.25,-260.95C207.12,-251.02 209.51,-238.31 211.65,-226.95"/>
<polygon fill="black" stroke="black" points="215.06,-227.73 213.47,-217.26 208.18,-226.44 215.06,-227.73"/>
<text text-anchor="middle" x="221.65" y="-235.65" font-family="monospace" font-size="8.00">data*</text>
</g>
<!-- n7 -->
<g id="node4" class="node">
<title>n7</title>
<path fill="#ffd6a5" stroke="black" d="M638,-52C638,-52 328,-52 328,-52 322,-52 316,-46 316,-40 316,-40 316,-28 316,-28 316,-22 322,-16 328,-16 328,-16 638,-16 638,-16 644,-16 650,-22 650,-28 650,-28 650,-40 650,-40 650,-46 644,-52 638,-52"/>
<text text-anchor="middle" x="483" y="-30.88" font-family="monospace" font-size="10.00">scc 0 | [7] %8 = call double @llvm.cos.f64(double %7)</text>
</g>
<!-- n7&#45;&gt;n8 -->
<g id="edge16" class="edge">
<title>n7&#45;&gt;n8</title>
<path fill="none" stroke="black" d="M315.58,-47.43C193.54,-58.24 46.28,-75.63 27,-97.75 -7.75,-137.61 9.98,-175.02 44,-215.5 59.81,-234.31 82.04,-247.52 104.85,-256.79"/>
<polygon fill="black" stroke="black" points="103.35,-259.96 113.94,-260.24 105.83,-253.42 103.35,-259.96"/>
<text text-anchor="middle" x="19.87" y="-153.9" font-family="monospace" font-size="8.00">data</text>
</g>
<!-- n6 -->
<g id="node5" class="node">
<title>n6</title>
<path fill="#ffd6a5" stroke="black" d="M638,-133.75C638,-133.75 364,-133.75 364,-133.75 358,-133.75 352,-127.75 352,-121.75 352,-121.75 352,-109.75 352,-109.75 352,-103.75 358,-97.75 364,-97.75 364,-97.75 638,-97.75 638,-97.75 644,-97.75 650,-103.75 650,-109.75 650,-109.75 650,-121.75 650,-121.75 650,-127.75 644,-133.75 638,-133.75"/>
<text text-anchor="middle" x="501" y="-112.62" font-family="monospace" font-size="10.00">scc 0 | [6] %7 = fmul double %.01, 9.300000e&#45;01</text>
</g>
<!-- n6&#45;&gt;n7 -->
<g id="edge15" class="edge">
<title>n6&#45;&gt;n7</title>
<path fill="none" stroke="black" d="M497.09,-97.45C494.85,-87.52 491.98,-74.81 489.42,-63.45"/>
<polygon fill="black" stroke="black" points="492.85,-62.73 487.23,-53.75 486.02,-64.27 492.85,-62.73"/>
<text text-anchor="middle" x="502.08" y="-72.15" font-family="monospace" font-size="8.00">data</text>
</g>
<!-- n0&#45;&gt;n4 -->
<g id="edge2" class="edge">
<title>n0&#45;&gt;n4</title>
<path fill="none" stroke="black" d="M210.06,-179.2C205.99,-169.06 200.76,-156.02 196.13,-144.48"/>
<polygon fill="black" stroke="black" points="199.47,-143.4 192.49,-135.43 192.97,-146.01 199.47,-143.4"/>
<text text-anchor="middle" x="211.92" y="-153.9" font-family="monospace" font-size="8.00">data</text>
</g>
<!-- n0&#45;&gt;n6 -->
<g id="edge1" class="edge">
<title>n0&#45;&gt;n6</title>
<path fill="none" stroke="black" d="M278.97,-179.1C322.94,-166.75 382.11,-150.13 428.31,-137.16"/>
<polygon fill="black" stroke="black" points="429.02,-140.6 437.7,-134.53 427.13,-133.86 429.02,-140.6"/>
<text text-anchor="middle" x="385" y="-153.9" font-family="monospace" font-size="8.00">data</text>
</g>
<!-- n3 -->
<g id="node7" class="node">
<title>n3</title>
<path fill="#a0c4ff" stroke="black" d="M665,-483.25C665,-483.25 427,-483.25 427,-483.25 421,-483.25 415,-477.25 415,-471.25 415,-471.25 415,-459.25 415,-459.25 415,-453.25 421,-447.25 427,-447.25 427,-447.25 665,-447.25 665,-447.25 671,-447.25 677,-453.25 677,-459.25 677,-459.25 677,-471.25 677,-471.25 677,-477.25 671,-483.25 665,-483.25"/>
<text text-anchor="middle" x="546" y="-462.12" font-family="monospace" font-size="10.00">scc 1 | [3] br i1 %3, label %4, label %11</text>
</g>
<!-- n3&#45;&gt;n5 -->
<g id="edge7" class="edge">
<title>n3&#45;&gt;n5</title>
<path fill="none" stroke="blue" d="M521.23,-446.9C497.32,-430.16 460.91,-404.66 434.24,-385.98"/>
<polygon fill="blue" stroke="blue" points="436.33,-383.17 426.13,-380.3 432.31,-388.9 436.33,-383.17"/>
<text text-anchor="middle" x="503.61" y="-421.65" font-family="monospace" font-size="8.00">ctrl</text>
</g>
<!-- n3&#45;&gt;n4 -->
<g id="edge6" class="edge">
<title>n3&#45;&gt;n4</title>
<path fill="none" stroke="blue" d="M414.58,-456.6C352.92,-451.45 278.72,-442.98 213,-429.25 116.24,-409.04 1,-460.85 1,-362 1,-362 1,-362 1,-196.5 1,-175.66 -0.45,-165.73 15,-151.75 21.25,-146.1 32.88,-141.24 47.25,-137.11"/>
<polygon fill="blue" stroke="blue" points="47.91,-140.55 56.69,-134.61 46.12,-133.79 47.91,-140.55"/>
<text text-anchor="middle" x="10" y="-276.52" font-family="monospace" font-size="8.00">ctrl</text>
</g>
<!-- n3&#45;&gt;n8 -->
<g id="edge10" class="edge">
<title>n3&#45;&gt;n8</title>
<path fill="none" stroke="blue" d="M414.63,-460.73C331.01,-455.44 233.44,-442.55 206,-411.5 181.35,-383.6 186.52,-337.88 193.5,-308.43"/>
<polygon fill="blue" stroke="blue" points="196.79,-309.67 195.93,-299.11 190.02,-307.9 196.79,-309.67"/>
<text text-anchor="middle" x="215" y="-358.27" font-family="monospace" font-size="8.00">ctrl</text>
</g>
<!-- n3&#45;&gt;n7 -->
<g id="edge9" class="edge">
<title>n3&#45;&gt;n7</title>
<path fill="none" stroke="blue" d="M599.31,-446.79C635.94,-431.07 678,-403.89 678,-362 678,-362 678,-362 678,-114.75 678,-87.47 661.44,-69.31 637.98,-57.28"/>
<polygon fill="blue" stroke="blue" points="639.45,-54.11 628.91,-53.12 636.54,-60.47 639.45,-54.11"/>
<text text-anchor="middle" x="687" y="-235.65" font-family="monospace" font-size="8.00">ctrl</text>
</g>
<!-- n3&#45;&gt;n6 -->
<g id="edge8" class="edge">
<title>n3&#45;&gt;n6</title>
<path fill="none" stroke="blue" d="M560.17,-446.99C574.64,-427.57 595,-394.48 595,-362 595,-362 595,-362 595,-196.5 595,-171.54 575.49,-152.77 554.24,-139.73"/>
<polygon fill="blue" stroke="blue" points="556.16,-136.79 545.74,-134.89 552.7,-142.88 556.16,-136.79"/>
<text text-anchor="middle" x="604" y="-276.52" font-family="monospace" font-size="8.00">ctrl</text>
</g>
<!-- n9 -->
<g id="node9" class="node">
<title>n9</title>
<path fill="#ffadad" stroke="black" d="M584,-728.5C584,-728.5 376,-728.5 376,-728.5 370,-728.5 364,-722.5 364,-716.5 364,-716.5 364,-704.5 364,-704.5 364,-698.5 370,-692.5 376,-692.5 376,-692.5 584,-692.5 584,-692.5 590,-692.5 596,-698.5 596,-704.5 596,-704.5 596,-716.5 596,-716.5 596,-722.5 590,-728.5 584,-728.5"/>
<text text-anchor="middle" x="480" y="-707.38" font-family="monospace" font-size="10.00">scc 3 | [9] %10 = add nsw i32 %.0, 1</text>
</g>
<!-- n3&#45;&gt;n9 -->
<g id="edge11" class="edge">
<title>n3&#45;&gt;n9</title>
<path fill="none" stroke="blue" d="M564.77,-483.59C576.12,-495.26 589.76,-511.64 597,-529 600.99,-538.55 614.94,-630.64 605,-646.75 593.76,-664.97 575.44,-678.08 556.25,-687.44"/>
<polygon fill="blue" stroke="blue" points="554.9,-684.21 547.23,-691.51 557.78,-690.59 554.9,-684.21"/>
<text text-anchor="middle" x="615.93" y="-585.15" font-family="monospace" font-size="8.00">ctrl</text>
</g>
<!-- n10 -->
<g id="node11" class="node">
<title>n10</title>
<path fill="#bdb2ff" stroke="black" d="M944,-379C944,-379 718,-379 718,-379 712,-379 706,-373 706,-367 706,-367 706,-355 706,-355 706,-349 712,-343 718,-343 718,-343 944,-343 944,-343 950,-343 956,-349 956,-355 956,-355 956,-367 956,-367 956,-373 950,-379 944,-379"/>
<text text-anchor="middle" x="831" y="-357.88" font-family="monospace" font-size="10.00">scc 4 | [10] br label %2, !llvm.loop !5</text>
</g>
<!-- n3&#45;&gt;n10 -->
<g id="edge12" class="edge">
<title>n3&#45;&gt;n10</title>
<path fill="none" stroke="blue" d="M632.21,-446.84C652.09,-441.93 672.98,-436.04 692,-429.25 726.03,-417.1 762.75,-399.1 789.91,-384.78"/>
<polygon fill="blue" stroke="blue" points="791.31,-388 798.48,-380.21 788.01,-381.83 791.31,-388"/>
<text text-anchor="middle" x="724.54" y="-421.65" font-family="monospace" font-size="8.00">ctrl</text>
</g>
<!-- n2 -->
<g id="node8" class="node">
<title>n2</title>
<path fill="#caffbf" stroke="black" d="M576,-565C576,-565 362,-565 362,-565 356,-565 350,-559 350,-553 350,-553 350,-541 350,-541 350,-535 356,-529 362,-529 362,-529 576,-529 576,-529 582,-529 588,-535 588,-541 588,-541 588,-553 588,-553 588,-559 582,-565 576,-565"/>
<text text-anchor="middle" x="469" y="-543.88" font-family="monospace" font-size="10.00">scc 2 | [2] %3 = icmp slt i32 %.0, 30</text>
</g>
<!-- n2&#45;&gt;n3 -->
<g id="edge5" class="edge">
<title>n2&#45;&gt;n3</title>
<path fill="none" stroke="black" d="M485.71,-528.7C496.2,-517.83 509.92,-503.62 521.61,-491.51"/>
<polygon fill="black" stroke="black" points="523.85,-494.23 528.27,-484.61 518.81,-489.37 523.85,-494.23"/>
<text text-anchor="middle" x="521.11" y="-503.4" font-family="monospace" font-size="8.00">data</text>
</g>
<!-- n1 -->
<g id="node10" class="node">
<title>n1</title>
<path fill="#ffadad" stroke="black" d="M584,-646.75C584,-646.75 304,-646.75 304,-646.75 298,-646.75 292,-640.75 292,-634.75 292,-634.75 292,-622.75 292,-622.75 292,-616.75 298,-610.75 304,-610.75 304,-610.75 584,-610.75 584,-610.75 590,-610.75 596,-616.75 596,-622.75 596,-622.75 596,-634.75 596,-634.75 596,-640.75 590,-646.75 584,-646.75"/>
<text text-anchor="middle" x="444" y="-625.62" font-family="monospace" font-size="10.00">scc 3 | [1] %.0 = phi i32 [ 0, %1 ], [ %10, %4 ]</text>
</g>
<!-- n9&#45;&gt;n1 -->
<g id="edge18" class="edge">
<title>n9&#45;&gt;n1</title>
<path fill="none" stroke="black" stroke-dasharray="5,2" d="M450.89,-692.16C445.08,-687.23 439.77,-681.32 436.5,-674.5 434.08,-669.44 433.58,-663.73 434.13,-658.12"/>
<polygon fill="black" stroke="black" points="437.53,-658.99 436.13,-648.48 430.67,-657.56 437.53,-658.99"/>
<text text-anchor="middle" x="447.75" y="-666.9" font-family="monospace" font-size="8.00">data*</text>
</g>
<!-- n1&#45;&gt;n2 -->
<g id="edge4" class="edge">
<title>n1&#45;&gt;n2</title>
<path fill="none" stroke="black" d="M449.42,-610.45C452.57,-600.41 456.61,-587.54 460.2,-576.09"/>
<polygon fill="black" stroke="black" points="463.48,-577.3 463.13,-566.72 456.8,-575.21 463.48,-577.3"/>
<text text-anchor="middle" x="467" y="-585.15" font-family="monospace" font-size="8.00">data</text>
</g>
<!-- n1&#45;&gt;n9 -->
<g id="edge3" class="edge">
<title>n1&#45;&gt;n9</title>
<path fill="none" stroke="black" d="M453.94,-646.96C457.01,-652.56 460.29,-658.84 463,-664.75 465.49,-670.18 467.93,-676.09 470.14,-681.78"/>
<polygon fill="black" stroke="black" points="466.75,-682.73 473.54,-690.86 473.31,-680.27 466.75,-682.73"/>
<text text-anchor="middle" x="476.17" y="-666.9" font-family="monospace" font-size="8.00">data</text>
</g>
</g>
</svg>
