<?xml version="1.0" encoding="UTF-8" standalone="no"?>
<!DOCTYPE svg PUBLIC "-//W3C//DTD SVG 1.1//EN"
 "http://www.w3.org/Graphics/SVG/1.1/DTD/svg11.dtd">
<!-- Generated by graphviz version 12.2.1 (20241206.2353)
 -->
<!-- Title: heavy_d:0 Pages: 1 -->
<svg width="1000pt" height="777pt"
 viewBox="0.00 0.00 1000.00 777.00" xmlns="http://www.w3.org/2000/svg" xmlns:xlink="http://www.w3.org/1999/xlink">
<g id="graph0" class="graph" transform="scale(1 1) rotate(0) translate(4 773)">
<title>heavy_d:0</title>
<polygon fill="white" stroke="none" points="-4,4 -4,-773 996,-773 996,4 -4,4"/>
<g id="clust1" class="cluster">
<title>cluster_scc0</title>
<path fill="none" stroke="#7f7f7f" stroke-dasharray="5,2" d="M20,-8C20,-8 682,-8 682,-8 688,-8 694,-14 694,-20 694,-20 694,-399.5 694,-399.5 694,-405.5 688,-411.5 682,-411.5 682,-411.5 20,-411.5 20,-411.5 14,-411.5 8,-405.5 8,-399.5 8,-399.5 8,-20 8,-20 8,-14 14,-8 20,-8"/>
<text text-anchor="middle" x="351" y="-394.2" font-family="Times,serif" font-size="14.00">SCC 0 (cyclic, 6 insts)</text>
</g>
<g id="clust2" class="cluster">
<title>cluster_scc3</title>
<path fill="none" stroke="#7f7f7f" stroke-dasharray="5,2" d="M296,-602.75C296,-602.75 592,-602.75 592,-602.75 598,-602.75 604,-608.75 604,-614.75 604,-614.75 604,-749 604,-749 604,-755 598,-761 592,-761 592,-761 296,-761 296,-761 290,-761 284,-755 284,-749 284,-749 284,-614.75 284,-614.75 284,-608.75 290,-602.75 296,-602.75"/>
<text text-anchor="middle" x="444" y="-743.7" font-family="Times,serif" font-size="14.00">SCC 3 (cyclic, 2 insts)</text>
</g>
<!-- n5 -->
<g id="node1" class="node">
<title>n5</title>
<path fill="#ffd6a5" stroke="black" d="M555,-379C555,-379 245,-379 245,-379 239,-379 233,-373 233,-367 233,-367 233,-355 233,-355 233,-349 239,-343 245,-343 245,-343 555,-343 555,-343 561,-343 567,-349 567,-355 567,-355 567,-367 567,-367 567,-373 561,-379 555,-379"/>
<text text-anchor="middle" x="400" y="-357.88" font-family="monospace" font-size="10.00">scc 0 | [5] %6 = call double @llvm.sin.f64(double %5)</text>
</g>
<!-- n8 -->
<g id="node3" class="node">
<title>n8</title>
<path fill="#ffd6a5" stroke="black" d="M308,-297.25C308,-297.25 106,-297.25 106,-297.25 100,-297.25 94,-291.25 94,-285.25 94,-285.25 94,-273.25 94,-273.25 94,-267.25 100,-261.25 106,-261.25 106,-261.25 308,-261.25 308,-261.25 314,-261.25 320,-267.25 320,-273.25 320,-273.25 320,-285.25 320,-285.25 320,-291.25 314,-297.25 308,-297.25"/>
<text text-anchor="middle" x="207" y="-276.12" font-family="monospace" font-size="10.00">scc 0 | [8] %9 = fadd double %6, %8</text>
</g>
<!-- n5&#45;&gt;n8 -->
<g id="edge14" class="edge">
<title>n5&#45;&gt;n8</title>
<path fill="none" stroke="black" d="M358.12,-342.7C329.26,-330.77 290.69,-314.83 259.73,-302.04"/>
<polygon fill="black" stroke="black" points="261.11,-298.82 250.53,-298.24 258.43,-305.29 261.11,-298.82"/>
<text text-anchor="middle" x="324.06" y="-317.4" font-family="monospace" font-size="8.00">data</text>
</g>
<!-- n4 -->
<g id="node2" class="node">
<title>n4</title>
<path fill="#ffd6a5" stroke="black" d="M358,-133.75C358,-133.75 48,-133.75 48,-133.75 42,-133.75 36,-127.75 36,-121.75 36,-121.75 36,-109.75 36,-109.75 36,-103.75 42,-97.75 48,-97.75 48,-97.75 358,-97.75 358,-97.75 364,-97.75 370,-103.75 370,-109.75 370,-109.75 370,-121.75 370,-121.75 370,-127.75 364,-133.75 358,-133.75"/>
<text text-anchor="middle" x="203" y="-112.62" font-family="monospace" font-size="10.00">scc 0 | [4] %5 = fmul double %.01, 0x3FEF5C28F5C28F5C</text>
</g>
<!-- n4&#45;&gt;n5 -->
<g id="edge13" class="edge">
<title>n4&#45;&gt;n5</title>
<path fill="none" stroke="black" d="M359.74,-134.13C375.95,-138.7 388.78,-144.47 395,-151.75 438.25,-202.35 421.89,-287.83 409.29,-331.89"/>
<polygon fill="black" stroke="black" points="406.01,-330.62 406.48,-341.2 412.71,-332.64 406.01,-330.62"/>
<text text-anchor="middle" x="432.1" y="-235.65" font-family="monospace" font-size="8.00">data</text>
</g>
<!-- n0 -->
<g id="node6" class="node">
<title>n0</title>
<path fill="#ffd6a5" stroke="black" d="M369,-215.5C369,-215.5 65,-215.5 65,-215.5 59,-215.5 53,-209.5 53,-203.5 53,-203.5 53,-191.5 53,-191.5 53,-185.5 59,-179.5 65,-179.5 65,-179.5 369,-179.5 369,-179.5 375,-179.5 381,-185.5 381,-191.5 381,-191.5 381,-203.5 381,-203.5 381,-209.5 375,-215.5 369,-215.5"/>
<text text-anchor="middle" x="217" y="-194.38" font-family="monospace" font-size="10.00">scc 0 | [0] %.01 = phi double [ %0, %1 ], [ %9, %4 ]</text>
</g>
<!-- n8&#45;&gt;n0 -->
<g id="edge17" class="edge">
<title>n8&#45;&gt;n0</title>
<path fill="none" stroke="black" stroke-dasharray="5,2" d="M209.17,-260.95C210.41,-251.02 212.01,-238.31 213.43,-226.95"/>
<polygon fill="black" stroke="black" points="216.87,-227.63 214.65,-217.27 209.93,-226.76 216.87,-227.63"/>
<text text-anchor="middle" x="223.85" y="-235.65" font-family="monospace" font-size="8.00">data*</text>
</g>
<!-- n7 -->
<g id="node4" class="node">
<title>n7</title>
<path fill="#ffd6a5" stroke="black" d="M674,-52C674,-52 364,-52 364,-52 358,-52 352,-46 352,-40 352,-40 352,-28 352,-28 352,-22 358,-16 364,-16 364,-16 674,-16 674,-16 680,-16 686,-22 686,-28 686,-28 686,-40 686,-40 686,-46 680,-52 674,-52"/>
<text text-anchor="middle" x="519" y="-30.88" font-family="monospace" font-size="10.00">scc 0 | [7] %8 = call double @llvm.cos.f64(double %7)</text>
</g>
<!-- n7&#45;&gt;n8 -->
<g id="edge16" class="edge">
<title>n7&#45;&gt;n8</title>
<path fill="none" stroke="black" d="M351.75,-45.52C217.74,-55.7 48.61,-73.21 27,-97.75 -7.94,-137.43 9.77,-175.2 44,-215.5 60,-234.34 82.34,-247.54 105.36,-256.79"/>
<polygon fill="black" stroke="black" points="103.95,-260 114.54,-260.23 106.41,-253.45 103.95,-260"/>
<text text-anchor="middle" x="19.71" y="-153.9" font-family="monospace" font-size="8.00">data</text>
</g>
<!-- n6 -->
<g id="node5" class="node">
<title>n6</title>
<path fill="#ffd6a5" stroke="black" d="M674,-133.75C674,-133.75 400,-133.75 400,-133.75 394,-133.75 388,-127.75 388,-121.75 388,-121.75 388,-109.75 388,-109.75 388,-103.75 394,-97.75 400,-97.75 400,-97.75 674,-97.75 674,-97.75 680,-97.75 686,-103.75 686,-109.75 686,-109.75 686,-121.75 686,-121.75 686,-127.75 680,-133.75 674,-133.75"/>
<text text-anchor="middle" x="537" y="-112.62" font-family="monospace" font-size="10.00">scc 0 | [6] %7 = fmul double %.01, 1.020000e+00</text>
</g>
<!-- n6&#45;&gt;n7 -->
<g id="edge15" class="edge">
<title>n6&#45;&gt;n7</title>
<path fill="none" stroke="black" d="M533.09,-97.45C530.85,-87.52 527.98,-74.81 525.42,-63.45"/>
<polygon fill="black" stroke="black" points="528.85,-62.73 523.23,-53.75 522.02,-64.27 528.85,-62.73"/>
<text text-anchor="middle" x="538.08" y="-72.15" font-family="monospace" font-size="8.00">data</text>
</g>
<!-- n0&#45;&gt;n4 -->
<g id="edge2" class="edge">
<title>n0&#45;&gt;n4</title>
<path fill="none" stroke="black" d="M213.96,-179.2C212.22,-169.27 209.99,-156.56 207.99,-145.2"/>
<polygon fill="black" stroke="black" points="211.47,-144.76 206.29,-135.51 204.58,-145.97 211.47,-144.76"/>
<text text-anchor="middle" x="219.84" y="-153.9" font-family="monospace" font-size="8.00">data</text>
</g>
<!-- n0&#45;&gt;n6 -->
<g id="edge1" class="edge">
<title>n0&#45;&gt;n6</title>
<path fill="none" stroke="black" d="M286.83,-179.1C336.71,-166.67 403.94,-149.91 456.14,-136.9"/>
<polygon fill="black" stroke="black" points="456.72,-140.37 465.57,-134.55 455.02,-133.57 456.72,-140.37"/>
<text text-anchor="middle" x="405.16" y="-153.9" font-family="monospace" font-size="8.00">data</text>
</g>
<!-- n3 -->
<g id="node7" class="node">
<title>n3</title>
<path fill="#a0c4ff" stroke="black" d="M665,-483.25C665,-483.25 427,-483.25 427,-483.25 421,-483.25 415,-477.25 415,-471.25 415,-471.25 415,-459.25 415,-459.25 415,-453.25 421,-447.25 427,-447.25 427,-447.25 665,-447.25 665,-447.25 671,-447.25 677,-453.25 677,-459.25 677,-459.25 677,-471.25 677,-471.25 677,-477.25 671,-483.25 665,-483.25"/>
<text text-anchor="middle" x="546" y="-462.12" font-family="monospace" font-size="10.00">scc 1 | [3] br i1 %3, label %4, label %11</text>
</g>
<!-- n3&#45;&gt;n5 -->
<g id="edge7" class="edge">
<title>n3&#45;&gt;n5</title>
<path fill="none" stroke="blue" d="M521.23,-446.9C497.32,-430.16 460.91,-404.66 434.24,-385.98"/>
<polygon fill="blue" stroke="blue" points="436.33,-383.17 426.13,-380.3 432.31,-388.9 436.33,-383.17"/>
<text text-anchor="middle" x="503.61" y="-421.65" font-family="monospace" font-size="8.00">ctrl</text>
</g>
<!-- n3&#45;&gt;n4 -->
<g id="edge6" class="edge">
<title>n3&#45;&gt;n4</title>
<path fill="none" stroke="blue" d="M414.58,-456.7C352.66,-451.56 278.05,-443.09 212,-429.25 115.66,-409.07 1,-460.43 1,-362 1,-362 1,-362 1,-196.5 1,-175.66 -0.59,-165.58 15,-151.75 21.49,-145.99 33.18,-141.12 47.67,-137.02"/>
<polygon fill="blue" stroke="blue" points="48.41,-140.44 57.22,-134.55 46.66,-133.66 48.41,-140.44"/>
<text text-anchor="middle" x="10" y="-276.52" font-family="monospace" font-size="8.00">ctrl</text>
</g>
<!-- n3&#45;&gt;n8 -->
<g id="edge10" class="edge">
<title>n3&#45;&gt;n8</title>
<path fill="none" stroke="blue" d="M414.79,-461.02C330.93,-455.87 233.01,-443.03 206,-411.5 181.79,-383.24 188.87,-337.62 197.18,-308.29"/>
<polygon fill="blue" stroke="blue" points="200.44,-309.58 200.04,-299 193.75,-307.53 200.44,-309.58"/>
<text text-anchor="middle" x="215" y="-358.27" font-family="monospace" font-size="8.00">ctrl</text>
</g>
<!-- n3&#45;&gt;n7 -->
<g id="edge9" class="edge">
<title>n3&#45;&gt;n7</title>
<path fill="none" stroke="blue" d="M627.05,-446.91C670.01,-432.46 714,-406.73 714,-362 714,-362 714,-362 714,-114.75 714,-87.47 697.44,-69.31 673.98,-57.28"/>
<polygon fill="blue" stroke="blue" points="675.45,-54.11 664.91,-53.12 672.54,-60.47 675.45,-54.11"/>
<text text-anchor="middle" x="723" y="-235.65" font-family="monospace" font-size="8.00">ctrl</text>
</g>
<!-- n3&#45;&gt;n6 -->
<g id="edge8" class="edge">
<title>n3&#45;&gt;n6</title>
<path fill="none" stroke="blue" d="M560.17,-446.99C574.64,-427.57 595,-394.48 595,-362 595,-362 595,-362 595,-196.5 595,-175.46 581.64,-156.25 567.74,-141.95"/>
<polygon fill="blue" stroke="blue" points="570.32,-139.58 560.68,-135.17 565.47,-144.62 570.32,-139.58"/>
<text text-anchor="middle" x="604" y="-276.52" font-family="monospace" font-size="8.00">ctrl</text>
</g>
<!-- n9 -->
<g id="node9" class="node">
<title>n9</title>
<path fill="#ffadad" stroke="black" d="M584,-728.5C584,-728.5 376,-728.5 376,-728.5 370,-728.5 364,-722.5 364,-716.5 364,-716.5 364,-704.5 364,-704.5 364,-698.5 370,-692.5 376,-692.5 376,-692.5 584,-692.5 584,-692.5 590,-692.5 596,-698.5 596,-704.5 596,-704.5 596,-716.5 596,-716.5 596,-722.5 590,-728.5 584,-728.5"/>
<text text-anchor="middle" x="480" y="-707.38" font-family="monospace" font-size="10.00">scc 3 | [9] %10 = add nsw i32 %.0, 1</text>
</g>
<!-- n3&#45;&gt;n9 -->
<g id="edge11" class="edge">
<title>n3&#45;&gt;n9</title>
<path fill="none" stroke="blue" d="M564.77,-483.59C576.12,-495.26 589.76,-511.64 597,-529 600.99,-538.55 614.94,-630.64 605,-646.75 593.76,-664.97 575.44,-678.08 556.25,-687.44"/>
<polygon fill="blue" stroke="blue" points="554.9,-684.21 547.23,-691.51 557.78,-690.59 554.9,-684.21"/>
<text text-anchor="middle" x="615.93" y="-585.15" font-family="monospace" font-size="8.00">ctrl</text>
</g>
<!-- n10 -->
<g id="node11" class="node">
<title>n10</title>
<path fill="#bdb2ff" stroke="black" d="M980,-379C980,-379 754,-379 754,-379 748,-379 742,-373 742,-367 742,-367 742,-355 742,-355 742,-349 748,-343 754,-343 754,-343 980,-343 980,-343 986,-343 992,-349 992,-355 992,-355 992,-367 992,-367 992,-373 986,-379 980,-379"/>
<text text-anchor="middle" x="867" y="-357.88" font-family="monospace" font-size="10.00">scc 4 | [10] br label %2, !llvm.loop !5</text>
</g>
<!-- n3&#45;&gt;n10 -->
<g id="edge12" class="edge">
<title>n3&#45;&gt;n10</title>
<path fill="none" stroke="blue" d="M661.25,-446.8C683.66,-442.09 706.77,-436.29 728,-429.25 762.63,-417.76 799.73,-399.48 826.88,-384.87"/>
<polygon fill="blue" stroke="blue" points="828.35,-388.06 835.45,-380.2 824.99,-381.92 828.35,-388.06"/>
<text text-anchor="middle" x="760.68" y="-421.65" font-family="monospace" font-size="8.00">ctrl</text>
</g>
<!-- n2 -->
<g id="node8" class="node">
<title>n2</title>
<path fill="#caffbf" stroke="black" d="M576,-565C576,-565 362,-565 362,-565 356,-565 350,-559 350,-553 350,-553 350,-541 350,-541 350,-535 356,-529 362,-529 362,-529 576,-529 576,-529 582,-529 588,-535 588,-541 588,-541 588,-553 588,-553 588,-559 582,-565 576,-565"/>
<text text-anchor="middle" x="469" y="-543.88" font-family="monospace" font-size="10.00">scc 2 | [2] %3 = icmp slt i32 %.0, 30</text>
</g>
<!-- n2&#45;&gt;n3 -->
<g id="edge5" class="edge">
<title>n2&#45;&gt;n3</title>
<path fill="none" stroke="black" d="M485.71,-528.7C496.2,-517.83 509.92,-503.62 521.61,-491.51"/>
<polygon fill="black" stroke="black" points="523.85,-494.23 528.27,-484.61 518.81,-489.37 523.85,-494.23"/>
<text text-anchor="middle" x="521.11" y="-503.4" font-family="monospace" font-size="8.00">data</text>
</g>
<!-- n1 -->
<g id="node10" class="node">
<title>n1</title>
<path fill="#ffadad" stroke="black" d="M584,-646.75C584,-646.75 304,-646.75 304,-646.75 298,-646.75 292,-640.75 292,-634.75 292,-634.75 292,-622.75 292,-622.75 292,-616.75 298,-610.75 304,-610.75 304,-610.75 584,-610.75 584,-610.75 590,-610.75 596,-616.75 596,-622.75 596,-622.75 596,-634.75 596,-634.75 596,-640.75 590,-646.75 584,-646.75"/>
<text text-anchor="middle" x="444" y="-625.62" font-family="monospace" font-size="10.00">scc 3 | [1] %.0 = phi i32 [ 0, %1 ], [ %10, %4 ]</text>
</g>
<!-- n9&#45;&gt;n1 -->
<g id="edge18" class="edge">
<title>n9&#45;&gt;n1</title>
<path fill="none" stroke="black" stroke-dasharray="5,2" d="M450.89,-692.16C445.08,-687.23 439.77,-681.32 436.5,-674.5 434.08,-669.44 433.58,-663.73 434.13,-658.12"/>
<polygon fill="black" stroke="black" points="437.53,-658.99 436.13,-648.48 430.67,-657.56 437.53,-658.99"/>
<text text-anchor="middle" x="447.75" y="-666.9" font-family="monospace" font-size="8.00">data*</text>
</g>
<!-- n1&#45;&gt;n2 -->
<g id="edge4" class="edge">
<title>n1&#45;&gt;n2</title>
<path fill="none" stroke="black" d="M449.42,-610.45C452.57,-600.41 456.61,-587.54 460.2,-576.09"/>
<polygon fill="black" stroke="black" points="463.48,-577.3 463.13,-566.72 456.8,-575.21 463.48,-577.3"/>
<text text-anchor="middle" x="467" y="-585.15" font-family="monospace" font-size="8.00">data</text>
</g>
<!-- n1&#45;&gt;n9 -->
<g id="edge3" class="edge">
<title>n1&#45;&gt;n9</title>
<path fill="none" stroke="black" d="M453.94,-646.96C457.01,-652.56 460.29,-658.84 463,-664.75 465.49,-670.18 467.93,-676.09 470.14,-681.78"/>
<polygon fill="black" stroke="black" points="466.75,-682.73 473.54,-690.86 473.31,-680.27 466.75,-682.73"/>
<text text-anchor="middle" x="476.17" y="-666.9" font-family="monospace" font-size="8.00">data</text>
</g>
</g>
</svg>
