<?xml version="1.0" encoding="UTF-8" standalone="no"?>
<!DOCTYPE svg PUBLIC "-//W3C//DTD SVG 1.1//EN"
 "http://www.w3.org/Graphics/SVG/1.1/DTD/svg11.dtd">
<!-- Generated by graphviz version 12.2.1 (20241206.2353)
 -->
<!-- Title: sum_heavy:0 Pages: 1 -->
<svg width="1701pt" height="941pt"
 viewBox="0.00 0.00 1701.00 940.50" xmlns="http://www.w3.org/2000/svg" xmlns:xlink="http://www.w3.org/1999/xlink">
<g id="graph0" class="graph" transform="scale(1 1) rotate(0) translate(4 936.5)">
<title>sum_heavy:0</title>
<polygon fill="white" stroke="none" points="-4,4 -4,-936.5 1697,-936.5 1697,4 -4,4"/>
<g id="clust1" class="cluster">
<title>cluster_scc0</title>
<path fill="none" stroke="#7f7f7f" stroke-dasharray="5,2" d="M1287,-8C1287,-8 1673,-8 1673,-8 1679,-8 1685,-14 1685,-20 1685,-20 1685,-154.25 1685,-154.25 1685,-160.25 1679,-166.25 1673,-166.25 1673,-166.25 1287,-166.25 1287,-166.25 1281,-166.25 1275,-160.25 1275,-154.25 1275,-154.25 1275,-20 1275,-20 1275,-14 1281,-8 1287,-8"/>
<text text-anchor="middle" x="1480" y="-148.95" font-family="Times,serif" font-size="14.00">SCC 0 (cyclic, 2 insts)</text>
</g>
<g id="clust2" class="cluster">
<title>cluster_scc10</title>
<path fill="none" stroke="#7f7f7f" stroke-dasharray="5,2" d="M20,-684.5C20,-684.5 496,-684.5 496,-684.5 502,-684.5 508,-690.5 508,-696.5 508,-696.5 508,-912.5 508,-912.5 508,-918.5 502,-924.5 496,-924.5 496,-924.5 20,-924.5 20,-924.5 14,-924.5 8,-918.5 8,-912.5 8,-912.5 8,-696.5 8,-696.5 8,-690.5 14,-684.5 20,-684.5"/>
<text text-anchor="middle" x="258" y="-907.2" font-family="Times,serif" font-size="14.00">SCC 10 (cyclic, 3 insts)</text>
</g>
<!-- n11 -->
<g id="node1" class="node">
<title>n11</title>
<path fill="#ffd6a5" stroke="black" d="M1596,-133.75C1596,-133.75 1364,-133.75 1364,-133.75 1358,-133.75 1352,-127.75 1352,-121.75 1352,-121.75 1352,-109.75 1352,-109.75 1352,-103.75 1358,-97.75 1364,-97.75 1364,-97.75 1596,-97.75 1596,-97.75 1602,-97.75 1608,-103.75 1608,-109.75 1608,-109.75 1608,-121.75 1608,-121.75 1608,-127.75 1602,-133.75 1596,-133.75"/>
<text text-anchor="middle" x="1480" y="-112.62" font-family="monospace" font-size="10.00">scc 0 | [11] %12 = fadd double %.01, %11</text>
</g>
<!-- n0 -->
<g id="node2" class="node">
<title>n0</title>
<path fill="#ffd6a5" stroke="black" d="M1665,-52C1665,-52 1295,-52 1295,-52 1289,-52 1283,-46 1283,-40 1283,-40 1283,-28 1283,-28 1283,-22 1289,-16 1295,-16 1295,-16 1665,-16 1665,-16 1671,-16 1677,-22 1677,-28 1677,-28 1677,-40 1677,-40 1677,-46 1671,-52 1665,-52"/>
<text text-anchor="middle" x="1480" y="-30.88" font-family="monospace" font-size="10.00">scc 0 | [0] %.01 = phi double [ 0.000000e+00, %1 ], [ %12, %4 ]</text>
</g>
<!-- n11&#45;&gt;n0 -->
<g id="edge24" class="edge">
<title>n11&#45;&gt;n0</title>
<path fill="none" stroke="black" stroke-dasharray="5,2" d="M1464.11,-97.44C1460.2,-92.14 1456.55,-86.04 1454.5,-79.75 1452.53,-73.69 1453.63,-67.54 1456.24,-61.81"/>
<polygon fill="black" stroke="black" points="1459.18,-63.72 1461.46,-53.37 1453.23,-60.04 1459.18,-63.72"/>
<text text-anchor="middle" x="1465.75" y="-72.15" font-family="monospace" font-size="8.00">data*</text>
</g>
<!-- n0&#45;&gt;n11 -->
<g id="edge1" class="edge">
<title>n0&#45;&gt;n11</title>
<path fill="none" stroke="black" d="M1480.69,-52.43C1480.94,-60.7 1481.13,-70.74 1481,-79.75 1480.97,-81.8 1480.93,-83.92 1480.89,-86.06"/>
<polygon fill="black" stroke="black" points="1477.39,-85.71 1480.64,-95.79 1484.39,-85.89 1477.39,-85.71"/>
<text text-anchor="middle" x="1490.04" y="-72.15" font-family="monospace" font-size="8.00">data</text>
</g>
<!-- n10 -->
<g id="node3" class="node">
<title>n10</title>
<path fill="#a0c4ff" stroke="black" d="M1504,-238C1504,-238 1140,-238 1140,-238 1134,-238 1128,-232 1128,-226 1128,-226 1128,-214 1128,-214 1128,-208 1134,-202 1140,-202 1140,-202 1504,-202 1504,-202 1510,-202 1516,-208 1516,-214 1516,-214 1516,-226 1516,-226 1516,-232 1510,-238 1504,-238"/>
<text text-anchor="middle" x="1322" y="-216.88" font-family="monospace" font-size="10.00">scc 1 | [10] %11 = call double @heavy_e(double noundef %10) #7</text>
</g>
<!-- n10&#45;&gt;n11 -->
<g id="edge23" class="edge">
<title>n10&#45;&gt;n11</title>
<path fill="none" stroke="black" d="M1348.8,-201.65C1374.91,-184.76 1414.77,-158.96 1443.71,-140.24"/>
<polygon fill="black" stroke="black" points="1445.3,-143.37 1451.8,-135 1441.5,-137.5 1445.3,-143.37"/>
<text text-anchor="middle" x="1395.85" y="-176.4" font-family="monospace" font-size="8.00">data</text>
</g>
<!-- n9 -->
<g id="node4" class="node">
<title>n9</title>
<path fill="#caffbf" stroke="black" d="M1361,-319.75C1361,-319.75 1009,-319.75 1009,-319.75 1003,-319.75 997,-313.75 997,-307.75 997,-307.75 997,-295.75 997,-295.75 997,-289.75 1003,-283.75 1009,-283.75 1009,-283.75 1361,-283.75 1361,-283.75 1367,-283.75 1373,-289.75 1373,-295.75 1373,-295.75 1373,-307.75 1373,-307.75 1373,-313.75 1367,-319.75 1361,-319.75"/>
<text text-anchor="middle" x="1185" y="-298.62" font-family="monospace" font-size="10.00">scc 2 | [9] %10 = call double @heavy_d(double noundef %9) #7</text>
</g>
<!-- n9&#45;&gt;n10 -->
<g id="edge22" class="edge">
<title>n9&#45;&gt;n10</title>
<path fill="none" stroke="black" d="M1214.73,-283.45C1234.56,-271.9 1260.87,-256.58 1282.47,-244.01"/>
<polygon fill="black" stroke="black" points="1284.14,-247.09 1291.02,-239.03 1280.62,-241.04 1284.14,-247.09"/>
<text text-anchor="middle" x="1270.7" y="-258.15" font-family="monospace" font-size="8.00">data</text>
</g>
<!-- n8 -->
<g id="node5" class="node">
<title>n8</title>
<path fill="#ffadad" stroke="black" d="M1145,-401.5C1145,-401.5 799,-401.5 799,-401.5 793,-401.5 787,-395.5 787,-389.5 787,-389.5 787,-377.5 787,-377.5 787,-371.5 793,-365.5 799,-365.5 799,-365.5 1145,-365.5 1145,-365.5 1151,-365.5 1157,-371.5 1157,-377.5 1157,-377.5 1157,-389.5 1157,-389.5 1157,-395.5 1151,-401.5 1145,-401.5"/>
<text text-anchor="middle" x="972" y="-380.38" font-family="monospace" font-size="10.00">scc 3 | [8] %9 = call double @heavy_c(double noundef %8) #7</text>
</g>
<!-- n8&#45;&gt;n9 -->
<g id="edge21" class="edge">
<title>n8&#45;&gt;n9</title>
<path fill="none" stroke="black" d="M1018.48,-365.1C1050.76,-353.01 1093.97,-336.83 1128.28,-323.99"/>
<polygon fill="black" stroke="black" points="1129.06,-327.43 1137.2,-320.65 1126.61,-320.88 1129.06,-327.43"/>
<text text-anchor="middle" x="1100.25" y="-339.9" font-family="monospace" font-size="8.00">data</text>
</g>
<!-- n7 -->
<g id="node6" class="node">
<title>n7</title>
<path fill="#bdb2ff" stroke="black" d="M1060,-483.25C1060,-483.25 714,-483.25 714,-483.25 708,-483.25 702,-477.25 702,-471.25 702,-471.25 702,-459.25 702,-459.25 702,-453.25 708,-447.25 714,-447.25 714,-447.25 1060,-447.25 1060,-447.25 1066,-447.25 1072,-453.25 1072,-459.25 1072,-459.25 1072,-471.25 1072,-471.25 1072,-477.25 1066,-483.25 1060,-483.25"/>
<text text-anchor="middle" x="887" y="-462.12" font-family="monospace" font-size="10.00">scc 4 | [7] %8 = call double @heavy_b(double noundef %7) #7</text>
</g>
<!-- n7&#45;&gt;n8 -->
<g id="edge20" class="edge">
<title>n7&#45;&gt;n8</title>
<path fill="none" stroke="black" d="M905.44,-446.95C917.14,-435.97 932.46,-421.6 945.45,-409.41"/>
<polygon fill="black" stroke="black" points="947.59,-412.2 952.49,-402.81 942.8,-407.1 947.59,-412.2"/>
<text text-anchor="middle" x="943.59" y="-421.65" font-family="monospace" font-size="8.00">data</text>
</g>
<!-- n6 -->
<g id="node7" class="node">
<title>n6</title>
<path fill="#fdffb6" stroke="black" d="M1060,-565C1060,-565 714,-565 714,-565 708,-565 702,-559 702,-553 702,-553 702,-541 702,-541 702,-535 708,-529 714,-529 714,-529 1060,-529 1060,-529 1066,-529 1072,-535 1072,-541 1072,-541 1072,-553 1072,-553 1072,-559 1066,-565 1060,-565"/>
<text text-anchor="middle" x="887" y="-543.88" font-family="monospace" font-size="10.00">scc 5 | [6] %7 = call double @heavy_a(double noundef %6) #7</text>
</g>
<!-- n6&#45;&gt;n7 -->
<g id="edge19" class="edge">
<title>n6&#45;&gt;n7</title>
<path fill="none" stroke="black" d="M887,-528.7C887,-518.77 887,-506.06 887,-494.7"/>
<polygon fill="black" stroke="black" points="890.5,-495.03 887,-485.03 883.5,-495.03 890.5,-495.03"/>
<text text-anchor="middle" x="896" y="-503.4" font-family="monospace" font-size="8.00">data</text>
</g>
<!-- n5 -->
<g id="node8" class="node">
<title>n5</title>
<path fill="#9bf6ff" stroke="black" d="M1004,-646.75C1004,-646.75 682,-646.75 682,-646.75 676,-646.75 670,-640.75 670,-634.75 670,-634.75 670,-622.75 670,-622.75 670,-616.75 676,-610.75 682,-610.75 682,-610.75 1004,-610.75 1004,-610.75 1010,-610.75 1016,-616.75 1016,-622.75 1016,-622.75 1016,-634.75 1016,-634.75 1016,-640.75 1010,-646.75 1004,-646.75"/>
<text text-anchor="middle" x="843" y="-625.62" font-family="monospace" font-size="10.00">scc 6 | [5] %6 = load double, ptr %5, align 8, !tbaa !5</text>
</g>
<!-- n5&#45;&gt;n6 -->
<g id="edge18" class="edge">
<title>n5&#45;&gt;n6</title>
<path fill="none" stroke="black" d="M852.55,-610.45C858.26,-600.1 865.63,-586.73 872.09,-575.02"/>
<polygon fill="black" stroke="black" points="874.97,-577.04 876.74,-566.6 868.84,-573.66 874.97,-577.04"/>
<text text-anchor="middle" x="876.63" y="-585.15" font-family="monospace" font-size="8.00">data</text>
</g>
<!-- n4 -->
<g id="node9" class="node">
<title>n4</title>
<path fill="#ffc6ff" stroke="black" d="M1064,-728.5C1064,-728.5 622,-728.5 622,-728.5 616,-728.5 610,-722.5 610,-716.5 610,-716.5 610,-704.5 610,-704.5 610,-698.5 616,-692.5 622,-692.5 622,-692.5 1064,-692.5 1064,-692.5 1070,-692.5 1076,-698.5 1076,-704.5 1076,-704.5 1076,-716.5 1076,-716.5 1076,-722.5 1070,-728.5 1064,-728.5"/>
<text text-anchor="middle" x="843" y="-707.38" font-family="monospace" font-size="10.00">scc 7 | [4] %5 = getelementptr inbounds %struct.Node, ptr %.0, i32 0, i32 0</text>
</g>
<!-- n4&#45;&gt;n5 -->
<g id="edge17" class="edge">
<title>n4&#45;&gt;n5</title>
<path fill="none" stroke="black" d="M843,-692.2C843,-682.27 843,-669.56 843,-658.2"/>
<polygon fill="black" stroke="black" points="846.5,-658.53 843,-648.53 839.5,-658.53 846.5,-658.53"/>
<text text-anchor="middle" x="852" y="-666.9" font-family="monospace" font-size="8.00">data</text>
</g>
<!-- n3 -->
<g id="node10" class="node">
<title>n3</title>
<path fill="#e2f0cb" stroke="black" d="M1092,-810.25C1092,-810.25 854,-810.25 854,-810.25 848,-810.25 842,-804.25 842,-798.25 842,-798.25 842,-786.25 842,-786.25 842,-780.25 848,-774.25 854,-774.25 854,-774.25 1092,-774.25 1092,-774.25 1098,-774.25 1104,-780.25 1104,-786.25 1104,-786.25 1104,-798.25 1104,-798.25 1104,-804.25 1098,-810.25 1092,-810.25"/>
<text text-anchor="middle" x="973" y="-789.12" font-family="monospace" font-size="10.00">scc 8 | [3] br i1 %3, label %4, label %15</text>
</g>
<!-- n3&#45;&gt;n11 -->
<g id="edge13" class="edge">
<title>n3&#45;&gt;n11</title>
<path fill="none" stroke="blue" d="M1104.36,-785.71C1272.96,-776.81 1544,-755.64 1544,-711.5 1544,-711.5 1544,-711.5 1544,-219 1544,-189.4 1524.49,-161.31 1507.01,-142.09"/>
<polygon fill="blue" stroke="blue" points="1509.68,-139.82 1500.25,-135.01 1504.62,-144.66 1509.68,-139.82"/>
<text text-anchor="middle" x="1553" y="-462.52" font-family="monospace" font-size="8.00">ctrl</text>
</g>
<!-- n3&#45;&gt;n10 -->
<g id="edge12" class="edge">
<title>n3&#45;&gt;n10</title>
<path fill="none" stroke="blue" d="M1104.46,-784C1259.97,-773.61 1498,-751.23 1498,-711.5 1498,-711.5 1498,-711.5 1498,-300.75 1498,-272.76 1479.31,-254.55 1454.11,-242.71"/>
<polygon fill="blue" stroke="blue" points="1455.72,-239.59 1445.15,-238.91 1452.99,-246.04 1455.72,-239.59"/>
<text text-anchor="middle" x="1507" y="-503.4" font-family="monospace" font-size="8.00">ctrl</text>
</g>
<!-- n3&#45;&gt;n9 -->
<g id="edge11" class="edge">
<title>n3&#45;&gt;n9</title>
<path fill="none" stroke="blue" d="M1065.27,-773.83C1077.23,-769.27 1088.84,-763.51 1099,-756.25 1168.79,-706.35 1185,-692.3 1185,-507.12 1185,-507.12 1185,-507.12 1185,-382.5 1185,-365.57 1185,-346.61 1185,-331.43"/>
<polygon fill="blue" stroke="blue" points="1188.5,-331.69 1185,-321.69 1181.5,-331.69 1188.5,-331.69"/>
<text text-anchor="middle" x="1193.89" y="-544.27" font-family="monospace" font-size="8.00">ctrl</text>
</g>
<!-- n3&#45;&gt;n8 -->
<g id="edge10" class="edge">
<title>n3&#45;&gt;n8</title>
<path fill="none" stroke="blue" d="M1044.31,-773.84C1056.46,-769.19 1068.51,-763.41 1079,-756.25 1092.23,-747.22 1096.57,-743.57 1102,-728.5 1111.61,-701.85 1103.36,-693.05 1102,-664.75 1097.33,-567.75 1133.6,-528.89 1081,-447.25 1069.78,-429.83 1051.89,-416.7 1033.83,-407.08"/>
<polygon fill="blue" stroke="blue" points="1035.39,-403.94 1024.88,-402.62 1032.28,-410.21 1035.39,-403.94"/>
<text text-anchor="middle" x="1115.17" y="-585.15" font-family="monospace" font-size="8.00">ctrl</text>
</g>
<!-- n3&#45;&gt;n7 -->
<g id="edge9" class="edge">
<title>n3&#45;&gt;n7</title>
<path fill="none" stroke="blue" d="M841.55,-785.73C729.62,-780.11 583.17,-770.24 559,-756.25 538.06,-744.13 528,-735.69 528,-711.5 528,-711.5 528,-711.5 528,-546 528,-507.73 606.71,-487.82 690.42,-477.46"/>
<polygon fill="blue" stroke="blue" points="690.69,-480.95 700.21,-476.3 689.87,-474 690.69,-480.95"/>
<text text-anchor="middle" x="537" y="-626.02" font-family="monospace" font-size="8.00">ctrl</text>
</g>
<!-- n3&#45;&gt;n6 -->
<g id="edge8" class="edge">
<title>n3&#45;&gt;n6</title>
<path fill="none" stroke="blue" d="M1028.93,-773.81C1050.39,-764.08 1072.66,-749.56 1085,-728.5 1094.89,-711.63 1091.55,-702.93 1085,-684.5 1064.42,-626.59 1002.04,-590.15 952.74,-569.63"/>
<polygon fill="blue" stroke="blue" points="954.11,-566.41 943.53,-565.93 951.5,-572.9 954.11,-566.41"/>
<text text-anchor="middle" x="1089.33" y="-666.9" font-family="monospace" font-size="8.00">ctrl</text>
</g>
<!-- n3&#45;&gt;n5 -->
<g id="edge7" class="edge">
<title>n3&#45;&gt;n5</title>
<path fill="none" stroke="blue" d="M841.66,-787.84C741.75,-782.14 615.99,-767.23 583,-728.5 547.33,-686.63 594.88,-662.47 658.66,-648.55"/>
<polygon fill="blue" stroke="blue" points="659.31,-651.99 668.39,-646.54 657.89,-645.14 659.31,-651.99"/>
<text text-anchor="middle" x="592" y="-707.77" font-family="monospace" font-size="8.00">ctrl</text>
</g>
<!-- n3&#45;&gt;n4 -->
<g id="edge6" class="edge">
<title>n3&#45;&gt;n4</title>
<path fill="none" stroke="blue" d="M944.79,-773.95C926.05,-762.45 901.23,-747.22 880.79,-734.68"/>
<polygon fill="blue" stroke="blue" points="882.8,-731.81 872.44,-729.56 879.14,-737.77 882.8,-731.81"/>
<text text-anchor="middle" x="924.78" y="-748.65" font-family="monospace" font-size="8.00">ctrl</text>
</g>
<!-- n13 -->
<g id="node12" class="node">
<title>n13</title>
<path fill="#ffd6a5" stroke="black" d="M488,-892C488,-892 154,-892 154,-892 148,-892 142,-886 142,-880 142,-880 142,-868 142,-868 142,-862 148,-856 154,-856 154,-856 488,-856 488,-856 494,-856 500,-862 500,-868 500,-868 500,-880 500,-880 500,-886 494,-892 488,-892"/>
<text text-anchor="middle" x="321" y="-870.88" font-family="monospace" font-size="10.00">scc 10 | [13] %14 = load ptr, ptr %13, align 8, !tbaa !11</text>
</g>
<!-- n3&#45;&gt;n13 -->
<g id="edge15" class="edge">
<title>n3&#45;&gt;n13</title>
<path fill="none" stroke="blue" d="M841.8,-798.66C751.98,-803.54 630.34,-812.46 524,-828.25 482.57,-834.4 436.99,-844.17 399.53,-853.01"/>
<polygon fill="blue" stroke="blue" points="399.08,-849.52 390.16,-855.25 400.7,-856.33 399.08,-849.52"/>
<text text-anchor="middle" x="533" y="-830.4" font-family="monospace" font-size="8.00">ctrl</text>
</g>
<!-- n12 -->
<g id="node13" class="node">
<title>n12</title>
<path fill="#ffd6a5" stroke="black" d="M488,-728.5C488,-728.5 28,-728.5 28,-728.5 22,-728.5 16,-722.5 16,-716.5 16,-716.5 16,-704.5 16,-704.5 16,-698.5 22,-692.5 28,-692.5 28,-692.5 488,-692.5 488,-692.5 494,-692.5 500,-698.5 500,-704.5 500,-704.5 500,-716.5 500,-716.5 500,-722.5 494,-728.5 488,-728.5"/>
<text text-anchor="middle" x="258" y="-707.38" font-family="monospace" font-size="10.00">scc 10 | [12] %13 = getelementptr inbounds %struct.Node, ptr %.0, i32 0, i32 1</text>
</g>
<!-- n3&#45;&gt;n12 -->
<g id="edge14" class="edge">
<title>n3&#45;&gt;n12</title>
<path fill="none" stroke="blue" d="M841.5,-785.59C745.48,-780.49 612.3,-771.4 496,-756.25 447.48,-749.93 393.9,-740.11 349.87,-731.28"/>
<polygon fill="blue" stroke="blue" points="350.58,-727.85 340.09,-729.29 349.19,-734.71 350.58,-727.85"/>
<text text-anchor="middle" x="505" y="-748.65" font-family="monospace" font-size="8.00">ctrl</text>
</g>
<!-- n14 -->
<g id="node15" class="node">
<title>n14</title>
<path fill="#a0c4ff" stroke="black" d="M1458,-728.5C1458,-728.5 1220,-728.5 1220,-728.5 1214,-728.5 1208,-722.5 1208,-716.5 1208,-716.5 1208,-704.5 1208,-704.5 1208,-698.5 1214,-692.5 1220,-692.5 1220,-692.5 1458,-692.5 1458,-692.5 1464,-692.5 1470,-698.5 1470,-704.5 1470,-704.5 1470,-716.5 1470,-716.5 1470,-722.5 1464,-728.5 1458,-728.5"/>
<text text-anchor="middle" x="1339" y="-707.38" font-family="monospace" font-size="10.00">scc 11 | [14] br label %2, !llvm.loop !12</text>
</g>
<!-- n3&#45;&gt;n14 -->
<g id="edge16" class="edge">
<title>n3&#45;&gt;n14</title>
<path fill="none" stroke="blue" d="M1103.31,-773.77C1133.26,-768.88 1164.86,-763.02 1194,-756.25 1221.96,-749.76 1252.38,-740.69 1278.1,-732.41"/>
<polygon fill="blue" stroke="blue" points="1278.95,-735.81 1287.38,-729.39 1276.79,-729.16 1278.95,-735.81"/>
<text text-anchor="middle" x="1239.26" y="-748.65" font-family="monospace" font-size="8.00">ctrl</text>
</g>
<!-- n2 -->
<g id="node11" class="node">
<title>n2</title>
<path fill="#d3d3d3" stroke="black" d="M916,-892C916,-892 696,-892 696,-892 690,-892 684,-886 684,-880 684,-880 684,-868 684,-868 684,-862 690,-856 696,-856 696,-856 916,-856 916,-856 922,-856 928,-862 928,-868 928,-868 928,-880 928,-880 928,-886 922,-892 916,-892"/>
<text text-anchor="middle" x="806" y="-870.88" font-family="monospace" font-size="10.00">scc 9 | [2] %3 = icmp ne ptr %.0, null</text>
</g>
<!-- n2&#45;&gt;n3 -->
<g id="edge5" class="edge">
<title>n2&#45;&gt;n3</title>
<path fill="none" stroke="black" d="M842.24,-855.7C866.88,-843.93 899.71,-828.25 926.32,-815.54"/>
<polygon fill="black" stroke="black" points="927.66,-818.78 935.18,-811.31 924.65,-812.46 927.66,-818.78"/>
<text text-anchor="middle" x="908.5" y="-830.4" font-family="monospace" font-size="8.00">data</text>
</g>
<!-- n1 -->
<g id="node14" class="node">
<title>n1</title>
<path fill="#ffd6a5" stroke="black" d="M488,-810.25C488,-810.25 196,-810.25 196,-810.25 190,-810.25 184,-804.25 184,-798.25 184,-798.25 184,-786.25 184,-786.25 184,-780.25 190,-774.25 196,-774.25 196,-774.25 488,-774.25 488,-774.25 494,-774.25 500,-780.25 500,-786.25 500,-786.25 500,-798.25 500,-798.25 500,-804.25 494,-810.25 488,-810.25"/>
<text text-anchor="middle" x="342" y="-789.12" font-family="monospace" font-size="10.00">scc 10 | [1] %.0 = phi ptr [ %0, %1 ], [ %14, %4 ]</text>
</g>
<!-- n13&#45;&gt;n1 -->
<g id="edge26" class="edge">
<title>n13&#45;&gt;n1</title>
<path fill="none" stroke="black" stroke-dasharray="5,2" d="M325.56,-855.7C328.2,-845.66 331.59,-832.79 334.6,-821.34"/>
<polygon fill="black" stroke="black" points="337.9,-822.55 337.07,-811.98 331.14,-820.76 337.9,-822.55"/>
<text text-anchor="middle" x="344.01" y="-830.4" font-family="monospace" font-size="8.00">data*</text>
</g>
<!-- n12&#45;&gt;n13 -->
<g id="edge25" class="edge">
<title>n12&#45;&gt;n13</title>
<path fill="none" stroke="black" d="M217.01,-728.94C180.05,-747.24 134.69,-777.82 157,-810.25 169.92,-829.03 189.28,-842.19 210.22,-851.41"/>
<polygon fill="black" stroke="black" points="208.62,-854.54 219.2,-855.06 211.26,-848.06 208.62,-854.54"/>
<text text-anchor="middle" x="166" y="-789.52" font-family="monospace" font-size="8.00">data</text>
</g>
<!-- n1&#45;&gt;n4 -->
<g id="edge3" class="edge">
<title>n1&#45;&gt;n4</title>
<path fill="none" stroke="black" d="M451.64,-773.8C531.48,-761.09 639.61,-743.88 721.99,-730.76"/>
<polygon fill="black" stroke="black" points="722.36,-734.25 731.68,-729.22 721.26,-727.34 722.36,-734.25"/>
<text text-anchor="middle" x="631.5" y="-748.65" font-family="monospace" font-size="8.00">data</text>
</g>
<!-- n1&#45;&gt;n2 -->
<g id="edge4" class="edge">
<title>n1&#45;&gt;n2</title>
<path fill="none" stroke="black" d="M443.71,-810.73C517.48,-823.41 617.24,-840.56 693.4,-853.65"/>
<polygon fill="black" stroke="black" points="692.52,-857.05 702.97,-855.29 693.71,-850.15 692.52,-857.05"/>
<text text-anchor="middle" x="610.78" y="-830.4" font-family="monospace" font-size="8.00">data</text>
</g>
<!-- n1&#45;&gt;n12 -->
<g id="edge2" class="edge">
<title>n1&#45;&gt;n12</title>
<path fill="none" stroke="black" d="M323.77,-773.95C312.22,-762.97 297.08,-748.6 284.24,-736.41"/>
<polygon fill="black" stroke="black" points="286.95,-734.16 277.29,-729.81 282.13,-739.24 286.95,-734.16"/>
<text text-anchor="middle" x="314.03" y="-748.65" font-family="monospace" font-size="8.00">data</text>
</g>
</g>
</svg>
