<?xml version="1.0" encoding="UTF-8" standalone="no"?>
<!DOCTYPE svg PUBLIC "-//W3C//DTD SVG 1.1//EN"
 "http://www.w3.org/Graphics/SVG/1.1/DTD/svg11.dtd">
<!-- Generated by graphviz version 12.2.1 (20241206.2353)
 -->
<!-- Title: partition_sum_heavy:0 Pages: 1 -->
<svg width="303pt" height="790pt"
 viewBox="0.00 0.00 303.00 790.25" xmlns="http://www.w3.org/2000/svg" xmlns:xlink="http://www.w3.org/1999/xlink">
<g id="graph0" class="graph" transform="scale(1 1) rotate(0) translate(4 786.25)">
<title>partition_sum_heavy:0</title>
<polygon fill="white" stroke="none" points="-4,4 -4,-786.25 299,-786.25 299,4 -4,4"/>
<!-- scc0 -->
<g id="node1" class="node">
<title>scc0</title>
<path fill="#ffadad" stroke="black" d="M97,-46.25C97,-46.25 15,-46.25 15,-46.25 9,-46.25 3,-40.25 3,-34.25 3,-34.25 3,-12 3,-12 3,-6 9,0 15,0 15,0 97,0 97,0 103,0 109,-6 109,-12 109,-12 109,-34.25 109,-34.25 109,-40.25 103,-46.25 97,-46.25"/>
<text text-anchor="middle" x="56" y="-32.75" font-family="monospace" font-size="10.00">SCC 0 (cyclic)</text>
<text text-anchor="middle" x="56" y="-20" font-family="monospace" font-size="10.00">2 insts, cost=1</text>
<text text-anchor="middle" x="56" y="-7.25" font-family="monospace" font-size="10.00">stage 1</text>
</g>
<!-- scc1 -->
<g id="node2" class="node">
<title>scc1</title>
<path fill="#ffadad" stroke="black" d="M100,-138.25C100,-138.25 12,-138.25 12,-138.25 6,-138.25 0,-132.25 0,-126.25 0,-126.25 0,-104 0,-104 0,-98 6,-92 12,-92 12,-92 100,-92 100,-92 106,-92 112,-98 112,-104 112,-104 112,-126.25 112,-126.25 112,-132.25 106,-138.25 100,-138.25"/>
<text text-anchor="middle" x="56" y="-124.75" font-family="monospace" font-size="10.00">SCC 1</text>
<text text-anchor="middle" x="56" y="-112" font-family="monospace" font-size="10.00">1 insts, cost=30</text>
<text text-anchor="middle" x="56" y="-99.25" font-family="monospace" font-size="10.00">stage 1</text>
</g>
<!-- scc1&#45;&gt;scc0 -->
<g id="edge1" class="edge">
<title>scc1&#45;&gt;scc0</title>
<path fill="none" stroke="#666666" d="M56,-91.88C56,-81.68 56,-69.36 56,-58.04"/>
<polygon fill="#666666" stroke="#666666" points="59.5,-58.25 56,-48.25 52.5,-58.25 59.5,-58.25"/>
<text text-anchor="middle" x="58.25" y="-66.4" font-family="monospace" font-size="8.00">d</text>
</g>
<!-- scc2 -->
<g id="node3" class="node">
<title>scc2</title>
<path fill="#ffadad" stroke="black" d="M100,-230.25C100,-230.25 12,-230.25 12,-230.25 6,-230.25 0,-224.25 0,-218.25 0,-218.25 0,-196 0,-196 0,-190 6,-184 12,-184 12,-184 100,-184 100,-184 106,-184 112,-190 112,-196 112,-196 112,-218.25 112,-218.25 112,-224.25 106,-230.25 100,-230.25"/>
<text text-anchor="middle" x="56" y="-216.75" font-family="monospace" font-size="10.00">SCC 2</text>
<text text-anchor="middle" x="56" y="-204" font-family="monospace" font-size="10.00">1 insts, cost=30</text>
<text text-anchor="middle" x="56" y="-191.25" font-family="monospace" font-size="10.00">stage 1</text>
</g>
<!-- scc2&#45;&gt;scc1 -->
<g id="edge2" class="edge">
<title>scc2&#45;&gt;scc1</title>
<path fill="none" stroke="#666666" d="M56,-183.88C56,-173.68 56,-161.36 56,-150.04"/>
<polygon fill="#666666" stroke="#666666" points="59.5,-150.25 56,-140.25 52.5,-150.25 59.5,-150.25"/>
<text text-anchor="middle" x="58.25" y="-158.4" font-family="monospace" font-size="8.00">d</text>
</g>
<!-- scc3 -->
<g id="node4" class="node">
<title>scc3</title>
<path fill="#a0c4ff" stroke="black" d="M100,-322.25C100,-322.25 12,-322.25 12,-322.25 6,-322.25 0,-316.25 0,-310.25 0,-310.25 0,-288 0,-288 0,-282 6,-276 12,-276 12,-276 100,-276 100,-276 106,-276 112,-282 112,-288 112,-288 112,-310.25 112,-310.25 112,-316.25 106,-322.25 100,-322.25"/>
<text text-anchor="middle" x="56" y="-308.75" font-family="monospace" font-size="10.00">SCC 3</text>
<text text-anchor="middle" x="56" y="-296" font-family="monospace" font-size="10.00">1 insts, cost=30</text>
<text text-anchor="middle" x="56" y="-283.25" font-family="monospace" font-size="10.00">stage 0</text>
</g>
<!-- scc3&#45;&gt;scc2 -->
<g id="edge3" class="edge">
<title>scc3&#45;&gt;scc2</title>
<path fill="none" stroke="darkgreen" stroke-width="2" d="M56,-275.88C56,-266.11 56,-254.4 56,-243.48"/>
<polygon fill="darkgreen" stroke="darkgreen" stroke-width="2" points="59.5,-243.77 56,-233.77 52.5,-243.77 59.5,-243.77"/>
<text text-anchor="middle" x="58.25" y="-250.4" font-family="monospace" font-size="8.00">d</text>
</g>
<!-- scc4 -->
<g id="node5" class="node">
<title>scc4</title>
<path fill="#a0c4ff" stroke="black" d="M100,-414.25C100,-414.25 12,-414.25 12,-414.25 6,-414.25 0,-408.25 0,-402.25 0,-402.25 0,-380 0,-380 0,-374 6,-368 12,-368 12,-368 100,-368 100,-368 106,-368 112,-374 112,-380 112,-380 112,-402.25 112,-402.25 112,-408.25 106,-414.25 100,-414.25"/>
<text text-anchor="middle" x="56" y="-400.75" font-family="monospace" font-size="10.00">SCC 4</text>
<text text-anchor="middle" x="56" y="-388" font-family="monospace" font-size="10.00">1 insts, cost=30</text>
<text text-anchor="middle" x="56" y="-375.25" font-family="monospace" font-size="10.00">stage 0</text>
</g>
<!-- scc4&#45;&gt;scc3 -->
<g id="edge4" class="edge">
<title>scc4&#45;&gt;scc3</title>
<path fill="none" stroke="#666666" d="M56,-367.88C56,-357.68 56,-345.36 56,-334.04"/>
<polygon fill="#666666" stroke="#666666" points="59.5,-334.25 56,-324.25 52.5,-334.25 59.5,-334.25"/>
<text text-anchor="middle" x="58.25" y="-342.4" font-family="monospace" font-size="8.00">d</text>
</g>
<!-- scc5 -->
<g id="node6" class="node">
<title>scc5</title>
<path fill="#a0c4ff" stroke="black" d="M100,-506.25C100,-506.25 12,-506.25 12,-506.25 6,-506.25 0,-500.25 0,-494.25 0,-494.25 0,-472 0,-472 0,-466 6,-460 12,-460 12,-460 100,-460 100,-460 106,-460 112,-466 112,-472 112,-472 112,-494.25 112,-494.25 112,-500.25 106,-506.25 100,-506.25"/>
<text text-anchor="middle" x="56" y="-492.75" font-family="monospace" font-size="10.00">SCC 5</text>
<text text-anchor="middle" x="56" y="-480" font-family="monospace" font-size="10.00">1 insts, cost=30</text>
<text text-anchor="middle" x="56" y="-467.25" font-family="monospace" font-size="10.00">stage 0</text>
</g>
<!-- scc5&#45;&gt;scc4 -->
<g id="edge5" class="edge">
<title>scc5&#45;&gt;scc4</title>
<path fill="none" stroke="#666666" d="M56,-459.88C56,-449.68 56,-437.36 56,-426.04"/>
<polygon fill="#666666" stroke="#666666" points="59.5,-426.25 56,-416.25 52.5,-426.25 59.5,-426.25"/>
<text text-anchor="middle" x="58.25" y="-434.4" font-family="monospace" font-size="8.00">d</text>
</g>
<!-- scc6 -->
<g id="node7" class="node">
<title>scc6</title>
<path fill="#a0c4ff" stroke="black" d="M97,-598.25C97,-598.25 15,-598.25 15,-598.25 9,-598.25 3,-592.25 3,-586.25 3,-586.25 3,-564 3,-564 3,-558 9,-552 15,-552 15,-552 97,-552 97,-552 103,-552 109,-558 109,-564 109,-564 109,-586.25 109,-586.25 109,-592.25 103,-598.25 97,-598.25"/>
<text text-anchor="middle" x="56" y="-584.75" font-family="monospace" font-size="10.00">SCC 6</text>
<text text-anchor="middle" x="56" y="-572" font-family="monospace" font-size="10.00">1 insts, cost=4</text>
<text text-anchor="middle" x="56" y="-559.25" font-family="monospace" font-size="10.00">stage 0</text>
</g>
<!-- scc6&#45;&gt;scc5 -->
<g id="edge6" class="edge">
<title>scc6&#45;&gt;scc5</title>
<path fill="none" stroke="#666666" d="M56,-551.88C56,-541.68 56,-529.36 56,-518.04"/>
<polygon fill="#666666" stroke="#666666" points="59.5,-518.25 56,-508.25 52.5,-518.25 59.5,-518.25"/>
<text text-anchor="middle" x="58.25" y="-526.4" font-family="monospace" font-size="8.00">d</text>
</g>
<!-- scc7 -->
<g id="node8" class="node">
<title>scc7</title>
<path fill="#a0c4ff" stroke="black" d="M97,-690.25C97,-690.25 15,-690.25 15,-690.25 9,-690.25 3,-684.25 3,-678.25 3,-678.25 3,-656 3,-656 3,-650 9,-644 15,-644 15,-644 97,-644 97,-644 103,-644 109,-650 109,-656 109,-656 109,-678.25 109,-678.25 109,-684.25 103,-690.25 97,-690.25"/>
<text text-anchor="middle" x="56" y="-676.75" font-family="monospace" font-size="10.00">SCC 7</text>
<text text-anchor="middle" x="56" y="-664" font-family="monospace" font-size="10.00">1 insts, cost=1</text>
<text text-anchor="middle" x="56" y="-651.25" font-family="monospace" font-size="10.00">stage 0</text>
</g>
<!-- scc7&#45;&gt;scc6 -->
<g id="edge7" class="edge">
<title>scc7&#45;&gt;scc6</title>
<path fill="none" stroke="#666666" d="M56,-643.88C56,-633.68 56,-621.36 56,-610.04"/>
<polygon fill="#666666" stroke="#666666" points="59.5,-610.25 56,-600.25 52.5,-610.25 59.5,-610.25"/>
<text text-anchor="middle" x="58.25" y="-618.4" font-family="monospace" font-size="8.00">d</text>
</g>
<!-- scc8 -->
<g id="node9" class="node">
<title>scc8</title>
<path fill="#a0c4ff" stroke="black" d="M221,-598.25C221,-598.25 139,-598.25 139,-598.25 133,-598.25 127,-592.25 127,-586.25 127,-586.25 127,-564 127,-564 127,-558 133,-552 139,-552 139,-552 221,-552 221,-552 227,-552 233,-558 233,-564 233,-564 233,-586.25 233,-586.25 233,-592.25 227,-598.25 221,-598.25"/>
<text text-anchor="middle" x="180" y="-584.75" font-family="monospace" font-size="10.00">SCC 8</text>
<text text-anchor="middle" x="180" y="-572" font-family="monospace" font-size="10.00">1 insts, cost=1</text>
<text text-anchor="middle" x="180" y="-559.25" font-family="monospace" font-size="10.00">stage 0</text>
</g>
<!-- scc9 -->
<g id="node10" class="node">
<title>scc9</title>
<path fill="#a0c4ff" stroke="black" d="M221,-690.25C221,-690.25 139,-690.25 139,-690.25 133,-690.25 127,-684.25 127,-678.25 127,-678.25 127,-656 127,-656 127,-650 133,-644 139,-644 139,-644 221,-644 221,-644 227,-644 233,-650 233,-656 233,-656 233,-678.25 233,-678.25 233,-684.25 227,-690.25 221,-690.25"/>
<text text-anchor="middle" x="180" y="-676.75" font-family="monospace" font-size="10.00">SCC 9</text>
<text text-anchor="middle" x="180" y="-664" font-family="monospace" font-size="10.00">1 insts, cost=1</text>
<text text-anchor="middle" x="180" y="-651.25" font-family="monospace" font-size="10.00">stage 0</text>
</g>
<!-- scc9&#45;&gt;scc8 -->
<g id="edge8" class="edge">
<title>scc9&#45;&gt;scc8</title>
<path fill="none" stroke="#666666" d="M180,-643.88C180,-633.68 180,-621.36 180,-610.04"/>
<polygon fill="#666666" stroke="#666666" points="183.5,-610.25 180,-600.25 176.5,-610.25 183.5,-610.25"/>
<text text-anchor="middle" x="182.25" y="-618.4" font-family="monospace" font-size="8.00">d</text>
</g>
<!-- scc10 -->
<g id="node11" class="node">
<title>scc10</title>
<path fill="#a0c4ff" stroke="black" d="M159,-782.25C159,-782.25 77,-782.25 77,-782.25 71,-782.25 65,-776.25 65,-770.25 65,-770.25 65,-748 65,-748 65,-742 71,-736 77,-736 77,-736 159,-736 159,-736 165,-736 171,-742 171,-748 171,-748 171,-770.25 171,-770.25 171,-776.25 165,-782.25 159,-782.25"/>
<text text-anchor="middle" x="118" y="-768.75" font-family="monospace" font-size="10.00">SCC 10 (cyclic)</text>
<text text-anchor="middle" x="118" y="-756" font-family="monospace" font-size="10.00">3 insts, cost=5</text>
<text text-anchor="middle" x="118" y="-743.25" font-family="monospace" font-size="10.00">stage 0</text>
</g>
<!-- scc10&#45;&gt;scc7 -->
<g id="edge9" class="edge">
<title>scc10&#45;&gt;scc7</title>
<path fill="none" stroke="#666666" d="M102.67,-735.88C95.2,-725.03 86.09,-711.8 77.9,-699.91"/>
<polygon fill="#666666" stroke="#666666" points="80.99,-698.24 72.44,-691.99 75.23,-702.21 80.99,-698.24"/>
<text text-anchor="middle" x="91.11" y="-710.4" font-family="monospace" font-size="8.00">d</text>
</g>
<!-- scc10&#45;&gt;scc9 -->
<g id="edge10" class="edge">
<title>scc10&#45;&gt;scc9</title>
<path fill="none" stroke="#666666" d="M133.33,-735.88C140.8,-725.03 149.91,-711.8 158.1,-699.91"/>
<polygon fill="#666666" stroke="#666666" points="160.77,-702.21 163.56,-691.99 155.01,-698.24 160.77,-702.21"/>
<text text-anchor="middle" x="153.11" y="-710.4" font-family="monospace" font-size="8.00">d</text>
</g>
<!-- scc11 -->
<g id="node12" class="node">
<title>scc11</title>
<path fill="#a0c4ff" stroke="black" d="M283,-782.25C283,-782.25 201,-782.25 201,-782.25 195,-782.25 189,-776.25 189,-770.25 189,-770.25 189,-748 189,-748 189,-742 195,-736 201,-736 201,-736 283,-736 283,-736 289,-736 295,-742 295,-748 295,-748 295,-770.25 295,-770.25 295,-776.25 289,-782.25 283,-782.25"/>
<text text-anchor="middle" x="242" y="-768.75" font-family="monospace" font-size="10.00">SCC 11</text>
<text text-anchor="middle" x="242" y="-756" font-family="monospace" font-size="10.00">1 insts, cost=1</text>
<text text-anchor="middle" x="242" y="-743.25" font-family="monospace" font-size="10.00">stage 0</text>
</g>
</g>
</svg>
