<?xml version="1.0" encoding="UTF-8" standalone="no"?>
<!DOCTYPE svg PUBLIC "-//W3C//DTD SVG 1.1//EN"
 "http://www.w3.org/Graphics/SVG/1.1/DTD/svg11.dtd">
<!-- Generated by graphviz version 12.2.1 (20241206.2353)
 -->
<!-- Title: sum_heavy:0 Pages: 1 -->
<svg width="419pt" height="200pt"
 viewBox="0.00 0.00 419.00 200.25" xmlns="http://www.w3.org/2000/svg" xmlns:xlink="http://www.w3.org/1999/xlink">
<g id="graph0" class="graph" transform="scale(1 1) rotate(0) translate(4 196.25)">
<title>sum_heavy:0</title>
<polygon fill="white" stroke="none" points="-4,4 -4,-196.25 415,-196.25 415,4 -4,4"/>
<!-- bb0 -->
<g id="node1" class="node">
<title>bb0</title>
<path fill="#caffbf" stroke="black" d="M238,-192.25C238,-192.25 66,-192.25 66,-192.25 60,-192.25 54,-186.25 54,-180.25 54,-180.25 54,-168.25 54,-168.25 54,-162.25 60,-156.25 66,-156.25 66,-156.25 238,-156.25 238,-156.25 244,-156.25 250,-162.25 250,-168.25 250,-168.25 250,-180.25 250,-180.25 250,-186.25 244,-192.25 238,-192.25"/>
<text text-anchor="middle" x="152" y="-171.12" font-family="monospace" font-size="10.00">bb0 [preheader]\n1 insts\n(br)</text>
</g>
<!-- bb1 -->
<g id="node2" class="node">
<title>bb1</title>
<path fill="#a0c4ff" stroke="black" d="M292,-119.25C292,-119.25 12,-119.25 12,-119.25 6,-119.25 0,-113.25 0,-107.25 0,-107.25 0,-95.25 0,-95.25 0,-89.25 6,-83.25 12,-83.25 12,-83.25 292,-83.25 292,-83.25 298,-83.25 304,-89.25 304,-95.25 304,-95.25 304,-107.25 304,-107.25 304,-113.25 298,-119.25 292,-119.25"/>
<text text-anchor="middle" x="152" y="-98.12" font-family="monospace" font-size="10.00">bb1 [header, exiting]\n4 insts\n(conditional br)</text>
</g>
<!-- bb0&#45;&gt;bb1 -->
<g id="edge1" class="edge">
<title>bb0&#45;&gt;bb1</title>
<path fill="none" stroke="black" d="M152,-156.06C152,-148.48 152,-139.35 152,-130.79"/>
<polygon fill="black" stroke="black" points="155.5,-130.79 152,-120.79 148.5,-130.79 155.5,-130.79"/>
</g>
<!-- bb2 -->
<g id="node3" class="node">
<title>bb2</title>
<path fill="#ffd6a5" stroke="black" d="M209,-36C209,-36 55,-36 55,-36 49,-36 43,-30 43,-24 43,-24 43,-12 43,-12 43,-6 49,0 55,0 55,0 209,0 209,0 215,0 221,-6 221,-12 221,-12 221,-24 221,-24 221,-30 215,-36 209,-36"/>
<text text-anchor="middle" x="132" y="-14.88" font-family="monospace" font-size="10.00">bb2 [latch]\n11 insts\n(br)</text>
</g>
<!-- bb1&#45;&gt;bb2 -->
<g id="edge2" class="edge">
<title>bb1&#45;&gt;bb2</title>
<path fill="none" stroke="black" d="M143.15,-82.82C140.7,-77.33 138.3,-71.15 136.75,-65.25 135.29,-59.69 134.28,-53.64 133.57,-47.8"/>
<polygon fill="black" stroke="black" points="137.06,-47.5 132.65,-37.86 130.09,-48.14 137.06,-47.5"/>
<text text-anchor="middle" x="139.38" y="-56.7" font-family="monospace" font-size="9.00">T</text>
</g>
<!-- bb3 -->
<g id="node4" class="node">
<title>bb3</title>
<path fill="#ffadad" stroke="black" d="M399,-36C399,-36 251,-36 251,-36 245,-36 239,-30 239,-24 239,-24 239,-12 239,-12 239,-6 245,0 251,0 251,0 399,0 399,0 405,0 411,-6 411,-12 411,-12 411,-24 411,-24 411,-30 405,-36 399,-36"/>
<text text-anchor="middle" x="325" y="-14.88" font-family="monospace" font-size="10.00">bb3 [exit]\n2 insts\n(ret)</text>
</g>
<!-- bb1&#45;&gt;bb3 -->
<g id="edge3" class="edge">
<title>bb1&#45;&gt;bb3</title>
<path fill="none" stroke="black" d="M189.11,-82.82C215,-70.66 249.75,-54.34 277.63,-41.25"/>
<polygon fill="black" stroke="black" points="279.01,-44.46 286.58,-37.04 276.04,-38.13 279.01,-44.46"/>
<text text-anchor="middle" x="251.48" y="-56.7" font-family="monospace" font-size="9.00">F</text>
</g>
<!-- bb2&#45;&gt;bb1 -->
<g id="edge4" class="edge">
<title>bb2&#45;&gt;bb1</title>
<path fill="none" stroke="darkgreen" stroke-dasharray="5,2" d="M136.3,-36.49C138.84,-46.81 142.12,-60.12 145.02,-71.91"/>
<polygon fill="darkgreen" stroke="darkgreen" points="141.61,-72.68 147.4,-81.55 148.41,-71 141.61,-72.68"/>
</g>
</g>
</svg>
