<?xml version="1.0" encoding="UTF-8" standalone="no"?>
<!DOCTYPE svg PUBLIC "-//W3C//DTD SVG 1.1//EN"
 "http://www.w3.org/Graphics/SVG/1.1/DTD/svg11.dtd">
<!-- Generated by graphviz version 12.2.1 (20241206.2353)
 -->
<!-- Title: build_list:0 Pages: 1 -->
<svg width="1592pt" height="614pt"
 viewBox="0.00 0.00 1592.00 613.50" xmlns="http://www.w3.org/2000/svg" xmlns:xlink="http://www.w3.org/1999/xlink">
<g id="graph0" class="graph" transform="scale(1 1) rotate(0) translate(4 609.5)">
<title>build_list:0</title>
<polygon fill="white" stroke="none" points="-4,4 -4,-609.5 1588,-609.5 1588,4 -4,4"/>
<g id="clust1" class="cluster">
<title>cluster_scc0</title>
<path fill="none" stroke="#7f7f7f" stroke-dasharray="5,2" d="M642,-8C642,-8 1534,-8 1534,-8 1540,-8 1546,-14 1546,-20 1546,-20 1546,-399.5 1546,-399.5 1546,-405.5 1540,-411.5 1534,-411.5 1534,-411.5 642,-411.5 642,-411.5 636,-411.5 630,-405.5 630,-399.5 630,-399.5 630,-20 630,-20 630,-14 636,-8 642,-8"/>
<text text-anchor="middle" x="1088" y="-394.2" font-family="Times,serif" font-size="14.00">SCC 0 (cyclic, 6 insts)</text>
</g>
<g id="clust2" class="cluster">
<title>cluster_scc5</title>
<path fill="none" stroke="#7f7f7f" stroke-dasharray="5,2" d="M45,-439.25C45,-439.25 341,-439.25 341,-439.25 347,-439.25 353,-445.25 353,-451.25 353,-451.25 353,-585.5 353,-585.5 353,-591.5 347,-597.5 341,-597.5 341,-597.5 45,-597.5 45,-597.5 39,-597.5 33,-591.5 33,-585.5 33,-585.5 33,-451.25 33,-451.25 33,-445.25 39,-439.25 45,-439.25"/>
<text text-anchor="middle" x="193" y="-580.2" font-family="Times,serif" font-size="14.00">SCC 5 (cyclic, 2 insts)</text>
</g>
<!-- n9 -->
<g id="node1" class="node">
<title>n9</title>
<path fill="#ffd6a5" stroke="black" d="M1298,-379C1298,-379 862,-379 862,-379 856,-379 850,-373 850,-367 850,-367 850,-355 850,-355 850,-349 856,-343 862,-343 862,-343 1298,-343 1298,-343 1304,-343 1310,-349 1310,-355 1310,-355 1310,-367 1310,-367 1310,-373 1304,-379 1298,-379"/>
<text text-anchor="middle" x="1080" y="-357.88" font-family="monospace" font-size="10.00">scc 0 | [9] %9 = getelementptr inbounds %struct.Node, ptr %5, i32 0, i32 1</text>
</g>
<!-- n10 -->
<g id="node5" class="node">
<title>n10</title>
<path fill="#ffd6a5" stroke="black" d="M1241,-297.25C1241,-297.25 919,-297.25 919,-297.25 913,-297.25 907,-291.25 907,-285.25 907,-285.25 907,-273.25 907,-273.25 907,-267.25 913,-261.25 919,-261.25 919,-261.25 1241,-261.25 1241,-261.25 1247,-261.25 1253,-267.25 1253,-273.25 1253,-273.25 1253,-285.25 1253,-285.25 1253,-291.25 1247,-297.25 1241,-297.25"/>
<text text-anchor="middle" x="1080" y="-276.12" font-family="monospace" font-size="10.00">scc 0 | [10] store ptr %.01, ptr %9, align 8, !tbaa !11</text>
</g>
<!-- n9&#45;&gt;n10 -->
<g id="edge25" class="edge">
<title>n9&#45;&gt;n10</title>
<path fill="none" stroke="black" d="M1080,-342.7C1080,-332.77 1080,-320.06 1080,-308.7"/>
<polygon fill="black" stroke="black" points="1083.5,-309.03 1080,-299.03 1076.5,-309.03 1083.5,-309.03"/>
<text text-anchor="middle" x="1089" y="-317.4" font-family="monospace" font-size="8.00">data</text>
</g>
<!-- n8 -->
<g id="node2" class="node">
<title>n8</title>
<path fill="#ffd6a5" stroke="black" d="M1283,-52C1283,-52 985,-52 985,-52 979,-52 973,-46 973,-40 973,-40 973,-28 973,-28 973,-22 979,-16 985,-16 985,-16 1283,-16 1283,-16 1289,-16 1295,-22 1295,-28 1295,-28 1295,-40 1295,-40 1295,-46 1289,-52 1283,-52"/>
<text text-anchor="middle" x="1134" y="-30.88" font-family="monospace" font-size="10.00">scc 0 | [8] store i64 %7, ptr %8, align 8, !tbaa !5</text>
</g>
<!-- n8&#45;&gt;n8 -->
<g id="edge24" class="edge">
<title>n8&#45;&gt;n8</title>
<path fill="none" stroke="red" stroke-dasharray="5,2" d="M1295.37,-39.53C1306.34,-38.26 1313,-36.41 1313,-34 1313,-32.57 1310.65,-31.33 1306.45,-30.3"/>
<polygon fill="red" stroke="red" points="1307.3,-26.9 1296.86,-28.71 1306.15,-33.8 1307.3,-26.9"/>
<text text-anchor="middle" x="1322" y="-31.27" font-family="monospace" font-size="8.00">mem*</text>
</g>
<!-- n4 -->
<g id="node4" class="node">
<title>n4</title>
<path fill="#ffd6a5" stroke="black" d="M1269,-215.5C1269,-215.5 965,-215.5 965,-215.5 959,-215.5 953,-209.5 953,-203.5 953,-203.5 953,-191.5 953,-191.5 953,-185.5 959,-179.5 965,-179.5 965,-179.5 1269,-179.5 1269,-179.5 1275,-179.5 1281,-185.5 1281,-191.5 1281,-191.5 1281,-203.5 1281,-203.5 1281,-209.5 1275,-215.5 1269,-215.5"/>
<text text-anchor="middle" x="1117" y="-194.38" font-family="monospace" font-size="10.00">scc 0 | [4] %5 = call ptr @malloc(i64 noundef 16) #6</text>
</g>
<!-- n8&#45;&gt;n4 -->
<g id="edge23" class="edge">
<title>n8&#45;&gt;n4</title>
<path fill="none" stroke="red" d="M1139.24,-52.29C1144.49,-72.14 1151,-105.57 1145,-133.75 1142.43,-145.83 1137.36,-158.39 1132.23,-169.08"/>
<polygon fill="red" stroke="red" points="1129.26,-167.21 1127.86,-177.71 1135.5,-170.37 1129.26,-167.21"/>
<text text-anchor="middle" x="1154.15" y="-113.03" font-family="monospace" font-size="8.00">mem</text>
</g>
<!-- n7 -->
<g id="node3" class="node">
<title>n7</title>
<path fill="#ffd6a5" stroke="black" d="M1086,-133.75C1086,-133.75 650,-133.75 650,-133.75 644,-133.75 638,-127.75 638,-121.75 638,-121.75 638,-109.75 638,-109.75 638,-103.75 644,-97.75 650,-97.75 650,-97.75 1086,-97.75 1086,-97.75 1092,-97.75 1098,-103.75 1098,-109.75 1098,-109.75 1098,-121.75 1098,-121.75 1098,-127.75 1092,-133.75 1086,-133.75"/>
<text text-anchor="middle" x="868" y="-112.62" font-family="monospace" font-size="10.00">scc 0 | [7] %8 = getelementptr inbounds %struct.Node, ptr %5, i32 0, i32 0</text>
</g>
<!-- n7&#45;&gt;n8 -->
<g id="edge22" class="edge">
<title>n7&#45;&gt;n8</title>
<path fill="none" stroke="black" d="M926.05,-97.35C966.97,-85.08 1021.95,-68.6 1065.1,-55.66"/>
<polygon fill="black" stroke="black" points="1066.05,-59.02 1074.63,-52.8 1064.04,-52.32 1066.05,-59.02"/>
<text text-anchor="middle" x="1025.93" y="-72.15" font-family="monospace" font-size="8.00">data</text>
</g>
<!-- n4&#45;&gt;n9 -->
<g id="edge17" class="edge">
<title>n4&#45;&gt;n9</title>
<path fill="none" stroke="black" d="M1212.14,-215.97C1270.36,-231.06 1328.35,-256.93 1298,-297.25 1284.52,-315.16 1239.9,-329.56 1194.51,-340.01"/>
<polygon fill="black" stroke="black" points="1193.76,-336.6 1184.77,-342.19 1195.29,-343.43 1193.76,-336.6"/>
<text text-anchor="middle" x="1315.32" y="-276.52" font-family="monospace" font-size="8.00">data</text>
</g>
<!-- n4&#45;&gt;n8 -->
<g id="edge18" class="edge">
<title>n4&#45;&gt;n8</title>
<path fill="none" stroke="red" d="M1118.82,-179.22C1121.73,-151.53 1127.48,-96.96 1131,-63.46"/>
<polygon fill="red" stroke="red" points="1134.47,-63.98 1132.04,-53.66 1127.51,-63.24 1134.47,-63.98"/>
<text text-anchor="middle" x="1133.94" y="-113.03" font-family="monospace" font-size="8.00">mem</text>
</g>
<!-- n4&#45;&gt;n7 -->
<g id="edge16" class="edge">
<title>n4&#45;&gt;n7</title>
<path fill="none" stroke="black" d="M1062.66,-179.1C1024.52,-166.88 973.33,-150.48 933.02,-137.57"/>
<polygon fill="black" stroke="black" points="934.25,-134.29 923.66,-134.58 932.12,-140.96 934.25,-134.29"/>
<text text-anchor="middle" x="1016.41" y="-153.9" font-family="monospace" font-size="8.00">data</text>
</g>
<!-- n4&#45;&gt;n10 -->
<g id="edge19" class="edge">
<title>n4&#45;&gt;n10</title>
<path fill="none" stroke="red" d="M1094.41,-215.65C1089.24,-220.78 1084.42,-226.84 1081.5,-233.5 1079.28,-238.57 1078.18,-244.29 1077.74,-249.9"/>
<polygon fill="red" stroke="red" points="1074.25,-249.47 1077.66,-259.5 1081.25,-249.53 1074.25,-249.47"/>
<text text-anchor="middle" x="1088.25" y="-235.65" font-family="monospace" font-size="8.00">mem</text>
</g>
<!-- n0 -->
<g id="node6" class="node">
<title>n0</title>
<path fill="#ffd6a5" stroke="black" d="M1526,-133.75C1526,-133.75 1228,-133.75 1228,-133.75 1222,-133.75 1216,-127.75 1216,-121.75 1216,-121.75 1216,-109.75 1216,-109.75 1216,-103.75 1222,-97.75 1228,-97.75 1228,-97.75 1526,-97.75 1526,-97.75 1532,-97.75 1538,-103.75 1538,-109.75 1538,-109.75 1538,-121.75 1538,-121.75 1538,-127.75 1532,-133.75 1526,-133.75"/>
<text text-anchor="middle" x="1377" y="-112.62" font-family="monospace" font-size="10.00">scc 0 | [0] %.01 = phi ptr [ null, %1 ], [ %5, %4 ]</text>
</g>
<!-- n4&#45;&gt;n0 -->
<g id="edge15" class="edge">
<title>n4&#45;&gt;n0</title>
<path fill="none" stroke="black" stroke-dasharray="5,2" d="M1173.74,-179.1C1213.65,-166.85 1267.25,-150.42 1309.38,-137.49"/>
<polygon fill="black" stroke="black" points="1310.4,-140.84 1318.94,-134.56 1308.35,-134.15 1310.4,-140.84"/>
<text text-anchor="middle" x="1273.82" y="-153.9" font-family="monospace" font-size="8.00">data*</text>
</g>
<!-- n10&#45;&gt;n4 -->
<g id="edge26" class="edge">
<title>n10&#45;&gt;n4</title>
<path fill="none" stroke="red" d="M1088.03,-260.95C1092.78,-250.7 1098.91,-237.5 1104.3,-225.87"/>
<polygon fill="red" stroke="red" points="1107.32,-227.69 1108.35,-217.14 1100.97,-224.74 1107.32,-227.69"/>
<text text-anchor="middle" x="1107.47" y="-235.65" font-family="monospace" font-size="8.00">mem</text>
</g>
<!-- n10&#45;&gt;n10 -->
<g id="edge27" class="edge">
<title>n10&#45;&gt;n10</title>
<path fill="none" stroke="red" stroke-dasharray="5,2" d="M1253.33,-284.65C1264.35,-283.39 1271,-281.59 1271,-279.25 1271,-277.86 1268.66,-276.67 1264.44,-275.65"/>
<polygon fill="red" stroke="red" points="1265.26,-272.24 1254.83,-274.09 1264.13,-279.15 1265.26,-272.24"/>
<text text-anchor="middle" x="1280" y="-276.52" font-family="monospace" font-size="8.00">mem*</text>
</g>
<!-- n0&#45;&gt;n10 -->
<g id="edge1" class="edge">
<title>n0&#45;&gt;n10</title>
<path fill="none" stroke="black" d="M1366.25,-134.06C1351.64,-156.15 1323.48,-194.06 1290,-215.5 1259.85,-234.8 1223.51,-248.39 1189.59,-257.86"/>
<polygon fill="black" stroke="black" points="1188.88,-254.42 1180.13,-260.4 1190.7,-261.18 1188.88,-254.42"/>
<text text-anchor="middle" x="1339.52" y="-194.78" font-family="monospace" font-size="8.00">data</text>
</g>
<!-- n6 -->
<g id="node7" class="node">
<title>n6</title>
<path fill="#a0c4ff" stroke="black" d="M290,-297.25C290,-297.25 76,-297.25 76,-297.25 70,-297.25 64,-291.25 64,-285.25 64,-285.25 64,-273.25 64,-273.25 64,-267.25 70,-261.25 76,-261.25 76,-261.25 290,-261.25 290,-261.25 296,-261.25 302,-267.25 302,-273.25 302,-273.25 302,-285.25 302,-285.25 302,-291.25 296,-297.25 290,-297.25"/>
<text text-anchor="middle" x="183" y="-276.12" font-family="monospace" font-size="10.00">scc 1 | [6] %7 = urem i64 %6, 1000000</text>
</g>
<!-- n6&#45;&gt;n8 -->
<g id="edge21" class="edge">
<title>n6&#45;&gt;n8</title>
<path fill="none" stroke="black" d="M194.24,-260.98C213.47,-232.99 255.53,-178.19 306,-151.75 416.73,-93.75 753.16,-60.95 961.53,-45.69"/>
<polygon fill="black" stroke="black" points="961.67,-49.19 971.39,-44.98 961.17,-42.21 961.67,-49.19"/>
<text text-anchor="middle" x="315" y="-153.9" font-family="monospace" font-size="8.00">data</text>
</g>
<!-- n5 -->
<g id="node8" class="node">
<title>n5</title>
<path fill="#caffbf" stroke="black" d="M244,-379C244,-379 12,-379 12,-379 6,-379 0,-373 0,-367 0,-367 0,-355 0,-355 0,-349 6,-343 12,-343 12,-343 244,-343 244,-343 250,-343 256,-349 256,-355 256,-355 256,-367 256,-367 256,-373 250,-379 244,-379"/>
<text text-anchor="middle" x="128" y="-357.88" font-family="monospace" font-size="10.00">scc 2 | [5] %6 = mul i64 %.0, 2654435761</text>
</g>
<!-- n5&#45;&gt;n6 -->
<g id="edge20" class="edge">
<title>n5&#45;&gt;n6</title>
<path fill="none" stroke="black" d="M139.93,-342.7C147.14,-332.24 156.48,-318.71 164.61,-306.91"/>
<polygon fill="black" stroke="black" points="167.43,-308.99 170.23,-298.77 161.67,-305.01 167.43,-308.99"/>
<text text-anchor="middle" x="167.79" y="-317.4" font-family="monospace" font-size="8.00">data</text>
</g>
<!-- n3 -->
<g id="node9" class="node">
<title>n3</title>
<path fill="#ffadad" stroke="black" d="M613,-483.25C613,-483.25 375,-483.25 375,-483.25 369,-483.25 363,-477.25 363,-471.25 363,-471.25 363,-459.25 363,-459.25 363,-453.25 369,-447.25 375,-447.25 375,-447.25 613,-447.25 613,-447.25 619,-447.25 625,-453.25 625,-459.25 625,-459.25 625,-471.25 625,-471.25 625,-477.25 619,-483.25 613,-483.25"/>
<text text-anchor="middle" x="494" y="-462.12" font-family="monospace" font-size="10.00">scc 3 | [3] br i1 %3, label %4, label %11</text>
</g>
<!-- n3&#45;&gt;n9 -->
<g id="edge11" class="edge">
<title>n3&#45;&gt;n9</title>
<path fill="none" stroke="blue" d="M625.16,-452.25C677.83,-446.57 738.99,-438.89 794,-429.25 866.1,-416.61 947.23,-397.01 1004.62,-382.22"/>
<polygon fill="blue" stroke="blue" points="1005.14,-385.7 1013.94,-379.81 1003.39,-378.93 1005.14,-385.7"/>
<text text-anchor="middle" x="850.22" y="-421.65" font-family="monospace" font-size="8.00">ctrl</text>
</g>
<!-- n3&#45;&gt;n8 -->
<g id="edge10" class="edge">
<title>n3&#45;&gt;n8</title>
<path fill="none" stroke="blue" d="M625.45,-465.13C911.7,-465.31 1566,-455.48 1566,-362 1566,-362 1566,-362 1566,-114.75 1566,-87.06 1426.99,-65.12 1306.68,-51.32"/>
<polygon fill="blue" stroke="blue" points="1307.31,-47.87 1296.98,-50.22 1306.52,-54.83 1307.31,-47.87"/>
<text text-anchor="middle" x="1575" y="-235.65" font-family="monospace" font-size="8.00">ctrl</text>
</g>
<!-- n3&#45;&gt;n7 -->
<g id="edge9" class="edge">
<title>n3&#45;&gt;n7</title>
<path fill="none" stroke="blue" d="M415.98,-446.81C394.72,-438.94 373.12,-427.64 357,-411.5 340.35,-394.83 338,-385.56 338,-362 338,-362 338,-362 338,-196.5 338,-164.96 486.65,-144.46 626.51,-132.15"/>
<polygon fill="blue" stroke="blue" points="626.68,-135.65 636.34,-131.3 626.07,-128.68 626.68,-135.65"/>
<text text-anchor="middle" x="347" y="-276.52" font-family="monospace" font-size="8.00">ctrl</text>
</g>
<!-- n3&#45;&gt;n4 -->
<g id="edge6" class="edge">
<title>n3&#45;&gt;n4</title>
<path fill="none" stroke="blue" d="M544.51,-446.79C570.7,-437.24 602.98,-424.69 631,-411.5 754.19,-353.5 772.36,-313.75 898,-261.25 939.87,-243.75 988.2,-229.34 1028.78,-218.75"/>
<polygon fill="blue" stroke="blue" points="1029.46,-222.19 1038.28,-216.32 1027.72,-215.41 1029.46,-222.19"/>
<text text-anchor="middle" x="801.09" y="-317.4" font-family="monospace" font-size="8.00">ctrl</text>
</g>
<!-- n3&#45;&gt;n10 -->
<g id="edge12" class="edge">
<title>n3&#45;&gt;n10</title>
<path fill="none" stroke="blue" d="M625.47,-451.75C669.17,-446.12 711.62,-438.61 731,-429.25 781.47,-404.88 773.71,-369.69 823,-343 859.45,-323.26 902.15,-309.64 942.16,-300.27"/>
<polygon fill="blue" stroke="blue" points="942.9,-303.69 951.89,-298.08 941.36,-296.87 942.9,-303.69"/>
<text text-anchor="middle" x="832" y="-358.27" font-family="monospace" font-size="8.00">ctrl</text>
</g>
<!-- n3&#45;&gt;n6 -->
<g id="edge8" class="edge">
<title>n3&#45;&gt;n6</title>
<path fill="none" stroke="blue" d="M397.85,-446.8C363.43,-440.1 331.28,-433.14 324,-429.25 294.74,-413.62 267.74,-346.07 265,-343 251.95,-328.38 235.1,-314.8 220.07,-304.04"/>
<polygon fill="blue" stroke="blue" points="222.44,-301.43 212.23,-298.59 218.44,-307.18 222.44,-301.43"/>
<text text-anchor="middle" x="313.17" y="-358.27" font-family="monospace" font-size="8.00">ctrl</text>
</g>
<!-- n3&#45;&gt;n5 -->
<g id="edge7" class="edge">
<title>n3&#45;&gt;n5</title>
<path fill="none" stroke="blue" d="M403.89,-446.78C388.29,-444.05 372.2,-441.42 357,-439.25 314.09,-433.13 301.57,-441.52 260,-429.25 225.81,-419.16 189.95,-400.28 164.25,-385.09"/>
<polygon fill="blue" stroke="blue" points="166.25,-382.21 155.87,-380.05 162.63,-388.21 166.25,-382.21"/>
<text text-anchor="middle" x="269" y="-421.65" font-family="monospace" font-size="8.00">ctrl</text>
</g>
<!-- n11 -->
<g id="node11" class="node">
<title>n11</title>
<path fill="#fdffb6" stroke="black" d="M333,-565C333,-565 119,-565 119,-565 113,-565 107,-559 107,-553 107,-553 107,-541 107,-541 107,-535 113,-529 119,-529 119,-529 333,-529 333,-529 339,-529 345,-535 345,-541 345,-541 345,-553 345,-553 345,-559 339,-565 333,-565"/>
<text text-anchor="middle" x="226" y="-543.88" font-family="monospace" font-size="10.00">scc 5 | [11] %10 = add nsw i64 %.0, 1</text>
</g>
<!-- n3&#45;&gt;n11 -->
<g id="edge13" class="edge">
<title>n3&#45;&gt;n11</title>
<path fill="none" stroke="blue" d="M433.02,-483.71C413.8,-489.26 392.5,-495.46 373,-501.25 346.94,-508.99 318.32,-517.66 293.33,-525.29"/>
<polygon fill="blue" stroke="blue" points="292.47,-521.89 283.93,-528.16 294.52,-528.58 292.47,-521.89"/>
<text text-anchor="middle" x="382" y="-503.4" font-family="monospace" font-size="8.00">ctrl</text>
</g>
<!-- n12 -->
<g id="node13" class="node">
<title>n12</title>
<path fill="#9bf6ff" stroke="black" d="M610,-379C610,-379 378,-379 378,-379 372,-379 366,-373 366,-367 366,-367 366,-355 366,-355 366,-349 372,-343 378,-343 378,-343 610,-343 610,-343 616,-343 622,-349 622,-355 622,-355 622,-367 622,-367 622,-373 616,-379 610,-379"/>
<text text-anchor="middle" x="494" y="-357.88" font-family="monospace" font-size="10.00">scc 6 | [12] br label %2, !llvm.loop !12</text>
</g>
<!-- n3&#45;&gt;n12 -->
<g id="edge14" class="edge">
<title>n3&#45;&gt;n12</title>
<path fill="none" stroke="blue" d="M494,-446.9C494,-431.55 494,-408.85 494,-390.78"/>
<polygon fill="blue" stroke="blue" points="497.5,-390.94 494,-380.94 490.5,-390.94 497.5,-390.94"/>
<text text-anchor="middle" x="503" y="-421.65" font-family="monospace" font-size="8.00">ctrl</text>
</g>
<!-- n2 -->
<g id="node10" class="node">
<title>n2</title>
<path fill="#bdb2ff" stroke="black" d="M595,-565C595,-565 381,-565 381,-565 375,-565 369,-559 369,-553 369,-553 369,-541 369,-541 369,-535 375,-529 381,-529 381,-529 595,-529 595,-529 601,-529 607,-535 607,-541 607,-541 607,-553 607,-553 607,-559 601,-565 595,-565"/>
<text text-anchor="middle" x="488" y="-543.88" font-family="monospace" font-size="10.00">scc 4 | [2] %3 = icmp sle i64 %.0, %0</text>
</g>
<!-- n2&#45;&gt;n3 -->
<g id="edge5" class="edge">
<title>n2&#45;&gt;n3</title>
<path fill="none" stroke="black" d="M489.3,-528.7C490.05,-518.77 491.01,-506.06 491.86,-494.7"/>
<polygon fill="black" stroke="black" points="495.33,-495.26 492.59,-485.03 488.35,-494.74 495.33,-495.26"/>
<text text-anchor="middle" x="500.36" y="-503.4" font-family="monospace" font-size="8.00">data</text>
</g>
<!-- n1 -->
<g id="node12" class="node">
<title>n1</title>
<path fill="#fdffb6" stroke="black" d="M333,-483.25C333,-483.25 53,-483.25 53,-483.25 47,-483.25 41,-477.25 41,-471.25 41,-471.25 41,-459.25 41,-459.25 41,-453.25 47,-447.25 53,-447.25 53,-447.25 333,-447.25 333,-447.25 339,-447.25 345,-453.25 345,-459.25 345,-459.25 345,-471.25 345,-471.25 345,-477.25 339,-483.25 333,-483.25"/>
<text text-anchor="middle" x="193" y="-462.12" font-family="monospace" font-size="10.00">scc 5 | [1] %.0 = phi i64 [ 1, %1 ], [ %10, %4 ]</text>
</g>
<!-- n11&#45;&gt;n1 -->
<g id="edge28" class="edge">
<title>n11&#45;&gt;n1</title>
<path fill="none" stroke="black" stroke-dasharray="5,2" d="M197.55,-528.55C191.87,-523.63 186.68,-517.74 183.5,-511 181.08,-505.88 180.75,-500.15 181.52,-494.53"/>
<polygon fill="black" stroke="black" points="184.9,-495.44 183.99,-484.89 178.12,-493.71 184.9,-495.44"/>
<text text-anchor="middle" x="194.75" y="-503.4" font-family="monospace" font-size="8.00">data*</text>
</g>
<!-- n1&#45;&gt;n5 -->
<g id="edge3" class="edge">
<title>n1&#45;&gt;n5</title>
<path fill="none" stroke="black" d="M181.97,-446.9C171.89,-431.04 156.81,-407.32 145.15,-388.98"/>
<polygon fill="black" stroke="black" points="148.21,-387.27 139.89,-380.71 142.3,-391.02 148.21,-387.27"/>
<text text-anchor="middle" x="179.12" y="-421.65" font-family="monospace" font-size="8.00">data</text>
</g>
<!-- n1&#45;&gt;n2 -->
<g id="edge4" class="edge">
<title>n1&#45;&gt;n2</title>
<path fill="none" stroke="black" d="M320.13,-483.72C343.94,-488.4 368.43,-494.18 391,-501.25 409.47,-507.04 428.99,-515.54 445.65,-523.58"/>
<polygon fill="black" stroke="black" points="443.74,-526.54 454.26,-527.83 446.84,-520.27 443.74,-526.54"/>
<text text-anchor="middle" x="424.75" y="-503.4" font-family="monospace" font-size="8.00">data</text>
</g>
<!-- n1&#45;&gt;n11 -->
<g id="edge2" class="edge">
<title>n1&#45;&gt;n11</title>
<path fill="none" stroke="black" d="M201.85,-483.53C204.59,-489.12 207.54,-495.4 210,-501.25 212.3,-506.72 214.57,-512.65 216.64,-518.34"/>
<polygon fill="black" stroke="black" points="213.21,-519.14 219.85,-527.41 219.81,-516.81 213.21,-519.14"/>
<text text-anchor="middle" x="222.87" y="-503.4" font-family="monospace" font-size="8.00">data</text>
</g>
</g>
</svg>
