<?xml version="1.0" encoding="UTF-8" standalone="no"?>
<!DOCTYPE svg PUBLIC "-//W3C//DTD SVG 1.1//EN"
 "http://www.w3.org/Graphics/SVG/1.1/DTD/svg11.dtd">
<!-- Generated by graphviz version 12.2.1 (20241206.2353)
 -->
<!-- Title: partition_build_list:0 Pages: 1 -->
<svg width="305pt" height="330pt"
 viewBox="0.00 0.00 305.00 330.25" xmlns="http://www.w3.org/2000/svg" xmlns:xlink="http://www.w3.org/1999/xlink">
<g id="graph0" class="graph" transform="scale(1 1) rotate(0) translate(4 326.25)">
<title>partition_build_list:0</title>
<polygon fill="white" stroke="none" points="-4,4 -4,-326.25 301,-326.25 301,4 -4,4"/>
<!-- scc0 -->
<g id="node1" class="node">
<title>scc0</title>
<path fill="#a0c4ff" stroke="black" d="M100,-46.25C100,-46.25 12,-46.25 12,-46.25 6,-46.25 0,-40.25 0,-34.25 0,-34.25 0,-12 0,-12 0,-6 6,0 12,0 12,0 100,0 100,0 106,0 112,-6 112,-12 112,-12 112,-34.25 112,-34.25 112,-40.25 106,-46.25 100,-46.25"/>
<text text-anchor="middle" x="56" y="-32.75" font-family="monospace" font-size="10.00">SCC 0 (cyclic)</text>
<text text-anchor="middle" x="56" y="-20" font-family="monospace" font-size="10.00">6 insts, cost=34</text>
<text text-anchor="middle" x="56" y="-7.25" font-family="monospace" font-size="10.00">stage 0</text>
</g>
<!-- scc1 -->
<g id="node2" class="node">
<title>scc1</title>
<path fill="#a0c4ff" stroke="black" d="M100,-138.25C100,-138.25 12,-138.25 12,-138.25 6,-138.25 0,-132.25 0,-126.25 0,-126.25 0,-104 0,-104 0,-98 6,-92 12,-92 12,-92 100,-92 100,-92 106,-92 112,-98 112,-104 112,-104 112,-126.25 112,-126.25 112,-132.25 106,-138.25 100,-138.25"/>
<text text-anchor="middle" x="56" y="-124.75" font-family="monospace" font-size="10.00">SCC 1</text>
<text text-anchor="middle" x="56" y="-112" font-family="monospace" font-size="10.00">1 insts, cost=20</text>
<text text-anchor="middle" x="56" y="-99.25" font-family="monospace" font-size="10.00">stage 0</text>
</g>
<!-- scc1&#45;&gt;scc0 -->
<g id="edge1" class="edge">
<title>scc1&#45;&gt;scc0</title>
<path fill="none" stroke="#666666" d="M56,-91.88C56,-81.68 56,-69.36 56,-58.04"/>
<polygon fill="#666666" stroke="#666666" points="59.5,-58.25 56,-48.25 52.5,-58.25 59.5,-58.25"/>
<text text-anchor="middle" x="58.25" y="-66.4" font-family="monospace" font-size="8.00">d</text>
</g>
<!-- scc2 -->
<g id="node3" class="node">
<title>scc2</title>
<path fill="#a0c4ff" stroke="black" d="M99,-230.25C99,-230.25 17,-230.25 17,-230.25 11,-230.25 5,-224.25 5,-218.25 5,-218.25 5,-196 5,-196 5,-190 11,-184 17,-184 17,-184 99,-184 99,-184 105,-184 111,-190 111,-196 111,-196 111,-218.25 111,-218.25 111,-224.25 105,-230.25 99,-230.25"/>
<text text-anchor="middle" x="58" y="-216.75" font-family="monospace" font-size="10.00">SCC 2</text>
<text text-anchor="middle" x="58" y="-204" font-family="monospace" font-size="10.00">1 insts, cost=3</text>
<text text-anchor="middle" x="58" y="-191.25" font-family="monospace" font-size="10.00">stage 0</text>
</g>
<!-- scc2&#45;&gt;scc1 -->
<g id="edge2" class="edge">
<title>scc2&#45;&gt;scc1</title>
<path fill="none" stroke="#666666" d="M57.51,-183.88C57.28,-173.68 57.01,-161.36 56.75,-150.04"/>
<polygon fill="#666666" stroke="#666666" points="60.26,-150.17 56.54,-140.25 53.26,-150.33 60.26,-150.17"/>
<text text-anchor="middle" x="59.31" y="-158.4" font-family="monospace" font-size="8.00">d</text>
</g>
<!-- scc3 -->
<g id="node4" class="node">
<title>scc3</title>
<path fill="#a0c4ff" stroke="black" d="M224,-138.25C224,-138.25 142,-138.25 142,-138.25 136,-138.25 130,-132.25 130,-126.25 130,-126.25 130,-104 130,-104 130,-98 136,-92 142,-92 142,-92 224,-92 224,-92 230,-92 236,-98 236,-104 236,-104 236,-126.25 236,-126.25 236,-132.25 230,-138.25 224,-138.25"/>
<text text-anchor="middle" x="183" y="-124.75" font-family="monospace" font-size="10.00">SCC 3</text>
<text text-anchor="middle" x="183" y="-112" font-family="monospace" font-size="10.00">1 insts, cost=1</text>
<text text-anchor="middle" x="183" y="-99.25" font-family="monospace" font-size="10.00">stage 0</text>
</g>
<!-- scc4 -->
<g id="node5" class="node">
<title>scc4</title>
<path fill="#a0c4ff" stroke="black" d="M224,-230.25C224,-230.25 142,-230.25 142,-230.25 136,-230.25 130,-224.25 130,-218.25 130,-218.25 130,-196 130,-196 130,-190 136,-184 142,-184 142,-184 224,-184 224,-184 230,-184 236,-190 236,-196 236,-196 236,-218.25 236,-218.25 236,-224.25 230,-230.25 224,-230.25"/>
<text text-anchor="middle" x="183" y="-216.75" font-family="monospace" font-size="10.00">SCC 4</text>
<text text-anchor="middle" x="183" y="-204" font-family="monospace" font-size="10.00">1 insts, cost=1</text>
<text text-anchor="middle" x="183" y="-191.25" font-family="monospace" font-size="10.00">stage 0</text>
</g>
<!-- scc4&#45;&gt;scc3 -->
<g id="edge3" class="edge">
<title>scc4&#45;&gt;scc3</title>
<path fill="none" stroke="#666666" d="M183,-183.88C183,-173.68 183,-161.36 183,-150.04"/>
<polygon fill="#666666" stroke="#666666" points="186.5,-150.25 183,-140.25 179.5,-150.25 186.5,-150.25"/>
<text text-anchor="middle" x="185.25" y="-158.4" font-family="monospace" font-size="8.00">d</text>
</g>
<!-- scc5 -->
<g id="node6" class="node">
<title>scc5</title>
<path fill="#a0c4ff" stroke="black" d="M161,-322.25C161,-322.25 79,-322.25 79,-322.25 73,-322.25 67,-316.25 67,-310.25 67,-310.25 67,-288 67,-288 67,-282 73,-276 79,-276 79,-276 161,-276 161,-276 167,-276 173,-282 173,-288 173,-288 173,-310.25 173,-310.25 173,-316.25 167,-322.25 161,-322.25"/>
<text text-anchor="middle" x="120" y="-308.75" font-family="monospace" font-size="10.00">SCC 5 (cyclic)</text>
<text text-anchor="middle" x="120" y="-296" font-family="monospace" font-size="10.00">2 insts, cost=1</text>
<text text-anchor="middle" x="120" y="-283.25" font-family="monospace" font-size="10.00">stage 0</text>
</g>
<!-- scc5&#45;&gt;scc2 -->
<g id="edge4" class="edge">
<title>scc5&#45;&gt;scc2</title>
<path fill="none" stroke="#666666" d="M104.67,-275.88C97.2,-265.03 88.09,-251.8 79.9,-239.91"/>
<polygon fill="#666666" stroke="#666666" points="82.99,-238.24 74.44,-231.99 77.23,-242.21 82.99,-238.24"/>
<text text-anchor="middle" x="93.11" y="-250.4" font-family="monospace" font-size="8.00">d</text>
</g>
<!-- scc5&#45;&gt;scc4 -->
<g id="edge5" class="edge">
<title>scc5&#45;&gt;scc4</title>
<path fill="none" stroke="#666666" d="M135.57,-275.88C143.16,-265.03 152.43,-251.8 160.75,-239.91"/>
<polygon fill="#666666" stroke="#666666" points="163.43,-242.18 166.3,-231.98 157.7,-238.17 163.43,-242.18"/>
<text text-anchor="middle" x="155.64" y="-250.4" font-family="monospace" font-size="8.00">d</text>
</g>
<!-- scc6 -->
<g id="node7" class="node">
<title>scc6</title>
<path fill="#a0c4ff" stroke="black" d="M285,-322.25C285,-322.25 203,-322.25 203,-322.25 197,-322.25 191,-316.25 191,-310.25 191,-310.25 191,-288 191,-288 191,-282 197,-276 203,-276 203,-276 285,-276 285,-276 291,-276 297,-282 297,-288 297,-288 297,-310.25 297,-310.25 297,-316.25 291,-322.25 285,-322.25"/>
<text text-anchor="middle" x="244" y="-308.75" font-family="monospace" font-size="10.00">SCC 6</text>
<text text-anchor="middle" x="244" y="-296" font-family="monospace" font-size="10.00">1 insts, cost=1</text>
<text text-anchor="middle" x="244" y="-283.25" font-family="monospace" font-size="10.00">stage 0</text>
</g>
</g>
</svg>
