<?xml version="1.0" encoding="UTF-8" standalone="no"?>
<!DOCTYPE svg PUBLIC "-//W3C//DTD SVG 1.1//EN"
 "http://www.w3.org/Graphics/SVG/1.1/DTD/svg11.dtd">
<!-- Generated by graphviz version 12.2.1 (20241206.2353)
 -->
<!-- Title: free_list:0 Pages: 1 -->
<svg width="812pt" height="410pt"
 viewBox="0.00 0.00 812.50 409.50" xmlns="http://www.w3.org/2000/svg" xmlns:xlink="http://www.w3.org/1999/xlink">
<g id="graph0" class="graph" transform="scale(1 1) rotate(0) translate(4 405.5)">
<title>free_list:0</title>
<polygon fill="white" stroke="none" points="-4,4 -4,-405.5 808.5,-405.5 808.5,4 -4,4"/>
<g id="clust1" class="cluster">
<title>cluster_scc2</title>
<path fill="none" stroke="#7f7f7f" stroke-dasharray="5,2" d="M326.5,-8C326.5,-8 784.5,-8 784.5,-8 790.5,-8 796.5,-14 796.5,-20 796.5,-20 796.5,-317.75 796.5,-317.75 796.5,-323.75 790.5,-329.75 784.5,-329.75 784.5,-329.75 326.5,-329.75 326.5,-329.75 320.5,-329.75 314.5,-323.75 314.5,-317.75 314.5,-317.75 314.5,-20 314.5,-20 314.5,-14 320.5,-8 326.5,-8"/>
<text text-anchor="middle" x="555.5" y="-312.45" font-family="Times,serif" font-size="14.00">SCC 2 (cyclic, 4 insts)</text>
</g>
<!-- n2 -->
<g id="node1" class="node">
<title>n2</title>
<path fill="#ffd6a5" stroke="black" d="M254.5,-297.25C254.5,-297.25 22.5,-297.25 22.5,-297.25 16.5,-297.25 10.5,-291.25 10.5,-285.25 10.5,-285.25 10.5,-273.25 10.5,-273.25 10.5,-267.25 16.5,-261.25 22.5,-261.25 22.5,-261.25 254.5,-261.25 254.5,-261.25 260.5,-261.25 266.5,-267.25 266.5,-273.25 266.5,-273.25 266.5,-285.25 266.5,-285.25 266.5,-291.25 260.5,-297.25 254.5,-297.25"/>
<text text-anchor="middle" x="138.5" y="-276.12" font-family="monospace" font-size="10.00">scc 0 | [2] br i1 %3, label %4, label %7</text>
</g>
<!-- n3 -->
<g id="node3" class="node">
<title>n3</title>
<path fill="#caffbf" stroke="black" d="M776.5,-297.25C776.5,-297.25 334.5,-297.25 334.5,-297.25 328.5,-297.25 322.5,-291.25 322.5,-285.25 322.5,-285.25 322.5,-273.25 322.5,-273.25 322.5,-267.25 328.5,-261.25 334.5,-261.25 334.5,-261.25 776.5,-261.25 776.5,-261.25 782.5,-261.25 788.5,-267.25 788.5,-273.25 788.5,-273.25 788.5,-285.25 788.5,-285.25 788.5,-291.25 782.5,-297.25 776.5,-297.25"/>
<text text-anchor="middle" x="555.5" y="-276.12" font-family="monospace" font-size="10.00">scc 2 | [3] %5 = getelementptr inbounds %struct.Node, ptr %.0, i32 0, i32 1</text>
</g>
<!-- n2&#45;&gt;n3 -->
<g id="edge5" class="edge">
<title>n2&#45;&gt;n3</title>
<path fill="none" stroke="blue" d="M266.73,-279.25C281.08,-279.25 296.03,-279.25 311.24,-279.25"/>
<polygon fill="blue" stroke="blue" points="310.84,-282.75 320.84,-279.25 310.84,-275.75 310.84,-282.75"/>
<text text-anchor="middle" x="294.5" y="-284.4" font-family="monospace" font-size="8.00">ctrl</text>
</g>
<!-- n4 -->
<g id="node4" class="node">
<title>n4</title>
<path fill="#caffbf" stroke="black" d="M776.5,-215.5C776.5,-215.5 472.5,-215.5 472.5,-215.5 466.5,-215.5 460.5,-209.5 460.5,-203.5 460.5,-203.5 460.5,-191.5 460.5,-191.5 460.5,-185.5 466.5,-179.5 472.5,-179.5 472.5,-179.5 776.5,-179.5 776.5,-179.5 782.5,-179.5 788.5,-185.5 788.5,-191.5 788.5,-191.5 788.5,-203.5 788.5,-203.5 788.5,-209.5 782.5,-215.5 776.5,-215.5"/>
<text text-anchor="middle" x="624.5" y="-194.38" font-family="monospace" font-size="10.00">scc 2 | [4] %6 = load ptr, ptr %5, align 8, !tbaa !5</text>
</g>
<!-- n2&#45;&gt;n4 -->
<g id="edge6" class="edge">
<title>n2&#45;&gt;n4</title>
<path fill="none" stroke="blue" d="M175.8,-260.84C198.15,-251.18 227.39,-239.87 254.5,-233.5 337.93,-213.89 361.17,-223.57 446.5,-215.5 447.34,-215.42 448.18,-215.34 449.02,-215.26"/>
<polygon fill="blue" stroke="blue" points="448.98,-218.78 458.6,-214.35 448.32,-211.81 448.98,-218.78"/>
<text text-anchor="middle" x="263.5" y="-235.65" font-family="monospace" font-size="8.00">ctrl</text>
</g>
<!-- n5 -->
<g id="node5" class="node">
<title>n5</title>
<path fill="#caffbf" stroke="black" d="M689.5,-52C689.5,-52 433.5,-52 433.5,-52 427.5,-52 421.5,-46 421.5,-40 421.5,-40 421.5,-28 421.5,-28 421.5,-22 427.5,-16 433.5,-16 433.5,-16 689.5,-16 689.5,-16 695.5,-16 701.5,-22 701.5,-28 701.5,-28 701.5,-40 701.5,-40 701.5,-46 695.5,-52 689.5,-52"/>
<text text-anchor="middle" x="561.5" y="-30.88" font-family="monospace" font-size="10.00">scc 2 | [5] call void @free(ptr noundef %.0)</text>
</g>
<!-- n2&#45;&gt;n5 -->
<g id="edge7" class="edge">
<title>n2&#45;&gt;n5</title>
<path fill="none" stroke="blue" d="M81.31,-260.78C34.65,-243.51 -19.48,-214.63 7.5,-179.5 56.28,-115.97 263.24,-75.16 409.86,-53.64"/>
<polygon fill="blue" stroke="blue" points="410.3,-57.11 419.69,-52.21 409.29,-50.18 410.3,-57.11"/>
<text text-anchor="middle" x="47.47" y="-153.9" font-family="monospace" font-size="8.00">ctrl</text>
</g>
<!-- n6 -->
<g id="node7" class="node">
<title>n6</title>
<path fill="#ffadad" stroke="black" d="M254.5,-215.5C254.5,-215.5 28.5,-215.5 28.5,-215.5 22.5,-215.5 16.5,-209.5 16.5,-203.5 16.5,-203.5 16.5,-191.5 16.5,-191.5 16.5,-185.5 22.5,-179.5 28.5,-179.5 28.5,-179.5 254.5,-179.5 254.5,-179.5 260.5,-179.5 266.5,-185.5 266.5,-191.5 266.5,-191.5 266.5,-203.5 266.5,-203.5 266.5,-209.5 260.5,-215.5 254.5,-215.5"/>
<text text-anchor="middle" x="141.5" y="-194.38" font-family="monospace" font-size="10.00">scc 3 | [6] br label %2, !llvm.loop !11</text>
</g>
<!-- n2&#45;&gt;n6 -->
<g id="edge8" class="edge">
<title>n2&#45;&gt;n6</title>
<path fill="none" stroke="blue" d="M139.15,-260.95C139.52,-251.02 140,-238.31 140.43,-226.95"/>
<polygon fill="blue" stroke="blue" points="143.91,-227.41 140.79,-217.28 136.92,-227.14 143.91,-227.41"/>
<text text-anchor="middle" x="149.18" y="-235.65" font-family="monospace" font-size="8.00">ctrl</text>
</g>
<!-- n1 -->
<g id="node2" class="node">
<title>n1</title>
<path fill="#a0c4ff" stroke="black" d="M326.5,-401.5C326.5,-401.5 106.5,-401.5 106.5,-401.5 100.5,-401.5 94.5,-395.5 94.5,-389.5 94.5,-389.5 94.5,-377.5 94.5,-377.5 94.5,-371.5 100.5,-365.5 106.5,-365.5 106.5,-365.5 326.5,-365.5 326.5,-365.5 332.5,-365.5 338.5,-371.5 338.5,-377.5 338.5,-377.5 338.5,-389.5 338.5,-389.5 338.5,-395.5 332.5,-401.5 326.5,-401.5"/>
<text text-anchor="middle" x="216.5" y="-380.38" font-family="monospace" font-size="10.00">scc 1 | [1] %3 = icmp ne ptr %.0, null</text>
</g>
<!-- n1&#45;&gt;n2 -->
<g id="edge4" class="edge">
<title>n1&#45;&gt;n2</title>
<path fill="none" stroke="black" d="M203.27,-365.15C191.05,-349.14 172.73,-325.13 158.69,-306.72"/>
<polygon fill="black" stroke="black" points="161.56,-304.71 152.71,-298.88 155.99,-308.96 161.56,-304.71"/>
<text text-anchor="middle" x="198.04" y="-339.9" font-family="monospace" font-size="8.00">data</text>
</g>
<!-- n3&#45;&gt;n4 -->
<g id="edge9" class="edge">
<title>n3&#45;&gt;n4</title>
<path fill="none" stroke="black" d="M570.47,-260.95C579.69,-250.29 591.69,-236.42 602.04,-224.46"/>
<polygon fill="black" stroke="black" points="604.67,-226.77 608.56,-216.92 599.37,-222.19 604.67,-226.77"/>
<text text-anchor="middle" x="603.13" y="-235.65" font-family="monospace" font-size="8.00">data</text>
</g>
<!-- n4&#45;&gt;n5 -->
<g id="edge11" class="edge">
<title>n4&#45;&gt;n5</title>
<path fill="none" stroke="red" d="M649.46,-179.33C655.88,-174.12 662.4,-168.03 667.5,-161.5 685.29,-138.71 686.78,-125.98 680.5,-97.75 677.54,-84.46 677.68,-79.04 667.5,-70 661.99,-65.12 655.79,-60.91 649.22,-57.29"/>
<polygon fill="red" stroke="red" points="651.23,-54.38 640.72,-53.07 648.12,-60.65 651.23,-54.38"/>
<text text-anchor="middle" x="690.62" y="-113.03" font-family="monospace" font-size="8.00">mem</text>
</g>
<!-- n0 -->
<g id="node6" class="node">
<title>n0</title>
<path fill="#caffbf" stroke="black" d="M614.5,-133.75C614.5,-133.75 334.5,-133.75 334.5,-133.75 328.5,-133.75 322.5,-127.75 322.5,-121.75 322.5,-121.75 322.5,-109.75 322.5,-109.75 322.5,-103.75 328.5,-97.75 334.5,-97.75 334.5,-97.75 614.5,-97.75 614.5,-97.75 620.5,-97.75 626.5,-103.75 626.5,-109.75 626.5,-109.75 626.5,-121.75 626.5,-121.75 626.5,-127.75 620.5,-133.75 614.5,-133.75"/>
<text text-anchor="middle" x="474.5" y="-112.62" font-family="monospace" font-size="10.00">scc 2 | [0] %.0 = phi ptr [ %0, %1 ], [ %6, %4 ]</text>
</g>
<!-- n4&#45;&gt;n0 -->
<g id="edge10" class="edge">
<title>n4&#45;&gt;n0</title>
<path fill="none" stroke="black" stroke-dasharray="5,2" d="M591.95,-179.2C570.11,-167.58 541.1,-152.16 517.38,-139.55"/>
<polygon fill="black" stroke="black" points="519.05,-136.47 508.58,-134.87 515.76,-142.65 519.05,-136.47"/>
<text text-anchor="middle" x="569.73" y="-153.9" font-family="monospace" font-size="8.00">data*</text>
</g>
<!-- n5&#45;&gt;n4 -->
<g id="edge12" class="edge">
<title>n5&#45;&gt;n4</title>
<path fill="none" stroke="red" d="M592.85,-52.47C608.8,-63.24 626.65,-78.64 635.5,-97.75 645.79,-119.97 641.29,-147.9 635.23,-168.39"/>
<polygon fill="red" stroke="red" points="631.95,-167.17 632.16,-177.76 638.6,-169.35 631.95,-167.17"/>
<text text-anchor="middle" x="648.37" y="-113.03" font-family="monospace" font-size="8.00">mem</text>
</g>
<!-- n0&#45;&gt;n1 -->
<g id="edge3" class="edge">
<title>n0&#45;&gt;n1</title>
<path fill="none" stroke="black" d="M454.5,-134.13C448.09,-139.73 440.98,-145.98 434.5,-151.75 380.31,-199.97 358.59,-204.44 313.5,-261.25 291.85,-288.52 297.22,-302.55 275.5,-329.75 267.49,-339.78 257.47,-349.51 247.97,-357.83"/>
<polygon fill="black" stroke="black" points="245.99,-354.92 240.63,-364.06 250.52,-360.26 245.99,-354.92"/>
<text text-anchor="middle" x="346.31" y="-235.65" font-family="monospace" font-size="8.00">data</text>
</g>
<!-- n0&#45;&gt;n3 -->
<g id="edge2" class="edge">
<title>n0&#45;&gt;n3</title>
<path fill="none" stroke="black" d="M457.85,-133.93C440.26,-154.26 417.16,-188.72 433.5,-215.5 444.54,-233.6 462.65,-246.69 481.58,-256.08"/>
<polygon fill="black" stroke="black" points="479.91,-259.16 490.45,-260.16 482.83,-252.8 479.91,-259.16"/>
<text text-anchor="middle" x="442.5" y="-194.78" font-family="monospace" font-size="8.00">data</text>
</g>
<!-- n0&#45;&gt;n5 -->
<g id="edge1" class="edge">
<title>n0&#45;&gt;n5</title>
<path fill="none" stroke="black" d="M493.37,-97.45C505.35,-86.47 521.03,-72.1 534.32,-59.91"/>
<polygon fill="black" stroke="black" points="536.53,-62.63 541.54,-53.29 531.8,-57.47 536.53,-62.63"/>
<text text-anchor="middle" x="532.21" y="-72.15" font-family="monospace" font-size="8.00">data</text>
</g>
</g>
</svg>
