<?xml version="1.0" encoding="UTF-8" standalone="no"?>
<!DOCTYPE svg PUBLIC "-//W3C//DTD SVG 1.1//EN"
 "http://www.w3.org/Graphics/SVG/1.1/DTD/svg11.dtd">
<!-- Generated by graphviz version 12.2.1 (20241206.2353)
 -->
<!-- Title: partition_max_list:0 Pages: 1 -->
<svg width="300pt" height="330pt"
 viewBox="0.00 0.00 300.00 330.25" xmlns="http://www.w3.org/2000/svg" xmlns:xlink="http://www.w3.org/1999/xlink">
<g id="graph0" class="graph" transform="scale(1 1) rotate(0) translate(4 326.25)">
<title>partition_max_list:0</title>
<polygon fill="white" stroke="none" points="-4,4 -4,-326.25 296,-326.25 296,4 -4,4"/>
<!-- scc0 -->
<g id="node1" class="node">
<title>scc0</title>
<path fill="#ffadad" stroke="black" d="M94,-46.25C94,-46.25 12,-46.25 12,-46.25 6,-46.25 0,-40.25 0,-34.25 0,-34.25 0,-12 0,-12 0,-6 6,0 12,0 12,0 94,0 94,0 100,0 106,-6 106,-12 106,-12 106,-34.25 106,-34.25 106,-40.25 100,-46.25 94,-46.25"/>
<text text-anchor="middle" x="53" y="-32.75" font-family="monospace" font-size="10.00">SCC 0 (cyclic)</text>
<text text-anchor="middle" x="53" y="-20" font-family="monospace" font-size="10.00">3 insts, cost=2</text>
<text text-anchor="middle" x="53" y="-7.25" font-family="monospace" font-size="10.00">stage 1</text>
</g>
<!-- scc1 -->
<g id="node2" class="node">
<title>scc1</title>
<path fill="#ffadad" stroke="black" d="M94,-138.25C94,-138.25 12,-138.25 12,-138.25 6,-138.25 0,-132.25 0,-126.25 0,-126.25 0,-104 0,-104 0,-98 6,-92 12,-92 12,-92 94,-92 94,-92 100,-92 106,-98 106,-104 106,-104 106,-126.25 106,-126.25 106,-132.25 100,-138.25 94,-138.25"/>
<text text-anchor="middle" x="53" y="-124.75" font-family="monospace" font-size="10.00">SCC 1</text>
<text text-anchor="middle" x="53" y="-112" font-family="monospace" font-size="10.00">1 insts, cost=4</text>
<text text-anchor="middle" x="53" y="-99.25" font-family="monospace" font-size="10.00">stage 1</text>
</g>
<!-- scc1&#45;&gt;scc0 -->
<g id="edge1" class="edge">
<title>scc1&#45;&gt;scc0</title>
<path fill="none" stroke="#666666" d="M53,-91.88C53,-81.68 53,-69.36 53,-58.04"/>
<polygon fill="#666666" stroke="#666666" points="56.5,-58.25 53,-48.25 49.5,-58.25 56.5,-58.25"/>
<text text-anchor="middle" x="59.75" y="-66.4" font-family="monospace" font-size="8.00">dx2</text>
</g>
<!-- scc2 -->
<g id="node3" class="node">
<title>scc2</title>
<path fill="#a0c4ff" stroke="black" d="M94,-230.25C94,-230.25 12,-230.25 12,-230.25 6,-230.25 0,-224.25 0,-218.25 0,-218.25 0,-196 0,-196 0,-190 6,-184 12,-184 12,-184 94,-184 94,-184 100,-184 106,-190 106,-196 106,-196 106,-218.25 106,-218.25 106,-224.25 100,-230.25 94,-230.25"/>
<text text-anchor="middle" x="53" y="-216.75" font-family="monospace" font-size="10.00">SCC 2</text>
<text text-anchor="middle" x="53" y="-204" font-family="monospace" font-size="10.00">1 insts, cost=1</text>
<text text-anchor="middle" x="53" y="-191.25" font-family="monospace" font-size="10.00">stage 0</text>
</g>
<!-- scc2&#45;&gt;scc1 -->
<g id="edge2" class="edge">
<title>scc2&#45;&gt;scc1</title>
<path fill="none" stroke="darkgreen" stroke-width="2" d="M53,-183.88C53,-174.11 53,-162.4 53,-151.48"/>
<polygon fill="darkgreen" stroke="darkgreen" stroke-width="2" points="56.5,-151.77 53,-141.77 49.5,-151.77 56.5,-151.77"/>
<text text-anchor="middle" x="55.25" y="-158.4" font-family="monospace" font-size="8.00">d</text>
</g>
<!-- scc3 -->
<g id="node4" class="node">
<title>scc3</title>
<path fill="#ffadad" stroke="black" d="M218,-138.25C218,-138.25 136,-138.25 136,-138.25 130,-138.25 124,-132.25 124,-126.25 124,-126.25 124,-104 124,-104 124,-98 130,-92 136,-92 136,-92 218,-92 218,-92 224,-92 230,-98 230,-104 230,-104 230,-126.25 230,-126.25 230,-132.25 224,-138.25 218,-138.25"/>
<text text-anchor="middle" x="177" y="-124.75" font-family="monospace" font-size="10.00">SCC 3</text>
<text text-anchor="middle" x="177" y="-112" font-family="monospace" font-size="10.00">1 insts, cost=1</text>
<text text-anchor="middle" x="177" y="-99.25" font-family="monospace" font-size="10.00">stage 1</text>
</g>
<!-- scc4 -->
<g id="node5" class="node">
<title>scc4</title>
<path fill="#ffadad" stroke="black" d="M218,-230.25C218,-230.25 136,-230.25 136,-230.25 130,-230.25 124,-224.25 124,-218.25 124,-218.25 124,-196 124,-196 124,-190 130,-184 136,-184 136,-184 218,-184 218,-184 224,-184 230,-190 230,-196 230,-196 230,-218.25 230,-218.25 230,-224.25 224,-230.25 218,-230.25"/>
<text text-anchor="middle" x="177" y="-216.75" font-family="monospace" font-size="10.00">SCC 4</text>
<text text-anchor="middle" x="177" y="-204" font-family="monospace" font-size="10.00">1 insts, cost=1</text>
<text text-anchor="middle" x="177" y="-191.25" font-family="monospace" font-size="10.00">stage 1</text>
</g>
<!-- scc4&#45;&gt;scc3 -->
<g id="edge3" class="edge">
<title>scc4&#45;&gt;scc3</title>
<path fill="none" stroke="#666666" d="M177,-183.88C177,-173.68 177,-161.36 177,-150.04"/>
<polygon fill="#666666" stroke="#666666" points="180.5,-150.25 177,-140.25 173.5,-150.25 180.5,-150.25"/>
<text text-anchor="middle" x="179.25" y="-158.4" font-family="monospace" font-size="8.00">d</text>
</g>
<!-- scc5 -->
<g id="node6" class="node">
<title>scc5</title>
<path fill="#a0c4ff" stroke="black" d="M156,-322.25C156,-322.25 74,-322.25 74,-322.25 68,-322.25 62,-316.25 62,-310.25 62,-310.25 62,-288 62,-288 62,-282 68,-276 74,-276 74,-276 156,-276 156,-276 162,-276 168,-282 168,-288 168,-288 168,-310.25 168,-310.25 168,-316.25 162,-322.25 156,-322.25"/>
<text text-anchor="middle" x="115" y="-308.75" font-family="monospace" font-size="10.00">SCC 5 (cyclic)</text>
<text text-anchor="middle" x="115" y="-296" font-family="monospace" font-size="10.00">3 insts, cost=5</text>
<text text-anchor="middle" x="115" y="-283.25" font-family="monospace" font-size="10.00">stage 0</text>
</g>
<!-- scc5&#45;&gt;scc2 -->
<g id="edge4" class="edge">
<title>scc5&#45;&gt;scc2</title>
<path fill="none" stroke="#666666" d="M99.67,-275.88C92.2,-265.03 83.09,-251.8 74.9,-239.91"/>
<polygon fill="#666666" stroke="#666666" points="77.99,-238.24 69.44,-231.99 72.23,-242.21 77.99,-238.24"/>
<text text-anchor="middle" x="88.11" y="-250.4" font-family="monospace" font-size="8.00">d</text>
</g>
<!-- scc5&#45;&gt;scc4 -->
<g id="edge5" class="edge">
<title>scc5&#45;&gt;scc4</title>
<path fill="none" stroke="darkgreen" stroke-width="2" d="M130.33,-275.88C137.5,-265.46 146.19,-252.84 154.12,-241.33"/>
<polygon fill="darkgreen" stroke="darkgreen" stroke-width="2" points="156.91,-243.45 159.7,-233.23 151.15,-239.48 156.91,-243.45"/>
<text text-anchor="middle" x="150.11" y="-250.4" font-family="monospace" font-size="8.00">d</text>
</g>
<!-- scc6 -->
<g id="node7" class="node">
<title>scc6</title>
<path fill="#a0c4ff" stroke="black" d="M280,-322.25C280,-322.25 198,-322.25 198,-322.25 192,-322.25 186,-316.25 186,-310.25 186,-310.25 186,-288 186,-288 186,-282 192,-276 198,-276 198,-276 280,-276 280,-276 286,-276 292,-282 292,-288 292,-288 292,-310.25 292,-310.25 292,-316.25 286,-322.25 280,-322.25"/>
<text text-anchor="middle" x="239" y="-308.75" font-family="monospace" font-size="10.00">SCC 6</text>
<text text-anchor="middle" x="239" y="-296" font-family="monospace" font-size="10.00">1 insts, cost=1</text>
<text text-anchor="middle" x="239" y="-283.25" font-family="monospace" font-size="10.00">stage 0</text>
</g>
</g>
</svg>
