<?xml version="1.0" encoding="UTF-8" standalone="no"?>
<!DOCTYPE svg PUBLIC "-//W3C//DTD SVG 1.1//EN"
 "http://www.w3.org/Graphics/SVG/1.1/DTD/svg11.dtd">
<!-- Generated by graphviz version 12.2.1 (20241206.2353)
 -->
<!-- Title: max_list:0 Pages: 1 -->
<svg width="1378pt" height="614pt"
 viewBox="0.00 0.00 1378.00 613.50" xmlns="http://www.w3.org/2000/svg" xmlns:xlink="http://www.w3.org/1999/xlink">
<g id="graph0" class="graph" transform="scale(1 1) rotate(0) translate(4 609.5)">
<title>max_list:0</title>
<polygon fill="white" stroke="none" points="-4,4 -4,-609.5 1374,-609.5 1374,4 -4,4"/>
<g id="clust1" class="cluster">
<title>cluster_scc0</title>
<path fill="none" stroke="#7f7f7f" stroke-dasharray="5,2" d="M658,-8C658,-8 1062,-8 1062,-8 1068,-8 1074,-14 1074,-20 1074,-20 1074,-236 1074,-236 1074,-242 1068,-248 1062,-248 1062,-248 658,-248 658,-248 652,-248 646,-242 646,-236 646,-236 646,-20 646,-20 646,-14 652,-8 658,-8"/>
<text text-anchor="middle" x="860" y="-230.7" font-family="Times,serif" font-size="14.00">SCC 0 (cyclic, 3 insts)</text>
</g>
<g id="clust2" class="cluster">
<title>cluster_scc5</title>
<path fill="none" stroke="#7f7f7f" stroke-dasharray="5,2" d="M20,-357.5C20,-357.5 478,-357.5 478,-357.5 484,-357.5 490,-363.5 490,-369.5 490,-369.5 490,-585.5 490,-585.5 490,-591.5 484,-597.5 478,-597.5 478,-597.5 20,-597.5 20,-597.5 14,-597.5 8,-591.5 8,-585.5 8,-585.5 8,-369.5 8,-369.5 8,-363.5 14,-357.5 20,-357.5"/>
<text text-anchor="middle" x="249" y="-580.2" font-family="Times,serif" font-size="14.00">SCC 5 (cyclic, 3 insts)</text>
</g>
<!-- n6 -->
<g id="node1" class="node">
<title>n6</title>
<path fill="#ffd6a5" stroke="black" d="M1054,-215.5C1054,-215.5 834,-215.5 834,-215.5 828,-215.5 822,-209.5 822,-203.5 822,-203.5 822,-191.5 822,-191.5 822,-185.5 828,-179.5 834,-179.5 834,-179.5 1054,-179.5 1054,-179.5 1060,-179.5 1066,-185.5 1066,-191.5 1066,-191.5 1066,-203.5 1066,-203.5 1066,-209.5 1060,-215.5 1054,-215.5"/>
<text text-anchor="middle" x="944" y="-194.38" font-family="monospace" font-size="10.00">scc 0 | [6] %7 = icmp sgt i64 %6, %.01</text>
</g>
<!-- n7 -->
<g id="node2" class="node">
<title>n7</title>
<path fill="#ffd6a5" stroke="black" d="M1000,-133.75C1000,-133.75 666,-133.75 666,-133.75 660,-133.75 654,-127.75 654,-121.75 654,-121.75 654,-109.75 654,-109.75 654,-103.75 660,-97.75 666,-97.75 666,-97.75 1000,-97.75 1000,-97.75 1006,-97.75 1012,-103.75 1012,-109.75 1012,-109.75 1012,-121.75 1012,-121.75 1012,-127.75 1006,-133.75 1000,-133.75"/>
<text text-anchor="middle" x="833" y="-112.62" font-family="monospace" font-size="10.00">scc 0 | [7] %spec.select = select i1 %7, i64 %6, i64 %.01</text>
</g>
<!-- n6&#45;&gt;n7 -->
<g id="edge17" class="edge">
<title>n6&#45;&gt;n7</title>
<path fill="none" stroke="black" d="M919.91,-179.2C904.21,-167.91 883.49,-153.02 866.22,-140.62"/>
<polygon fill="black" stroke="black" points="868.43,-137.9 858.27,-134.9 864.35,-143.58 868.43,-137.9"/>
<text text-anchor="middle" x="904.15" y="-153.9" font-family="monospace" font-size="8.00">data</text>
</g>
<!-- n0 -->
<g id="node3" class="node">
<title>n0</title>
<path fill="#ffd6a5" stroke="black" d="M1052,-52C1052,-52 706,-52 706,-52 700,-52 694,-46 694,-40 694,-40 694,-28 694,-28 694,-22 700,-16 706,-16 706,-16 1052,-16 1052,-16 1058,-16 1064,-22 1064,-28 1064,-28 1064,-40 1064,-40 1064,-46 1058,-52 1052,-52"/>
<text text-anchor="middle" x="879" y="-30.88" font-family="monospace" font-size="10.00">scc 0 | [0] %.01 = phi i64 [ &#45;1, %1 ], [ %spec.select, %4 ]</text>
</g>
<!-- n7&#45;&gt;n0 -->
<g id="edge18" class="edge">
<title>n7&#45;&gt;n0</title>
<path fill="none" stroke="black" stroke-dasharray="5,2" d="M828.03,-97.32C826.53,-88.67 826.25,-78.31 830.5,-70 832.41,-66.27 834.92,-62.84 837.8,-59.72"/>
<polygon fill="black" stroke="black" points="839.95,-62.49 845,-53.18 835.24,-57.32 839.95,-62.49"/>
<text text-anchor="middle" x="841.75" y="-72.15" font-family="monospace" font-size="8.00">data*</text>
</g>
<!-- n0&#45;&gt;n6 -->
<g id="edge2" class="edge">
<title>n0&#45;&gt;n6</title>
<path fill="none" stroke="black" d="M959.52,-52.49C983.38,-61.83 1006.88,-76.07 1021,-97.75 1038.46,-124.56 1010.41,-153.17 983.39,-172.66"/>
<polygon fill="black" stroke="black" points="981.46,-169.74 975.21,-178.3 985.43,-175.51 981.46,-169.74"/>
<text text-anchor="middle" x="1035.41" y="-113.03" font-family="monospace" font-size="8.00">data</text>
</g>
<!-- n0&#45;&gt;n7 -->
<g id="edge1" class="edge">
<title>n0&#45;&gt;n7</title>
<path fill="none" stroke="black" d="M871.21,-52.3C867.23,-60.73 862.16,-70.93 857,-79.75 855.45,-82.4 853.77,-85.12 852.04,-87.81"/>
<polygon fill="black" stroke="black" points="849.2,-85.75 846.56,-96.01 855.02,-89.64 849.2,-85.75"/>
<text text-anchor="middle" x="871.3" y="-72.15" font-family="monospace" font-size="8.00">data</text>
</g>
<!-- n5 -->
<g id="node4" class="node">
<title>n5</title>
<path fill="#a0c4ff" stroke="black" d="M985,-319.75C985,-319.75 681,-319.75 681,-319.75 675,-319.75 669,-313.75 669,-307.75 669,-307.75 669,-295.75 669,-295.75 669,-289.75 675,-283.75 681,-283.75 681,-283.75 985,-283.75 985,-283.75 991,-283.75 997,-289.75 997,-295.75 997,-295.75 997,-307.75 997,-307.75 997,-313.75 991,-319.75 985,-319.75"/>
<text text-anchor="middle" x="833" y="-298.62" font-family="monospace" font-size="10.00">scc 1 | [5] %6 = load i64, ptr %5, align 8, !tbaa !5</text>
</g>
<!-- n5&#45;&gt;n6 -->
<g id="edge16" class="edge">
<title>n5&#45;&gt;n6</title>
<path fill="none" stroke="black" d="M851.83,-283.4C869.61,-267.03 896.48,-242.27 916.63,-223.72"/>
<polygon fill="black" stroke="black" points="918.98,-226.31 923.96,-216.96 914.24,-221.16 918.98,-226.31"/>
<text text-anchor="middle" x="887.56" y="-258.15" font-family="monospace" font-size="8.00">data</text>
</g>
<!-- n5&#45;&gt;n7 -->
<g id="edge15" class="edge">
<title>n5&#45;&gt;n7</title>
<path fill="none" stroke="black" d="M816.14,-283.29C808.06,-273.7 799.23,-261.1 795,-248 785.65,-219.03 786.81,-208.82 795,-179.5 798.53,-166.86 805.38,-154.22 812.3,-143.64"/>
<polygon fill="black" stroke="black" points="815.17,-145.65 817.99,-135.43 809.41,-141.66 815.17,-145.65"/>
<text text-anchor="middle" x="804" y="-194.78" font-family="monospace" font-size="8.00">data</text>
</g>
<!-- n4 -->
<g id="node5" class="node">
<title>n4</title>
<path fill="#caffbf" stroke="black" d="M992,-401.5C992,-401.5 550,-401.5 550,-401.5 544,-401.5 538,-395.5 538,-389.5 538,-389.5 538,-377.5 538,-377.5 538,-371.5 544,-365.5 550,-365.5 550,-365.5 992,-365.5 992,-365.5 998,-365.5 1004,-371.5 1004,-377.5 1004,-377.5 1004,-389.5 1004,-389.5 1004,-395.5 998,-401.5 992,-401.5"/>
<text text-anchor="middle" x="771" y="-380.38" font-family="monospace" font-size="10.00">scc 2 | [4] %5 = getelementptr inbounds %struct.Node, ptr %.0, i32 0, i32 0</text>
</g>
<!-- n4&#45;&gt;n5 -->
<g id="edge14" class="edge">
<title>n4&#45;&gt;n5</title>
<path fill="none" stroke="black" d="M784.45,-365.2C792.66,-354.64 803.31,-340.94 812.55,-329.06"/>
<polygon fill="black" stroke="black" points="815.27,-331.26 818.64,-321.22 809.74,-326.96 815.27,-331.26"/>
<text text-anchor="middle" x="814.71" y="-339.9" font-family="monospace" font-size="8.00">data</text>
</g>
<!-- n3 -->
<g id="node6" class="node">
<title>n3</title>
<path fill="#ffadad" stroke="black" d="M785,-483.25C785,-483.25 547,-483.25 547,-483.25 541,-483.25 535,-477.25 535,-471.25 535,-471.25 535,-459.25 535,-459.25 535,-453.25 541,-447.25 547,-447.25 547,-447.25 785,-447.25 785,-447.25 791,-447.25 797,-453.25 797,-459.25 797,-459.25 797,-471.25 797,-471.25 797,-477.25 791,-483.25 785,-483.25"/>
<text text-anchor="middle" x="666" y="-462.12" font-family="monospace" font-size="10.00">scc 3 | [3] br i1 %3, label %4, label %10</text>
</g>
<!-- n3&#45;&gt;n6 -->
<g id="edge9" class="edge">
<title>n3&#45;&gt;n6</title>
<path fill="none" stroke="blue" d="M797.29,-462.55C895.89,-457.84 1018.2,-443.42 1044,-401.5 1081.68,-340.28 1014.4,-262.86 972.96,-223.68"/>
<polygon fill="blue" stroke="blue" points="975.39,-221.16 965.67,-216.95 970.64,-226.3 975.39,-221.16"/>
<text text-anchor="middle" x="1062.84" y="-339.9" font-family="monospace" font-size="8.00">ctrl</text>
</g>
<!-- n3&#45;&gt;n7 -->
<g id="edge10" class="edge">
<title>n3&#45;&gt;n7</title>
<path fill="none" stroke="blue" d="M566.76,-446.91C535.99,-435.41 510,-416.29 510,-384.5 510,-384.5 510,-384.5 510,-196.5 510,-164.01 572.36,-144.68 642.28,-133.21"/>
<polygon fill="blue" stroke="blue" points="642.72,-136.68 652.06,-131.67 641.64,-129.77 642.72,-136.68"/>
<text text-anchor="middle" x="519" y="-299.02" font-family="monospace" font-size="8.00">ctrl</text>
</g>
<!-- n3&#45;&gt;n5 -->
<g id="edge8" class="edge">
<title>n3&#45;&gt;n5</title>
<path fill="none" stroke="blue" d="M797.33,-457.61C883.6,-450.18 985.43,-434.51 1013,-401.5 1025.54,-386.49 1024.64,-373.21 1013,-357.5 1002.63,-343.51 988.77,-332.97 973.33,-325.05"/>
<polygon fill="blue" stroke="blue" points="974.88,-321.91 964.34,-320.86 971.92,-328.26 974.88,-321.91"/>
<text text-anchor="middle" x="1031.07" y="-380.77" font-family="monospace" font-size="8.00">ctrl</text>
</g>
<!-- n3&#45;&gt;n4 -->
<g id="edge7" class="edge">
<title>n3&#45;&gt;n4</title>
<path fill="none" stroke="blue" d="M688.78,-446.95C703.51,-435.76 722.88,-421.05 739.12,-408.71"/>
<polygon fill="blue" stroke="blue" points="741.21,-411.52 747.06,-402.69 736.98,-405.95 741.21,-411.52"/>
<text text-anchor="middle" x="733.79" y="-421.65" font-family="monospace" font-size="8.00">ctrl</text>
</g>
<!-- n9 -->
<g id="node8" class="node">
<title>n9</title>
<path fill="#fdffb6" stroke="black" d="M470,-565C470,-565 160,-565 160,-565 154,-565 148,-559 148,-553 148,-553 148,-541 148,-541 148,-535 154,-529 160,-529 160,-529 470,-529 470,-529 476,-529 482,-535 482,-541 482,-541 482,-553 482,-553 482,-559 476,-565 470,-565"/>
<text text-anchor="middle" x="315" y="-543.88" font-family="monospace" font-size="10.00">scc 5 | [9] %9 = load ptr, ptr %8, align 8, !tbaa !11</text>
</g>
<!-- n3&#45;&gt;n9 -->
<g id="edge12" class="edge">
<title>n3&#45;&gt;n9</title>
<path fill="none" stroke="blue" d="M544.13,-483.72C515.4,-488.65 484.99,-494.53 457,-501.25 429.85,-507.77 400.33,-516.75 375.28,-524.96"/>
<polygon fill="blue" stroke="blue" points="374.3,-521.6 365.91,-528.07 376.5,-528.24 374.3,-521.6"/>
<text text-anchor="middle" x="466" y="-503.4" font-family="monospace" font-size="8.00">ctrl</text>
</g>
<!-- n8 -->
<g id="node9" class="node">
<title>n8</title>
<path fill="#fdffb6" stroke="black" d="M470,-401.5C470,-401.5 28,-401.5 28,-401.5 22,-401.5 16,-395.5 16,-389.5 16,-389.5 16,-377.5 16,-377.5 16,-371.5 22,-365.5 28,-365.5 28,-365.5 470,-365.5 470,-365.5 476,-365.5 482,-371.5 482,-377.5 482,-377.5 482,-389.5 482,-389.5 482,-395.5 476,-401.5 470,-401.5"/>
<text text-anchor="middle" x="249" y="-380.38" font-family="monospace" font-size="10.00">scc 5 | [8] %8 = getelementptr inbounds %struct.Node, ptr %.0, i32 0, i32 1</text>
</g>
<!-- n3&#45;&gt;n8 -->
<g id="edge11" class="edge">
<title>n3&#45;&gt;n8</title>
<path fill="none" stroke="blue" d="M534.54,-448.66C496.76,-443.38 455.61,-436.86 418,-429.25 385.15,-422.61 349.19,-413.37 318.92,-405.01"/>
<polygon fill="blue" stroke="blue" points="320.07,-401.69 309.49,-402.38 318.19,-408.44 320.07,-401.69"/>
<text text-anchor="middle" x="427" y="-421.65" font-family="monospace" font-size="8.00">ctrl</text>
</g>
<!-- n10 -->
<g id="node11" class="node">
<title>n10</title>
<path fill="#9bf6ff" stroke="black" d="M1358,-401.5C1358,-401.5 1126,-401.5 1126,-401.5 1120,-401.5 1114,-395.5 1114,-389.5 1114,-389.5 1114,-377.5 1114,-377.5 1114,-371.5 1120,-365.5 1126,-365.5 1126,-365.5 1358,-365.5 1358,-365.5 1364,-365.5 1370,-371.5 1370,-377.5 1370,-377.5 1370,-389.5 1370,-389.5 1370,-395.5 1364,-401.5 1358,-401.5"/>
<text text-anchor="middle" x="1242" y="-380.38" font-family="monospace" font-size="10.00">scc 6 | [10] br label %2, !llvm.loop !12</text>
</g>
<!-- n3&#45;&gt;n10 -->
<g id="edge13" class="edge">
<title>n3&#45;&gt;n10</title>
<path fill="none" stroke="blue" d="M797.13,-461.34C883.78,-457.54 999.47,-448.88 1100,-429.25 1128.63,-423.66 1159.62,-414.3 1185.33,-405.58"/>
<polygon fill="blue" stroke="blue" points="1186.25,-408.96 1194.56,-402.39 1183.97,-402.34 1186.25,-408.96"/>
<text text-anchor="middle" x="1148.71" y="-421.65" font-family="monospace" font-size="8.00">ctrl</text>
</g>
<!-- n2 -->
<g id="node7" class="node">
<title>n2</title>
<path fill="#bdb2ff" stroke="black" d="M754,-565C754,-565 534,-565 534,-565 528,-565 522,-559 522,-553 522,-553 522,-541 522,-541 522,-535 528,-529 534,-529 534,-529 754,-529 754,-529 760,-529 766,-535 766,-541 766,-541 766,-553 766,-553 766,-559 760,-565 754,-565"/>
<text text-anchor="middle" x="644" y="-543.88" font-family="monospace" font-size="10.00">scc 4 | [2] %3 = icmp ne ptr %.0, null</text>
</g>
<!-- n2&#45;&gt;n3 -->
<g id="edge6" class="edge">
<title>n2&#45;&gt;n3</title>
<path fill="none" stroke="black" d="M648.77,-528.7C651.54,-518.66 655.09,-505.79 658.25,-494.34"/>
<polygon fill="black" stroke="black" points="661.55,-495.55 660.83,-484.98 654.8,-493.69 661.55,-495.55"/>
<text text-anchor="middle" x="665.32" y="-503.4" font-family="monospace" font-size="8.00">data</text>
</g>
<!-- n1 -->
<g id="node10" class="node">
<title>n1</title>
<path fill="#fdffb6" stroke="black" d="M470,-483.25C470,-483.25 190,-483.25 190,-483.25 184,-483.25 178,-477.25 178,-471.25 178,-471.25 178,-459.25 178,-459.25 178,-453.25 184,-447.25 190,-447.25 190,-447.25 470,-447.25 470,-447.25 476,-447.25 482,-453.25 482,-459.25 482,-459.25 482,-471.25 482,-471.25 482,-477.25 476,-483.25 470,-483.25"/>
<text text-anchor="middle" x="330" y="-462.12" font-family="monospace" font-size="10.00">scc 5 | [1] %.0 = phi ptr [ %0, %1 ], [ %9, %4 ]</text>
</g>
<!-- n9&#45;&gt;n1 -->
<g id="edge20" class="edge">
<title>n9&#45;&gt;n1</title>
<path fill="none" stroke="black" stroke-dasharray="5,2" d="M318.25,-528.7C320.12,-518.77 322.51,-506.06 324.65,-494.7"/>
<polygon fill="black" stroke="black" points="328.06,-495.48 326.47,-485.01 321.18,-494.19 328.06,-495.48"/>
<text text-anchor="middle" x="334.65" y="-503.4" font-family="monospace" font-size="8.00">data*</text>
</g>
<!-- n8&#45;&gt;n9 -->
<g id="edge19" class="edge">
<title>n8&#45;&gt;n9</title>
<path fill="none" stroke="black" d="M209.42,-401.97C173.4,-420.42 128.96,-451.21 151,-483.25 163.92,-502.03 183.28,-515.19 204.22,-524.41"/>
<polygon fill="black" stroke="black" points="202.62,-527.54 213.2,-528.06 205.26,-521.06 202.62,-527.54"/>
<text text-anchor="middle" x="160" y="-462.52" font-family="monospace" font-size="8.00">data</text>
</g>
<!-- n1&#45;&gt;n4 -->
<g id="edge4" class="edge">
<title>n1&#45;&gt;n4</title>
<path fill="none" stroke="black" d="M426.51,-446.8C496.43,-434.15 591,-417.05 663.37,-403.96"/>
<polygon fill="black" stroke="black" points="663.62,-407.48 672.84,-402.25 662.38,-400.59 663.62,-407.48"/>
<text text-anchor="middle" x="585.9" y="-421.65" font-family="monospace" font-size="8.00">data</text>
</g>
<!-- n1&#45;&gt;n2 -->
<g id="edge5" class="edge">
<title>n1&#45;&gt;n2</title>
<path fill="none" stroke="black" d="M406.69,-483.74C429.95,-489.18 455.56,-495.32 479,-501.25 509.23,-508.9 542.45,-517.81 571.1,-525.65"/>
<polygon fill="black" stroke="black" points="569.81,-528.93 580.38,-528.2 571.67,-522.18 569.81,-528.93"/>
<text text-anchor="middle" x="524.27" y="-503.4" font-family="monospace" font-size="8.00">data</text>
</g>
<!-- n1&#45;&gt;n8 -->
<g id="edge3" class="edge">
<title>n1&#45;&gt;n8</title>
<path fill="none" stroke="black" d="M312.42,-446.95C301.39,-436.08 286.96,-421.87 274.65,-409.76"/>
<polygon fill="black" stroke="black" points="277.2,-407.35 267.62,-402.83 272.29,-412.34 277.2,-407.35"/>
<text text-anchor="middle" x="303.35" y="-421.65" font-family="monospace" font-size="8.00">data</text>
</g>
</g>
</svg>
